M48
; DRILL file {KiCad 7.0.1} date Fri Jun 16 17:28:01 2023
; FORMAT={-:-/ absolute / metric / decimal}
; #@! TF.CreationDate,2023-06-16T17:28:01+02:00
; #@! TF.GenerationSoftware,Kicad,Pcbnew,7.0.1
; #@! TF.FileFunction,Plated,1,2,PTH
FMAT,2
METRIC
; #@! TA.AperFunction,Plated,PTH,ViaDrill
T1C0.600
; #@! TA.AperFunction,Plated,PTH,ComponentDrill
T2C0.750
; #@! TA.AperFunction,Plated,PTH,ViaDrill
T3C0.800
; #@! TA.AperFunction,Plated,PTH,ComponentDrill
T4C0.800
; #@! TA.AperFunction,Plated,PTH,ComponentDrill
T5C1.000
; #@! TA.AperFunction,Plated,PTH,ViaDrill
T6C1.200
; #@! TA.AperFunction,Plated,PTH,ComponentDrill
T7C1.320
; #@! TA.AperFunction,Plated,PTH,ComponentDrill
T8C2.500
%
G90
G05
T1
X141.88Y-73.91
X141.96Y-78.47
X155.51Y-108.11
X156.4Y-110.1
X156.92Y-108.49
X158.9Y-106.8
X159.5Y-108.8
X160.6Y-106.8
X167.025Y-81.85
X168.61Y-86.94
T2
X141.57Y-110.86
X143.25Y-110.86
X143.47Y-70.82
X144.91Y-110.86
X145.14Y-70.82
X146.87Y-70.82
X154.525Y-65.775
X156.195Y-65.775
X157.925Y-65.775
X162.86Y-65.7
X164.53Y-65.7
X166.26Y-65.7
T3
X131.37Y-106.58
X131.4Y-108.7
X141.3Y-96.1
X141.35Y-88.8
X141.4Y-98.275
X144.1Y-86.7
X146.2Y-87.25
X147.05Y-88.9
X159.23Y-81.41
X159.79Y-79.48
X160.425Y-64.025
X162.03Y-79.47
X162.53Y-61.4
X162.65Y-73.79
X162.65Y-76.09
X164.175Y-112.25
X164.6Y-61.39
X166.4Y-112.25
X166.65Y-61.4
X167.875Y-110.875
X171.8Y-94.05
T4
X143.41Y-88.8
X143.41Y-93.8
X146.355Y-90.6
X147.19Y-110.1
X149.065Y-90.6
X149.75Y-64.14
X149.75Y-71.76
X150.475Y-76.07
X150.475Y-86.23
X154.675Y-69.45
X154.675Y-77.07
X154.81Y-110.1
X156.8Y-91.555
X156.8Y-94.095
X156.8Y-96.635
X156.8Y-99.175
X156.8Y-101.715
X156.8Y-104.255
X156.8Y-106.795
X157.75Y-69.45
X157.75Y-77.07
X158.1Y-110.07
X160.46Y-62.29
X160.46Y-67.29
X161.39Y-96.28
X161.39Y-103.9
X163.1Y-110.07
X163.125Y-82.282
X163.125Y-84.782
X164.42Y-91.555
X164.42Y-94.095
X164.42Y-96.635
X164.42Y-99.175
X164.42Y-101.715
X164.42Y-104.255
X164.42Y-106.795
X164.64Y-70.13
X164.64Y-73.14
X164.64Y-76.14
X168.61Y-62.3
X168.61Y-67.3
X170.44Y-81.72
X170.44Y-91.88
X172.26Y-70.13
X172.26Y-73.14
X172.26Y-76.14
T5
X133.26Y-107.1
X135.8Y-107.1
X138.34Y-107.1
X143.9Y-61.75
X143.9Y-84.75
X144.23Y-97.13
X144.23Y-99.67
X144.23Y-102.21
X144.23Y-104.75
X146.44Y-84.75
X146.77Y-97.13
X146.77Y-99.67
X146.77Y-102.21
X146.77Y-104.75
X154.76Y-84.75
X157.3Y-61.75
X157.3Y-84.75
X171.8Y-96.575
X171.8Y-99.115
X171.8Y-101.655
X171.8Y-104.255
X171.8Y-106.795
T6
X138.55Y-110.4
T7
X135.05Y-66.8
X135.05Y-71.8
X135.05Y-76.835
X135.05Y-81.835
X135.05Y-86.935
X135.05Y-91.935
X135.05Y-96.95
X135.05Y-101.95
T8
X132.15Y-62.2
X132.15Y-111.9
X171.85Y-62.2
X171.85Y-111.9
T0
M30
