%TF.GenerationSoftware,KiCad,Pcbnew,7.0.1*%
%TF.CreationDate,2023-06-16T17:27:39+02:00*%
%TF.ProjectId,2Nrf_Node,324e7266-5f4e-46f6-9465-2e6b69636164,rev?*%
%TF.SameCoordinates,Original*%
%TF.FileFunction,Legend,Top*%
%TF.FilePolarity,Positive*%
%FSLAX46Y46*%
G04 Gerber Fmt 4.6, Leading zero omitted, Abs format (unit mm)*
G04 Created by KiCad (PCBNEW 7.0.1) date 2023-06-16 17:27:39*
%MOMM*%
%LPD*%
G01*
G04 APERTURE LIST*
%ADD10C,0.200000*%
%ADD11C,0.700000*%
%ADD12C,0.150000*%
%ADD13C,0.300000*%
%ADD14C,0.120000*%
%ADD15C,0.450000*%
%ADD16C,1.600000*%
%ADD17O,1.600000X1.600000*%
%ADD18R,1.700000X1.700000*%
%ADD19C,1.700000*%
%ADD20C,3.000000*%
%ADD21R,1.050000X1.500000*%
%ADD22O,1.050000X1.500000*%
%ADD23O,1.700000X1.700000*%
%ADD24O,3.960000X1.980000*%
%ADD25R,3.960000X1.980000*%
%ADD26C,2.000000*%
%ADD27R,1.600000X1.600000*%
G04 APERTURE END LIST*
D10*
X128520000Y-94430000D02*
X140495000Y-94430000D01*
D11*
X172012858Y-114042858D02*
G75*
G03*
X174002858Y-112052858I42J1989958D01*
G01*
D10*
X140492500Y-64190000D02*
X140500000Y-104580000D01*
X127370000Y-74280000D02*
X140495000Y-74280000D01*
D11*
X132000000Y-60050000D02*
G75*
G03*
X130000000Y-62050000I0J-2000000D01*
G01*
X174000000Y-62050000D02*
G75*
G03*
X172000000Y-60050000I-2000000J0D01*
G01*
X130000000Y-62050000D02*
X130000000Y-112050000D01*
X130000000Y-112050000D02*
G75*
G03*
X132000000Y-114050000I2000000J0D01*
G01*
X172000000Y-60050000D02*
X132000000Y-60050000D01*
D10*
X128370000Y-84380000D02*
X140495000Y-84380000D01*
D11*
X132000000Y-114050000D02*
X172012858Y-114042858D01*
D10*
X127367500Y-64190000D02*
X140492500Y-64190000D01*
X140495000Y-104580000D02*
X128495000Y-104580000D01*
D11*
X174000000Y-62175000D02*
X174000000Y-112100000D01*
D12*
X139067380Y-77258571D02*
X139067380Y-77449047D01*
X139067380Y-77449047D02*
X139019761Y-77544285D01*
X139019761Y-77544285D02*
X138924523Y-77639523D01*
X138924523Y-77639523D02*
X138734047Y-77687142D01*
X138734047Y-77687142D02*
X138400714Y-77687142D01*
X138400714Y-77687142D02*
X138210238Y-77639523D01*
X138210238Y-77639523D02*
X138115000Y-77544285D01*
X138115000Y-77544285D02*
X138067380Y-77449047D01*
X138067380Y-77449047D02*
X138067380Y-77258571D01*
X138067380Y-77258571D02*
X138115000Y-77163333D01*
X138115000Y-77163333D02*
X138210238Y-77068095D01*
X138210238Y-77068095D02*
X138400714Y-77020476D01*
X138400714Y-77020476D02*
X138734047Y-77020476D01*
X138734047Y-77020476D02*
X138924523Y-77068095D01*
X138924523Y-77068095D02*
X139019761Y-77163333D01*
X139019761Y-77163333D02*
X139067380Y-77258571D01*
X138734047Y-78115714D02*
X138067380Y-78115714D01*
X138638809Y-78115714D02*
X138686428Y-78163333D01*
X138686428Y-78163333D02*
X138734047Y-78258571D01*
X138734047Y-78258571D02*
X138734047Y-78401428D01*
X138734047Y-78401428D02*
X138686428Y-78496666D01*
X138686428Y-78496666D02*
X138591190Y-78544285D01*
X138591190Y-78544285D02*
X138067380Y-78544285D01*
X139115000Y-79734761D02*
X137829285Y-78877619D01*
X139067380Y-80258571D02*
X139067380Y-80449047D01*
X139067380Y-80449047D02*
X139019761Y-80544285D01*
X139019761Y-80544285D02*
X138924523Y-80639523D01*
X138924523Y-80639523D02*
X138734047Y-80687142D01*
X138734047Y-80687142D02*
X138400714Y-80687142D01*
X138400714Y-80687142D02*
X138210238Y-80639523D01*
X138210238Y-80639523D02*
X138115000Y-80544285D01*
X138115000Y-80544285D02*
X138067380Y-80449047D01*
X138067380Y-80449047D02*
X138067380Y-80258571D01*
X138067380Y-80258571D02*
X138115000Y-80163333D01*
X138115000Y-80163333D02*
X138210238Y-80068095D01*
X138210238Y-80068095D02*
X138400714Y-80020476D01*
X138400714Y-80020476D02*
X138734047Y-80020476D01*
X138734047Y-80020476D02*
X138924523Y-80068095D01*
X138924523Y-80068095D02*
X139019761Y-80163333D01*
X139019761Y-80163333D02*
X139067380Y-80258571D01*
X138734047Y-80972857D02*
X138734047Y-81353809D01*
X138067380Y-81115714D02*
X138924523Y-81115714D01*
X138924523Y-81115714D02*
X139019761Y-81163333D01*
X139019761Y-81163333D02*
X139067380Y-81258571D01*
X139067380Y-81258571D02*
X139067380Y-81353809D01*
X138734047Y-81544286D02*
X138734047Y-81925238D01*
X138067380Y-81687143D02*
X138924523Y-81687143D01*
X138924523Y-81687143D02*
X139019761Y-81734762D01*
X139019761Y-81734762D02*
X139067380Y-81830000D01*
X139067380Y-81830000D02*
X139067380Y-81925238D01*
X142480476Y-73057857D02*
X142528095Y-73010238D01*
X142528095Y-73010238D02*
X142623333Y-72962619D01*
X142623333Y-72962619D02*
X142861428Y-72962619D01*
X142861428Y-72962619D02*
X142956666Y-73010238D01*
X142956666Y-73010238D02*
X143004285Y-73057857D01*
X143004285Y-73057857D02*
X143051904Y-73153095D01*
X143051904Y-73153095D02*
X143051904Y-73248333D01*
X143051904Y-73248333D02*
X143004285Y-73391190D01*
X143004285Y-73391190D02*
X142432857Y-73962619D01*
X142432857Y-73962619D02*
X143051904Y-73962619D01*
X143480476Y-73962619D02*
X143480476Y-72962619D01*
X143480476Y-72962619D02*
X144051904Y-73962619D01*
X144051904Y-73962619D02*
X144051904Y-72962619D01*
X144432857Y-72962619D02*
X145051904Y-72962619D01*
X145051904Y-72962619D02*
X144718571Y-73343571D01*
X144718571Y-73343571D02*
X144861428Y-73343571D01*
X144861428Y-73343571D02*
X144956666Y-73391190D01*
X144956666Y-73391190D02*
X145004285Y-73438809D01*
X145004285Y-73438809D02*
X145051904Y-73534047D01*
X145051904Y-73534047D02*
X145051904Y-73772142D01*
X145051904Y-73772142D02*
X145004285Y-73867380D01*
X145004285Y-73867380D02*
X144956666Y-73915000D01*
X144956666Y-73915000D02*
X144861428Y-73962619D01*
X144861428Y-73962619D02*
X144575714Y-73962619D01*
X144575714Y-73962619D02*
X144480476Y-73915000D01*
X144480476Y-73915000D02*
X144432857Y-73867380D01*
X145528095Y-73962619D02*
X145718571Y-73962619D01*
X145718571Y-73962619D02*
X145813809Y-73915000D01*
X145813809Y-73915000D02*
X145861428Y-73867380D01*
X145861428Y-73867380D02*
X145956666Y-73724523D01*
X145956666Y-73724523D02*
X146004285Y-73534047D01*
X146004285Y-73534047D02*
X146004285Y-73153095D01*
X146004285Y-73153095D02*
X145956666Y-73057857D01*
X145956666Y-73057857D02*
X145909047Y-73010238D01*
X145909047Y-73010238D02*
X145813809Y-72962619D01*
X145813809Y-72962619D02*
X145623333Y-72962619D01*
X145623333Y-72962619D02*
X145528095Y-73010238D01*
X145528095Y-73010238D02*
X145480476Y-73057857D01*
X145480476Y-73057857D02*
X145432857Y-73153095D01*
X145432857Y-73153095D02*
X145432857Y-73391190D01*
X145432857Y-73391190D02*
X145480476Y-73486428D01*
X145480476Y-73486428D02*
X145528095Y-73534047D01*
X145528095Y-73534047D02*
X145623333Y-73581666D01*
X145623333Y-73581666D02*
X145813809Y-73581666D01*
X145813809Y-73581666D02*
X145909047Y-73534047D01*
X145909047Y-73534047D02*
X145956666Y-73486428D01*
X145956666Y-73486428D02*
X146004285Y-73391190D01*
X146623333Y-72962619D02*
X146718571Y-72962619D01*
X146718571Y-72962619D02*
X146813809Y-73010238D01*
X146813809Y-73010238D02*
X146861428Y-73057857D01*
X146861428Y-73057857D02*
X146909047Y-73153095D01*
X146909047Y-73153095D02*
X146956666Y-73343571D01*
X146956666Y-73343571D02*
X146956666Y-73581666D01*
X146956666Y-73581666D02*
X146909047Y-73772142D01*
X146909047Y-73772142D02*
X146861428Y-73867380D01*
X146861428Y-73867380D02*
X146813809Y-73915000D01*
X146813809Y-73915000D02*
X146718571Y-73962619D01*
X146718571Y-73962619D02*
X146623333Y-73962619D01*
X146623333Y-73962619D02*
X146528095Y-73915000D01*
X146528095Y-73915000D02*
X146480476Y-73867380D01*
X146480476Y-73867380D02*
X146432857Y-73772142D01*
X146432857Y-73772142D02*
X146385238Y-73581666D01*
X146385238Y-73581666D02*
X146385238Y-73343571D01*
X146385238Y-73343571D02*
X146432857Y-73153095D01*
X146432857Y-73153095D02*
X146480476Y-73057857D01*
X146480476Y-73057857D02*
X146528095Y-73010238D01*
X146528095Y-73010238D02*
X146623333Y-72962619D01*
X147813809Y-72962619D02*
X147623333Y-72962619D01*
X147623333Y-72962619D02*
X147528095Y-73010238D01*
X147528095Y-73010238D02*
X147480476Y-73057857D01*
X147480476Y-73057857D02*
X147385238Y-73200714D01*
X147385238Y-73200714D02*
X147337619Y-73391190D01*
X147337619Y-73391190D02*
X147337619Y-73772142D01*
X147337619Y-73772142D02*
X147385238Y-73867380D01*
X147385238Y-73867380D02*
X147432857Y-73915000D01*
X147432857Y-73915000D02*
X147528095Y-73962619D01*
X147528095Y-73962619D02*
X147718571Y-73962619D01*
X147718571Y-73962619D02*
X147813809Y-73915000D01*
X147813809Y-73915000D02*
X147861428Y-73867380D01*
X147861428Y-73867380D02*
X147909047Y-73772142D01*
X147909047Y-73772142D02*
X147909047Y-73534047D01*
X147909047Y-73534047D02*
X147861428Y-73438809D01*
X147861428Y-73438809D02*
X147813809Y-73391190D01*
X147813809Y-73391190D02*
X147718571Y-73343571D01*
X147718571Y-73343571D02*
X147528095Y-73343571D01*
X147528095Y-73343571D02*
X147432857Y-73391190D01*
X147432857Y-73391190D02*
X147385238Y-73438809D01*
X147385238Y-73438809D02*
X147337619Y-73534047D01*
D13*
X131781666Y-86143095D02*
X131781666Y-87666905D01*
D12*
X135790000Y-109862619D02*
X135790000Y-108862619D01*
D13*
X132556904Y-91866666D02*
X131033095Y-91866666D01*
X131794999Y-91104761D02*
X131794999Y-92628571D01*
D12*
X132501904Y-109318809D02*
X132644761Y-109366428D01*
X132644761Y-109366428D02*
X132692380Y-109414047D01*
X132692380Y-109414047D02*
X132739999Y-109509285D01*
X132739999Y-109509285D02*
X132739999Y-109652142D01*
X132739999Y-109652142D02*
X132692380Y-109747380D01*
X132692380Y-109747380D02*
X132644761Y-109795000D01*
X132644761Y-109795000D02*
X132549523Y-109842619D01*
X132549523Y-109842619D02*
X132168571Y-109842619D01*
X132168571Y-109842619D02*
X132168571Y-108842619D01*
X132168571Y-108842619D02*
X132501904Y-108842619D01*
X132501904Y-108842619D02*
X132597142Y-108890238D01*
X132597142Y-108890238D02*
X132644761Y-108937857D01*
X132644761Y-108937857D02*
X132692380Y-109033095D01*
X132692380Y-109033095D02*
X132692380Y-109128333D01*
X132692380Y-109128333D02*
X132644761Y-109223571D01*
X132644761Y-109223571D02*
X132597142Y-109271190D01*
X132597142Y-109271190D02*
X132501904Y-109318809D01*
X132501904Y-109318809D02*
X132168571Y-109318809D01*
X133120952Y-109556904D02*
X133597142Y-109556904D01*
X133025714Y-109842619D02*
X133359047Y-108842619D01*
X133359047Y-108842619D02*
X133692380Y-109842619D01*
X133882857Y-108842619D02*
X134454285Y-108842619D01*
X134168571Y-109842619D02*
X134168571Y-108842619D01*
X135790000Y-110392619D02*
X135790000Y-109392619D01*
X167631905Y-102022619D02*
X167631905Y-101022619D01*
X167631905Y-101022619D02*
X168012857Y-101022619D01*
X168012857Y-101022619D02*
X168108095Y-101070238D01*
X168108095Y-101070238D02*
X168155714Y-101117857D01*
X168155714Y-101117857D02*
X168203333Y-101213095D01*
X168203333Y-101213095D02*
X168203333Y-101355952D01*
X168203333Y-101355952D02*
X168155714Y-101451190D01*
X168155714Y-101451190D02*
X168108095Y-101498809D01*
X168108095Y-101498809D02*
X168012857Y-101546428D01*
X168012857Y-101546428D02*
X167631905Y-101546428D01*
X168965238Y-101498809D02*
X169108095Y-101546428D01*
X169108095Y-101546428D02*
X169155714Y-101594047D01*
X169155714Y-101594047D02*
X169203333Y-101689285D01*
X169203333Y-101689285D02*
X169203333Y-101832142D01*
X169203333Y-101832142D02*
X169155714Y-101927380D01*
X169155714Y-101927380D02*
X169108095Y-101975000D01*
X169108095Y-101975000D02*
X169012857Y-102022619D01*
X169012857Y-102022619D02*
X168631905Y-102022619D01*
X168631905Y-102022619D02*
X168631905Y-101022619D01*
X168631905Y-101022619D02*
X168965238Y-101022619D01*
X168965238Y-101022619D02*
X169060476Y-101070238D01*
X169060476Y-101070238D02*
X169108095Y-101117857D01*
X169108095Y-101117857D02*
X169155714Y-101213095D01*
X169155714Y-101213095D02*
X169155714Y-101308333D01*
X169155714Y-101308333D02*
X169108095Y-101403571D01*
X169108095Y-101403571D02*
X169060476Y-101451190D01*
X169060476Y-101451190D02*
X168965238Y-101498809D01*
X168965238Y-101498809D02*
X168631905Y-101498809D01*
X170155714Y-102022619D02*
X169584286Y-102022619D01*
X169870000Y-102022619D02*
X169870000Y-101022619D01*
X169870000Y-101022619D02*
X169774762Y-101165476D01*
X169774762Y-101165476D02*
X169679524Y-101260714D01*
X169679524Y-101260714D02*
X169584286Y-101308333D01*
D13*
X131781666Y-96193095D02*
X131781666Y-97716905D01*
X131776666Y-66043095D02*
X131776666Y-67566905D01*
D12*
X136079047Y-109595953D02*
X135793333Y-108834048D01*
X135793333Y-108834048D02*
X135507619Y-109595953D01*
X164594048Y-110056666D02*
X165355953Y-110056666D01*
X164975000Y-110437619D02*
X164975000Y-109675714D01*
X134770000Y-110862619D02*
X134960476Y-110862619D01*
X134960476Y-110862619D02*
X135055714Y-110910238D01*
X135055714Y-110910238D02*
X135150952Y-111005476D01*
X135150952Y-111005476D02*
X135198571Y-111195952D01*
X135198571Y-111195952D02*
X135198571Y-111529285D01*
X135198571Y-111529285D02*
X135150952Y-111719761D01*
X135150952Y-111719761D02*
X135055714Y-111815000D01*
X135055714Y-111815000D02*
X134960476Y-111862619D01*
X134960476Y-111862619D02*
X134770000Y-111862619D01*
X134770000Y-111862619D02*
X134674762Y-111815000D01*
X134674762Y-111815000D02*
X134579524Y-111719761D01*
X134579524Y-111719761D02*
X134531905Y-111529285D01*
X134531905Y-111529285D02*
X134531905Y-111195952D01*
X134531905Y-111195952D02*
X134579524Y-111005476D01*
X134579524Y-111005476D02*
X134674762Y-110910238D01*
X134674762Y-110910238D02*
X134770000Y-110862619D01*
X135627143Y-110862619D02*
X135627143Y-111672142D01*
X135627143Y-111672142D02*
X135674762Y-111767380D01*
X135674762Y-111767380D02*
X135722381Y-111815000D01*
X135722381Y-111815000D02*
X135817619Y-111862619D01*
X135817619Y-111862619D02*
X136008095Y-111862619D01*
X136008095Y-111862619D02*
X136103333Y-111815000D01*
X136103333Y-111815000D02*
X136150952Y-111767380D01*
X136150952Y-111767380D02*
X136198571Y-111672142D01*
X136198571Y-111672142D02*
X136198571Y-110862619D01*
X136531905Y-110862619D02*
X137103333Y-110862619D01*
X136817619Y-111862619D02*
X136817619Y-110862619D01*
D13*
X131794999Y-81920238D02*
X131699761Y-81825000D01*
X131699761Y-81825000D02*
X131794999Y-81729761D01*
X131794999Y-81729761D02*
X131890237Y-81825000D01*
X131890237Y-81825000D02*
X131794999Y-81920238D01*
X131794999Y-81920238D02*
X131794999Y-81729761D01*
D12*
X153530476Y-67552857D02*
X153578095Y-67505238D01*
X153578095Y-67505238D02*
X153673333Y-67457619D01*
X153673333Y-67457619D02*
X153911428Y-67457619D01*
X153911428Y-67457619D02*
X154006666Y-67505238D01*
X154006666Y-67505238D02*
X154054285Y-67552857D01*
X154054285Y-67552857D02*
X154101904Y-67648095D01*
X154101904Y-67648095D02*
X154101904Y-67743333D01*
X154101904Y-67743333D02*
X154054285Y-67886190D01*
X154054285Y-67886190D02*
X153482857Y-68457619D01*
X153482857Y-68457619D02*
X154101904Y-68457619D01*
X154530476Y-68457619D02*
X154530476Y-67457619D01*
X154530476Y-67457619D02*
X155101904Y-68457619D01*
X155101904Y-68457619D02*
X155101904Y-67457619D01*
X155482857Y-67457619D02*
X156101904Y-67457619D01*
X156101904Y-67457619D02*
X155768571Y-67838571D01*
X155768571Y-67838571D02*
X155911428Y-67838571D01*
X155911428Y-67838571D02*
X156006666Y-67886190D01*
X156006666Y-67886190D02*
X156054285Y-67933809D01*
X156054285Y-67933809D02*
X156101904Y-68029047D01*
X156101904Y-68029047D02*
X156101904Y-68267142D01*
X156101904Y-68267142D02*
X156054285Y-68362380D01*
X156054285Y-68362380D02*
X156006666Y-68410000D01*
X156006666Y-68410000D02*
X155911428Y-68457619D01*
X155911428Y-68457619D02*
X155625714Y-68457619D01*
X155625714Y-68457619D02*
X155530476Y-68410000D01*
X155530476Y-68410000D02*
X155482857Y-68362380D01*
X156578095Y-68457619D02*
X156768571Y-68457619D01*
X156768571Y-68457619D02*
X156863809Y-68410000D01*
X156863809Y-68410000D02*
X156911428Y-68362380D01*
X156911428Y-68362380D02*
X157006666Y-68219523D01*
X157006666Y-68219523D02*
X157054285Y-68029047D01*
X157054285Y-68029047D02*
X157054285Y-67648095D01*
X157054285Y-67648095D02*
X157006666Y-67552857D01*
X157006666Y-67552857D02*
X156959047Y-67505238D01*
X156959047Y-67505238D02*
X156863809Y-67457619D01*
X156863809Y-67457619D02*
X156673333Y-67457619D01*
X156673333Y-67457619D02*
X156578095Y-67505238D01*
X156578095Y-67505238D02*
X156530476Y-67552857D01*
X156530476Y-67552857D02*
X156482857Y-67648095D01*
X156482857Y-67648095D02*
X156482857Y-67886190D01*
X156482857Y-67886190D02*
X156530476Y-67981428D01*
X156530476Y-67981428D02*
X156578095Y-68029047D01*
X156578095Y-68029047D02*
X156673333Y-68076666D01*
X156673333Y-68076666D02*
X156863809Y-68076666D01*
X156863809Y-68076666D02*
X156959047Y-68029047D01*
X156959047Y-68029047D02*
X157006666Y-67981428D01*
X157006666Y-67981428D02*
X157054285Y-67886190D01*
X157673333Y-67457619D02*
X157768571Y-67457619D01*
X157768571Y-67457619D02*
X157863809Y-67505238D01*
X157863809Y-67505238D02*
X157911428Y-67552857D01*
X157911428Y-67552857D02*
X157959047Y-67648095D01*
X157959047Y-67648095D02*
X158006666Y-67838571D01*
X158006666Y-67838571D02*
X158006666Y-68076666D01*
X158006666Y-68076666D02*
X157959047Y-68267142D01*
X157959047Y-68267142D02*
X157911428Y-68362380D01*
X157911428Y-68362380D02*
X157863809Y-68410000D01*
X157863809Y-68410000D02*
X157768571Y-68457619D01*
X157768571Y-68457619D02*
X157673333Y-68457619D01*
X157673333Y-68457619D02*
X157578095Y-68410000D01*
X157578095Y-68410000D02*
X157530476Y-68362380D01*
X157530476Y-68362380D02*
X157482857Y-68267142D01*
X157482857Y-68267142D02*
X157435238Y-68076666D01*
X157435238Y-68076666D02*
X157435238Y-67838571D01*
X157435238Y-67838571D02*
X157482857Y-67648095D01*
X157482857Y-67648095D02*
X157530476Y-67552857D01*
X157530476Y-67552857D02*
X157578095Y-67505238D01*
X157578095Y-67505238D02*
X157673333Y-67457619D01*
X158863809Y-67790952D02*
X158863809Y-68457619D01*
X158625714Y-67410000D02*
X158387619Y-68124285D01*
X158387619Y-68124285D02*
X159006666Y-68124285D01*
X150117619Y-104491904D02*
X149117619Y-104491904D01*
X149117619Y-104491904D02*
X150117619Y-103920476D01*
X150117619Y-103920476D02*
X149117619Y-103920476D01*
X150117619Y-102872857D02*
X149641428Y-103206190D01*
X150117619Y-103444285D02*
X149117619Y-103444285D01*
X149117619Y-103444285D02*
X149117619Y-103063333D01*
X149117619Y-103063333D02*
X149165238Y-102968095D01*
X149165238Y-102968095D02*
X149212857Y-102920476D01*
X149212857Y-102920476D02*
X149308095Y-102872857D01*
X149308095Y-102872857D02*
X149450952Y-102872857D01*
X149450952Y-102872857D02*
X149546190Y-102920476D01*
X149546190Y-102920476D02*
X149593809Y-102968095D01*
X149593809Y-102968095D02*
X149641428Y-103063333D01*
X149641428Y-103063333D02*
X149641428Y-103444285D01*
X149593809Y-102110952D02*
X149593809Y-102444285D01*
X150117619Y-102444285D02*
X149117619Y-102444285D01*
X149117619Y-102444285D02*
X149117619Y-101968095D01*
X149212857Y-101634761D02*
X149165238Y-101587142D01*
X149165238Y-101587142D02*
X149117619Y-101491904D01*
X149117619Y-101491904D02*
X149117619Y-101253809D01*
X149117619Y-101253809D02*
X149165238Y-101158571D01*
X149165238Y-101158571D02*
X149212857Y-101110952D01*
X149212857Y-101110952D02*
X149308095Y-101063333D01*
X149308095Y-101063333D02*
X149403333Y-101063333D01*
X149403333Y-101063333D02*
X149546190Y-101110952D01*
X149546190Y-101110952D02*
X150117619Y-101682380D01*
X150117619Y-101682380D02*
X150117619Y-101063333D01*
X149450952Y-100206190D02*
X150117619Y-100206190D01*
X149070000Y-100444285D02*
X149784285Y-100682380D01*
X149784285Y-100682380D02*
X149784285Y-100063333D01*
X150117619Y-99206190D02*
X150117619Y-99682380D01*
X150117619Y-99682380D02*
X149117619Y-99682380D01*
X149117619Y-98682380D02*
X149117619Y-98587142D01*
X149117619Y-98587142D02*
X149165238Y-98491904D01*
X149165238Y-98491904D02*
X149212857Y-98444285D01*
X149212857Y-98444285D02*
X149308095Y-98396666D01*
X149308095Y-98396666D02*
X149498571Y-98349047D01*
X149498571Y-98349047D02*
X149736666Y-98349047D01*
X149736666Y-98349047D02*
X149927142Y-98396666D01*
X149927142Y-98396666D02*
X150022380Y-98444285D01*
X150022380Y-98444285D02*
X150070000Y-98491904D01*
X150070000Y-98491904D02*
X150117619Y-98587142D01*
X150117619Y-98587142D02*
X150117619Y-98682380D01*
X150117619Y-98682380D02*
X150070000Y-98777618D01*
X150070000Y-98777618D02*
X150022380Y-98825237D01*
X150022380Y-98825237D02*
X149927142Y-98872856D01*
X149927142Y-98872856D02*
X149736666Y-98920475D01*
X149736666Y-98920475D02*
X149498571Y-98920475D01*
X149498571Y-98920475D02*
X149308095Y-98872856D01*
X149308095Y-98872856D02*
X149212857Y-98825237D01*
X149212857Y-98825237D02*
X149165238Y-98777618D01*
X149165238Y-98777618D02*
X149117619Y-98682380D01*
X150117619Y-97396666D02*
X150117619Y-97968094D01*
X150117619Y-97682380D02*
X149117619Y-97682380D01*
X149117619Y-97682380D02*
X149260476Y-97777618D01*
X149260476Y-97777618D02*
X149355714Y-97872856D01*
X149355714Y-97872856D02*
X149403333Y-97968094D01*
X168108095Y-96000238D02*
X168012857Y-95952619D01*
X168012857Y-95952619D02*
X167870000Y-95952619D01*
X167870000Y-95952619D02*
X167727143Y-96000238D01*
X167727143Y-96000238D02*
X167631905Y-96095476D01*
X167631905Y-96095476D02*
X167584286Y-96190714D01*
X167584286Y-96190714D02*
X167536667Y-96381190D01*
X167536667Y-96381190D02*
X167536667Y-96524047D01*
X167536667Y-96524047D02*
X167584286Y-96714523D01*
X167584286Y-96714523D02*
X167631905Y-96809761D01*
X167631905Y-96809761D02*
X167727143Y-96905000D01*
X167727143Y-96905000D02*
X167870000Y-96952619D01*
X167870000Y-96952619D02*
X167965238Y-96952619D01*
X167965238Y-96952619D02*
X168108095Y-96905000D01*
X168108095Y-96905000D02*
X168155714Y-96857380D01*
X168155714Y-96857380D02*
X168155714Y-96524047D01*
X168155714Y-96524047D02*
X167965238Y-96524047D01*
X168584286Y-96952619D02*
X168584286Y-95952619D01*
X168584286Y-95952619D02*
X169155714Y-96952619D01*
X169155714Y-96952619D02*
X169155714Y-95952619D01*
X169631905Y-96952619D02*
X169631905Y-95952619D01*
X169631905Y-95952619D02*
X169870000Y-95952619D01*
X169870000Y-95952619D02*
X170012857Y-96000238D01*
X170012857Y-96000238D02*
X170108095Y-96095476D01*
X170108095Y-96095476D02*
X170155714Y-96190714D01*
X170155714Y-96190714D02*
X170203333Y-96381190D01*
X170203333Y-96381190D02*
X170203333Y-96524047D01*
X170203333Y-96524047D02*
X170155714Y-96714523D01*
X170155714Y-96714523D02*
X170108095Y-96809761D01*
X170108095Y-96809761D02*
X170012857Y-96905000D01*
X170012857Y-96905000D02*
X169870000Y-96952619D01*
X169870000Y-96952619D02*
X169631905Y-96952619D01*
D13*
X132556904Y-101916666D02*
X131033095Y-101916666D01*
X131794999Y-101154761D02*
X131794999Y-102678571D01*
D12*
X137382381Y-108842619D02*
X138001428Y-108842619D01*
X138001428Y-108842619D02*
X137668095Y-109223571D01*
X137668095Y-109223571D02*
X137810952Y-109223571D01*
X137810952Y-109223571D02*
X137906190Y-109271190D01*
X137906190Y-109271190D02*
X137953809Y-109318809D01*
X137953809Y-109318809D02*
X138001428Y-109414047D01*
X138001428Y-109414047D02*
X138001428Y-109652142D01*
X138001428Y-109652142D02*
X137953809Y-109747380D01*
X137953809Y-109747380D02*
X137906190Y-109795000D01*
X137906190Y-109795000D02*
X137810952Y-109842619D01*
X137810952Y-109842619D02*
X137525238Y-109842619D01*
X137525238Y-109842619D02*
X137430000Y-109795000D01*
X137430000Y-109795000D02*
X137382381Y-109747380D01*
X138430000Y-109747380D02*
X138477619Y-109795000D01*
X138477619Y-109795000D02*
X138430000Y-109842619D01*
X138430000Y-109842619D02*
X138382381Y-109795000D01*
X138382381Y-109795000D02*
X138430000Y-109747380D01*
X138430000Y-109747380D02*
X138430000Y-109842619D01*
X138810952Y-108842619D02*
X139429999Y-108842619D01*
X139429999Y-108842619D02*
X139096666Y-109223571D01*
X139096666Y-109223571D02*
X139239523Y-109223571D01*
X139239523Y-109223571D02*
X139334761Y-109271190D01*
X139334761Y-109271190D02*
X139382380Y-109318809D01*
X139382380Y-109318809D02*
X139429999Y-109414047D01*
X139429999Y-109414047D02*
X139429999Y-109652142D01*
X139429999Y-109652142D02*
X139382380Y-109747380D01*
X139382380Y-109747380D02*
X139334761Y-109795000D01*
X139334761Y-109795000D02*
X139239523Y-109842619D01*
X139239523Y-109842619D02*
X138953809Y-109842619D01*
X138953809Y-109842619D02*
X138858571Y-109795000D01*
X138858571Y-109795000D02*
X138810952Y-109747380D01*
X167703333Y-99482619D02*
X167703333Y-98482619D01*
X167703333Y-98482619D02*
X168084285Y-98482619D01*
X168084285Y-98482619D02*
X168179523Y-98530238D01*
X168179523Y-98530238D02*
X168227142Y-98577857D01*
X168227142Y-98577857D02*
X168274761Y-98673095D01*
X168274761Y-98673095D02*
X168274761Y-98815952D01*
X168274761Y-98815952D02*
X168227142Y-98911190D01*
X168227142Y-98911190D02*
X168179523Y-98958809D01*
X168179523Y-98958809D02*
X168084285Y-99006428D01*
X168084285Y-99006428D02*
X167703333Y-99006428D01*
X168655714Y-99196904D02*
X169131904Y-99196904D01*
X168560476Y-99482619D02*
X168893809Y-98482619D01*
X168893809Y-98482619D02*
X169227142Y-99482619D01*
X169750952Y-98482619D02*
X169846190Y-98482619D01*
X169846190Y-98482619D02*
X169941428Y-98530238D01*
X169941428Y-98530238D02*
X169989047Y-98577857D01*
X169989047Y-98577857D02*
X170036666Y-98673095D01*
X170036666Y-98673095D02*
X170084285Y-98863571D01*
X170084285Y-98863571D02*
X170084285Y-99101666D01*
X170084285Y-99101666D02*
X170036666Y-99292142D01*
X170036666Y-99292142D02*
X169989047Y-99387380D01*
X169989047Y-99387380D02*
X169941428Y-99435000D01*
X169941428Y-99435000D02*
X169846190Y-99482619D01*
X169846190Y-99482619D02*
X169750952Y-99482619D01*
X169750952Y-99482619D02*
X169655714Y-99435000D01*
X169655714Y-99435000D02*
X169608095Y-99387380D01*
X169608095Y-99387380D02*
X169560476Y-99292142D01*
X169560476Y-99292142D02*
X169512857Y-99101666D01*
X169512857Y-99101666D02*
X169512857Y-98863571D01*
X169512857Y-98863571D02*
X169560476Y-98673095D01*
X169560476Y-98673095D02*
X169608095Y-98577857D01*
X169608095Y-98577857D02*
X169655714Y-98530238D01*
X169655714Y-98530238D02*
X169750952Y-98482619D01*
X138591190Y-87401428D02*
X138543571Y-87544285D01*
X138543571Y-87544285D02*
X138495952Y-87591904D01*
X138495952Y-87591904D02*
X138400714Y-87639523D01*
X138400714Y-87639523D02*
X138257857Y-87639523D01*
X138257857Y-87639523D02*
X138162619Y-87591904D01*
X138162619Y-87591904D02*
X138115000Y-87544285D01*
X138115000Y-87544285D02*
X138067380Y-87449047D01*
X138067380Y-87449047D02*
X138067380Y-87068095D01*
X138067380Y-87068095D02*
X139067380Y-87068095D01*
X139067380Y-87068095D02*
X139067380Y-87401428D01*
X139067380Y-87401428D02*
X139019761Y-87496666D01*
X139019761Y-87496666D02*
X138972142Y-87544285D01*
X138972142Y-87544285D02*
X138876904Y-87591904D01*
X138876904Y-87591904D02*
X138781666Y-87591904D01*
X138781666Y-87591904D02*
X138686428Y-87544285D01*
X138686428Y-87544285D02*
X138638809Y-87496666D01*
X138638809Y-87496666D02*
X138591190Y-87401428D01*
X138591190Y-87401428D02*
X138591190Y-87068095D01*
X138067380Y-88496666D02*
X138591190Y-88496666D01*
X138591190Y-88496666D02*
X138686428Y-88449047D01*
X138686428Y-88449047D02*
X138734047Y-88353809D01*
X138734047Y-88353809D02*
X138734047Y-88163333D01*
X138734047Y-88163333D02*
X138686428Y-88068095D01*
X138115000Y-88496666D02*
X138067380Y-88401428D01*
X138067380Y-88401428D02*
X138067380Y-88163333D01*
X138067380Y-88163333D02*
X138115000Y-88068095D01*
X138115000Y-88068095D02*
X138210238Y-88020476D01*
X138210238Y-88020476D02*
X138305476Y-88020476D01*
X138305476Y-88020476D02*
X138400714Y-88068095D01*
X138400714Y-88068095D02*
X138448333Y-88163333D01*
X138448333Y-88163333D02*
X138448333Y-88401428D01*
X138448333Y-88401428D02*
X138495952Y-88496666D01*
X138734047Y-88830000D02*
X138734047Y-89210952D01*
X139067380Y-88972857D02*
X138210238Y-88972857D01*
X138210238Y-88972857D02*
X138115000Y-89020476D01*
X138115000Y-89020476D02*
X138067380Y-89115714D01*
X138067380Y-89115714D02*
X138067380Y-89210952D01*
X138067380Y-90306191D02*
X139067380Y-90306191D01*
X138067380Y-90782381D02*
X139067380Y-90782381D01*
X139067380Y-90782381D02*
X138067380Y-91353809D01*
X138067380Y-91353809D02*
X139067380Y-91353809D01*
X141139048Y-93801666D02*
X141900953Y-93801666D01*
X141520000Y-94182619D02*
X141520000Y-93420714D01*
X162248095Y-63037619D02*
X162248095Y-62037619D01*
X162248095Y-62037619D02*
X162581428Y-62751904D01*
X162581428Y-62751904D02*
X162914761Y-62037619D01*
X162914761Y-62037619D02*
X162914761Y-63037619D01*
X163962380Y-62942380D02*
X163914761Y-62990000D01*
X163914761Y-62990000D02*
X163771904Y-63037619D01*
X163771904Y-63037619D02*
X163676666Y-63037619D01*
X163676666Y-63037619D02*
X163533809Y-62990000D01*
X163533809Y-62990000D02*
X163438571Y-62894761D01*
X163438571Y-62894761D02*
X163390952Y-62799523D01*
X163390952Y-62799523D02*
X163343333Y-62609047D01*
X163343333Y-62609047D02*
X163343333Y-62466190D01*
X163343333Y-62466190D02*
X163390952Y-62275714D01*
X163390952Y-62275714D02*
X163438571Y-62180476D01*
X163438571Y-62180476D02*
X163533809Y-62085238D01*
X163533809Y-62085238D02*
X163676666Y-62037619D01*
X163676666Y-62037619D02*
X163771904Y-62037619D01*
X163771904Y-62037619D02*
X163914761Y-62085238D01*
X163914761Y-62085238D02*
X163962380Y-62132857D01*
X164390952Y-63037619D02*
X164390952Y-62037619D01*
X164390952Y-62037619D02*
X164771904Y-62037619D01*
X164771904Y-62037619D02*
X164867142Y-62085238D01*
X164867142Y-62085238D02*
X164914761Y-62132857D01*
X164914761Y-62132857D02*
X164962380Y-62228095D01*
X164962380Y-62228095D02*
X164962380Y-62370952D01*
X164962380Y-62370952D02*
X164914761Y-62466190D01*
X164914761Y-62466190D02*
X164867142Y-62513809D01*
X164867142Y-62513809D02*
X164771904Y-62561428D01*
X164771904Y-62561428D02*
X164390952Y-62561428D01*
X165914761Y-63037619D02*
X165343333Y-63037619D01*
X165629047Y-63037619D02*
X165629047Y-62037619D01*
X165629047Y-62037619D02*
X165533809Y-62180476D01*
X165533809Y-62180476D02*
X165438571Y-62275714D01*
X165438571Y-62275714D02*
X165343333Y-62323333D01*
X166248095Y-62037619D02*
X166914761Y-62037619D01*
X166914761Y-62037619D02*
X166486190Y-63037619D01*
X169944048Y-67756666D02*
X170705953Y-67756666D01*
X170325000Y-68137619D02*
X170325000Y-67375714D01*
X167631905Y-104622619D02*
X167631905Y-103622619D01*
X167631905Y-103622619D02*
X168012857Y-103622619D01*
X168012857Y-103622619D02*
X168108095Y-103670238D01*
X168108095Y-103670238D02*
X168155714Y-103717857D01*
X168155714Y-103717857D02*
X168203333Y-103813095D01*
X168203333Y-103813095D02*
X168203333Y-103955952D01*
X168203333Y-103955952D02*
X168155714Y-104051190D01*
X168155714Y-104051190D02*
X168108095Y-104098809D01*
X168108095Y-104098809D02*
X168012857Y-104146428D01*
X168012857Y-104146428D02*
X167631905Y-104146428D01*
X168965238Y-104098809D02*
X169108095Y-104146428D01*
X169108095Y-104146428D02*
X169155714Y-104194047D01*
X169155714Y-104194047D02*
X169203333Y-104289285D01*
X169203333Y-104289285D02*
X169203333Y-104432142D01*
X169203333Y-104432142D02*
X169155714Y-104527380D01*
X169155714Y-104527380D02*
X169108095Y-104575000D01*
X169108095Y-104575000D02*
X169012857Y-104622619D01*
X169012857Y-104622619D02*
X168631905Y-104622619D01*
X168631905Y-104622619D02*
X168631905Y-103622619D01*
X168631905Y-103622619D02*
X168965238Y-103622619D01*
X168965238Y-103622619D02*
X169060476Y-103670238D01*
X169060476Y-103670238D02*
X169108095Y-103717857D01*
X169108095Y-103717857D02*
X169155714Y-103813095D01*
X169155714Y-103813095D02*
X169155714Y-103908333D01*
X169155714Y-103908333D02*
X169108095Y-104003571D01*
X169108095Y-104003571D02*
X169060476Y-104051190D01*
X169060476Y-104051190D02*
X168965238Y-104098809D01*
X168965238Y-104098809D02*
X168631905Y-104098809D01*
X169822381Y-103622619D02*
X169917619Y-103622619D01*
X169917619Y-103622619D02*
X170012857Y-103670238D01*
X170012857Y-103670238D02*
X170060476Y-103717857D01*
X170060476Y-103717857D02*
X170108095Y-103813095D01*
X170108095Y-103813095D02*
X170155714Y-104003571D01*
X170155714Y-104003571D02*
X170155714Y-104241666D01*
X170155714Y-104241666D02*
X170108095Y-104432142D01*
X170108095Y-104432142D02*
X170060476Y-104527380D01*
X170060476Y-104527380D02*
X170012857Y-104575000D01*
X170012857Y-104575000D02*
X169917619Y-104622619D01*
X169917619Y-104622619D02*
X169822381Y-104622619D01*
X169822381Y-104622619D02*
X169727143Y-104575000D01*
X169727143Y-104575000D02*
X169679524Y-104527380D01*
X169679524Y-104527380D02*
X169631905Y-104432142D01*
X169631905Y-104432142D02*
X169584286Y-104241666D01*
X169584286Y-104241666D02*
X169584286Y-104003571D01*
X169584286Y-104003571D02*
X169631905Y-103813095D01*
X169631905Y-103813095D02*
X169679524Y-103717857D01*
X169679524Y-103717857D02*
X169727143Y-103670238D01*
X169727143Y-103670238D02*
X169822381Y-103622619D01*
X161794048Y-67756666D02*
X162555953Y-67756666D01*
X162175000Y-68137619D02*
X162175000Y-67375714D01*
X138067380Y-96143095D02*
X139067380Y-96143095D01*
X139067380Y-96143095D02*
X138067380Y-96714523D01*
X138067380Y-96714523D02*
X139067380Y-96714523D01*
X138067380Y-97333571D02*
X138115000Y-97238333D01*
X138115000Y-97238333D02*
X138162619Y-97190714D01*
X138162619Y-97190714D02*
X138257857Y-97143095D01*
X138257857Y-97143095D02*
X138543571Y-97143095D01*
X138543571Y-97143095D02*
X138638809Y-97190714D01*
X138638809Y-97190714D02*
X138686428Y-97238333D01*
X138686428Y-97238333D02*
X138734047Y-97333571D01*
X138734047Y-97333571D02*
X138734047Y-97476428D01*
X138734047Y-97476428D02*
X138686428Y-97571666D01*
X138686428Y-97571666D02*
X138638809Y-97619285D01*
X138638809Y-97619285D02*
X138543571Y-97666904D01*
X138543571Y-97666904D02*
X138257857Y-97666904D01*
X138257857Y-97666904D02*
X138162619Y-97619285D01*
X138162619Y-97619285D02*
X138115000Y-97571666D01*
X138115000Y-97571666D02*
X138067380Y-97476428D01*
X138067380Y-97476428D02*
X138067380Y-97333571D01*
X138067380Y-98524047D02*
X139067380Y-98524047D01*
X138115000Y-98524047D02*
X138067380Y-98428809D01*
X138067380Y-98428809D02*
X138067380Y-98238333D01*
X138067380Y-98238333D02*
X138115000Y-98143095D01*
X138115000Y-98143095D02*
X138162619Y-98095476D01*
X138162619Y-98095476D02*
X138257857Y-98047857D01*
X138257857Y-98047857D02*
X138543571Y-98047857D01*
X138543571Y-98047857D02*
X138638809Y-98095476D01*
X138638809Y-98095476D02*
X138686428Y-98143095D01*
X138686428Y-98143095D02*
X138734047Y-98238333D01*
X138734047Y-98238333D02*
X138734047Y-98428809D01*
X138734047Y-98428809D02*
X138686428Y-98524047D01*
X138115000Y-99381190D02*
X138067380Y-99285952D01*
X138067380Y-99285952D02*
X138067380Y-99095476D01*
X138067380Y-99095476D02*
X138115000Y-99000238D01*
X138115000Y-99000238D02*
X138210238Y-98952619D01*
X138210238Y-98952619D02*
X138591190Y-98952619D01*
X138591190Y-98952619D02*
X138686428Y-99000238D01*
X138686428Y-99000238D02*
X138734047Y-99095476D01*
X138734047Y-99095476D02*
X138734047Y-99285952D01*
X138734047Y-99285952D02*
X138686428Y-99381190D01*
X138686428Y-99381190D02*
X138591190Y-99428809D01*
X138591190Y-99428809D02*
X138495952Y-99428809D01*
X138495952Y-99428809D02*
X138400714Y-98952619D01*
X139067380Y-100809762D02*
X139067380Y-101000238D01*
X139067380Y-101000238D02*
X139019761Y-101095476D01*
X139019761Y-101095476D02*
X138924523Y-101190714D01*
X138924523Y-101190714D02*
X138734047Y-101238333D01*
X138734047Y-101238333D02*
X138400714Y-101238333D01*
X138400714Y-101238333D02*
X138210238Y-101190714D01*
X138210238Y-101190714D02*
X138115000Y-101095476D01*
X138115000Y-101095476D02*
X138067380Y-101000238D01*
X138067380Y-101000238D02*
X138067380Y-100809762D01*
X138067380Y-100809762D02*
X138115000Y-100714524D01*
X138115000Y-100714524D02*
X138210238Y-100619286D01*
X138210238Y-100619286D02*
X138400714Y-100571667D01*
X138400714Y-100571667D02*
X138734047Y-100571667D01*
X138734047Y-100571667D02*
X138924523Y-100619286D01*
X138924523Y-100619286D02*
X139019761Y-100714524D01*
X139019761Y-100714524D02*
X139067380Y-100809762D01*
X138734047Y-102095476D02*
X138067380Y-102095476D01*
X138734047Y-101666905D02*
X138210238Y-101666905D01*
X138210238Y-101666905D02*
X138115000Y-101714524D01*
X138115000Y-101714524D02*
X138067380Y-101809762D01*
X138067380Y-101809762D02*
X138067380Y-101952619D01*
X138067380Y-101952619D02*
X138115000Y-102047857D01*
X138115000Y-102047857D02*
X138162619Y-102095476D01*
X138734047Y-102428810D02*
X138734047Y-102809762D01*
X139067380Y-102571667D02*
X138210238Y-102571667D01*
X138210238Y-102571667D02*
X138115000Y-102619286D01*
X138115000Y-102619286D02*
X138067380Y-102714524D01*
X138067380Y-102714524D02*
X138067380Y-102809762D01*
X171889048Y-77851666D02*
X172650953Y-77851666D01*
X172270000Y-78232619D02*
X172270000Y-77470714D01*
D13*
X132556904Y-71766666D02*
X131033095Y-71766666D01*
X131794999Y-71004761D02*
X131794999Y-72528571D01*
X131885238Y-76805000D02*
X131790000Y-76900238D01*
X131790000Y-76900238D02*
X131694761Y-76805000D01*
X131694761Y-76805000D02*
X131790000Y-76709762D01*
X131790000Y-76709762D02*
X131885238Y-76805000D01*
X131885238Y-76805000D02*
X131694761Y-76805000D01*
D12*
X148065238Y-61807619D02*
X148636666Y-61807619D01*
X148350952Y-62807619D02*
X148350952Y-61807619D01*
X148970000Y-62807619D02*
X148970000Y-61807619D01*
X148970000Y-61807619D02*
X149350952Y-61807619D01*
X149350952Y-61807619D02*
X149446190Y-61855238D01*
X149446190Y-61855238D02*
X149493809Y-61902857D01*
X149493809Y-61902857D02*
X149541428Y-61998095D01*
X149541428Y-61998095D02*
X149541428Y-62140952D01*
X149541428Y-62140952D02*
X149493809Y-62236190D01*
X149493809Y-62236190D02*
X149446190Y-62283809D01*
X149446190Y-62283809D02*
X149350952Y-62331428D01*
X149350952Y-62331428D02*
X148970000Y-62331428D01*
X150398571Y-62140952D02*
X150398571Y-62807619D01*
X150160476Y-61760000D02*
X149922381Y-62474285D01*
X149922381Y-62474285D02*
X150541428Y-62474285D01*
X151112857Y-61807619D02*
X151208095Y-61807619D01*
X151208095Y-61807619D02*
X151303333Y-61855238D01*
X151303333Y-61855238D02*
X151350952Y-61902857D01*
X151350952Y-61902857D02*
X151398571Y-61998095D01*
X151398571Y-61998095D02*
X151446190Y-62188571D01*
X151446190Y-62188571D02*
X151446190Y-62426666D01*
X151446190Y-62426666D02*
X151398571Y-62617142D01*
X151398571Y-62617142D02*
X151350952Y-62712380D01*
X151350952Y-62712380D02*
X151303333Y-62760000D01*
X151303333Y-62760000D02*
X151208095Y-62807619D01*
X151208095Y-62807619D02*
X151112857Y-62807619D01*
X151112857Y-62807619D02*
X151017619Y-62760000D01*
X151017619Y-62760000D02*
X150970000Y-62712380D01*
X150970000Y-62712380D02*
X150922381Y-62617142D01*
X150922381Y-62617142D02*
X150874762Y-62426666D01*
X150874762Y-62426666D02*
X150874762Y-62188571D01*
X150874762Y-62188571D02*
X150922381Y-61998095D01*
X150922381Y-61998095D02*
X150970000Y-61902857D01*
X150970000Y-61902857D02*
X151017619Y-61855238D01*
X151017619Y-61855238D02*
X151112857Y-61807619D01*
X151922381Y-62807619D02*
X152112857Y-62807619D01*
X152112857Y-62807619D02*
X152208095Y-62760000D01*
X152208095Y-62760000D02*
X152255714Y-62712380D01*
X152255714Y-62712380D02*
X152350952Y-62569523D01*
X152350952Y-62569523D02*
X152398571Y-62379047D01*
X152398571Y-62379047D02*
X152398571Y-61998095D01*
X152398571Y-61998095D02*
X152350952Y-61902857D01*
X152350952Y-61902857D02*
X152303333Y-61855238D01*
X152303333Y-61855238D02*
X152208095Y-61807619D01*
X152208095Y-61807619D02*
X152017619Y-61807619D01*
X152017619Y-61807619D02*
X151922381Y-61855238D01*
X151922381Y-61855238D02*
X151874762Y-61902857D01*
X151874762Y-61902857D02*
X151827143Y-61998095D01*
X151827143Y-61998095D02*
X151827143Y-62236190D01*
X151827143Y-62236190D02*
X151874762Y-62331428D01*
X151874762Y-62331428D02*
X151922381Y-62379047D01*
X151922381Y-62379047D02*
X152017619Y-62426666D01*
X152017619Y-62426666D02*
X152208095Y-62426666D01*
X152208095Y-62426666D02*
X152303333Y-62379047D01*
X152303333Y-62379047D02*
X152350952Y-62331428D01*
X152350952Y-62331428D02*
X152398571Y-62236190D01*
X153255714Y-61807619D02*
X153065238Y-61807619D01*
X153065238Y-61807619D02*
X152970000Y-61855238D01*
X152970000Y-61855238D02*
X152922381Y-61902857D01*
X152922381Y-61902857D02*
X152827143Y-62045714D01*
X152827143Y-62045714D02*
X152779524Y-62236190D01*
X152779524Y-62236190D02*
X152779524Y-62617142D01*
X152779524Y-62617142D02*
X152827143Y-62712380D01*
X152827143Y-62712380D02*
X152874762Y-62760000D01*
X152874762Y-62760000D02*
X152970000Y-62807619D01*
X152970000Y-62807619D02*
X153160476Y-62807619D01*
X153160476Y-62807619D02*
X153255714Y-62760000D01*
X153255714Y-62760000D02*
X153303333Y-62712380D01*
X153303333Y-62712380D02*
X153350952Y-62617142D01*
X153350952Y-62617142D02*
X153350952Y-62379047D01*
X153350952Y-62379047D02*
X153303333Y-62283809D01*
X153303333Y-62283809D02*
X153255714Y-62236190D01*
X153255714Y-62236190D02*
X153160476Y-62188571D01*
X153160476Y-62188571D02*
X152970000Y-62188571D01*
X152970000Y-62188571D02*
X152874762Y-62236190D01*
X152874762Y-62236190D02*
X152827143Y-62283809D01*
X152827143Y-62283809D02*
X152779524Y-62379047D01*
X138115000Y-66270476D02*
X138067380Y-66413333D01*
X138067380Y-66413333D02*
X138067380Y-66651428D01*
X138067380Y-66651428D02*
X138115000Y-66746666D01*
X138115000Y-66746666D02*
X138162619Y-66794285D01*
X138162619Y-66794285D02*
X138257857Y-66841904D01*
X138257857Y-66841904D02*
X138353095Y-66841904D01*
X138353095Y-66841904D02*
X138448333Y-66794285D01*
X138448333Y-66794285D02*
X138495952Y-66746666D01*
X138495952Y-66746666D02*
X138543571Y-66651428D01*
X138543571Y-66651428D02*
X138591190Y-66460952D01*
X138591190Y-66460952D02*
X138638809Y-66365714D01*
X138638809Y-66365714D02*
X138686428Y-66318095D01*
X138686428Y-66318095D02*
X138781666Y-66270476D01*
X138781666Y-66270476D02*
X138876904Y-66270476D01*
X138876904Y-66270476D02*
X138972142Y-66318095D01*
X138972142Y-66318095D02*
X139019761Y-66365714D01*
X139019761Y-66365714D02*
X139067380Y-66460952D01*
X139067380Y-66460952D02*
X139067380Y-66699047D01*
X139067380Y-66699047D02*
X139019761Y-66841904D01*
X138067380Y-67413333D02*
X138115000Y-67318095D01*
X138115000Y-67318095D02*
X138162619Y-67270476D01*
X138162619Y-67270476D02*
X138257857Y-67222857D01*
X138257857Y-67222857D02*
X138543571Y-67222857D01*
X138543571Y-67222857D02*
X138638809Y-67270476D01*
X138638809Y-67270476D02*
X138686428Y-67318095D01*
X138686428Y-67318095D02*
X138734047Y-67413333D01*
X138734047Y-67413333D02*
X138734047Y-67556190D01*
X138734047Y-67556190D02*
X138686428Y-67651428D01*
X138686428Y-67651428D02*
X138638809Y-67699047D01*
X138638809Y-67699047D02*
X138543571Y-67746666D01*
X138543571Y-67746666D02*
X138257857Y-67746666D01*
X138257857Y-67746666D02*
X138162619Y-67699047D01*
X138162619Y-67699047D02*
X138115000Y-67651428D01*
X138115000Y-67651428D02*
X138067380Y-67556190D01*
X138067380Y-67556190D02*
X138067380Y-67413333D01*
X138067380Y-68318095D02*
X138115000Y-68222857D01*
X138115000Y-68222857D02*
X138210238Y-68175238D01*
X138210238Y-68175238D02*
X139067380Y-68175238D01*
X138067380Y-69127619D02*
X138591190Y-69127619D01*
X138591190Y-69127619D02*
X138686428Y-69080000D01*
X138686428Y-69080000D02*
X138734047Y-68984762D01*
X138734047Y-68984762D02*
X138734047Y-68794286D01*
X138734047Y-68794286D02*
X138686428Y-68699048D01*
X138115000Y-69127619D02*
X138067380Y-69032381D01*
X138067380Y-69032381D02*
X138067380Y-68794286D01*
X138067380Y-68794286D02*
X138115000Y-68699048D01*
X138115000Y-68699048D02*
X138210238Y-68651429D01*
X138210238Y-68651429D02*
X138305476Y-68651429D01*
X138305476Y-68651429D02*
X138400714Y-68699048D01*
X138400714Y-68699048D02*
X138448333Y-68794286D01*
X138448333Y-68794286D02*
X138448333Y-69032381D01*
X138448333Y-69032381D02*
X138495952Y-69127619D01*
X138067380Y-69603810D02*
X138734047Y-69603810D01*
X138543571Y-69603810D02*
X138638809Y-69651429D01*
X138638809Y-69651429D02*
X138686428Y-69699048D01*
X138686428Y-69699048D02*
X138734047Y-69794286D01*
X138734047Y-69794286D02*
X138734047Y-69889524D01*
X138067380Y-70984763D02*
X139067380Y-70984763D01*
X138067380Y-71460953D02*
X139067380Y-71460953D01*
X139067380Y-71460953D02*
X138067380Y-72032381D01*
X138067380Y-72032381D02*
X139067380Y-72032381D01*
X145908095Y-113017619D02*
X145908095Y-112017619D01*
X145908095Y-112017619D02*
X146289047Y-112017619D01*
X146289047Y-112017619D02*
X146384285Y-112065238D01*
X146384285Y-112065238D02*
X146431904Y-112112857D01*
X146431904Y-112112857D02*
X146479523Y-112208095D01*
X146479523Y-112208095D02*
X146479523Y-112350952D01*
X146479523Y-112350952D02*
X146431904Y-112446190D01*
X146431904Y-112446190D02*
X146384285Y-112493809D01*
X146384285Y-112493809D02*
X146289047Y-112541428D01*
X146289047Y-112541428D02*
X145908095Y-112541428D01*
X146908095Y-113017619D02*
X146908095Y-112017619D01*
X146908095Y-112017619D02*
X147479523Y-113017619D01*
X147479523Y-113017619D02*
X147479523Y-112017619D01*
X147908095Y-112112857D02*
X147955714Y-112065238D01*
X147955714Y-112065238D02*
X148050952Y-112017619D01*
X148050952Y-112017619D02*
X148289047Y-112017619D01*
X148289047Y-112017619D02*
X148384285Y-112065238D01*
X148384285Y-112065238D02*
X148431904Y-112112857D01*
X148431904Y-112112857D02*
X148479523Y-112208095D01*
X148479523Y-112208095D02*
X148479523Y-112303333D01*
X148479523Y-112303333D02*
X148431904Y-112446190D01*
X148431904Y-112446190D02*
X147860476Y-113017619D01*
X147860476Y-113017619D02*
X148479523Y-113017619D01*
X148860476Y-112112857D02*
X148908095Y-112065238D01*
X148908095Y-112065238D02*
X149003333Y-112017619D01*
X149003333Y-112017619D02*
X149241428Y-112017619D01*
X149241428Y-112017619D02*
X149336666Y-112065238D01*
X149336666Y-112065238D02*
X149384285Y-112112857D01*
X149384285Y-112112857D02*
X149431904Y-112208095D01*
X149431904Y-112208095D02*
X149431904Y-112303333D01*
X149431904Y-112303333D02*
X149384285Y-112446190D01*
X149384285Y-112446190D02*
X148812857Y-113017619D01*
X148812857Y-113017619D02*
X149431904Y-113017619D01*
X149812857Y-112112857D02*
X149860476Y-112065238D01*
X149860476Y-112065238D02*
X149955714Y-112017619D01*
X149955714Y-112017619D02*
X150193809Y-112017619D01*
X150193809Y-112017619D02*
X150289047Y-112065238D01*
X150289047Y-112065238D02*
X150336666Y-112112857D01*
X150336666Y-112112857D02*
X150384285Y-112208095D01*
X150384285Y-112208095D02*
X150384285Y-112303333D01*
X150384285Y-112303333D02*
X150336666Y-112446190D01*
X150336666Y-112446190D02*
X149765238Y-113017619D01*
X149765238Y-113017619D02*
X150384285Y-113017619D01*
X150765238Y-112112857D02*
X150812857Y-112065238D01*
X150812857Y-112065238D02*
X150908095Y-112017619D01*
X150908095Y-112017619D02*
X151146190Y-112017619D01*
X151146190Y-112017619D02*
X151241428Y-112065238D01*
X151241428Y-112065238D02*
X151289047Y-112112857D01*
X151289047Y-112112857D02*
X151336666Y-112208095D01*
X151336666Y-112208095D02*
X151336666Y-112303333D01*
X151336666Y-112303333D02*
X151289047Y-112446190D01*
X151289047Y-112446190D02*
X150717619Y-113017619D01*
X150717619Y-113017619D02*
X151336666Y-113017619D01*
X151717619Y-112731904D02*
X152193809Y-112731904D01*
X151622381Y-113017619D02*
X151955714Y-112017619D01*
X151955714Y-112017619D02*
X152289047Y-113017619D01*
X167822381Y-106162619D02*
X168441428Y-106162619D01*
X168441428Y-106162619D02*
X168108095Y-106543571D01*
X168108095Y-106543571D02*
X168250952Y-106543571D01*
X168250952Y-106543571D02*
X168346190Y-106591190D01*
X168346190Y-106591190D02*
X168393809Y-106638809D01*
X168393809Y-106638809D02*
X168441428Y-106734047D01*
X168441428Y-106734047D02*
X168441428Y-106972142D01*
X168441428Y-106972142D02*
X168393809Y-107067380D01*
X168393809Y-107067380D02*
X168346190Y-107115000D01*
X168346190Y-107115000D02*
X168250952Y-107162619D01*
X168250952Y-107162619D02*
X167965238Y-107162619D01*
X167965238Y-107162619D02*
X167870000Y-107115000D01*
X167870000Y-107115000D02*
X167822381Y-107067380D01*
X168870000Y-107067380D02*
X168917619Y-107115000D01*
X168917619Y-107115000D02*
X168870000Y-107162619D01*
X168870000Y-107162619D02*
X168822381Y-107115000D01*
X168822381Y-107115000D02*
X168870000Y-107067380D01*
X168870000Y-107067380D02*
X168870000Y-107162619D01*
X169250952Y-106162619D02*
X169869999Y-106162619D01*
X169869999Y-106162619D02*
X169536666Y-106543571D01*
X169536666Y-106543571D02*
X169679523Y-106543571D01*
X169679523Y-106543571D02*
X169774761Y-106591190D01*
X169774761Y-106591190D02*
X169822380Y-106638809D01*
X169822380Y-106638809D02*
X169869999Y-106734047D01*
X169869999Y-106734047D02*
X169869999Y-106972142D01*
X169869999Y-106972142D02*
X169822380Y-107067380D01*
X169822380Y-107067380D02*
X169774761Y-107115000D01*
X169774761Y-107115000D02*
X169679523Y-107162619D01*
X169679523Y-107162619D02*
X169393809Y-107162619D01*
X169393809Y-107162619D02*
X169298571Y-107115000D01*
X169298571Y-107115000D02*
X169250952Y-107067380D01*
X159336904Y-96718571D02*
X159336904Y-96242381D01*
X159622619Y-96813809D02*
X158622619Y-96480476D01*
X158622619Y-96480476D02*
X159622619Y-96147143D01*
X158622619Y-95956666D02*
X158622619Y-95385238D01*
X159622619Y-95670952D02*
X158622619Y-95670952D01*
X158955952Y-95194761D02*
X158955952Y-94813809D01*
X158622619Y-95051904D02*
X159479761Y-95051904D01*
X159479761Y-95051904D02*
X159575000Y-95004285D01*
X159575000Y-95004285D02*
X159622619Y-94909047D01*
X159622619Y-94909047D02*
X159622619Y-94813809D01*
X159622619Y-94480475D02*
X158955952Y-94480475D01*
X158622619Y-94480475D02*
X158670238Y-94528094D01*
X158670238Y-94528094D02*
X158717857Y-94480475D01*
X158717857Y-94480475D02*
X158670238Y-94432856D01*
X158670238Y-94432856D02*
X158622619Y-94480475D01*
X158622619Y-94480475D02*
X158717857Y-94480475D01*
X158955952Y-94004285D02*
X159622619Y-94004285D01*
X159051190Y-94004285D02*
X159003571Y-93956666D01*
X159003571Y-93956666D02*
X158955952Y-93861428D01*
X158955952Y-93861428D02*
X158955952Y-93718571D01*
X158955952Y-93718571D02*
X159003571Y-93623333D01*
X159003571Y-93623333D02*
X159098809Y-93575714D01*
X159098809Y-93575714D02*
X159622619Y-93575714D01*
X158955952Y-93194761D02*
X159622619Y-92956666D01*
X158955952Y-92718571D02*
X159622619Y-92956666D01*
X159622619Y-92956666D02*
X159860714Y-93051904D01*
X159860714Y-93051904D02*
X159908333Y-93099523D01*
X159908333Y-93099523D02*
X159955952Y-93194761D01*
X159051190Y-92194761D02*
X159003571Y-92289999D01*
X159003571Y-92289999D02*
X158955952Y-92337618D01*
X158955952Y-92337618D02*
X158860714Y-92385237D01*
X158860714Y-92385237D02*
X158813095Y-92385237D01*
X158813095Y-92385237D02*
X158717857Y-92337618D01*
X158717857Y-92337618D02*
X158670238Y-92289999D01*
X158670238Y-92289999D02*
X158622619Y-92194761D01*
X158622619Y-92194761D02*
X158622619Y-92004285D01*
X158622619Y-92004285D02*
X158670238Y-91909047D01*
X158670238Y-91909047D02*
X158717857Y-91861428D01*
X158717857Y-91861428D02*
X158813095Y-91813809D01*
X158813095Y-91813809D02*
X158860714Y-91813809D01*
X158860714Y-91813809D02*
X158955952Y-91861428D01*
X158955952Y-91861428D02*
X159003571Y-91909047D01*
X159003571Y-91909047D02*
X159051190Y-92004285D01*
X159051190Y-92004285D02*
X159051190Y-92194761D01*
X159051190Y-92194761D02*
X159098809Y-92289999D01*
X159098809Y-92289999D02*
X159146428Y-92337618D01*
X159146428Y-92337618D02*
X159241666Y-92385237D01*
X159241666Y-92385237D02*
X159432142Y-92385237D01*
X159432142Y-92385237D02*
X159527380Y-92337618D01*
X159527380Y-92337618D02*
X159575000Y-92289999D01*
X159575000Y-92289999D02*
X159622619Y-92194761D01*
X159622619Y-92194761D02*
X159622619Y-92004285D01*
X159622619Y-92004285D02*
X159575000Y-91909047D01*
X159575000Y-91909047D02*
X159527380Y-91861428D01*
X159527380Y-91861428D02*
X159432142Y-91813809D01*
X159432142Y-91813809D02*
X159241666Y-91813809D01*
X159241666Y-91813809D02*
X159146428Y-91861428D01*
X159146428Y-91861428D02*
X159098809Y-91909047D01*
X159098809Y-91909047D02*
X159051190Y-92004285D01*
X158955952Y-90956666D02*
X159622619Y-90956666D01*
X158575000Y-91194761D02*
X159289285Y-91432856D01*
X159289285Y-91432856D02*
X159289285Y-90813809D01*
X150262619Y-68640476D02*
X150262619Y-69211904D01*
X150262619Y-68926190D02*
X149262619Y-68926190D01*
X149262619Y-68926190D02*
X149405476Y-69021428D01*
X149405476Y-69021428D02*
X149500714Y-69116666D01*
X149500714Y-69116666D02*
X149548333Y-69211904D01*
X149262619Y-68021428D02*
X149262619Y-67926190D01*
X149262619Y-67926190D02*
X149310238Y-67830952D01*
X149310238Y-67830952D02*
X149357857Y-67783333D01*
X149357857Y-67783333D02*
X149453095Y-67735714D01*
X149453095Y-67735714D02*
X149643571Y-67688095D01*
X149643571Y-67688095D02*
X149881666Y-67688095D01*
X149881666Y-67688095D02*
X150072142Y-67735714D01*
X150072142Y-67735714D02*
X150167380Y-67783333D01*
X150167380Y-67783333D02*
X150215000Y-67830952D01*
X150215000Y-67830952D02*
X150262619Y-67926190D01*
X150262619Y-67926190D02*
X150262619Y-68021428D01*
X150262619Y-68021428D02*
X150215000Y-68116666D01*
X150215000Y-68116666D02*
X150167380Y-68164285D01*
X150167380Y-68164285D02*
X150072142Y-68211904D01*
X150072142Y-68211904D02*
X149881666Y-68259523D01*
X149881666Y-68259523D02*
X149643571Y-68259523D01*
X149643571Y-68259523D02*
X149453095Y-68211904D01*
X149453095Y-68211904D02*
X149357857Y-68164285D01*
X149357857Y-68164285D02*
X149310238Y-68116666D01*
X149310238Y-68116666D02*
X149262619Y-68021428D01*
X150262619Y-67259523D02*
X149262619Y-67259523D01*
X150262619Y-66688095D02*
X149691190Y-67116666D01*
X149262619Y-66688095D02*
X149834047Y-67259523D01*
X168163333Y-76467380D02*
X168115714Y-76515000D01*
X168115714Y-76515000D02*
X167972857Y-76562619D01*
X167972857Y-76562619D02*
X167877619Y-76562619D01*
X167877619Y-76562619D02*
X167734762Y-76515000D01*
X167734762Y-76515000D02*
X167639524Y-76419761D01*
X167639524Y-76419761D02*
X167591905Y-76324523D01*
X167591905Y-76324523D02*
X167544286Y-76134047D01*
X167544286Y-76134047D02*
X167544286Y-75991190D01*
X167544286Y-75991190D02*
X167591905Y-75800714D01*
X167591905Y-75800714D02*
X167639524Y-75705476D01*
X167639524Y-75705476D02*
X167734762Y-75610238D01*
X167734762Y-75610238D02*
X167877619Y-75562619D01*
X167877619Y-75562619D02*
X167972857Y-75562619D01*
X167972857Y-75562619D02*
X168115714Y-75610238D01*
X168115714Y-75610238D02*
X168163333Y-75657857D01*
X169020476Y-75562619D02*
X168830000Y-75562619D01*
X168830000Y-75562619D02*
X168734762Y-75610238D01*
X168734762Y-75610238D02*
X168687143Y-75657857D01*
X168687143Y-75657857D02*
X168591905Y-75800714D01*
X168591905Y-75800714D02*
X168544286Y-75991190D01*
X168544286Y-75991190D02*
X168544286Y-76372142D01*
X168544286Y-76372142D02*
X168591905Y-76467380D01*
X168591905Y-76467380D02*
X168639524Y-76515000D01*
X168639524Y-76515000D02*
X168734762Y-76562619D01*
X168734762Y-76562619D02*
X168925238Y-76562619D01*
X168925238Y-76562619D02*
X169020476Y-76515000D01*
X169020476Y-76515000D02*
X169068095Y-76467380D01*
X169068095Y-76467380D02*
X169115714Y-76372142D01*
X169115714Y-76372142D02*
X169115714Y-76134047D01*
X169115714Y-76134047D02*
X169068095Y-76038809D01*
X169068095Y-76038809D02*
X169020476Y-75991190D01*
X169020476Y-75991190D02*
X168925238Y-75943571D01*
X168925238Y-75943571D02*
X168734762Y-75943571D01*
X168734762Y-75943571D02*
X168639524Y-75991190D01*
X168639524Y-75991190D02*
X168591905Y-76038809D01*
X168591905Y-76038809D02*
X168544286Y-76134047D01*
X167140476Y-69662619D02*
X167759523Y-69662619D01*
X167759523Y-69662619D02*
X167426190Y-70043571D01*
X167426190Y-70043571D02*
X167569047Y-70043571D01*
X167569047Y-70043571D02*
X167664285Y-70091190D01*
X167664285Y-70091190D02*
X167711904Y-70138809D01*
X167711904Y-70138809D02*
X167759523Y-70234047D01*
X167759523Y-70234047D02*
X167759523Y-70472142D01*
X167759523Y-70472142D02*
X167711904Y-70567380D01*
X167711904Y-70567380D02*
X167664285Y-70615000D01*
X167664285Y-70615000D02*
X167569047Y-70662619D01*
X167569047Y-70662619D02*
X167283333Y-70662619D01*
X167283333Y-70662619D02*
X167188095Y-70615000D01*
X167188095Y-70615000D02*
X167140476Y-70567380D01*
X168188095Y-70662619D02*
X168188095Y-69662619D01*
X168759523Y-70662619D02*
X168330952Y-70091190D01*
X168759523Y-69662619D02*
X168188095Y-70234047D01*
X169092857Y-69662619D02*
X169711904Y-69662619D01*
X169711904Y-69662619D02*
X169378571Y-70043571D01*
X169378571Y-70043571D02*
X169521428Y-70043571D01*
X169521428Y-70043571D02*
X169616666Y-70091190D01*
X169616666Y-70091190D02*
X169664285Y-70138809D01*
X169664285Y-70138809D02*
X169711904Y-70234047D01*
X169711904Y-70234047D02*
X169711904Y-70472142D01*
X169711904Y-70472142D02*
X169664285Y-70567380D01*
X169664285Y-70567380D02*
X169616666Y-70615000D01*
X169616666Y-70615000D02*
X169521428Y-70662619D01*
X169521428Y-70662619D02*
X169235714Y-70662619D01*
X169235714Y-70662619D02*
X169140476Y-70615000D01*
X169140476Y-70615000D02*
X169092857Y-70567380D01*
X168992380Y-65041666D02*
X169040000Y-65089285D01*
X169040000Y-65089285D02*
X169087619Y-65232142D01*
X169087619Y-65232142D02*
X169087619Y-65327380D01*
X169087619Y-65327380D02*
X169040000Y-65470237D01*
X169040000Y-65470237D02*
X168944761Y-65565475D01*
X168944761Y-65565475D02*
X168849523Y-65613094D01*
X168849523Y-65613094D02*
X168659047Y-65660713D01*
X168659047Y-65660713D02*
X168516190Y-65660713D01*
X168516190Y-65660713D02*
X168325714Y-65613094D01*
X168325714Y-65613094D02*
X168230476Y-65565475D01*
X168230476Y-65565475D02*
X168135238Y-65470237D01*
X168135238Y-65470237D02*
X168087619Y-65327380D01*
X168087619Y-65327380D02*
X168087619Y-65232142D01*
X168087619Y-65232142D02*
X168135238Y-65089285D01*
X168135238Y-65089285D02*
X168182857Y-65041666D01*
X168182857Y-64660713D02*
X168135238Y-64613094D01*
X168135238Y-64613094D02*
X168087619Y-64517856D01*
X168087619Y-64517856D02*
X168087619Y-64279761D01*
X168087619Y-64279761D02*
X168135238Y-64184523D01*
X168135238Y-64184523D02*
X168182857Y-64136904D01*
X168182857Y-64136904D02*
X168278095Y-64089285D01*
X168278095Y-64089285D02*
X168373333Y-64089285D01*
X168373333Y-64089285D02*
X168516190Y-64136904D01*
X168516190Y-64136904D02*
X169087619Y-64708332D01*
X169087619Y-64708332D02*
X169087619Y-64089285D01*
X155162619Y-74426666D02*
X155162619Y-74998094D01*
X155162619Y-74712380D02*
X154162619Y-74712380D01*
X154162619Y-74712380D02*
X154305476Y-74807618D01*
X154305476Y-74807618D02*
X154400714Y-74902856D01*
X154400714Y-74902856D02*
X154448333Y-74998094D01*
X154162619Y-73807618D02*
X154162619Y-73712380D01*
X154162619Y-73712380D02*
X154210238Y-73617142D01*
X154210238Y-73617142D02*
X154257857Y-73569523D01*
X154257857Y-73569523D02*
X154353095Y-73521904D01*
X154353095Y-73521904D02*
X154543571Y-73474285D01*
X154543571Y-73474285D02*
X154781666Y-73474285D01*
X154781666Y-73474285D02*
X154972142Y-73521904D01*
X154972142Y-73521904D02*
X155067380Y-73569523D01*
X155067380Y-73569523D02*
X155115000Y-73617142D01*
X155115000Y-73617142D02*
X155162619Y-73712380D01*
X155162619Y-73712380D02*
X155162619Y-73807618D01*
X155162619Y-73807618D02*
X155115000Y-73902856D01*
X155115000Y-73902856D02*
X155067380Y-73950475D01*
X155067380Y-73950475D02*
X154972142Y-73998094D01*
X154972142Y-73998094D02*
X154781666Y-74045713D01*
X154781666Y-74045713D02*
X154543571Y-74045713D01*
X154543571Y-74045713D02*
X154353095Y-73998094D01*
X154353095Y-73998094D02*
X154257857Y-73950475D01*
X154257857Y-73950475D02*
X154210238Y-73902856D01*
X154210238Y-73902856D02*
X154162619Y-73807618D01*
X154162619Y-72855237D02*
X154162619Y-72759999D01*
X154162619Y-72759999D02*
X154210238Y-72664761D01*
X154210238Y-72664761D02*
X154257857Y-72617142D01*
X154257857Y-72617142D02*
X154353095Y-72569523D01*
X154353095Y-72569523D02*
X154543571Y-72521904D01*
X154543571Y-72521904D02*
X154781666Y-72521904D01*
X154781666Y-72521904D02*
X154972142Y-72569523D01*
X154972142Y-72569523D02*
X155067380Y-72617142D01*
X155067380Y-72617142D02*
X155115000Y-72664761D01*
X155115000Y-72664761D02*
X155162619Y-72759999D01*
X155162619Y-72759999D02*
X155162619Y-72855237D01*
X155162619Y-72855237D02*
X155115000Y-72950475D01*
X155115000Y-72950475D02*
X155067380Y-72998094D01*
X155067380Y-72998094D02*
X154972142Y-73045713D01*
X154972142Y-73045713D02*
X154781666Y-73093332D01*
X154781666Y-73093332D02*
X154543571Y-73093332D01*
X154543571Y-73093332D02*
X154353095Y-73045713D01*
X154353095Y-73045713D02*
X154257857Y-72998094D01*
X154257857Y-72998094D02*
X154210238Y-72950475D01*
X154210238Y-72950475D02*
X154162619Y-72855237D01*
X155162619Y-72093332D02*
X154162619Y-72093332D01*
X155162619Y-71521904D02*
X154591190Y-71950475D01*
X154162619Y-71521904D02*
X154734047Y-72093332D01*
X167759523Y-73562619D02*
X167188095Y-73562619D01*
X167473809Y-73562619D02*
X167473809Y-72562619D01*
X167473809Y-72562619D02*
X167378571Y-72705476D01*
X167378571Y-72705476D02*
X167283333Y-72800714D01*
X167283333Y-72800714D02*
X167188095Y-72848333D01*
X168378571Y-72562619D02*
X168473809Y-72562619D01*
X168473809Y-72562619D02*
X168569047Y-72610238D01*
X168569047Y-72610238D02*
X168616666Y-72657857D01*
X168616666Y-72657857D02*
X168664285Y-72753095D01*
X168664285Y-72753095D02*
X168711904Y-72943571D01*
X168711904Y-72943571D02*
X168711904Y-73181666D01*
X168711904Y-73181666D02*
X168664285Y-73372142D01*
X168664285Y-73372142D02*
X168616666Y-73467380D01*
X168616666Y-73467380D02*
X168569047Y-73515000D01*
X168569047Y-73515000D02*
X168473809Y-73562619D01*
X168473809Y-73562619D02*
X168378571Y-73562619D01*
X168378571Y-73562619D02*
X168283333Y-73515000D01*
X168283333Y-73515000D02*
X168235714Y-73467380D01*
X168235714Y-73467380D02*
X168188095Y-73372142D01*
X168188095Y-73372142D02*
X168140476Y-73181666D01*
X168140476Y-73181666D02*
X168140476Y-72943571D01*
X168140476Y-72943571D02*
X168188095Y-72753095D01*
X168188095Y-72753095D02*
X168235714Y-72657857D01*
X168235714Y-72657857D02*
X168283333Y-72610238D01*
X168283333Y-72610238D02*
X168378571Y-72562619D01*
X169140476Y-73562619D02*
X169140476Y-72562619D01*
X169711904Y-73562619D02*
X169283333Y-72991190D01*
X169711904Y-72562619D02*
X169140476Y-73134047D01*
X160483333Y-110407380D02*
X160435714Y-110455000D01*
X160435714Y-110455000D02*
X160292857Y-110502619D01*
X160292857Y-110502619D02*
X160197619Y-110502619D01*
X160197619Y-110502619D02*
X160054762Y-110455000D01*
X160054762Y-110455000D02*
X159959524Y-110359761D01*
X159959524Y-110359761D02*
X159911905Y-110264523D01*
X159911905Y-110264523D02*
X159864286Y-110074047D01*
X159864286Y-110074047D02*
X159864286Y-109931190D01*
X159864286Y-109931190D02*
X159911905Y-109740714D01*
X159911905Y-109740714D02*
X159959524Y-109645476D01*
X159959524Y-109645476D02*
X160054762Y-109550238D01*
X160054762Y-109550238D02*
X160197619Y-109502619D01*
X160197619Y-109502619D02*
X160292857Y-109502619D01*
X160292857Y-109502619D02*
X160435714Y-109550238D01*
X160435714Y-109550238D02*
X160483333Y-109597857D01*
X160816667Y-109502619D02*
X161435714Y-109502619D01*
X161435714Y-109502619D02*
X161102381Y-109883571D01*
X161102381Y-109883571D02*
X161245238Y-109883571D01*
X161245238Y-109883571D02*
X161340476Y-109931190D01*
X161340476Y-109931190D02*
X161388095Y-109978809D01*
X161388095Y-109978809D02*
X161435714Y-110074047D01*
X161435714Y-110074047D02*
X161435714Y-110312142D01*
X161435714Y-110312142D02*
X161388095Y-110407380D01*
X161388095Y-110407380D02*
X161340476Y-110455000D01*
X161340476Y-110455000D02*
X161245238Y-110502619D01*
X161245238Y-110502619D02*
X160959524Y-110502619D01*
X160959524Y-110502619D02*
X160864286Y-110455000D01*
X160864286Y-110455000D02*
X160816667Y-110407380D01*
X150309523Y-110562619D02*
X149738095Y-110562619D01*
X150023809Y-110562619D02*
X150023809Y-109562619D01*
X150023809Y-109562619D02*
X149928571Y-109705476D01*
X149928571Y-109705476D02*
X149833333Y-109800714D01*
X149833333Y-109800714D02*
X149738095Y-109848333D01*
X150928571Y-109562619D02*
X151023809Y-109562619D01*
X151023809Y-109562619D02*
X151119047Y-109610238D01*
X151119047Y-109610238D02*
X151166666Y-109657857D01*
X151166666Y-109657857D02*
X151214285Y-109753095D01*
X151214285Y-109753095D02*
X151261904Y-109943571D01*
X151261904Y-109943571D02*
X151261904Y-110181666D01*
X151261904Y-110181666D02*
X151214285Y-110372142D01*
X151214285Y-110372142D02*
X151166666Y-110467380D01*
X151166666Y-110467380D02*
X151119047Y-110515000D01*
X151119047Y-110515000D02*
X151023809Y-110562619D01*
X151023809Y-110562619D02*
X150928571Y-110562619D01*
X150928571Y-110562619D02*
X150833333Y-110515000D01*
X150833333Y-110515000D02*
X150785714Y-110467380D01*
X150785714Y-110467380D02*
X150738095Y-110372142D01*
X150738095Y-110372142D02*
X150690476Y-110181666D01*
X150690476Y-110181666D02*
X150690476Y-109943571D01*
X150690476Y-109943571D02*
X150738095Y-109753095D01*
X150738095Y-109753095D02*
X150785714Y-109657857D01*
X150785714Y-109657857D02*
X150833333Y-109610238D01*
X150833333Y-109610238D02*
X150928571Y-109562619D01*
X151690476Y-110562619D02*
X151690476Y-109562619D01*
X152261904Y-110562619D02*
X151833333Y-109991190D01*
X152261904Y-109562619D02*
X151690476Y-110134047D01*
X150862619Y-82316666D02*
X150862619Y-82888094D01*
X150862619Y-82602380D02*
X149862619Y-82602380D01*
X149862619Y-82602380D02*
X150005476Y-82697618D01*
X150005476Y-82697618D02*
X150100714Y-82792856D01*
X150100714Y-82792856D02*
X150148333Y-82888094D01*
X149862619Y-81697618D02*
X149862619Y-81602380D01*
X149862619Y-81602380D02*
X149910238Y-81507142D01*
X149910238Y-81507142D02*
X149957857Y-81459523D01*
X149957857Y-81459523D02*
X150053095Y-81411904D01*
X150053095Y-81411904D02*
X150243571Y-81364285D01*
X150243571Y-81364285D02*
X150481666Y-81364285D01*
X150481666Y-81364285D02*
X150672142Y-81411904D01*
X150672142Y-81411904D02*
X150767380Y-81459523D01*
X150767380Y-81459523D02*
X150815000Y-81507142D01*
X150815000Y-81507142D02*
X150862619Y-81602380D01*
X150862619Y-81602380D02*
X150862619Y-81697618D01*
X150862619Y-81697618D02*
X150815000Y-81792856D01*
X150815000Y-81792856D02*
X150767380Y-81840475D01*
X150767380Y-81840475D02*
X150672142Y-81888094D01*
X150672142Y-81888094D02*
X150481666Y-81935713D01*
X150481666Y-81935713D02*
X150243571Y-81935713D01*
X150243571Y-81935713D02*
X150053095Y-81888094D01*
X150053095Y-81888094D02*
X149957857Y-81840475D01*
X149957857Y-81840475D02*
X149910238Y-81792856D01*
X149910238Y-81792856D02*
X149862619Y-81697618D01*
X149862619Y-80745237D02*
X149862619Y-80649999D01*
X149862619Y-80649999D02*
X149910238Y-80554761D01*
X149910238Y-80554761D02*
X149957857Y-80507142D01*
X149957857Y-80507142D02*
X150053095Y-80459523D01*
X150053095Y-80459523D02*
X150243571Y-80411904D01*
X150243571Y-80411904D02*
X150481666Y-80411904D01*
X150481666Y-80411904D02*
X150672142Y-80459523D01*
X150672142Y-80459523D02*
X150767380Y-80507142D01*
X150767380Y-80507142D02*
X150815000Y-80554761D01*
X150815000Y-80554761D02*
X150862619Y-80649999D01*
X150862619Y-80649999D02*
X150862619Y-80745237D01*
X150862619Y-80745237D02*
X150815000Y-80840475D01*
X150815000Y-80840475D02*
X150767380Y-80888094D01*
X150767380Y-80888094D02*
X150672142Y-80935713D01*
X150672142Y-80935713D02*
X150481666Y-80983332D01*
X150481666Y-80983332D02*
X150243571Y-80983332D01*
X150243571Y-80983332D02*
X150053095Y-80935713D01*
X150053095Y-80935713D02*
X149957857Y-80888094D01*
X149957857Y-80888094D02*
X149910238Y-80840475D01*
X149910238Y-80840475D02*
X149862619Y-80745237D01*
X150862619Y-79983332D02*
X149862619Y-79983332D01*
X150862619Y-79411904D02*
X150291190Y-79840475D01*
X149862619Y-79411904D02*
X150434047Y-79983332D01*
X143827380Y-91466666D02*
X143875000Y-91514285D01*
X143875000Y-91514285D02*
X143922619Y-91657142D01*
X143922619Y-91657142D02*
X143922619Y-91752380D01*
X143922619Y-91752380D02*
X143875000Y-91895237D01*
X143875000Y-91895237D02*
X143779761Y-91990475D01*
X143779761Y-91990475D02*
X143684523Y-92038094D01*
X143684523Y-92038094D02*
X143494047Y-92085713D01*
X143494047Y-92085713D02*
X143351190Y-92085713D01*
X143351190Y-92085713D02*
X143160714Y-92038094D01*
X143160714Y-92038094D02*
X143065476Y-91990475D01*
X143065476Y-91990475D02*
X142970238Y-91895237D01*
X142970238Y-91895237D02*
X142922619Y-91752380D01*
X142922619Y-91752380D02*
X142922619Y-91657142D01*
X142922619Y-91657142D02*
X142970238Y-91514285D01*
X142970238Y-91514285D02*
X143017857Y-91466666D01*
X143255952Y-90609523D02*
X143922619Y-90609523D01*
X142875000Y-90847618D02*
X143589285Y-91085713D01*
X143589285Y-91085713D02*
X143589285Y-90466666D01*
X146738571Y-94562619D02*
X146167143Y-94562619D01*
X146452857Y-94562619D02*
X146452857Y-93562619D01*
X146452857Y-93562619D02*
X146357619Y-93705476D01*
X146357619Y-93705476D02*
X146262381Y-93800714D01*
X146262381Y-93800714D02*
X146167143Y-93848333D01*
X147357619Y-93562619D02*
X147452857Y-93562619D01*
X147452857Y-93562619D02*
X147548095Y-93610238D01*
X147548095Y-93610238D02*
X147595714Y-93657857D01*
X147595714Y-93657857D02*
X147643333Y-93753095D01*
X147643333Y-93753095D02*
X147690952Y-93943571D01*
X147690952Y-93943571D02*
X147690952Y-94181666D01*
X147690952Y-94181666D02*
X147643333Y-94372142D01*
X147643333Y-94372142D02*
X147595714Y-94467380D01*
X147595714Y-94467380D02*
X147548095Y-94515000D01*
X147548095Y-94515000D02*
X147452857Y-94562619D01*
X147452857Y-94562619D02*
X147357619Y-94562619D01*
X147357619Y-94562619D02*
X147262381Y-94515000D01*
X147262381Y-94515000D02*
X147214762Y-94467380D01*
X147214762Y-94467380D02*
X147167143Y-94372142D01*
X147167143Y-94372142D02*
X147119524Y-94181666D01*
X147119524Y-94181666D02*
X147119524Y-93943571D01*
X147119524Y-93943571D02*
X147167143Y-93753095D01*
X147167143Y-93753095D02*
X147214762Y-93657857D01*
X147214762Y-93657857D02*
X147262381Y-93610238D01*
X147262381Y-93610238D02*
X147357619Y-93562619D01*
X148548095Y-93895952D02*
X148548095Y-94562619D01*
X148119524Y-93895952D02*
X148119524Y-94419761D01*
X148119524Y-94419761D02*
X148167143Y-94515000D01*
X148167143Y-94515000D02*
X148262381Y-94562619D01*
X148262381Y-94562619D02*
X148405238Y-94562619D01*
X148405238Y-94562619D02*
X148500476Y-94515000D01*
X148500476Y-94515000D02*
X148548095Y-94467380D01*
X149357619Y-94038809D02*
X149024286Y-94038809D01*
X149024286Y-94562619D02*
X149024286Y-93562619D01*
X149024286Y-93562619D02*
X149500476Y-93562619D01*
X158162619Y-73950476D02*
X158162619Y-74521904D01*
X158162619Y-74236190D02*
X157162619Y-74236190D01*
X157162619Y-74236190D02*
X157305476Y-74331428D01*
X157305476Y-74331428D02*
X157400714Y-74426666D01*
X157400714Y-74426666D02*
X157448333Y-74521904D01*
X157162619Y-73331428D02*
X157162619Y-73236190D01*
X157162619Y-73236190D02*
X157210238Y-73140952D01*
X157210238Y-73140952D02*
X157257857Y-73093333D01*
X157257857Y-73093333D02*
X157353095Y-73045714D01*
X157353095Y-73045714D02*
X157543571Y-72998095D01*
X157543571Y-72998095D02*
X157781666Y-72998095D01*
X157781666Y-72998095D02*
X157972142Y-73045714D01*
X157972142Y-73045714D02*
X158067380Y-73093333D01*
X158067380Y-73093333D02*
X158115000Y-73140952D01*
X158115000Y-73140952D02*
X158162619Y-73236190D01*
X158162619Y-73236190D02*
X158162619Y-73331428D01*
X158162619Y-73331428D02*
X158115000Y-73426666D01*
X158115000Y-73426666D02*
X158067380Y-73474285D01*
X158067380Y-73474285D02*
X157972142Y-73521904D01*
X157972142Y-73521904D02*
X157781666Y-73569523D01*
X157781666Y-73569523D02*
X157543571Y-73569523D01*
X157543571Y-73569523D02*
X157353095Y-73521904D01*
X157353095Y-73521904D02*
X157257857Y-73474285D01*
X157257857Y-73474285D02*
X157210238Y-73426666D01*
X157210238Y-73426666D02*
X157162619Y-73331428D01*
X158162619Y-72569523D02*
X157162619Y-72569523D01*
X158162619Y-71998095D02*
X157591190Y-72426666D01*
X157162619Y-71998095D02*
X157734047Y-72569523D01*
X161195952Y-100875714D02*
X161862619Y-100875714D01*
X160815000Y-101113809D02*
X161529285Y-101351904D01*
X161529285Y-101351904D02*
X161529285Y-100732857D01*
X161862619Y-100351904D02*
X160862619Y-100351904D01*
X161862619Y-99780476D02*
X161291190Y-100209047D01*
X160862619Y-99780476D02*
X161434047Y-100351904D01*
X160862619Y-99447142D02*
X160862619Y-98780476D01*
X160862619Y-98780476D02*
X161862619Y-99209047D01*
X161547143Y-87347857D02*
X161594762Y-87300238D01*
X161594762Y-87300238D02*
X161690000Y-87252619D01*
X161690000Y-87252619D02*
X161928095Y-87252619D01*
X161928095Y-87252619D02*
X162023333Y-87300238D01*
X162023333Y-87300238D02*
X162070952Y-87347857D01*
X162070952Y-87347857D02*
X162118571Y-87443095D01*
X162118571Y-87443095D02*
X162118571Y-87538333D01*
X162118571Y-87538333D02*
X162070952Y-87681190D01*
X162070952Y-87681190D02*
X161499524Y-88252619D01*
X161499524Y-88252619D02*
X162118571Y-88252619D01*
X162499524Y-87347857D02*
X162547143Y-87300238D01*
X162547143Y-87300238D02*
X162642381Y-87252619D01*
X162642381Y-87252619D02*
X162880476Y-87252619D01*
X162880476Y-87252619D02*
X162975714Y-87300238D01*
X162975714Y-87300238D02*
X163023333Y-87347857D01*
X163023333Y-87347857D02*
X163070952Y-87443095D01*
X163070952Y-87443095D02*
X163070952Y-87538333D01*
X163070952Y-87538333D02*
X163023333Y-87681190D01*
X163023333Y-87681190D02*
X162451905Y-88252619D01*
X162451905Y-88252619D02*
X163070952Y-88252619D01*
X163928095Y-87585952D02*
X163928095Y-88252619D01*
X163499524Y-87585952D02*
X163499524Y-88109761D01*
X163499524Y-88109761D02*
X163547143Y-88205000D01*
X163547143Y-88205000D02*
X163642381Y-88252619D01*
X163642381Y-88252619D02*
X163785238Y-88252619D01*
X163785238Y-88252619D02*
X163880476Y-88205000D01*
X163880476Y-88205000D02*
X163928095Y-88157380D01*
X164737619Y-87728809D02*
X164404286Y-87728809D01*
X164404286Y-88252619D02*
X164404286Y-87252619D01*
X164404286Y-87252619D02*
X164880476Y-87252619D01*
X160842380Y-65041666D02*
X160890000Y-65089285D01*
X160890000Y-65089285D02*
X160937619Y-65232142D01*
X160937619Y-65232142D02*
X160937619Y-65327380D01*
X160937619Y-65327380D02*
X160890000Y-65470237D01*
X160890000Y-65470237D02*
X160794761Y-65565475D01*
X160794761Y-65565475D02*
X160699523Y-65613094D01*
X160699523Y-65613094D02*
X160509047Y-65660713D01*
X160509047Y-65660713D02*
X160366190Y-65660713D01*
X160366190Y-65660713D02*
X160175714Y-65613094D01*
X160175714Y-65613094D02*
X160080476Y-65565475D01*
X160080476Y-65565475D02*
X159985238Y-65470237D01*
X159985238Y-65470237D02*
X159937619Y-65327380D01*
X159937619Y-65327380D02*
X159937619Y-65232142D01*
X159937619Y-65232142D02*
X159985238Y-65089285D01*
X159985238Y-65089285D02*
X160032857Y-65041666D01*
X160937619Y-64089285D02*
X160937619Y-64660713D01*
X160937619Y-64374999D02*
X159937619Y-64374999D01*
X159937619Y-64374999D02*
X160080476Y-64470237D01*
X160080476Y-64470237D02*
X160175714Y-64565475D01*
X160175714Y-64565475D02*
X160223333Y-64660713D01*
X170902619Y-87490476D02*
X170902619Y-88061904D01*
X170902619Y-87776190D02*
X169902619Y-87776190D01*
X169902619Y-87776190D02*
X170045476Y-87871428D01*
X170045476Y-87871428D02*
X170140714Y-87966666D01*
X170140714Y-87966666D02*
X170188333Y-88061904D01*
X169902619Y-86871428D02*
X169902619Y-86776190D01*
X169902619Y-86776190D02*
X169950238Y-86680952D01*
X169950238Y-86680952D02*
X169997857Y-86633333D01*
X169997857Y-86633333D02*
X170093095Y-86585714D01*
X170093095Y-86585714D02*
X170283571Y-86538095D01*
X170283571Y-86538095D02*
X170521666Y-86538095D01*
X170521666Y-86538095D02*
X170712142Y-86585714D01*
X170712142Y-86585714D02*
X170807380Y-86633333D01*
X170807380Y-86633333D02*
X170855000Y-86680952D01*
X170855000Y-86680952D02*
X170902619Y-86776190D01*
X170902619Y-86776190D02*
X170902619Y-86871428D01*
X170902619Y-86871428D02*
X170855000Y-86966666D01*
X170855000Y-86966666D02*
X170807380Y-87014285D01*
X170807380Y-87014285D02*
X170712142Y-87061904D01*
X170712142Y-87061904D02*
X170521666Y-87109523D01*
X170521666Y-87109523D02*
X170283571Y-87109523D01*
X170283571Y-87109523D02*
X170093095Y-87061904D01*
X170093095Y-87061904D02*
X169997857Y-87014285D01*
X169997857Y-87014285D02*
X169950238Y-86966666D01*
X169950238Y-86966666D02*
X169902619Y-86871428D01*
X170902619Y-86109523D02*
X169902619Y-86109523D01*
X170902619Y-85538095D02*
X170331190Y-85966666D01*
X169902619Y-85538095D02*
X170474047Y-86109523D01*
D14*
X148380000Y-71220000D02*
X148380000Y-64680000D01*
X148710000Y-71220000D02*
X148380000Y-71220000D01*
X150790000Y-71220000D02*
X151120000Y-71220000D01*
X151120000Y-71220000D02*
X151120000Y-64680000D01*
X148380000Y-64680000D02*
X148710000Y-64680000D01*
X151120000Y-64680000D02*
X150790000Y-64680000D01*
X142960000Y-95606000D02*
X142960000Y-95606000D01*
X142960000Y-95606000D02*
X148294000Y-95606000D01*
X142960000Y-106274000D02*
X142960000Y-95606000D01*
X142960000Y-106274000D02*
X142960000Y-106274000D01*
X143214000Y-98400000D02*
X143214000Y-98400000D01*
X145500000Y-96114000D02*
X145500000Y-98400000D01*
X145500000Y-98400000D02*
X143214000Y-98400000D01*
X148294000Y-95606000D02*
X148294000Y-106274000D01*
X148294000Y-106274000D02*
X142960000Y-106274000D01*
X171720000Y-77510000D02*
X165180000Y-77510000D01*
X171720000Y-77180000D02*
X171720000Y-77510000D01*
X171720000Y-75100000D02*
X171720000Y-74770000D01*
X171720000Y-74770000D02*
X165180000Y-74770000D01*
X165180000Y-77510000D02*
X165180000Y-77180000D01*
X165180000Y-74770000D02*
X165180000Y-75100000D01*
X165180000Y-68760000D02*
X171720000Y-68760000D01*
X165180000Y-69090000D02*
X165180000Y-68760000D01*
X165180000Y-71170000D02*
X165180000Y-71500000D01*
X165180000Y-71500000D02*
X171720000Y-71500000D01*
X171720000Y-68760000D02*
X171720000Y-69090000D01*
X171720000Y-71500000D02*
X171720000Y-71170000D01*
X167490000Y-68420000D02*
X169730000Y-68420000D01*
X167490000Y-68420000D02*
X167490000Y-61180000D01*
X169730000Y-68420000D02*
X169730000Y-61180000D01*
X167490000Y-61180000D02*
X169730000Y-61180000D01*
X156045000Y-69990000D02*
X156045000Y-76530000D01*
X155715000Y-69990000D02*
X156045000Y-69990000D01*
X153635000Y-69990000D02*
X153305000Y-69990000D01*
X153305000Y-69990000D02*
X153305000Y-76530000D01*
X156045000Y-76530000D02*
X155715000Y-76530000D01*
X153305000Y-76530000D02*
X153635000Y-76530000D01*
X162720000Y-67240000D02*
X166320000Y-67240000D01*
X164530000Y-63323511D02*
G75*
G03*
X162720000Y-67240000I0J-2376489D01*
G01*
X166331520Y-67249912D02*
G75*
G03*
X164530000Y-63323511I-1801520J1549912D01*
G01*
X171720000Y-74510000D02*
X165180000Y-74510000D01*
X171720000Y-74180000D02*
X171720000Y-74510000D01*
X171720000Y-72100000D02*
X171720000Y-71770000D01*
X171720000Y-71770000D02*
X165180000Y-71770000D01*
X165180000Y-74510000D02*
X165180000Y-74180000D01*
X165180000Y-71770000D02*
X165180000Y-72100000D01*
X170470000Y-95305000D02*
X170470000Y-100445000D01*
X170470000Y-95305000D02*
X173130000Y-95305000D01*
X170470000Y-97845000D02*
X170470000Y-102985000D01*
X170470000Y-97845000D02*
X173130000Y-97845000D01*
X170470000Y-100445000D02*
X173130000Y-100445000D01*
X170470000Y-102985000D02*
X170470000Y-108125000D01*
X170470000Y-102985000D02*
X173130000Y-102985000D01*
X170470000Y-102985000D02*
X173130000Y-102985000D01*
X170470000Y-105585000D02*
X173130000Y-105585000D01*
X170470000Y-108125000D02*
X173130000Y-108125000D01*
X173130000Y-95305000D02*
X173130000Y-100445000D01*
X173130000Y-97845000D02*
X173130000Y-102985000D01*
X173130000Y-102985000D02*
X173130000Y-108125000D01*
X164220000Y-111190000D02*
X164220000Y-108950000D01*
X164220000Y-111190000D02*
X156980000Y-111190000D01*
X164220000Y-108950000D02*
X156980000Y-108950000D01*
X156980000Y-111190000D02*
X156980000Y-108950000D01*
X147730000Y-108730000D02*
X154270000Y-108730000D01*
X147730000Y-109060000D02*
X147730000Y-108730000D01*
X147730000Y-111140000D02*
X147730000Y-111470000D01*
X147730000Y-111470000D02*
X154270000Y-111470000D01*
X154270000Y-108730000D02*
X154270000Y-109060000D01*
X154270000Y-111470000D02*
X154270000Y-111140000D01*
X131930000Y-108430000D02*
X139670000Y-108430000D01*
X131930000Y-108430000D02*
X131930000Y-107100000D01*
X131930000Y-108430000D02*
X131930000Y-105770000D01*
X139670000Y-108430000D02*
X139670000Y-105770000D01*
X131930000Y-105770000D02*
X139670000Y-105770000D01*
X153410000Y-83430000D02*
X153410000Y-86030000D01*
X153410000Y-83430000D02*
X156070000Y-83430000D01*
X153410000Y-86030000D02*
X156070000Y-86030000D01*
X156070000Y-83430000D02*
X156070000Y-86030000D01*
X150475000Y-85190000D02*
X150475000Y-84420000D01*
X149105000Y-84420000D02*
X151845000Y-84420000D01*
X151845000Y-84420000D02*
X151845000Y-77880000D01*
X149105000Y-77880000D02*
X149105000Y-84420000D01*
X151845000Y-77880000D02*
X149105000Y-77880000D01*
X150475000Y-77110000D02*
X150475000Y-77880000D01*
X142290000Y-94920000D02*
X144530000Y-94920000D01*
X142290000Y-94920000D02*
X142290000Y-87680000D01*
X144530000Y-94920000D02*
X144530000Y-87680000D01*
X142290000Y-87680000D02*
X144530000Y-87680000D01*
X155960000Y-83430000D02*
X155960000Y-86030000D01*
X155960000Y-83430000D02*
X158620000Y-83430000D01*
X155960000Y-86030000D02*
X158620000Y-86030000D01*
X158620000Y-83430000D02*
X158620000Y-86030000D01*
X149305113Y-92000000D02*
X148805113Y-92000000D01*
X149055113Y-92250000D02*
X149055113Y-91750000D01*
X147705113Y-93180000D02*
X147705113Y-88020000D01*
X147665113Y-93180000D02*
X147665113Y-88020000D01*
X147625113Y-93179000D02*
X147625113Y-88021000D01*
X147585113Y-93178000D02*
X147585113Y-88022000D01*
X147545113Y-93176000D02*
X147545113Y-88024000D01*
X147505113Y-93173000D02*
X147505113Y-88027000D01*
X147465113Y-93169000D02*
X147465113Y-91640000D01*
X147465113Y-89560000D02*
X147465113Y-88031000D01*
X147425113Y-93165000D02*
X147425113Y-91640000D01*
X147425113Y-89560000D02*
X147425113Y-88035000D01*
X147385113Y-93161000D02*
X147385113Y-91640000D01*
X147385113Y-89560000D02*
X147385113Y-88039000D01*
X147345113Y-93156000D02*
X147345113Y-91640000D01*
X147345113Y-89560000D02*
X147345113Y-88044000D01*
X147305113Y-93150000D02*
X147305113Y-91640000D01*
X147305113Y-89560000D02*
X147305113Y-88050000D01*
X147265113Y-93143000D02*
X147265113Y-91640000D01*
X147265113Y-89560000D02*
X147265113Y-88057000D01*
X147225113Y-93136000D02*
X147225113Y-91640000D01*
X147225113Y-89560000D02*
X147225113Y-88064000D01*
X147185113Y-93128000D02*
X147185113Y-91640000D01*
X147185113Y-89560000D02*
X147185113Y-88072000D01*
X147145113Y-93120000D02*
X147145113Y-91640000D01*
X147145113Y-89560000D02*
X147145113Y-88080000D01*
X147105113Y-93111000D02*
X147105113Y-91640000D01*
X147105113Y-89560000D02*
X147105113Y-88089000D01*
X147065113Y-93101000D02*
X147065113Y-91640000D01*
X147065113Y-89560000D02*
X147065113Y-88099000D01*
X147025113Y-93091000D02*
X147025113Y-91640000D01*
X147025113Y-89560000D02*
X147025113Y-88109000D01*
X146984113Y-93080000D02*
X146984113Y-91640000D01*
X146984113Y-89560000D02*
X146984113Y-88120000D01*
X146944113Y-93068000D02*
X146944113Y-91640000D01*
X146944113Y-89560000D02*
X146944113Y-88132000D01*
X146904113Y-93055000D02*
X146904113Y-91640000D01*
X146904113Y-89560000D02*
X146904113Y-88145000D01*
X146864113Y-93042000D02*
X146864113Y-91640000D01*
X146864113Y-89560000D02*
X146864113Y-88158000D01*
X146824113Y-93028000D02*
X146824113Y-91640000D01*
X146824113Y-89560000D02*
X146824113Y-88172000D01*
X146784113Y-93014000D02*
X146784113Y-91640000D01*
X146784113Y-89560000D02*
X146784113Y-88186000D01*
X146744113Y-92998000D02*
X146744113Y-91640000D01*
X146744113Y-89560000D02*
X146744113Y-88202000D01*
X146704113Y-92982000D02*
X146704113Y-91640000D01*
X146704113Y-89560000D02*
X146704113Y-88218000D01*
X146664113Y-92965000D02*
X146664113Y-91640000D01*
X146664113Y-89560000D02*
X146664113Y-88235000D01*
X146624113Y-92948000D02*
X146624113Y-91640000D01*
X146624113Y-89560000D02*
X146624113Y-88252000D01*
X146584113Y-92929000D02*
X146584113Y-91640000D01*
X146584113Y-89560000D02*
X146584113Y-88271000D01*
X146544113Y-92910000D02*
X146544113Y-91640000D01*
X146544113Y-89560000D02*
X146544113Y-88290000D01*
X146504113Y-92890000D02*
X146504113Y-91640000D01*
X146504113Y-89560000D02*
X146504113Y-88310000D01*
X146464113Y-92868000D02*
X146464113Y-91640000D01*
X146464113Y-89560000D02*
X146464113Y-88332000D01*
X146424113Y-92847000D02*
X146424113Y-91640000D01*
X146424113Y-89560000D02*
X146424113Y-88353000D01*
X146384113Y-92824000D02*
X146384113Y-91640000D01*
X146384113Y-89560000D02*
X146384113Y-88376000D01*
X146344113Y-92800000D02*
X146344113Y-91640000D01*
X146344113Y-89560000D02*
X146344113Y-88400000D01*
X146304113Y-92775000D02*
X146304113Y-91640000D01*
X146304113Y-89560000D02*
X146304113Y-88425000D01*
X146264113Y-92749000D02*
X146264113Y-91640000D01*
X146264113Y-89560000D02*
X146264113Y-88451000D01*
X146224113Y-92722000D02*
X146224113Y-91640000D01*
X146224113Y-89560000D02*
X146224113Y-88478000D01*
X146184113Y-92695000D02*
X146184113Y-91640000D01*
X146184113Y-89560000D02*
X146184113Y-88505000D01*
X146144113Y-92665000D02*
X146144113Y-91640000D01*
X146144113Y-89560000D02*
X146144113Y-88535000D01*
X146104113Y-92635000D02*
X146104113Y-91640000D01*
X146104113Y-89560000D02*
X146104113Y-88565000D01*
X146064113Y-92604000D02*
X146064113Y-91640000D01*
X146064113Y-89560000D02*
X146064113Y-88596000D01*
X146024113Y-92571000D02*
X146024113Y-91640000D01*
X146024113Y-89560000D02*
X146024113Y-88629000D01*
X145984113Y-92537000D02*
X145984113Y-91640000D01*
X145984113Y-89560000D02*
X145984113Y-88663000D01*
X145944113Y-92501000D02*
X145944113Y-91640000D01*
X145944113Y-89560000D02*
X145944113Y-88699000D01*
X145904113Y-92464000D02*
X145904113Y-91640000D01*
X145904113Y-89560000D02*
X145904113Y-88736000D01*
X145864113Y-92426000D02*
X145864113Y-91640000D01*
X145864113Y-89560000D02*
X145864113Y-88774000D01*
X145824113Y-92385000D02*
X145824113Y-91640000D01*
X145824113Y-89560000D02*
X145824113Y-88815000D01*
X145784113Y-92343000D02*
X145784113Y-91640000D01*
X145784113Y-89560000D02*
X145784113Y-88857000D01*
X145744113Y-92299000D02*
X145744113Y-91640000D01*
X145744113Y-89560000D02*
X145744113Y-88901000D01*
X145704113Y-92253000D02*
X145704113Y-91640000D01*
X145704113Y-89560000D02*
X145704113Y-88947000D01*
X145664113Y-92205000D02*
X145664113Y-91640000D01*
X145664113Y-89560000D02*
X145664113Y-88995000D01*
X145624113Y-92154000D02*
X145624113Y-91640000D01*
X145624113Y-89560000D02*
X145624113Y-89046000D01*
X145584113Y-92100000D02*
X145584113Y-91640000D01*
X145584113Y-89560000D02*
X145584113Y-89100000D01*
X145544113Y-92043000D02*
X145544113Y-91640000D01*
X145544113Y-89560000D02*
X145544113Y-89157000D01*
X145504113Y-91983000D02*
X145504113Y-91640000D01*
X145504113Y-89560000D02*
X145504113Y-89217000D01*
X145464113Y-91919000D02*
X145464113Y-91640000D01*
X145464113Y-89560000D02*
X145464113Y-89281000D01*
X145424113Y-91851000D02*
X145424113Y-91640000D01*
X145424113Y-89560000D02*
X145424113Y-89349000D01*
X145384113Y-91778000D02*
X145384113Y-89422000D01*
X145344113Y-91698000D02*
X145344113Y-89502000D01*
X145304113Y-91611000D02*
X145304113Y-89589000D01*
X145264113Y-91515000D02*
X145264113Y-89685000D01*
X145224113Y-91405000D02*
X145224113Y-89795000D01*
X145184113Y-91277000D02*
X145184113Y-89923000D01*
X145144113Y-91118000D02*
X145144113Y-90082000D01*
X145104113Y-90884000D02*
X145104113Y-90316000D01*
X150325113Y-90600000D02*
G75*
G03*
X150325113Y-90600000I-2620000J0D01*
G01*
X145060000Y-83430000D02*
X145060000Y-86030000D01*
X145060000Y-83430000D02*
X147720000Y-83430000D01*
X145060000Y-86030000D02*
X147720000Y-86030000D01*
X147720000Y-83430000D02*
X147720000Y-86030000D01*
X156380000Y-76530000D02*
X156380000Y-69990000D01*
X156710000Y-76530000D02*
X156380000Y-76530000D01*
X158790000Y-76530000D02*
X159120000Y-76530000D01*
X159120000Y-76530000D02*
X159120000Y-69990000D01*
X156380000Y-69990000D02*
X156710000Y-69990000D01*
X159120000Y-69990000D02*
X158790000Y-69990000D01*
X142460000Y-83440000D02*
X142460000Y-86040000D01*
X142460000Y-83440000D02*
X145120000Y-83440000D01*
X142460000Y-86040000D02*
X145120000Y-86040000D01*
X145120000Y-83440000D02*
X145120000Y-86040000D01*
X163260000Y-108125000D02*
X163260000Y-90225000D01*
X163260000Y-90225000D02*
X157960000Y-90225000D01*
X161140094Y-108125000D02*
X163260000Y-108125000D01*
X157960000Y-108125000D02*
X160079906Y-108125000D01*
X157960000Y-90225000D02*
X157960000Y-108125000D01*
X161140094Y-108125000D02*
G75*
G03*
X160079906Y-108125000I-530094J0D01*
G01*
D15*
X162745000Y-106795000D02*
G75*
G03*
X162745000Y-106795000I-225000J0D01*
G01*
D14*
X162760000Y-96820000D02*
X162760000Y-103360000D01*
X162430000Y-96820000D02*
X162760000Y-96820000D01*
X160350000Y-96820000D02*
X160020000Y-96820000D01*
X160020000Y-96820000D02*
X160020000Y-103360000D01*
X162760000Y-103360000D02*
X162430000Y-103360000D01*
X160020000Y-103360000D02*
X160350000Y-103360000D01*
X161525000Y-85097380D02*
X161525000Y-84467380D01*
X161210000Y-84782380D02*
X161840000Y-84782380D01*
X159895000Y-83532380D02*
X166355000Y-83532380D01*
X159895000Y-83492380D02*
X166355000Y-83492380D01*
X159895000Y-83452380D02*
X166355000Y-83452380D01*
X159897000Y-83412380D02*
X166353000Y-83412380D01*
X159898000Y-83372380D02*
X166352000Y-83372380D01*
X159901000Y-83332380D02*
X166349000Y-83332380D01*
X159903000Y-83292380D02*
X162085000Y-83292380D01*
X164165000Y-83292380D02*
X166347000Y-83292380D01*
X159907000Y-83252380D02*
X162085000Y-83252380D01*
X164165000Y-83252380D02*
X166343000Y-83252380D01*
X159910000Y-83212380D02*
X162085000Y-83212380D01*
X164165000Y-83212380D02*
X166340000Y-83212380D01*
X159914000Y-83172380D02*
X162085000Y-83172380D01*
X164165000Y-83172380D02*
X166336000Y-83172380D01*
X159919000Y-83132380D02*
X162085000Y-83132380D01*
X164165000Y-83132380D02*
X166331000Y-83132380D01*
X159924000Y-83092380D02*
X162085000Y-83092380D01*
X164165000Y-83092380D02*
X166326000Y-83092380D01*
X159930000Y-83052380D02*
X162085000Y-83052380D01*
X164165000Y-83052380D02*
X166320000Y-83052380D01*
X159936000Y-83012380D02*
X162085000Y-83012380D01*
X164165000Y-83012380D02*
X166314000Y-83012380D01*
X159943000Y-82972380D02*
X162085000Y-82972380D01*
X164165000Y-82972380D02*
X166307000Y-82972380D01*
X159950000Y-82932380D02*
X162085000Y-82932380D01*
X164165000Y-82932380D02*
X166300000Y-82932380D01*
X159958000Y-82892380D02*
X162085000Y-82892380D01*
X164165000Y-82892380D02*
X166292000Y-82892380D01*
X159966000Y-82852380D02*
X162085000Y-82852380D01*
X164165000Y-82852380D02*
X166284000Y-82852380D01*
X159975000Y-82811380D02*
X162085000Y-82811380D01*
X164165000Y-82811380D02*
X166275000Y-82811380D01*
X159984000Y-82771380D02*
X162085000Y-82771380D01*
X164165000Y-82771380D02*
X166266000Y-82771380D01*
X159994000Y-82731380D02*
X162085000Y-82731380D01*
X164165000Y-82731380D02*
X166256000Y-82731380D01*
X160004000Y-82691380D02*
X162085000Y-82691380D01*
X164165000Y-82691380D02*
X166246000Y-82691380D01*
X160015000Y-82651380D02*
X162085000Y-82651380D01*
X164165000Y-82651380D02*
X166235000Y-82651380D01*
X160027000Y-82611380D02*
X162085000Y-82611380D01*
X164165000Y-82611380D02*
X166223000Y-82611380D01*
X160039000Y-82571380D02*
X162085000Y-82571380D01*
X164165000Y-82571380D02*
X166211000Y-82571380D01*
X160051000Y-82531380D02*
X162085000Y-82531380D01*
X164165000Y-82531380D02*
X166199000Y-82531380D01*
X160064000Y-82491380D02*
X162085000Y-82491380D01*
X164165000Y-82491380D02*
X166186000Y-82491380D01*
X160078000Y-82451380D02*
X162085000Y-82451380D01*
X164165000Y-82451380D02*
X166172000Y-82451380D01*
X160092000Y-82411380D02*
X162085000Y-82411380D01*
X164165000Y-82411380D02*
X166158000Y-82411380D01*
X160107000Y-82371380D02*
X162085000Y-82371380D01*
X164165000Y-82371380D02*
X166143000Y-82371380D01*
X160123000Y-82331380D02*
X162085000Y-82331380D01*
X164165000Y-82331380D02*
X166127000Y-82331380D01*
X160139000Y-82291380D02*
X162085000Y-82291380D01*
X164165000Y-82291380D02*
X166111000Y-82291380D01*
X160155000Y-82251380D02*
X162085000Y-82251380D01*
X164165000Y-82251380D02*
X166095000Y-82251380D01*
X160173000Y-82211380D02*
X162085000Y-82211380D01*
X164165000Y-82211380D02*
X166077000Y-82211380D01*
X160191000Y-82171380D02*
X162085000Y-82171380D01*
X164165000Y-82171380D02*
X166059000Y-82171380D01*
X160209000Y-82131380D02*
X162085000Y-82131380D01*
X164165000Y-82131380D02*
X166041000Y-82131380D01*
X160229000Y-82091380D02*
X162085000Y-82091380D01*
X164165000Y-82091380D02*
X166021000Y-82091380D01*
X160249000Y-82051380D02*
X162085000Y-82051380D01*
X164165000Y-82051380D02*
X166001000Y-82051380D01*
X160269000Y-82011380D02*
X162085000Y-82011380D01*
X164165000Y-82011380D02*
X165981000Y-82011380D01*
X160291000Y-81971380D02*
X162085000Y-81971380D01*
X164165000Y-81971380D02*
X165959000Y-81971380D01*
X160313000Y-81931380D02*
X162085000Y-81931380D01*
X164165000Y-81931380D02*
X165937000Y-81931380D01*
X160335000Y-81891380D02*
X162085000Y-81891380D01*
X164165000Y-81891380D02*
X165915000Y-81891380D01*
X160359000Y-81851380D02*
X162085000Y-81851380D01*
X164165000Y-81851380D02*
X165891000Y-81851380D01*
X160383000Y-81811380D02*
X162085000Y-81811380D01*
X164165000Y-81811380D02*
X165867000Y-81811380D01*
X160409000Y-81771380D02*
X162085000Y-81771380D01*
X164165000Y-81771380D02*
X165841000Y-81771380D01*
X160435000Y-81731380D02*
X162085000Y-81731380D01*
X164165000Y-81731380D02*
X165815000Y-81731380D01*
X160461000Y-81691380D02*
X162085000Y-81691380D01*
X164165000Y-81691380D02*
X165789000Y-81691380D01*
X160489000Y-81651380D02*
X162085000Y-81651380D01*
X164165000Y-81651380D02*
X165761000Y-81651380D01*
X160518000Y-81611380D02*
X162085000Y-81611380D01*
X164165000Y-81611380D02*
X165732000Y-81611380D01*
X160547000Y-81571380D02*
X162085000Y-81571380D01*
X164165000Y-81571380D02*
X165703000Y-81571380D01*
X160577000Y-81531380D02*
X162085000Y-81531380D01*
X164165000Y-81531380D02*
X165673000Y-81531380D01*
X160609000Y-81491380D02*
X162085000Y-81491380D01*
X164165000Y-81491380D02*
X165641000Y-81491380D01*
X160641000Y-81451380D02*
X162085000Y-81451380D01*
X164165000Y-81451380D02*
X165609000Y-81451380D01*
X160675000Y-81411380D02*
X162085000Y-81411380D01*
X164165000Y-81411380D02*
X165575000Y-81411380D01*
X160709000Y-81371380D02*
X162085000Y-81371380D01*
X164165000Y-81371380D02*
X165541000Y-81371380D01*
X160745000Y-81331380D02*
X162085000Y-81331380D01*
X164165000Y-81331380D02*
X165505000Y-81331380D01*
X160782000Y-81291380D02*
X162085000Y-81291380D01*
X164165000Y-81291380D02*
X165468000Y-81291380D01*
X160820000Y-81251380D02*
X162085000Y-81251380D01*
X164165000Y-81251380D02*
X165430000Y-81251380D01*
X160860000Y-81211380D02*
X165390000Y-81211380D01*
X160901000Y-81171380D02*
X165349000Y-81171380D01*
X160943000Y-81131380D02*
X165307000Y-81131380D01*
X160988000Y-81091380D02*
X165262000Y-81091380D01*
X161033000Y-81051380D02*
X165217000Y-81051380D01*
X161081000Y-81011380D02*
X165169000Y-81011380D01*
X161130000Y-80971380D02*
X165120000Y-80971380D01*
X161181000Y-80931380D02*
X165069000Y-80931380D01*
X161235000Y-80891380D02*
X165015000Y-80891380D01*
X161291000Y-80851380D02*
X164959000Y-80851380D01*
X161349000Y-80811380D02*
X164901000Y-80811380D01*
X161411000Y-80771380D02*
X164839000Y-80771380D01*
X161475000Y-80731380D02*
X164775000Y-80731380D01*
X161544000Y-80691380D02*
X164706000Y-80691380D01*
X161616000Y-80651380D02*
X164634000Y-80651380D01*
X161693000Y-80611380D02*
X164557000Y-80611380D01*
X161775000Y-80571380D02*
X164475000Y-80571380D01*
X161863000Y-80531380D02*
X164387000Y-80531380D01*
X161960000Y-80491380D02*
X164290000Y-80491380D01*
X162066000Y-80451380D02*
X164184000Y-80451380D01*
X162185000Y-80411380D02*
X164065000Y-80411380D01*
X162323000Y-80371380D02*
X163927000Y-80371380D01*
X162492000Y-80331380D02*
X163758000Y-80331380D01*
X162723000Y-80291380D02*
X163527000Y-80291380D01*
X166395000Y-83532380D02*
G75*
G03*
X166395000Y-83532380I-3270000J0D01*
G01*
X142530000Y-60430000D02*
X142530000Y-63030000D01*
X142530000Y-60430000D02*
X145190000Y-60430000D01*
X142530000Y-63030000D02*
X145190000Y-63030000D01*
X145190000Y-60430000D02*
X145190000Y-63030000D01*
X143340000Y-72670000D02*
X146940000Y-72670000D01*
X145140000Y-68220000D02*
G75*
G03*
X143301522Y-72658478I0J-2600000D01*
G01*
X146978478Y-72658478D02*
G75*
G03*
X145140000Y-68220000I-1838478J1838478D01*
G01*
X159340000Y-68410000D02*
X161580000Y-68410000D01*
X159340000Y-68410000D02*
X159340000Y-61170000D01*
X161580000Y-68410000D02*
X161580000Y-61170000D01*
X159340000Y-61170000D02*
X161580000Y-61170000D01*
X141280000Y-112340000D02*
X145180000Y-112340000D01*
X143250000Y-108396000D02*
G75*
G03*
X141280001Y-112340000I0J-2464000D01*
G01*
X145205535Y-112339316D02*
G75*
G03*
X143250000Y-108407961I-1955535J1479316D01*
G01*
X154395000Y-67225000D02*
X157995000Y-67225000D01*
X156195000Y-63463617D02*
G75*
G03*
X154395001Y-67224999I0J-2311383D01*
G01*
X157994999Y-67224999D02*
G75*
G03*
X156195000Y-63463616I-1799999J1449999D01*
G01*
X155970000Y-60460000D02*
X155970000Y-63060000D01*
X155970000Y-60460000D02*
X158630000Y-60460000D01*
X155970000Y-63060000D02*
X158630000Y-63060000D01*
X158630000Y-60460000D02*
X158630000Y-63060000D01*
X170440000Y-90840000D02*
X170440000Y-90070000D01*
X169070000Y-90070000D02*
X171810000Y-90070000D01*
X171810000Y-90070000D02*
X171810000Y-83530000D01*
X169070000Y-83530000D02*
X169070000Y-90070000D01*
X171810000Y-83530000D02*
X169070000Y-83530000D01*
X170440000Y-82760000D02*
X170440000Y-83530000D01*
%LPC*%
D16*
X149750000Y-71760000D03*
D17*
X149750000Y-64140000D03*
D18*
X144230000Y-97130000D03*
D19*
X146770000Y-97130000D03*
X144230000Y-99670000D03*
X146770000Y-99670000D03*
X144230000Y-102210000D03*
X146770000Y-102210000D03*
X144230000Y-104750000D03*
X146770000Y-104750000D03*
D20*
X132150000Y-111900000D03*
D16*
X172260000Y-76140000D03*
D17*
X164640000Y-76140000D03*
D16*
X164640000Y-70130000D03*
D17*
X172260000Y-70130000D03*
D16*
X168610000Y-67300000D03*
X168610000Y-62300000D03*
X154675000Y-69450000D03*
D17*
X154675000Y-77070000D03*
D21*
X162860000Y-65700000D03*
D22*
X164530000Y-65700000D03*
X166260000Y-65700000D03*
D16*
X172260000Y-73140000D03*
D17*
X164640000Y-73140000D03*
D23*
X171800000Y-96575000D03*
X171800000Y-99115000D03*
X171800000Y-101655000D03*
X171800000Y-104255000D03*
X171800000Y-106795000D03*
D24*
X135050000Y-91935000D03*
D25*
X135050000Y-86935000D03*
D16*
X163100000Y-110070000D03*
X158100000Y-110070000D03*
D25*
X135050000Y-76835000D03*
D24*
X135050000Y-81835000D03*
D16*
X147190000Y-110100000D03*
D17*
X154810000Y-110100000D03*
D18*
X133260000Y-107100000D03*
D23*
X135800000Y-107100000D03*
X138340000Y-107100000D03*
D26*
X157300000Y-61750000D03*
X143900000Y-61750000D03*
X157300000Y-84750000D03*
X143900000Y-84750000D03*
X154760000Y-84750000D03*
X146440000Y-84750000D03*
D25*
X135050000Y-66800000D03*
D24*
X135050000Y-71800000D03*
D16*
X150475000Y-86230000D03*
D17*
X150475000Y-76070000D03*
D20*
X171850000Y-62200000D03*
D16*
X143410000Y-93800000D03*
X143410000Y-88800000D03*
D27*
X149065113Y-90600000D03*
D16*
X146355113Y-90600000D03*
D20*
X171850000Y-111900000D03*
D16*
X157750000Y-77070000D03*
D17*
X157750000Y-69450000D03*
D27*
X164420000Y-106795000D03*
D17*
X164420000Y-104255000D03*
X164420000Y-101715000D03*
X164420000Y-99175000D03*
X164420000Y-96635000D03*
X164420000Y-94095000D03*
X164420000Y-91555000D03*
X156800000Y-91555000D03*
X156800000Y-94095000D03*
X156800000Y-96635000D03*
X156800000Y-99175000D03*
X156800000Y-101715000D03*
X156800000Y-104255000D03*
X156800000Y-106795000D03*
D16*
X161390000Y-96280000D03*
D17*
X161390000Y-103900000D03*
D27*
X163125000Y-84782380D03*
D16*
X163125000Y-82282380D03*
D20*
X132150000Y-62200000D03*
D21*
X143470000Y-70820000D03*
D22*
X145140000Y-70820000D03*
X146870000Y-70820000D03*
D16*
X160460000Y-67290000D03*
X160460000Y-62290000D03*
D25*
X135050000Y-96950000D03*
D24*
X135050000Y-101950000D03*
D21*
X141570000Y-110860000D03*
D22*
X143250000Y-110860000D03*
X144910000Y-110860000D03*
D21*
X154525000Y-65775000D03*
D22*
X156195000Y-65775000D03*
X157925000Y-65775000D03*
D16*
X170440000Y-91880000D03*
D17*
X170440000Y-81720000D03*
M02*
