%TF.GenerationSoftware,KiCad,Pcbnew,7.0.1*%
%TF.CreationDate,2023-06-16T17:27:39+02:00*%
%TF.ProjectId,2Nrf_Node,324e7266-5f4e-46f6-9465-2e6b69636164,rev?*%
%TF.SameCoordinates,Original*%
%TF.FileFunction,Copper,L1,Top*%
%TF.FilePolarity,Positive*%
%FSLAX46Y46*%
G04 Gerber Fmt 4.6, Leading zero omitted, Abs format (unit mm)*
G04 Created by KiCad (PCBNEW 7.0.1) date 2023-06-16 17:27:39*
%MOMM*%
%LPD*%
G01*
G04 APERTURE LIST*
%TA.AperFunction,ComponentPad*%
%ADD10C,1.600000*%
%TD*%
%TA.AperFunction,ComponentPad*%
%ADD11O,1.600000X1.600000*%
%TD*%
%TA.AperFunction,ComponentPad*%
%ADD12R,1.700000X1.700000*%
%TD*%
%TA.AperFunction,ComponentPad*%
%ADD13C,1.700000*%
%TD*%
%TA.AperFunction,ComponentPad*%
%ADD14C,3.000000*%
%TD*%
%TA.AperFunction,ComponentPad*%
%ADD15R,1.050000X1.500000*%
%TD*%
%TA.AperFunction,ComponentPad*%
%ADD16O,1.050000X1.500000*%
%TD*%
%TA.AperFunction,ComponentPad*%
%ADD17O,1.700000X1.700000*%
%TD*%
%TA.AperFunction,ComponentPad*%
%ADD18O,3.960000X1.980000*%
%TD*%
%TA.AperFunction,ComponentPad*%
%ADD19R,3.960000X1.980000*%
%TD*%
%TA.AperFunction,ComponentPad*%
%ADD20C,2.000000*%
%TD*%
%TA.AperFunction,ComponentPad*%
%ADD21R,1.600000X1.600000*%
%TD*%
%TA.AperFunction,ViaPad*%
%ADD22C,1.000000*%
%TD*%
%TA.AperFunction,ViaPad*%
%ADD23C,1.500000*%
%TD*%
%TA.AperFunction,ViaPad*%
%ADD24C,1.800000*%
%TD*%
%TA.AperFunction,Conductor*%
%ADD25C,0.500000*%
%TD*%
%TA.AperFunction,Conductor*%
%ADD26C,0.800000*%
%TD*%
%TA.AperFunction,Conductor*%
%ADD27C,1.800000*%
%TD*%
%TA.AperFunction,Conductor*%
%ADD28C,1.000000*%
%TD*%
%TA.AperFunction,Conductor*%
%ADD29C,1.300000*%
%TD*%
%TA.AperFunction,Conductor*%
%ADD30C,2.000000*%
%TD*%
%TA.AperFunction,Conductor*%
%ADD31C,0.400000*%
%TD*%
G04 APERTURE END LIST*
D10*
X149750000Y-71760000D03*
D11*
X149750000Y-64140000D03*
D12*
X144230000Y-97130000D03*
D13*
X146770000Y-97130000D03*
X144230000Y-99670000D03*
X146770000Y-99670000D03*
X144230000Y-102210000D03*
X146770000Y-102210000D03*
X144230000Y-104750000D03*
X146770000Y-104750000D03*
D14*
X132150000Y-111900000D03*
D10*
X172260000Y-76140000D03*
D11*
X164640000Y-76140000D03*
D10*
X164640000Y-70130000D03*
D11*
X172260000Y-70130000D03*
D10*
X168610000Y-67300000D03*
X168610000Y-62300000D03*
X154675000Y-69450000D03*
D11*
X154675000Y-77070000D03*
D15*
X162860000Y-65700000D03*
D16*
X164530000Y-65700000D03*
X166260000Y-65700000D03*
D10*
X172260000Y-73140000D03*
D11*
X164640000Y-73140000D03*
D17*
X171800000Y-96575000D03*
X171800000Y-99115000D03*
X171800000Y-101655000D03*
X171800000Y-104255000D03*
X171800000Y-106795000D03*
D18*
X135050000Y-91935000D03*
D19*
X135050000Y-86935000D03*
D10*
X163100000Y-110070000D03*
X158100000Y-110070000D03*
D19*
X135050000Y-76835000D03*
D18*
X135050000Y-81835000D03*
D10*
X147190000Y-110100000D03*
D11*
X154810000Y-110100000D03*
D12*
X133260000Y-107100000D03*
D17*
X135800000Y-107100000D03*
X138340000Y-107100000D03*
D20*
X157300000Y-61750000D03*
X143900000Y-61750000D03*
X157300000Y-84750000D03*
X143900000Y-84750000D03*
X154760000Y-84750000D03*
X146440000Y-84750000D03*
D19*
X135050000Y-66800000D03*
D18*
X135050000Y-71800000D03*
D10*
X150475000Y-86230000D03*
D11*
X150475000Y-76070000D03*
D14*
X171850000Y-62200000D03*
D10*
X143410000Y-93800000D03*
X143410000Y-88800000D03*
D21*
X149065113Y-90600000D03*
D10*
X146355113Y-90600000D03*
D14*
X171850000Y-111900000D03*
D10*
X157750000Y-77070000D03*
D11*
X157750000Y-69450000D03*
D21*
X164420000Y-106795000D03*
D11*
X164420000Y-104255000D03*
X164420000Y-101715000D03*
X164420000Y-99175000D03*
X164420000Y-96635000D03*
X164420000Y-94095000D03*
X164420000Y-91555000D03*
X156800000Y-91555000D03*
X156800000Y-94095000D03*
X156800000Y-96635000D03*
X156800000Y-99175000D03*
X156800000Y-101715000D03*
X156800000Y-104255000D03*
X156800000Y-106795000D03*
D10*
X161390000Y-96280000D03*
D11*
X161390000Y-103900000D03*
D21*
X163125000Y-84782380D03*
D10*
X163125000Y-82282380D03*
D14*
X132150000Y-62200000D03*
D15*
X143470000Y-70820000D03*
D16*
X145140000Y-70820000D03*
X146870000Y-70820000D03*
D10*
X160460000Y-67290000D03*
X160460000Y-62290000D03*
D19*
X135050000Y-96950000D03*
D18*
X135050000Y-101950000D03*
D15*
X141570000Y-110860000D03*
D16*
X143250000Y-110860000D03*
X144910000Y-110860000D03*
D15*
X154525000Y-65775000D03*
D16*
X156195000Y-65775000D03*
X157925000Y-65775000D03*
D10*
X170440000Y-91880000D03*
D11*
X170440000Y-81720000D03*
D22*
X141960000Y-78470000D03*
X141880000Y-73910000D03*
X168610000Y-86940000D03*
X167025000Y-81850000D03*
D23*
X167875000Y-110875000D03*
X164175000Y-112250000D03*
X166400000Y-112250000D03*
X131400000Y-108700000D03*
X131370000Y-106580000D03*
D22*
X156920000Y-108490000D03*
D23*
X159790000Y-79480000D03*
D22*
X160600000Y-106800000D03*
X158900000Y-106800000D03*
D23*
X160425000Y-64025000D03*
X147050000Y-88900000D03*
X141300000Y-96100000D03*
D22*
X156400000Y-110100000D03*
D23*
X159230000Y-81410000D03*
D24*
X138550000Y-110400000D03*
D23*
X171800000Y-94050000D03*
X162530000Y-61400000D03*
X162650000Y-76090000D03*
X166650000Y-61400000D03*
X141400000Y-98275000D03*
X144100000Y-86700000D03*
X146200000Y-87250000D03*
X162650000Y-73790000D03*
X141350000Y-88800000D03*
D22*
X159500000Y-108800000D03*
D23*
X162030000Y-79470000D03*
D22*
X155510000Y-108110000D03*
D23*
X164600000Y-61390000D03*
D25*
X171740000Y-101715000D02*
X171800000Y-101655000D01*
D26*
X164420000Y-101715000D02*
X164785000Y-101715000D01*
X171135000Y-102320000D02*
X171800000Y-101655000D01*
X165390000Y-102320000D02*
X171135000Y-102320000D01*
X164785000Y-101715000D02*
X165390000Y-102320000D01*
D25*
X166060000Y-99730000D02*
X166560000Y-99730000D01*
X156800000Y-104255000D02*
X160615000Y-100440000D01*
X165350000Y-100440000D02*
X166060000Y-99730000D01*
X160615000Y-100440000D02*
X165350000Y-100440000D01*
X171800000Y-99115000D02*
X167175000Y-99115000D01*
X167175000Y-99115000D02*
X166560000Y-99730000D01*
X166560000Y-99730000D02*
X166960000Y-99330000D01*
D26*
X171800000Y-104255000D02*
X164420000Y-104255000D01*
D27*
X146450000Y-79600000D02*
X151575000Y-84725000D01*
D28*
X141960000Y-78470000D02*
X141960000Y-78600000D01*
D27*
X137560000Y-84350000D02*
X132300000Y-84350000D01*
X151575000Y-84750000D02*
X154760000Y-84750000D01*
D28*
X142810000Y-79320000D02*
X144970000Y-79320000D01*
X141960000Y-78600000D02*
X140280000Y-80280000D01*
D27*
X132300000Y-84350000D02*
X131400000Y-85250000D01*
X142050000Y-79600000D02*
X141530000Y-79600000D01*
X142530000Y-79600000D02*
X142050000Y-79120000D01*
D26*
X131350000Y-87000000D02*
X131400000Y-87050000D01*
D27*
X134435000Y-91935000D02*
X131600000Y-89100000D01*
D28*
X141960000Y-78470000D02*
X142810000Y-79320000D01*
D27*
X142050000Y-79600000D02*
X146450000Y-79600000D01*
X138700000Y-83210000D02*
X137560000Y-84350000D01*
X135050000Y-91935000D02*
X134435000Y-91935000D01*
X141530000Y-79600000D02*
X138700000Y-82430000D01*
X142050000Y-79600000D02*
X142530000Y-79600000D01*
D29*
X150475000Y-86230000D02*
X150475000Y-83650000D01*
D28*
X141880000Y-73910000D02*
X143470000Y-72320000D01*
D27*
X131400000Y-88900000D02*
X131400000Y-87050000D01*
X151575000Y-85130000D02*
X150475000Y-86230000D01*
D28*
X143470000Y-70820000D02*
X143470000Y-72320000D01*
D27*
X131400000Y-85250000D02*
X131400000Y-87050000D01*
X151575000Y-84725000D02*
X151575000Y-84750000D01*
D28*
X140280000Y-80280000D02*
X140280000Y-80880000D01*
D27*
X138700000Y-82430000D02*
X138700000Y-83210000D01*
X131600000Y-89100000D02*
X131400000Y-88900000D01*
X151575000Y-84750000D02*
X151575000Y-85130000D01*
D29*
X135800000Y-105850000D02*
X134850000Y-104900000D01*
X134850000Y-104900000D02*
X135050000Y-104700000D01*
X135050000Y-104700000D02*
X135050000Y-101950000D01*
D27*
X135050000Y-101950000D02*
X135050000Y-104850000D01*
D29*
X135800000Y-107100000D02*
X135800000Y-105850000D01*
D28*
X144910000Y-110860000D02*
X144910000Y-109960000D01*
D29*
X142400000Y-108750000D02*
X140400000Y-106750000D01*
D28*
X142850000Y-109200000D02*
X142400000Y-108750000D01*
D29*
X140400000Y-104750000D02*
X139050000Y-103400000D01*
D27*
X135050000Y-96950000D02*
X135800000Y-96950000D01*
D29*
X140400000Y-106750000D02*
X140400000Y-104750000D01*
D28*
X144150000Y-109200000D02*
X142850000Y-109200000D01*
D27*
X135800000Y-96950000D02*
X139050000Y-100200000D01*
X139050000Y-100200000D02*
X139050000Y-103400000D01*
D28*
X144910000Y-109960000D02*
X144150000Y-109200000D01*
D25*
X161930000Y-92820000D02*
X159500000Y-95250000D01*
X168610000Y-86940000D02*
X166200000Y-89350000D01*
X167025000Y-81850000D02*
X164550000Y-79375000D01*
X161050000Y-77070000D02*
X157750000Y-77070000D01*
X161870000Y-77890000D02*
X161050000Y-77070000D01*
X159500000Y-99015000D02*
X156800000Y-101715000D01*
X165300000Y-92820000D02*
X161930000Y-92820000D01*
X163070000Y-77890000D02*
X161870000Y-77890000D01*
X164550000Y-79375000D02*
X164550000Y-79370000D01*
X164550000Y-79370000D02*
X163070000Y-77890000D01*
X166200000Y-91920000D02*
X165300000Y-92820000D01*
X159500000Y-95250000D02*
X159500000Y-99015000D01*
X166200000Y-89350000D02*
X166200000Y-91920000D01*
D26*
X156195000Y-68070000D02*
X156200000Y-68075000D01*
D29*
X156225000Y-69450000D02*
X154675000Y-69450000D01*
X156225000Y-67080000D02*
X156195000Y-67050000D01*
X156195000Y-67050000D02*
X156195000Y-67895000D01*
X156195000Y-67930000D02*
X154675000Y-69450000D01*
X156050000Y-68075000D02*
X156200000Y-68075000D01*
X157750000Y-69450000D02*
X156225000Y-69450000D01*
D26*
X156195000Y-67050000D02*
X156195000Y-68070000D01*
D29*
X156225000Y-69450000D02*
X156225000Y-67080000D01*
X157575000Y-69450000D02*
X156200000Y-68075000D01*
D26*
X156195000Y-65775000D02*
X156195000Y-67050000D01*
D29*
X154675000Y-69450000D02*
X156050000Y-68075000D01*
X156195000Y-67050000D02*
X156195000Y-67930000D01*
X157750000Y-69450000D02*
X157575000Y-69450000D01*
X156195000Y-67895000D02*
X157750000Y-69450000D01*
D25*
X167000000Y-95320000D02*
X170440000Y-91880000D01*
X164905000Y-99175000D02*
X167000000Y-97080000D01*
X164420000Y-99175000D02*
X164905000Y-99175000D01*
X167000000Y-97080000D02*
X167000000Y-95320000D01*
D29*
X164455000Y-99140000D02*
X164420000Y-99175000D01*
D26*
X164425000Y-99180000D02*
X164420000Y-99175000D01*
D27*
X142210000Y-92600000D02*
X140150000Y-92600000D01*
X164420000Y-107420000D02*
X166400000Y-109400000D01*
X147500000Y-93800000D02*
X148280000Y-93020000D01*
X149065113Y-92304887D02*
X146480000Y-94890000D01*
D26*
X168050000Y-68120000D02*
X166390000Y-66460000D01*
D27*
X166400000Y-112250000D02*
X164175000Y-112250000D01*
X168020000Y-78620000D02*
X168020000Y-74380000D01*
D26*
X167050000Y-65700000D02*
X166260000Y-65700000D01*
D29*
X170312500Y-108282500D02*
X171800000Y-106795000D01*
D27*
X164420000Y-110860000D02*
X165810000Y-112250000D01*
X168050000Y-69270000D02*
X168610000Y-68710000D01*
X143410000Y-93800000D02*
X145390000Y-93800000D01*
X149065113Y-90400000D02*
X149065113Y-92084887D01*
X169110000Y-83070000D02*
X169110000Y-79710000D01*
X146770000Y-95290000D02*
X144080000Y-92600000D01*
X164580000Y-87600000D02*
X169110000Y-83070000D01*
D30*
X168610000Y-67300000D02*
X168610000Y-67260000D01*
D29*
X167875000Y-110875000D02*
X167875000Y-110720000D01*
D27*
X143410000Y-93800000D02*
X142210000Y-92600000D01*
X167950000Y-110325000D02*
X167067500Y-109442500D01*
X165280000Y-112250000D02*
X163100000Y-110070000D01*
X146770000Y-97130000D02*
X146770000Y-95290000D01*
X164420000Y-108750000D02*
X163100000Y-110070000D01*
D26*
X166390000Y-66460000D02*
X166390000Y-65830000D01*
D27*
X149100000Y-92200000D02*
X146770000Y-94530000D01*
D29*
X167875000Y-110720000D02*
X171800000Y-106795000D01*
X131400000Y-108610000D02*
X132105000Y-107905000D01*
D27*
X149065113Y-90600000D02*
X149065113Y-92304887D01*
X144710000Y-93020000D02*
X144500000Y-93020000D01*
X164420000Y-106795000D02*
X164420000Y-110270000D01*
D29*
X133260000Y-107100000D02*
X131400000Y-105240000D01*
D27*
X146770000Y-94530000D02*
X146770000Y-97130000D01*
D29*
X131400000Y-105240000D02*
X131400000Y-104500000D01*
D27*
X150700000Y-90600000D02*
X149065113Y-90600000D01*
D30*
X168610000Y-67260000D02*
X167050000Y-65700000D01*
D29*
X169045000Y-109550000D02*
X167320000Y-109550000D01*
D27*
X140150000Y-92600000D02*
X138400000Y-94350000D01*
D29*
X131560000Y-105750000D02*
X131400000Y-105750000D01*
D27*
X168020000Y-69300000D02*
X168020000Y-74380000D01*
X164420000Y-110270000D02*
X166400000Y-112250000D01*
X168610000Y-68710000D02*
X168020000Y-69300000D01*
X170400000Y-81000000D02*
X169110000Y-79710000D01*
X168050000Y-66700000D02*
X167050000Y-65700000D01*
X140150000Y-92600000D02*
X144530000Y-92600000D01*
X149065113Y-90600000D02*
X149065113Y-92084887D01*
X131400000Y-104500000D02*
X131400000Y-108260000D01*
X170440000Y-81720000D02*
X163985000Y-88175000D01*
X148450000Y-92850000D02*
X148280000Y-93020000D01*
X143410000Y-93800000D02*
X147500000Y-93800000D01*
X168020000Y-66670000D02*
X167050000Y-65700000D01*
X144080000Y-92600000D02*
X144500000Y-93020000D01*
X164420000Y-106795000D02*
X164420000Y-107420000D01*
X165025000Y-110875000D02*
X164420000Y-110270000D01*
X131400000Y-103450000D02*
X131400000Y-104500000D01*
X163100000Y-111175000D02*
X164175000Y-112250000D01*
D29*
X132400000Y-107610000D02*
X131370000Y-106580000D01*
D27*
X167875000Y-110875000D02*
X167775000Y-110875000D01*
X151775000Y-89525000D02*
X148450000Y-92850000D01*
X150900000Y-90400000D02*
X149065113Y-90400000D01*
X143410000Y-93800000D02*
X143410000Y-93070000D01*
X150700000Y-90600000D02*
X152500000Y-88800000D01*
X167775000Y-110875000D02*
X166400000Y-112250000D01*
X166400000Y-109400000D02*
X167875000Y-110875000D01*
X165290000Y-109400000D02*
X166400000Y-109400000D01*
X168050000Y-69270000D02*
X168050000Y-66700000D01*
X145730000Y-93800000D02*
X143410000Y-93800000D01*
X131400000Y-103450000D02*
X131400000Y-105750000D01*
X131400000Y-105750000D02*
X131400000Y-108450000D01*
X148950000Y-92200000D02*
X149100000Y-92200000D01*
D29*
X131750000Y-108260000D02*
X132105000Y-107905000D01*
D27*
X145390000Y-93800000D02*
X146480000Y-94890000D01*
X131400000Y-107710000D02*
X131400000Y-108450000D01*
X144710000Y-93020000D02*
X143360000Y-93020000D01*
X166400000Y-112250000D02*
X168150000Y-110500000D01*
X142210000Y-92600000D02*
X144080000Y-92600000D01*
X143410000Y-93070000D02*
X143360000Y-93020000D01*
X149100000Y-92200000D02*
X150900000Y-90400000D01*
X164420000Y-106795000D02*
X164420000Y-108750000D01*
X163100000Y-110070000D02*
X163100000Y-111175000D01*
X170400000Y-81710000D02*
X170400000Y-81000000D01*
D29*
X167950000Y-110645000D02*
X170312500Y-108282500D01*
D27*
X169110000Y-79710000D02*
X168020000Y-78620000D01*
X165810000Y-112250000D02*
X165280000Y-112250000D01*
X168020000Y-74380000D02*
X168020000Y-66670000D01*
D29*
X132105000Y-107905000D02*
X132400000Y-107610000D01*
D27*
X152500000Y-88800000D02*
X150900000Y-90400000D01*
X163985000Y-88175000D02*
X153125000Y-88175000D01*
X167875000Y-110875000D02*
X165025000Y-110875000D01*
X168150000Y-110500000D02*
X168150000Y-109850000D01*
X132300000Y-94350000D02*
X131400000Y-95250000D01*
X144530000Y-92600000D02*
X145730000Y-93800000D01*
X131400000Y-95250000D02*
X131400000Y-103450000D01*
X151775000Y-89525000D02*
X150900000Y-90400000D01*
D29*
X131400000Y-108700000D02*
X131400000Y-108610000D01*
D27*
X164420000Y-110270000D02*
X165290000Y-109400000D01*
D29*
X131500000Y-107610000D02*
X131400000Y-107710000D01*
D27*
X152500000Y-88800000D02*
X151775000Y-89525000D01*
D29*
X170312500Y-108282500D02*
X169045000Y-109550000D01*
D27*
X131400000Y-105750000D02*
X131400000Y-107710000D01*
X138400000Y-94350000D02*
X132300000Y-94350000D01*
D29*
X131400000Y-108260000D02*
X131750000Y-108260000D01*
D27*
X167067500Y-109442500D02*
X164420000Y-106795000D01*
X164420000Y-106795000D02*
X164420000Y-110860000D01*
X153125000Y-88175000D02*
X151775000Y-89525000D01*
X168610000Y-68710000D02*
X168610000Y-67300000D01*
D26*
X166390000Y-65830000D02*
X166260000Y-65700000D01*
D25*
X160600000Y-103910000D02*
X159790000Y-103910000D01*
X152150000Y-108250000D02*
X151050000Y-109350000D01*
X159800000Y-103900000D02*
X161390000Y-103900000D01*
X158180000Y-105520000D02*
X154880000Y-105520000D01*
X158660000Y-105040000D02*
X158900000Y-104800000D01*
X152425000Y-107975000D02*
X150825000Y-109575000D01*
D26*
X148800000Y-110100000D02*
X149500000Y-110100000D01*
X143250000Y-110860000D02*
X143250000Y-111850000D01*
D25*
X151550000Y-108850000D02*
X151325000Y-109075000D01*
D26*
X146375000Y-112525000D02*
X147190000Y-111710000D01*
D25*
X152425000Y-107975000D02*
X151050000Y-109350000D01*
D26*
X146700000Y-112900000D02*
X148325000Y-111275000D01*
X147500000Y-112900000D02*
X150300000Y-110100000D01*
X150300000Y-110100000D02*
X149850000Y-110100000D01*
D25*
X151325000Y-109075000D02*
X151050000Y-109350000D01*
X152425000Y-107975000D02*
X152150000Y-108250000D01*
D26*
X149125000Y-111275000D02*
X150825000Y-109575000D01*
X147190000Y-111710000D02*
X147190000Y-110100000D01*
X143250000Y-111850000D02*
X144300000Y-112900000D01*
X149500000Y-110100000D02*
X149850000Y-110100000D01*
X146000000Y-112900000D02*
X146375000Y-112525000D01*
D25*
X158900000Y-104800000D02*
X159800000Y-103900000D01*
X154880000Y-105520000D02*
X152425000Y-107975000D01*
D26*
X146375000Y-112525000D02*
X148800000Y-110100000D01*
D25*
X152150000Y-108250000D02*
X151550000Y-108850000D01*
D26*
X149850000Y-110100000D02*
X147190000Y-110100000D01*
D25*
X158660000Y-105040000D02*
X158180000Y-105520000D01*
D26*
X144950000Y-112900000D02*
X146700000Y-112900000D01*
D25*
X159790000Y-103910000D02*
X158660000Y-105040000D01*
D26*
X144300000Y-112900000D02*
X144950000Y-112900000D01*
D25*
X159800000Y-103900000D02*
X158180000Y-105520000D01*
D26*
X145400000Y-112900000D02*
X146000000Y-112900000D01*
X148325000Y-111275000D02*
X149500000Y-110100000D01*
D25*
X151325000Y-109075000D02*
X150300000Y-110100000D01*
D26*
X145400000Y-112900000D02*
X147500000Y-112900000D01*
X144950000Y-112900000D02*
X145400000Y-112900000D01*
X148325000Y-111275000D02*
X149125000Y-111275000D01*
D29*
X157925000Y-65775000D02*
X157925000Y-64825000D01*
X163500000Y-62300000D02*
X162700000Y-61500000D01*
X156710000Y-108700000D02*
X155900000Y-108700000D01*
X158100000Y-109000000D02*
X158100000Y-108900000D01*
X155510000Y-108310000D02*
X155510000Y-108110000D01*
X171800000Y-96575000D02*
X171800000Y-94050000D01*
X155710000Y-108110000D02*
X156300000Y-108700000D01*
X162860000Y-65700000D02*
X162100000Y-65700000D01*
X159230000Y-81392500D02*
X157500000Y-79662500D01*
D30*
X168610000Y-62300000D02*
X163450000Y-62300000D01*
D29*
X161950000Y-64790000D02*
X159660000Y-64790000D01*
D27*
X163500000Y-73140000D02*
X162660000Y-73980000D01*
X146355113Y-90600000D02*
X146355113Y-89594887D01*
D29*
X159055000Y-64225000D02*
X159275000Y-64225000D01*
D27*
X146355113Y-90400000D02*
X146355113Y-89405113D01*
X143900000Y-86500000D02*
X144100000Y-86700000D01*
D29*
X162100000Y-65700000D02*
X160425000Y-64025000D01*
D27*
X164640000Y-73140000D02*
X163500000Y-73140000D01*
D29*
X157925000Y-64825000D02*
X161200000Y-61550000D01*
X144230000Y-97130000D02*
X142330000Y-97130000D01*
X155487500Y-79662500D02*
X157500000Y-79662500D01*
D27*
X141350000Y-88800000D02*
X144555113Y-88800000D01*
D29*
X154810000Y-110100000D02*
X154900000Y-110100000D01*
D27*
X147050000Y-88100000D02*
X146200000Y-87250000D01*
X146355113Y-89594887D02*
X147050000Y-88900000D01*
D29*
X158100000Y-110070000D02*
X158100000Y-109000000D01*
X162592380Y-82282380D02*
X159790000Y-79480000D01*
D27*
X162660000Y-75890000D02*
X162650000Y-75900000D01*
D29*
X164640000Y-75960000D02*
X162660000Y-73980000D01*
X163125000Y-82282380D02*
X161300000Y-82282380D01*
X161300000Y-82282380D02*
X160380000Y-81362380D01*
D27*
X139150000Y-110850000D02*
X139000000Y-110850000D01*
X139150000Y-110850000D02*
X141200000Y-110850000D01*
D29*
X160102380Y-82282380D02*
X159230000Y-81410000D01*
X160425000Y-62325000D02*
X160460000Y-62290000D01*
X159525000Y-64925000D02*
X160425000Y-64025000D01*
D27*
X161250000Y-61500000D02*
X160460000Y-62290000D01*
D29*
X159660000Y-64790000D02*
X159525000Y-64925000D01*
X155510000Y-108110000D02*
X155710000Y-108110000D01*
X163125000Y-82282380D02*
X163125000Y-80565000D01*
D27*
X143900000Y-84750000D02*
X143900000Y-86250000D01*
D29*
X162860000Y-65700000D02*
X162860000Y-65660000D01*
X162650000Y-75900000D02*
X162650000Y-75130000D01*
X161400000Y-63230000D02*
X160460000Y-62290000D01*
D27*
X146355113Y-89405113D02*
X143900000Y-86950000D01*
X143410000Y-88800000D02*
X141350000Y-88800000D01*
D29*
X162085000Y-64925000D02*
X162860000Y-65700000D01*
D27*
X143900000Y-88310000D02*
X143410000Y-88800000D01*
X146900000Y-88900000D02*
X147050000Y-88900000D01*
D29*
X160460000Y-63860000D02*
X160460000Y-63175000D01*
X162040000Y-79380000D02*
X155205000Y-79380000D01*
X161925000Y-81082380D02*
X161925000Y-80650000D01*
X162860000Y-65700000D02*
X162860000Y-63210000D01*
X155900000Y-108700000D02*
X155510000Y-108310000D01*
X159230000Y-81410000D02*
X159230000Y-81392500D01*
X162770000Y-73980000D02*
X163610000Y-73140000D01*
X160600000Y-106800000D02*
X160200000Y-106800000D01*
D30*
X163450000Y-62300000D02*
X162700000Y-61550000D01*
D29*
X162860000Y-63210000D02*
X161200000Y-61550000D01*
X155510000Y-108110000D02*
X155510000Y-109400000D01*
X160600000Y-107570000D02*
X158100000Y-110070000D01*
D27*
X162660000Y-73980000D02*
X162660000Y-75890000D01*
D30*
X143900000Y-86950000D02*
X143900000Y-87844887D01*
D29*
X141300000Y-98175000D02*
X141400000Y-98275000D01*
X154900000Y-110100000D02*
X156300000Y-108700000D01*
X154675000Y-78850000D02*
X155487500Y-79662500D01*
X154675000Y-77070000D02*
X154675000Y-78850000D01*
D27*
X143900000Y-86164213D02*
X143900000Y-84750000D01*
D29*
X162860000Y-64215000D02*
X164775000Y-62300000D01*
X155510000Y-109400000D02*
X154810000Y-110100000D01*
X158100000Y-110070000D02*
X158100000Y-108095000D01*
X157210000Y-108490000D02*
X158900000Y-106800000D01*
X163610000Y-73140000D02*
X164640000Y-73140000D01*
D27*
X159790000Y-79900000D02*
X159925000Y-79900000D01*
D29*
X155510000Y-108085000D02*
X156800000Y-106795000D01*
X164650000Y-61500000D02*
X166600000Y-61500000D01*
X158100000Y-109000000D02*
X158100000Y-108095000D01*
D27*
X147050000Y-88900000D02*
X147050000Y-88100000D01*
D29*
X156300000Y-108700000D02*
X156600000Y-109000000D01*
X142545000Y-97130000D02*
X141400000Y-98275000D01*
X142330000Y-97130000D02*
X141300000Y-96100000D01*
X158675000Y-65775000D02*
X159525000Y-64925000D01*
D30*
X160460000Y-62290000D02*
X160460000Y-63175000D01*
D29*
X163125000Y-80565000D02*
X162030000Y-79470000D01*
D27*
X143900000Y-85900000D02*
X145100000Y-87100000D01*
D29*
X162860000Y-61660000D02*
X162700000Y-61500000D01*
D28*
X139010000Y-110860000D02*
X141570000Y-110860000D01*
D30*
X161200000Y-61550000D02*
X167860000Y-61550000D01*
D29*
X160600000Y-106800000D02*
X160600000Y-107570000D01*
D27*
X162890000Y-76140000D02*
X162650000Y-75900000D01*
X146355113Y-90400000D02*
X146205113Y-90400000D01*
D29*
X157670000Y-110070000D02*
X156300000Y-108700000D01*
X155510000Y-108110000D02*
X155510000Y-108085000D01*
X160200000Y-106800000D02*
X158100000Y-108900000D01*
X161400000Y-64200000D02*
X162310000Y-63290000D01*
X156300000Y-107295000D02*
X156800000Y-106795000D01*
X168610000Y-62300000D02*
X164775000Y-62300000D01*
D27*
X146200000Y-87250000D02*
X144985787Y-87250000D01*
X146200000Y-87250000D02*
X144650000Y-87250000D01*
D29*
X164775000Y-62300000D02*
X163500000Y-62300000D01*
X156300000Y-108700000D02*
X156710000Y-108700000D01*
D27*
X143900000Y-84750000D02*
X143900000Y-85900000D01*
X162700000Y-61500000D02*
X161250000Y-61500000D01*
X144985787Y-87250000D02*
X143900000Y-86164213D01*
D30*
X167860000Y-61550000D02*
X168610000Y-62300000D01*
D29*
X158100000Y-108095000D02*
X156800000Y-106795000D01*
X162860000Y-64500000D02*
X162860000Y-64215000D01*
X161380000Y-80040000D02*
X162040000Y-79380000D01*
D27*
X164640000Y-76140000D02*
X162890000Y-76140000D01*
D29*
X156800000Y-106795000D02*
X160595000Y-106795000D01*
D27*
X146355113Y-89405113D02*
X146355113Y-90600000D01*
D29*
X160425000Y-64240000D02*
X160425000Y-64025000D01*
D30*
X160460000Y-62290000D02*
X161200000Y-61550000D01*
D29*
X162860000Y-65700000D02*
X162860000Y-64500000D01*
X156920000Y-108490000D02*
X156710000Y-108700000D01*
X156920000Y-108490000D02*
X157210000Y-108490000D01*
D27*
X143900000Y-84750000D02*
X143900000Y-86500000D01*
X143900000Y-84750000D02*
X143900000Y-86950000D01*
D29*
X155205000Y-79380000D02*
X154675000Y-78850000D01*
X160380000Y-80040000D02*
X161380000Y-80040000D01*
X158100000Y-110070000D02*
X154840000Y-110070000D01*
D27*
X143410000Y-88800000D02*
X144555113Y-88800000D01*
X144555113Y-88800000D02*
X146355113Y-90600000D01*
D29*
X157925000Y-64825000D02*
X160460000Y-62290000D01*
X156300000Y-108700000D02*
X155900000Y-108700000D01*
D27*
X144650000Y-87250000D02*
X144100000Y-86700000D01*
X139000000Y-110850000D02*
X138550000Y-110400000D01*
D29*
X141300000Y-96100000D02*
X141300000Y-98175000D01*
X164640000Y-76140000D02*
X164640000Y-73140000D01*
X139150000Y-110850000D02*
X141450000Y-110850000D01*
X160425000Y-64025000D02*
X160425000Y-62325000D01*
D28*
X138550000Y-110400000D02*
X139010000Y-110860000D01*
D29*
X162860000Y-64500000D02*
X162860000Y-63290000D01*
X162310000Y-63290000D02*
X162860000Y-63290000D01*
X156600000Y-109000000D02*
X158100000Y-109000000D01*
X166600000Y-61500000D02*
X166650000Y-61450000D01*
D27*
X143900000Y-86250000D02*
X141350000Y-88800000D01*
X159218750Y-80471250D02*
X159790000Y-79900000D01*
D29*
X163125000Y-82282380D02*
X161925000Y-81082380D01*
X161950000Y-64790000D02*
X162860000Y-65700000D01*
X160595000Y-106795000D02*
X160600000Y-106800000D01*
X160380000Y-80040000D02*
X160380000Y-81362380D01*
X161400000Y-64200000D02*
X161400000Y-63230000D01*
X154840000Y-110070000D02*
X154810000Y-110100000D01*
X157925000Y-65775000D02*
X158675000Y-65775000D01*
X162650000Y-75130000D02*
X164640000Y-73140000D01*
X162860000Y-65700000D02*
X162860000Y-61660000D01*
D27*
X163850000Y-73930000D02*
X164640000Y-73140000D01*
D29*
X164640000Y-76140000D02*
X164640000Y-75960000D01*
D27*
X143900000Y-84750000D02*
X143900000Y-88310000D01*
D30*
X143900000Y-86950000D02*
X143825000Y-87025000D01*
D29*
X158100000Y-110070000D02*
X157670000Y-110070000D01*
X163125000Y-82282380D02*
X160102380Y-82282380D01*
X156300000Y-108700000D02*
X156300000Y-107295000D01*
X162860000Y-63290000D02*
X164650000Y-61500000D01*
X144230000Y-97130000D02*
X142545000Y-97130000D01*
X163125000Y-82282380D02*
X162592380Y-82282380D01*
X161745000Y-96635000D02*
X161390000Y-96280000D01*
X164420000Y-96635000D02*
X161745000Y-96635000D01*
D26*
X170520000Y-71870000D02*
X171625000Y-70765000D01*
X170990000Y-71870000D02*
X171430000Y-72310000D01*
X171260000Y-71130000D02*
X171625000Y-70765000D01*
D25*
X172620000Y-79330000D02*
X172620000Y-85180000D01*
D26*
X171645000Y-73755000D02*
X171260000Y-74140000D01*
X170520000Y-72570000D02*
X170520000Y-71870000D01*
X171625000Y-70765000D02*
X172260000Y-70130000D01*
D25*
X170370000Y-76500000D02*
X170370000Y-75470000D01*
D26*
X171260000Y-73310000D02*
X170520000Y-72570000D01*
D25*
X170370000Y-76500000D02*
X170370000Y-77080000D01*
D26*
X170520000Y-71870000D02*
X170990000Y-71870000D01*
D25*
X170370000Y-76030000D02*
X170850000Y-75550000D01*
X170850000Y-75550000D02*
X171260000Y-75140000D01*
D26*
X171260000Y-74140000D02*
X171260000Y-73310000D01*
X171260000Y-74140000D02*
X170790000Y-74610000D01*
D25*
X170370000Y-73420000D02*
X170370000Y-75470000D01*
D26*
X172260000Y-73140000D02*
X171645000Y-73755000D01*
X171260000Y-73310000D02*
X171260000Y-71130000D01*
D25*
X170370000Y-77080000D02*
X172620000Y-79330000D01*
D26*
X170520000Y-73440000D02*
X170520000Y-72570000D01*
D25*
X170790000Y-75050000D02*
X170790000Y-74670000D01*
D26*
X171260000Y-75140000D02*
X171650000Y-75530000D01*
X171430000Y-72310000D02*
X172260000Y-73140000D01*
D25*
X170370000Y-76500000D02*
X170370000Y-76030000D01*
X166085000Y-94095000D02*
X164420000Y-94095000D01*
D26*
X172260000Y-76140000D02*
X171650000Y-75530000D01*
X170790000Y-74610000D02*
X170790000Y-74670000D01*
D25*
X167830000Y-89970000D02*
X167830000Y-92350000D01*
D26*
X170520000Y-74400000D02*
X170520000Y-73440000D01*
X171645000Y-72525000D02*
X171645000Y-73755000D01*
X171260000Y-73310000D02*
X171260000Y-75140000D01*
X170790000Y-74670000D02*
X170520000Y-74400000D01*
X171430000Y-72310000D02*
X171645000Y-72525000D01*
D25*
X172620000Y-85180000D02*
X167830000Y-89970000D01*
X171670000Y-75550000D02*
X170850000Y-75550000D01*
D26*
X171650000Y-75530000D02*
X170790000Y-74670000D01*
D25*
X172260000Y-76140000D02*
X171670000Y-75550000D01*
X170370000Y-75470000D02*
X170790000Y-75050000D01*
X167830000Y-92350000D02*
X166085000Y-94095000D01*
D26*
X148020000Y-73570000D02*
X146870000Y-72420000D01*
X160350000Y-74600000D02*
X160350000Y-73640000D01*
X160350000Y-73640000D02*
X163860000Y-70130000D01*
X152570000Y-74920000D02*
X160030000Y-74920000D01*
X149320000Y-73570000D02*
X151220000Y-73570000D01*
X149320000Y-73570000D02*
X148020000Y-73570000D01*
X163860000Y-70130000D02*
X164640000Y-70130000D01*
X151220000Y-73570000D02*
X152570000Y-74920000D01*
X146870000Y-72420000D02*
X146870000Y-70820000D01*
X160030000Y-74920000D02*
X160350000Y-74600000D01*
X145140000Y-70820000D02*
X145140000Y-69900000D01*
X149750000Y-70110000D02*
X149750000Y-71760000D01*
X148715000Y-69075000D02*
X149750000Y-70110000D01*
X145140000Y-74410000D02*
X145140000Y-70820000D01*
X145680000Y-74950000D02*
X145140000Y-74410000D01*
X149355000Y-74950000D02*
X145680000Y-74950000D01*
X145140000Y-69900000D02*
X145965000Y-69075000D01*
X145965000Y-69075000D02*
X148715000Y-69075000D01*
X150475000Y-76070000D02*
X149355000Y-74950000D01*
D31*
X155925000Y-99175000D02*
X156800000Y-99175000D01*
X143900000Y-108150000D02*
X150025000Y-108150000D01*
X144230000Y-99670000D02*
X142790000Y-99670000D01*
X141880000Y-100580000D02*
X141880000Y-106130000D01*
X141880000Y-106130000D02*
X143900000Y-108150000D01*
X154940000Y-100160000D02*
X155925000Y-99175000D01*
X154940000Y-103235000D02*
X154940000Y-100160000D01*
X142790000Y-99670000D02*
X141880000Y-100580000D01*
X150025000Y-108150000D02*
X154940000Y-103235000D01*
X143050000Y-100930000D02*
X145510000Y-100930000D01*
X144390000Y-107190000D02*
X142830000Y-105630000D01*
X156800000Y-96635000D02*
X155475000Y-96635000D01*
X153570000Y-98540000D02*
X153570000Y-102550000D01*
X148930000Y-107190000D02*
X144390000Y-107190000D01*
X145510000Y-100930000D02*
X146770000Y-99670000D01*
X155475000Y-96635000D02*
X153570000Y-98540000D01*
X153570000Y-102550000D02*
X148930000Y-107190000D01*
X142830000Y-105630000D02*
X142830000Y-101150000D01*
X142830000Y-101150000D02*
X143050000Y-100930000D01*
D25*
X148460000Y-103480000D02*
X148170000Y-103480000D01*
D31*
X145500000Y-103480000D02*
X144230000Y-102210000D01*
D25*
X148730000Y-103480000D02*
X150560000Y-101650000D01*
X150560000Y-96490000D02*
X152955000Y-94095000D01*
X150560000Y-101650000D02*
X150560000Y-96490000D01*
X148460000Y-103480000D02*
X148730000Y-103480000D01*
X152955000Y-94095000D02*
X156800000Y-94095000D01*
D31*
X147730000Y-103480000D02*
X148170000Y-103480000D01*
D25*
X148460000Y-103480000D02*
X147730000Y-103480000D01*
D31*
X145500000Y-103480000D02*
X147730000Y-103480000D01*
D25*
X153095000Y-91555000D02*
X156800000Y-91555000D01*
X146770000Y-102210000D02*
X148020000Y-102210000D01*
X149070000Y-95580000D02*
X153095000Y-91555000D01*
X148020000Y-102210000D02*
X149070000Y-101160000D01*
X149070000Y-101160000D02*
X149070000Y-95580000D01*
D31*
X144230000Y-104750000D02*
X144230000Y-105510000D01*
X148070000Y-106160000D02*
X152090000Y-102140000D01*
X157815000Y-95360000D02*
X158600000Y-94575000D01*
X158600000Y-94575000D02*
X158600000Y-93830000D01*
X152090000Y-97440000D02*
X154170000Y-95360000D01*
X144230000Y-105510000D02*
X144880000Y-106160000D01*
X154170000Y-95360000D02*
X157815000Y-95360000D01*
X160875000Y-91555000D02*
X164420000Y-91555000D01*
X158600000Y-93830000D02*
X160875000Y-91555000D01*
X152090000Y-102140000D02*
X152090000Y-97440000D01*
X144880000Y-106160000D02*
X148070000Y-106160000D01*
D26*
X149750000Y-64140000D02*
X152890000Y-64140000D01*
X152890000Y-64140000D02*
X154525000Y-65775000D01*
X160460000Y-67290000D02*
X161220000Y-68050000D01*
D27*
X152310000Y-68970000D02*
X150315000Y-66975000D01*
X150315000Y-66975000D02*
X143305000Y-66975000D01*
X135785000Y-76835000D02*
X135050000Y-76835000D01*
X143305000Y-66975000D02*
X141290000Y-68990000D01*
D29*
X161895000Y-68725000D02*
X160460000Y-67290000D01*
D27*
X153000000Y-72075000D02*
X152310000Y-71385000D01*
D29*
X164530000Y-67150000D02*
X162955000Y-68725000D01*
D27*
X162400000Y-68500000D02*
X158825000Y-72075000D01*
X158825000Y-72075000D02*
X153000000Y-72075000D01*
D29*
X162955000Y-68725000D02*
X161895000Y-68725000D01*
X163630000Y-68050000D02*
X161220000Y-68050000D01*
X162700000Y-68525000D02*
X162700000Y-68500000D01*
D30*
X162450000Y-68500000D02*
X162700000Y-68500000D01*
D26*
X161220000Y-68050000D02*
X162200000Y-68050000D01*
D27*
X162700000Y-68500000D02*
X162400000Y-68500000D01*
X141290000Y-71330000D02*
X135785000Y-76835000D01*
D29*
X164530000Y-67150000D02*
X163630000Y-68050000D01*
X164530000Y-65700000D02*
X164530000Y-67150000D01*
D27*
X152310000Y-71385000D02*
X152310000Y-68970000D01*
X141290000Y-68990000D02*
X141290000Y-71330000D01*
X157332380Y-84782380D02*
X157300000Y-84750000D01*
X157300000Y-82825000D02*
X156425000Y-81950000D01*
X157300000Y-84750000D02*
X157300000Y-82825000D01*
X156425000Y-81950000D02*
X152825000Y-81950000D01*
X143755000Y-77025000D02*
X142990000Y-76260000D01*
X142990000Y-76260000D02*
X140960000Y-76260000D01*
X152825000Y-81950000D02*
X147900000Y-77025000D01*
X135385000Y-81835000D02*
X135050000Y-81835000D01*
X147900000Y-77025000D02*
X143755000Y-77025000D01*
X140960000Y-76260000D02*
X135385000Y-81835000D01*
X163125000Y-84782380D02*
X157332380Y-84782380D01*
D30*
X138950000Y-61750000D02*
X143900000Y-61750000D01*
X143900000Y-61750000D02*
X143900000Y-61575000D01*
X135050000Y-65650000D02*
X138950000Y-61750000D01*
X143900000Y-61575000D02*
X143875000Y-61550000D01*
X135050000Y-66800000D02*
X135050000Y-65650000D01*
D27*
X157300000Y-61750000D02*
X150040000Y-61750000D01*
X138550000Y-69930000D02*
X138550000Y-67430000D01*
X141680000Y-64300000D02*
X145920000Y-64300000D01*
X145920000Y-64300000D02*
X148470000Y-61750000D01*
X135050000Y-71800000D02*
X136680000Y-71800000D01*
X150040000Y-61750000D02*
X148550000Y-61750000D01*
X138550000Y-67430000D02*
X141680000Y-64300000D01*
X148470000Y-61750000D02*
X150040000Y-61750000D01*
X136680000Y-71800000D02*
X138550000Y-69930000D01*
X141320000Y-84880000D02*
X139265000Y-86935000D01*
X146440000Y-84750000D02*
X146440000Y-83265000D01*
X146440000Y-83265000D02*
X145350000Y-82175000D01*
X145350000Y-82175000D02*
X142855000Y-82175000D01*
X139265000Y-86935000D02*
X135050000Y-86935000D01*
X141320000Y-83710000D02*
X141320000Y-84880000D01*
X142855000Y-82175000D02*
X141320000Y-83710000D01*
M02*
