%TF.GenerationSoftware,KiCad,Pcbnew,7.0.1*%
%TF.CreationDate,2023-06-16T17:27:39+02:00*%
%TF.ProjectId,2Nrf_Node,324e7266-5f4e-46f6-9465-2e6b69636164,rev?*%
%TF.SameCoordinates,Original*%
%TF.FileFunction,Soldermask,Bot*%
%TF.FilePolarity,Negative*%
%FSLAX46Y46*%
G04 Gerber Fmt 4.6, Leading zero omitted, Abs format (unit mm)*
G04 Created by KiCad (PCBNEW 7.0.1) date 2023-06-16 17:27:39*
%MOMM*%
%LPD*%
G01*
G04 APERTURE LIST*
%ADD10C,1.600000*%
%ADD11O,1.600000X1.600000*%
%ADD12R,1.700000X1.700000*%
%ADD13C,1.700000*%
%ADD14C,3.000000*%
%ADD15R,1.050000X1.500000*%
%ADD16O,1.050000X1.500000*%
%ADD17O,1.700000X1.700000*%
%ADD18O,3.960000X1.980000*%
%ADD19R,3.960000X1.980000*%
%ADD20C,2.000000*%
%ADD21R,1.600000X1.600000*%
G04 APERTURE END LIST*
D10*
X149750000Y-71760000D03*
D11*
X149750000Y-64140000D03*
D12*
X144230000Y-97130000D03*
D13*
X146770000Y-97130000D03*
X144230000Y-99670000D03*
X146770000Y-99670000D03*
X144230000Y-102210000D03*
X146770000Y-102210000D03*
X144230000Y-104750000D03*
X146770000Y-104750000D03*
D14*
X132150000Y-111900000D03*
D10*
X172260000Y-76140000D03*
D11*
X164640000Y-76140000D03*
D10*
X164640000Y-70130000D03*
D11*
X172260000Y-70130000D03*
D10*
X168610000Y-67300000D03*
X168610000Y-62300000D03*
X154675000Y-69450000D03*
D11*
X154675000Y-77070000D03*
D15*
X162860000Y-65700000D03*
D16*
X164530000Y-65700000D03*
X166260000Y-65700000D03*
D10*
X172260000Y-73140000D03*
D11*
X164640000Y-73140000D03*
D17*
X171800000Y-96575000D03*
X171800000Y-99115000D03*
X171800000Y-101655000D03*
X171800000Y-104255000D03*
X171800000Y-106795000D03*
D18*
X135050000Y-91935000D03*
D19*
X135050000Y-86935000D03*
D10*
X163100000Y-110070000D03*
X158100000Y-110070000D03*
D19*
X135050000Y-76835000D03*
D18*
X135050000Y-81835000D03*
D10*
X147190000Y-110100000D03*
D11*
X154810000Y-110100000D03*
D12*
X133260000Y-107100000D03*
D17*
X135800000Y-107100000D03*
X138340000Y-107100000D03*
D20*
X157300000Y-61750000D03*
X143900000Y-61750000D03*
X157300000Y-84750000D03*
X143900000Y-84750000D03*
X154760000Y-84750000D03*
X146440000Y-84750000D03*
D19*
X135050000Y-66800000D03*
D18*
X135050000Y-71800000D03*
D10*
X150475000Y-86230000D03*
D11*
X150475000Y-76070000D03*
D14*
X171850000Y-62200000D03*
D10*
X143410000Y-93800000D03*
X143410000Y-88800000D03*
D21*
X149065113Y-90600000D03*
D10*
X146355113Y-90600000D03*
D14*
X171850000Y-111900000D03*
D10*
X157750000Y-77070000D03*
D11*
X157750000Y-69450000D03*
D21*
X164420000Y-106795000D03*
D11*
X164420000Y-104255000D03*
X164420000Y-101715000D03*
X164420000Y-99175000D03*
X164420000Y-96635000D03*
X164420000Y-94095000D03*
X164420000Y-91555000D03*
X156800000Y-91555000D03*
X156800000Y-94095000D03*
X156800000Y-96635000D03*
X156800000Y-99175000D03*
X156800000Y-101715000D03*
X156800000Y-104255000D03*
X156800000Y-106795000D03*
D10*
X161390000Y-96280000D03*
D11*
X161390000Y-103900000D03*
D21*
X163125000Y-84782380D03*
D10*
X163125000Y-82282380D03*
D14*
X132150000Y-62200000D03*
D15*
X143470000Y-70820000D03*
D16*
X145140000Y-70820000D03*
X146870000Y-70820000D03*
D10*
X160460000Y-67290000D03*
X160460000Y-62290000D03*
D19*
X135050000Y-96950000D03*
D18*
X135050000Y-101950000D03*
D15*
X141570000Y-110860000D03*
D16*
X143250000Y-110860000D03*
X144910000Y-110860000D03*
D15*
X154525000Y-65775000D03*
D16*
X156195000Y-65775000D03*
X157925000Y-65775000D03*
D10*
X170440000Y-91880000D03*
D11*
X170440000Y-81720000D03*
M02*
