%TF.GenerationSoftware,KiCad,Pcbnew,7.0.1*%
%TF.CreationDate,2023-07-05T18:40:20+02:00*%
%TF.ProjectId,2Nrf_Node,324e7266-5f4e-46f6-9465-2e6b69636164,rev?*%
%TF.SameCoordinates,Original*%
%TF.FileFunction,Soldermask,Bot*%
%TF.FilePolarity,Negative*%
%FSLAX46Y46*%
G04 Gerber Fmt 4.6, Leading zero omitted, Abs format (unit mm)*
G04 Created by KiCad (PCBNEW 7.0.1) date 2023-07-05 18:40:20*
%MOMM*%
%LPD*%
G01*
G04 APERTURE LIST*
%ADD10C,1.600000*%
%ADD11O,1.600000X1.600000*%
%ADD12R,1.700000X1.700000*%
%ADD13C,1.700000*%
%ADD14C,1.440000*%
%ADD15C,3.000000*%
%ADD16R,1.050000X1.500000*%
%ADD17O,1.050000X1.500000*%
%ADD18O,1.700000X1.700000*%
%ADD19C,2.000000*%
%ADD20R,1.600000X1.600000*%
G04 APERTURE END LIST*
D10*
X165950000Y-76130000D03*
X170950000Y-76130000D03*
X139350000Y-78150000D03*
D11*
X139350000Y-85770000D03*
D12*
X133600000Y-67625000D03*
X133600000Y-70650000D03*
X133600000Y-73675000D03*
X133600000Y-76700000D03*
X133595000Y-79725000D03*
X133595000Y-82750000D03*
X133595000Y-85775000D03*
X133595000Y-88800000D03*
X133590000Y-91825000D03*
X133595000Y-94850000D03*
D10*
X149960000Y-71400000D03*
D11*
X149960000Y-63780000D03*
D12*
X144230000Y-97130000D03*
D13*
X146770000Y-97130000D03*
X144230000Y-99670000D03*
X146770000Y-99670000D03*
X144230000Y-102210000D03*
X146770000Y-102210000D03*
X144230000Y-104750000D03*
X146770000Y-104750000D03*
D14*
X148320000Y-109890000D03*
X150860000Y-109890000D03*
X153400000Y-109890000D03*
D15*
X132150000Y-111900000D03*
D10*
X164640000Y-70130000D03*
D11*
X172260000Y-70130000D03*
D10*
X168610000Y-67300000D03*
X168610000Y-62300000D03*
X154675000Y-69450000D03*
D11*
X154675000Y-77070000D03*
D16*
X162860000Y-65700000D03*
D17*
X164530000Y-65700000D03*
X166260000Y-65700000D03*
D10*
X172260000Y-73140000D03*
D11*
X164640000Y-73140000D03*
D18*
X170580000Y-96570000D03*
X170580000Y-99110000D03*
X170580000Y-101650000D03*
X170580000Y-104250000D03*
X170580000Y-106790000D03*
D10*
X163100000Y-110070000D03*
X158100000Y-110070000D03*
D18*
X132900000Y-106882500D03*
X132900000Y-104342500D03*
X132900000Y-101802500D03*
D12*
X139350000Y-90275000D03*
D18*
X139350000Y-92815000D03*
X139350000Y-95355000D03*
D19*
X157300000Y-61750000D03*
X143900000Y-61750000D03*
X157300000Y-84750000D03*
X143900000Y-84750000D03*
X154760000Y-84750000D03*
X146440000Y-84750000D03*
D10*
X150475000Y-86230000D03*
D11*
X150475000Y-76070000D03*
D15*
X171850000Y-62200000D03*
D10*
X143410000Y-93800000D03*
X143410000Y-88800000D03*
D20*
X149700000Y-91330000D03*
D10*
X146990000Y-91330000D03*
D15*
X171850000Y-111900000D03*
D10*
X157750000Y-77070000D03*
D11*
X157750000Y-69450000D03*
D20*
X164420000Y-106795000D03*
D11*
X164420000Y-104255000D03*
X164420000Y-101715000D03*
X164420000Y-99175000D03*
X164420000Y-96635000D03*
X164420000Y-94095000D03*
X164420000Y-91555000D03*
X156800000Y-91555000D03*
X156800000Y-94095000D03*
X156800000Y-96635000D03*
X156800000Y-99175000D03*
X156800000Y-101715000D03*
X156800000Y-104255000D03*
X156800000Y-106795000D03*
D10*
X160540000Y-96960000D03*
D11*
X160540000Y-104580000D03*
D18*
X137982500Y-104342500D03*
X135442500Y-104342500D03*
X132902500Y-104342500D03*
D20*
X163125000Y-84782380D03*
D10*
X163125000Y-82282380D03*
D15*
X132150000Y-62200000D03*
D16*
X143470000Y-70320000D03*
D17*
X145140000Y-70320000D03*
X146870000Y-70320000D03*
D10*
X160460000Y-67290000D03*
X160460000Y-62290000D03*
D18*
X137980000Y-101802500D03*
X135440000Y-101802500D03*
X132900000Y-101802500D03*
D16*
X141570000Y-110860000D03*
D17*
X143250000Y-110860000D03*
X144910000Y-110860000D03*
D16*
X154525000Y-65775000D03*
D17*
X156195000Y-65775000D03*
X157925000Y-65775000D03*
D18*
X137982500Y-106882500D03*
X135442500Y-106882500D03*
X132902500Y-106882500D03*
D10*
X170420000Y-88970000D03*
D11*
X170420000Y-81350000D03*
M02*
