%TF.GenerationSoftware,KiCad,Pcbnew,7.0.1*%
%TF.CreationDate,2023-07-05T18:40:20+02:00*%
%TF.ProjectId,2Nrf_Node,324e7266-5f4e-46f6-9465-2e6b69636164,rev?*%
%TF.SameCoordinates,Original*%
%TF.FileFunction,Copper,L1,Top*%
%TF.FilePolarity,Positive*%
%FSLAX46Y46*%
G04 Gerber Fmt 4.6, Leading zero omitted, Abs format (unit mm)*
G04 Created by KiCad (PCBNEW 7.0.1) date 2023-07-05 18:40:20*
%MOMM*%
%LPD*%
G01*
G04 APERTURE LIST*
%TA.AperFunction,ComponentPad*%
%ADD10C,1.600000*%
%TD*%
%TA.AperFunction,ComponentPad*%
%ADD11O,1.600000X1.600000*%
%TD*%
%TA.AperFunction,ComponentPad*%
%ADD12R,1.700000X1.700000*%
%TD*%
%TA.AperFunction,ComponentPad*%
%ADD13C,1.700000*%
%TD*%
%TA.AperFunction,ComponentPad*%
%ADD14C,1.440000*%
%TD*%
%TA.AperFunction,ComponentPad*%
%ADD15C,3.000000*%
%TD*%
%TA.AperFunction,ComponentPad*%
%ADD16R,1.050000X1.500000*%
%TD*%
%TA.AperFunction,ComponentPad*%
%ADD17O,1.050000X1.500000*%
%TD*%
%TA.AperFunction,ComponentPad*%
%ADD18O,1.700000X1.700000*%
%TD*%
%TA.AperFunction,ComponentPad*%
%ADD19C,2.000000*%
%TD*%
%TA.AperFunction,ComponentPad*%
%ADD20R,1.600000X1.600000*%
%TD*%
%TA.AperFunction,ViaPad*%
%ADD21C,1.500000*%
%TD*%
%TA.AperFunction,ViaPad*%
%ADD22C,1.800000*%
%TD*%
%TA.AperFunction,ViaPad*%
%ADD23C,1.000000*%
%TD*%
%TA.AperFunction,Conductor*%
%ADD24C,0.500000*%
%TD*%
%TA.AperFunction,Conductor*%
%ADD25C,1.300000*%
%TD*%
%TA.AperFunction,Conductor*%
%ADD26C,1.000000*%
%TD*%
%TA.AperFunction,Conductor*%
%ADD27C,1.800000*%
%TD*%
%TA.AperFunction,Conductor*%
%ADD28C,0.200000*%
%TD*%
%TA.AperFunction,Conductor*%
%ADD29C,0.800000*%
%TD*%
%TA.AperFunction,Conductor*%
%ADD30C,2.000000*%
%TD*%
%TA.AperFunction,Conductor*%
%ADD31C,0.400000*%
%TD*%
G04 APERTURE END LIST*
D10*
X165950000Y-76130000D03*
X170950000Y-76130000D03*
X139350000Y-78150000D03*
D11*
X139350000Y-85770000D03*
D12*
X133600000Y-67625000D03*
X133600000Y-70650000D03*
X133600000Y-73675000D03*
X133600000Y-76700000D03*
X133595000Y-79725000D03*
X133595000Y-82750000D03*
X133595000Y-85775000D03*
X133595000Y-88800000D03*
X133590000Y-91825000D03*
X133595000Y-94850000D03*
D10*
X149960000Y-71400000D03*
D11*
X149960000Y-63780000D03*
D12*
X144230000Y-97130000D03*
D13*
X146770000Y-97130000D03*
X144230000Y-99670000D03*
X146770000Y-99670000D03*
X144230000Y-102210000D03*
X146770000Y-102210000D03*
X144230000Y-104750000D03*
X146770000Y-104750000D03*
D14*
X148320000Y-109890000D03*
X150860000Y-109890000D03*
X153400000Y-109890000D03*
D15*
X132150000Y-111900000D03*
D10*
X164640000Y-70130000D03*
D11*
X172260000Y-70130000D03*
D10*
X168610000Y-67300000D03*
X168610000Y-62300000D03*
X154675000Y-69450000D03*
D11*
X154675000Y-77070000D03*
D16*
X162860000Y-65700000D03*
D17*
X164530000Y-65700000D03*
X166260000Y-65700000D03*
D10*
X172260000Y-73140000D03*
D11*
X164640000Y-73140000D03*
D18*
X170580000Y-96570000D03*
X170580000Y-99110000D03*
X170580000Y-101650000D03*
X170580000Y-104250000D03*
X170580000Y-106790000D03*
D10*
X163100000Y-110070000D03*
X158100000Y-110070000D03*
D18*
X132900000Y-106882500D03*
X132900000Y-104342500D03*
X132900000Y-101802500D03*
D12*
X139350000Y-90275000D03*
D18*
X139350000Y-92815000D03*
X139350000Y-95355000D03*
D19*
X157300000Y-61750000D03*
X143900000Y-61750000D03*
X157300000Y-84750000D03*
X143900000Y-84750000D03*
X154760000Y-84750000D03*
X146440000Y-84750000D03*
D10*
X150475000Y-86230000D03*
D11*
X150475000Y-76070000D03*
D15*
X171850000Y-62200000D03*
D10*
X143410000Y-93800000D03*
X143410000Y-88800000D03*
D20*
X149700000Y-91330000D03*
D10*
X146990000Y-91330000D03*
D15*
X171850000Y-111900000D03*
D10*
X157750000Y-77070000D03*
D11*
X157750000Y-69450000D03*
D20*
X164420000Y-106795000D03*
D11*
X164420000Y-104255000D03*
X164420000Y-101715000D03*
X164420000Y-99175000D03*
X164420000Y-96635000D03*
X164420000Y-94095000D03*
X164420000Y-91555000D03*
X156800000Y-91555000D03*
X156800000Y-94095000D03*
X156800000Y-96635000D03*
X156800000Y-99175000D03*
X156800000Y-101715000D03*
X156800000Y-104255000D03*
X156800000Y-106795000D03*
D10*
X160540000Y-96960000D03*
D11*
X160540000Y-104580000D03*
D18*
X137982500Y-104342500D03*
X135442500Y-104342500D03*
X132902500Y-104342500D03*
D20*
X163125000Y-84782380D03*
D10*
X163125000Y-82282380D03*
D15*
X132150000Y-62200000D03*
D16*
X143470000Y-70320000D03*
D17*
X145140000Y-70320000D03*
X146870000Y-70320000D03*
D10*
X160460000Y-67290000D03*
X160460000Y-62290000D03*
D18*
X137980000Y-101802500D03*
X135440000Y-101802500D03*
X132900000Y-101802500D03*
D16*
X141570000Y-110860000D03*
D17*
X143250000Y-110860000D03*
X144910000Y-110860000D03*
D16*
X154525000Y-65775000D03*
D17*
X156195000Y-65775000D03*
X157925000Y-65775000D03*
D18*
X137982500Y-106882500D03*
X135442500Y-106882500D03*
X132902500Y-106882500D03*
D10*
X170420000Y-88970000D03*
D11*
X170420000Y-81350000D03*
D21*
X139270000Y-80250000D03*
D22*
X139450000Y-110950000D03*
D23*
X140520000Y-71040000D03*
X139360000Y-75640000D03*
X167215000Y-88335000D03*
X167025000Y-81850000D03*
D21*
X165430000Y-110780000D03*
X170340000Y-79080000D03*
X167730000Y-110430000D03*
X169900000Y-83420000D03*
X170510000Y-93900000D03*
D23*
X156920000Y-108490000D03*
D21*
X142160000Y-95840000D03*
X159790000Y-79480000D03*
D23*
X160600000Y-106800000D03*
X158900000Y-106800000D03*
D21*
X160425000Y-64025000D03*
X147050000Y-88900000D03*
X163990000Y-75830000D03*
D23*
X156400000Y-110100000D03*
D21*
X142030000Y-98400000D03*
X159230000Y-81410000D03*
X163050000Y-74360000D03*
X161540000Y-94560000D03*
X162530000Y-61400000D03*
X166650000Y-61400000D03*
X144100000Y-86700000D03*
X145850000Y-87480000D03*
D23*
X159500000Y-108800000D03*
D21*
X162030000Y-79470000D03*
D23*
X155510000Y-108110000D03*
D21*
X164600000Y-61390000D03*
D24*
X136160000Y-84250000D02*
X132250000Y-84250000D01*
X136720000Y-84810000D02*
X136160000Y-84250000D01*
X132250000Y-84250000D02*
X131750000Y-84750000D01*
X132250000Y-88800000D02*
X133595000Y-88800000D01*
X138390000Y-84810000D02*
X136720000Y-84810000D01*
X131750000Y-88300000D02*
X132250000Y-88800000D01*
X139350000Y-85770000D02*
X138390000Y-84810000D01*
X131750000Y-84750000D02*
X131750000Y-88300000D01*
D25*
X145330000Y-81580000D02*
X146440000Y-82690000D01*
X142320000Y-81580000D02*
X145330000Y-81580000D01*
X141150000Y-82750000D02*
X142320000Y-81580000D01*
X146440000Y-82690000D02*
X146440000Y-84750000D01*
X133595000Y-82750000D02*
X141150000Y-82750000D01*
D26*
X139350000Y-80170000D02*
X139270000Y-80250000D01*
X139350000Y-78150000D02*
X139350000Y-80170000D01*
D25*
X167730000Y-110430000D02*
X167730000Y-109920000D01*
X167370000Y-110070000D02*
X163100000Y-110070000D01*
X167730000Y-110430000D02*
X167370000Y-110070000D01*
X167730000Y-110430000D02*
X166280000Y-108980000D01*
X166280000Y-108980000D02*
X165000000Y-108980000D01*
X164605000Y-106795000D02*
X164420000Y-106795000D01*
X167730000Y-109920000D02*
X164605000Y-106795000D01*
D26*
X170950000Y-76130000D02*
X171310000Y-75770000D01*
D27*
X165950000Y-76130000D02*
X164640000Y-74820000D01*
D25*
X141080000Y-75730000D02*
X139450000Y-75730000D01*
X139450000Y-75730000D02*
X139360000Y-75640000D01*
X141080000Y-75730000D02*
X138670000Y-75730000D01*
X141080000Y-75730000D02*
X142000000Y-75730000D01*
X146440000Y-79160000D02*
X149695000Y-82415000D01*
X145430000Y-79160000D02*
X146440000Y-79160000D01*
X142000000Y-75730000D02*
X145430000Y-79160000D01*
X138670000Y-75730000D02*
X134675000Y-79725000D01*
D24*
X139350000Y-86250000D02*
X139250000Y-86150000D01*
D25*
X133955000Y-73675000D02*
X133600000Y-73675000D01*
X150840000Y-66410000D02*
X141220000Y-66410000D01*
X141220000Y-66410000D02*
X133955000Y-73675000D01*
X152040000Y-67610000D02*
X150840000Y-66410000D01*
X153640000Y-72310000D02*
X152040000Y-70710000D01*
X158500000Y-72310000D02*
X153640000Y-72310000D01*
X162310000Y-68500000D02*
X158500000Y-72310000D01*
X162700000Y-68500000D02*
X162310000Y-68500000D01*
X152040000Y-70710000D02*
X152040000Y-67610000D01*
X137050000Y-89350000D02*
X139650000Y-89350000D01*
X136850000Y-89150000D02*
X137050000Y-89350000D01*
X136850000Y-89150000D02*
X136250000Y-88550000D01*
X137975000Y-90275000D02*
X136850000Y-89150000D01*
D27*
X139350000Y-89750000D02*
X139200000Y-89600000D01*
X139350000Y-90275000D02*
X139350000Y-89750000D01*
X139750000Y-89600000D02*
X143950000Y-93800000D01*
X139200000Y-89600000D02*
X139750000Y-89600000D01*
X143950000Y-93800000D02*
X145390000Y-93800000D01*
D25*
X136250000Y-88550000D02*
X136250000Y-87050000D01*
X136250000Y-87050000D02*
X134975000Y-85775000D01*
D27*
X146040000Y-93800000D02*
X143410000Y-93800000D01*
X139350000Y-90275000D02*
X138700000Y-90275000D01*
D25*
X137975000Y-90275000D02*
X139350000Y-90275000D01*
X134975000Y-85775000D02*
X133595000Y-85775000D01*
X134350000Y-97900000D02*
X133595000Y-97145000D01*
X138350000Y-97900000D02*
X134350000Y-97900000D01*
X133595000Y-97145000D02*
X133595000Y-94850000D01*
X140200000Y-106900000D02*
X140200000Y-99750000D01*
X140400000Y-107100000D02*
X140200000Y-106900000D01*
X140200000Y-99750000D02*
X138350000Y-97900000D01*
X136500000Y-92450000D02*
X134215000Y-92450000D01*
X134215000Y-92450000D02*
X133590000Y-91825000D01*
X136865000Y-92815000D02*
X136500000Y-92450000D01*
X139350000Y-92815000D02*
X136865000Y-92815000D01*
X134675000Y-79725000D02*
X133595000Y-79725000D01*
D28*
X139350000Y-89760000D02*
X139370000Y-89760000D01*
D25*
X139540000Y-110860000D02*
X139450000Y-110950000D01*
X141570000Y-110860000D02*
X139540000Y-110860000D01*
X134400000Y-76700000D02*
X133600000Y-76700000D01*
X136570000Y-74530000D02*
X134400000Y-76700000D01*
X136570000Y-74500000D02*
X136570000Y-74530000D01*
X143070000Y-73320000D02*
X137750000Y-73320000D01*
X146720000Y-76970000D02*
X143070000Y-73320000D01*
X147670000Y-76970000D02*
X146720000Y-76970000D01*
X154630000Y-82350000D02*
X150990000Y-78710000D01*
X149410000Y-78710000D02*
X147670000Y-76970000D01*
X137750000Y-73320000D02*
X136570000Y-74500000D01*
X156460000Y-82350000D02*
X154630000Y-82350000D01*
X150990000Y-78710000D02*
X149410000Y-78710000D01*
X134150000Y-64220000D02*
X133720000Y-64650000D01*
X143900000Y-61750000D02*
X138180000Y-61750000D01*
X138180000Y-61750000D02*
X135710000Y-64220000D01*
X131150000Y-69650000D02*
X131960000Y-70460000D01*
X135710000Y-64220000D02*
X134150000Y-64220000D01*
X131800000Y-64650000D02*
X131150000Y-65300000D01*
X133720000Y-64650000D02*
X131800000Y-64650000D01*
X131150000Y-65300000D02*
X131150000Y-69650000D01*
X131960000Y-70460000D02*
X133600000Y-70460000D01*
X135795000Y-67625000D02*
X133600000Y-67625000D01*
X137810000Y-65610000D02*
X135795000Y-67625000D01*
X137810000Y-65610000D02*
X136540000Y-66880000D01*
X139240000Y-64180000D02*
X137810000Y-65610000D01*
D26*
X164420000Y-101715000D02*
X170515000Y-101715000D01*
X170515000Y-101715000D02*
X170580000Y-101650000D01*
D29*
X165665000Y-96635000D02*
X164420000Y-96635000D01*
X168140000Y-99110000D02*
X165665000Y-96635000D01*
D26*
X168140000Y-99110000D02*
X165790000Y-96760000D01*
X165790000Y-96760000D02*
X164450000Y-96760000D01*
X170580000Y-99110000D02*
X168140000Y-99110000D01*
X164420000Y-104255000D02*
X170575000Y-104255000D01*
X170575000Y-104255000D02*
X170580000Y-104250000D01*
D25*
X152030000Y-84750000D02*
X152680000Y-84750000D01*
X149695000Y-82415000D02*
X152030000Y-84750000D01*
D26*
X141680000Y-71040000D02*
X140520000Y-71040000D01*
X141680000Y-71040000D02*
X143250000Y-71040000D01*
D27*
X151575000Y-85130000D02*
X150475000Y-86230000D01*
D26*
X142750000Y-71040000D02*
X143470000Y-70320000D01*
D27*
X151575000Y-84750000D02*
X152680000Y-84750000D01*
D26*
X141680000Y-71040000D02*
X142750000Y-71040000D01*
X143470000Y-70320000D02*
X143470000Y-70820000D01*
D25*
X150475000Y-86230000D02*
X150475000Y-83195000D01*
D27*
X151575000Y-84750000D02*
X151575000Y-85130000D01*
X151575000Y-84725000D02*
X151575000Y-84750000D01*
X152680000Y-84750000D02*
X154760000Y-84750000D01*
D26*
X143470000Y-70820000D02*
X143250000Y-71040000D01*
D25*
X150475000Y-83195000D02*
X149695000Y-82415000D01*
D26*
X144910000Y-110860000D02*
X144910000Y-109960000D01*
D25*
X140400000Y-107100000D02*
X142370000Y-109070000D01*
D26*
X142850000Y-109200000D02*
X142400000Y-108750000D01*
X144150000Y-109200000D02*
X142850000Y-109200000D01*
D25*
X142050000Y-108750000D02*
X140400000Y-107100000D01*
X140230000Y-106930000D02*
X140400000Y-107100000D01*
X142370000Y-109070000D02*
X142600000Y-109070000D01*
D26*
X144910000Y-109960000D02*
X144150000Y-109200000D01*
D24*
X159810000Y-93380000D02*
X160370000Y-92820000D01*
X163860000Y-77980000D02*
X162860000Y-77980000D01*
X156800000Y-101715000D02*
X157095000Y-101715000D01*
X167025000Y-81850000D02*
X167025000Y-81145000D01*
X161950000Y-77070000D02*
X157750000Y-77070000D01*
X158560000Y-96300000D02*
X159810000Y-95050000D01*
X158560000Y-100250000D02*
X158560000Y-96300000D01*
X159810000Y-95050000D02*
X159810000Y-93380000D01*
X160370000Y-92820000D02*
X165080000Y-92820000D01*
X167025000Y-81145000D02*
X163860000Y-77980000D01*
X166050000Y-89500000D02*
X167215000Y-88335000D01*
X166050000Y-91850000D02*
X166050000Y-89500000D01*
D26*
X157750000Y-77070000D02*
X158020000Y-77070000D01*
D24*
X157095000Y-101715000D02*
X158560000Y-100250000D01*
X162860000Y-77980000D02*
X161950000Y-77070000D01*
X165080000Y-92820000D02*
X166050000Y-91850000D01*
D26*
X158020000Y-77070000D02*
X158030000Y-77060000D01*
D29*
X156195000Y-68070000D02*
X156200000Y-68075000D01*
D25*
X156225000Y-69450000D02*
X154675000Y-69450000D01*
X156225000Y-67080000D02*
X156195000Y-67050000D01*
X156195000Y-67050000D02*
X156195000Y-67895000D01*
X156195000Y-67930000D02*
X154675000Y-69450000D01*
X156050000Y-68075000D02*
X156200000Y-68075000D01*
X157750000Y-69450000D02*
X156225000Y-69450000D01*
D29*
X156195000Y-67050000D02*
X156195000Y-68070000D01*
D25*
X156225000Y-69450000D02*
X156225000Y-67080000D01*
X157575000Y-69450000D02*
X156200000Y-68075000D01*
D29*
X156195000Y-65775000D02*
X156195000Y-67050000D01*
D25*
X154675000Y-69450000D02*
X156050000Y-68075000D01*
X156195000Y-67050000D02*
X156195000Y-67930000D01*
X157750000Y-69450000D02*
X157575000Y-69450000D01*
X156195000Y-67895000D02*
X157750000Y-69450000D01*
D24*
X166600000Y-95210000D02*
X169160000Y-92650000D01*
X162770000Y-97525000D02*
X162770000Y-96190000D01*
D26*
X170420000Y-89260000D02*
X170210000Y-89470000D01*
X170420000Y-88970000D02*
X170420000Y-89260000D01*
D24*
X164420000Y-99175000D02*
X164905000Y-99175000D01*
X169160000Y-92650000D02*
X169160000Y-90720000D01*
X169160000Y-90720000D02*
X170420000Y-89460000D01*
X163603577Y-95356423D02*
X166463577Y-95356423D01*
X166600000Y-95220000D02*
X166600000Y-95210000D01*
X164420000Y-99175000D02*
X162770000Y-97525000D01*
X162770000Y-96190000D02*
X163603577Y-95356423D01*
X166463577Y-95356423D02*
X166600000Y-95220000D01*
D25*
X164455000Y-99140000D02*
X164420000Y-99175000D01*
D29*
X164425000Y-99180000D02*
X164420000Y-99175000D01*
D27*
X168510000Y-68580000D02*
X168050000Y-68120000D01*
X148865000Y-92645000D02*
X152500000Y-89010000D01*
D25*
X165430000Y-110780000D02*
X163810000Y-110780000D01*
D29*
X168050000Y-68120000D02*
X166390000Y-66460000D01*
X167050000Y-65700000D02*
X166260000Y-65700000D01*
D27*
X149970000Y-91330000D02*
X150900000Y-90400000D01*
X143410000Y-93800000D02*
X145390000Y-93800000D01*
X169110000Y-83070000D02*
X169110000Y-79710000D01*
X168510000Y-73020000D02*
X168510000Y-67980000D01*
X147500000Y-93800000D02*
X143410000Y-93800000D01*
X168510000Y-70870000D02*
X168510000Y-69000000D01*
X146770000Y-94530000D02*
X146040000Y-93800000D01*
X146770000Y-97130000D02*
X146770000Y-95290000D01*
X164420000Y-108750000D02*
X163100000Y-110070000D01*
D29*
X166390000Y-66460000D02*
X166390000Y-65830000D01*
D27*
X168510000Y-69000000D02*
X167490000Y-67980000D01*
X168760000Y-83420000D02*
X169900000Y-83420000D01*
X146770000Y-94530000D02*
X146770000Y-95290000D01*
X146770000Y-94530000D02*
X146770000Y-97130000D01*
X151775000Y-89525000D02*
X150760000Y-90540000D01*
X168510000Y-67980000D02*
X166910000Y-66380000D01*
X151775000Y-89525000D02*
X149970000Y-91330000D01*
X157410000Y-88175000D02*
X153335000Y-88175000D01*
X168510000Y-73020000D02*
X168510000Y-70870000D01*
X167845000Y-84335000D02*
X169110000Y-83070000D01*
D25*
X143790000Y-93390000D02*
X144200000Y-93800000D01*
D27*
X167845000Y-84335000D02*
X170400000Y-81780000D01*
X168610000Y-67300000D02*
X168610000Y-67260000D01*
X168510000Y-77120000D02*
X168510000Y-77240000D01*
X149700000Y-91330000D02*
X149700000Y-91810000D01*
D26*
X169110000Y-82660000D02*
X169110000Y-83050000D01*
D27*
X153335000Y-88175000D02*
X152270000Y-89240000D01*
X166610000Y-85570000D02*
X168760000Y-83420000D01*
X166840000Y-67310000D02*
X166840000Y-65650000D01*
X146770000Y-94740000D02*
X148865000Y-92645000D01*
X164420000Y-106795000D02*
X164420000Y-107420000D01*
X157410000Y-88175000D02*
X153125000Y-88175000D01*
X169110000Y-79710000D02*
X168510000Y-79110000D01*
X150700000Y-90600000D02*
X152500000Y-88800000D01*
X149530000Y-91770000D02*
X149530000Y-90620000D01*
X152500000Y-89010000D02*
X152500000Y-88800000D01*
X169110000Y-83050000D02*
X163985000Y-88175000D01*
X168510000Y-68980000D02*
X166840000Y-67310000D01*
X145390000Y-93800000D02*
X146480000Y-94890000D01*
D26*
X170420000Y-81350000D02*
X169110000Y-82660000D01*
D25*
X163810000Y-110780000D02*
X163100000Y-110070000D01*
D27*
X170400000Y-81780000D02*
X170400000Y-81000000D01*
X168510000Y-70870000D02*
X168510000Y-68980000D01*
X168610000Y-67260000D02*
X167050000Y-65700000D01*
X146770000Y-95290000D02*
X146770000Y-94740000D01*
X148865000Y-92645000D02*
X149700000Y-91810000D01*
X150760000Y-90540000D02*
X149580000Y-90540000D01*
X164420000Y-106795000D02*
X164420000Y-108750000D01*
X168510000Y-73020000D02*
X168510000Y-68580000D01*
X168510000Y-77240000D02*
X170590000Y-79320000D01*
X164580000Y-87600000D02*
X166610000Y-85570000D01*
X168510000Y-79110000D02*
X168510000Y-77120000D01*
X152500000Y-88800000D02*
X150900000Y-90400000D01*
X169110000Y-83070000D02*
X169110000Y-83050000D01*
X168510000Y-77120000D02*
X168510000Y-73020000D01*
X144200000Y-93800000D02*
X145390000Y-93800000D01*
X151775000Y-89525000D02*
X150900000Y-90400000D01*
X170400000Y-81000000D02*
X169110000Y-79710000D01*
X152500000Y-88800000D02*
X151775000Y-89525000D01*
X163985000Y-88175000D02*
X157410000Y-88175000D01*
X166610000Y-85570000D02*
X167845000Y-84335000D01*
X149700000Y-91330000D02*
X149970000Y-91330000D01*
X153125000Y-88175000D02*
X151775000Y-89525000D01*
X168610000Y-68710000D02*
X168610000Y-67300000D01*
D29*
X166390000Y-65830000D02*
X166260000Y-65700000D01*
X157500000Y-104880000D02*
X155650000Y-104880000D01*
X157715000Y-104255000D02*
X157170000Y-103710000D01*
X156325000Y-104255000D02*
X156270000Y-104310000D01*
X158385000Y-104255000D02*
X157715000Y-104255000D01*
X157860000Y-104880000D02*
X158480000Y-104260000D01*
X158460000Y-104255000D02*
X158125000Y-104255000D01*
X158125000Y-104255000D02*
X157500000Y-104880000D01*
X157230000Y-103300000D02*
X157430000Y-103300000D01*
X155395000Y-105135000D02*
X157230000Y-103300000D01*
X158385000Y-104255000D02*
X157430000Y-103300000D01*
X156800000Y-104255000D02*
X158460000Y-104255000D01*
X158460000Y-104255000D02*
X158385000Y-104255000D01*
X158125000Y-104255000D02*
X156325000Y-104255000D01*
X156275000Y-104255000D02*
X156800000Y-104255000D01*
X150860000Y-109890000D02*
X150860000Y-109670000D01*
X156030000Y-103840000D02*
X156030000Y-104860000D01*
X157230000Y-103300000D02*
X156570000Y-103300000D01*
X150860000Y-109670000D02*
X155395000Y-105135000D01*
X158460000Y-104255000D02*
X160215000Y-104255000D01*
X155650000Y-104880000D02*
X155395000Y-105135000D01*
X157500000Y-104880000D02*
X157860000Y-104880000D01*
X155395000Y-105135000D02*
X156275000Y-104255000D01*
X156570000Y-103300000D02*
X156030000Y-103840000D01*
X160215000Y-104255000D02*
X160540000Y-104580000D01*
D25*
X157925000Y-65775000D02*
X157925000Y-64825000D01*
X163500000Y-62300000D02*
X162700000Y-61500000D01*
X156710000Y-108700000D02*
X155900000Y-108700000D01*
X158100000Y-109000000D02*
X158100000Y-108900000D01*
D27*
X164290000Y-76130000D02*
X163990000Y-75830000D01*
D25*
X155510000Y-108310000D02*
X155510000Y-108110000D01*
X155710000Y-108110000D02*
X156300000Y-108700000D01*
X162860000Y-65700000D02*
X162100000Y-65700000D01*
X159230000Y-81392500D02*
X157500000Y-79662500D01*
D30*
X168610000Y-62300000D02*
X163450000Y-62300000D01*
D25*
X161950000Y-64790000D02*
X159660000Y-64790000D01*
D27*
X146355113Y-90600000D02*
X146355113Y-89594887D01*
D25*
X159055000Y-64225000D02*
X159275000Y-64225000D01*
D27*
X146355113Y-90400000D02*
X146355113Y-89405113D01*
D25*
X162100000Y-65700000D02*
X160425000Y-64025000D01*
X142030000Y-95970000D02*
X142030000Y-98400000D01*
X157925000Y-64825000D02*
X161200000Y-61550000D01*
X144230000Y-97130000D02*
X142330000Y-97130000D01*
X155487500Y-79662500D02*
X157500000Y-79662500D01*
X142160000Y-95840000D02*
X143450000Y-97130000D01*
D27*
X147050000Y-88900000D02*
X147050000Y-91130000D01*
X163050000Y-74890000D02*
X163990000Y-75830000D01*
X146355113Y-89594887D02*
X147050000Y-88900000D01*
D25*
X158100000Y-110070000D02*
X158100000Y-109000000D01*
X162592380Y-82282380D02*
X159790000Y-79480000D01*
X163125000Y-82282380D02*
X161300000Y-82282380D01*
X161300000Y-82282380D02*
X160380000Y-81362380D01*
X170510000Y-96500000D02*
X170580000Y-96570000D01*
X160102380Y-82282380D02*
X159230000Y-81410000D01*
X160425000Y-62325000D02*
X160460000Y-62290000D01*
X159525000Y-64925000D02*
X160425000Y-64025000D01*
D27*
X161250000Y-61500000D02*
X160460000Y-62290000D01*
D25*
X159660000Y-64790000D02*
X159525000Y-64925000D01*
X155510000Y-108110000D02*
X155710000Y-108110000D01*
X155510000Y-108110000D02*
X155510000Y-109210000D01*
D27*
X144100000Y-86700000D02*
X144100000Y-88110000D01*
X145850000Y-87480000D02*
X145850000Y-87700000D01*
D25*
X163125000Y-82282380D02*
X163125000Y-80565000D01*
X162860000Y-65700000D02*
X162860000Y-65660000D01*
X161400000Y-63230000D02*
X160460000Y-62290000D01*
D27*
X146355113Y-89405113D02*
X143900000Y-86950000D01*
D25*
X162085000Y-64925000D02*
X162860000Y-65700000D01*
D27*
X144880000Y-87480000D02*
X144100000Y-86700000D01*
X146900000Y-88900000D02*
X147050000Y-88900000D01*
D25*
X160460000Y-63860000D02*
X160460000Y-63175000D01*
X162040000Y-79380000D02*
X155205000Y-79380000D01*
X161925000Y-81082380D02*
X161925000Y-80650000D01*
X162860000Y-65700000D02*
X162860000Y-63210000D01*
X155900000Y-108700000D02*
X155510000Y-108310000D01*
X159230000Y-81410000D02*
X159230000Y-81392500D01*
X160600000Y-106800000D02*
X160200000Y-106800000D01*
D30*
X163450000Y-62300000D02*
X162700000Y-61550000D01*
D25*
X162860000Y-63210000D02*
X161200000Y-61550000D01*
X143450000Y-97130000D02*
X144230000Y-97130000D01*
X160600000Y-107570000D02*
X158100000Y-110070000D01*
D30*
X143900000Y-86950000D02*
X143900000Y-87844887D01*
D25*
X154675000Y-78850000D02*
X155487500Y-79662500D01*
D27*
X164640000Y-73140000D02*
X164270000Y-73140000D01*
D25*
X154675000Y-77070000D02*
X154675000Y-78850000D01*
D27*
X145850000Y-87480000D02*
X145215787Y-87480000D01*
X143900000Y-86164213D02*
X143900000Y-84750000D01*
D25*
X162860000Y-64215000D02*
X164775000Y-62300000D01*
X155510000Y-109210000D02*
X156400000Y-110100000D01*
D27*
X143900000Y-86500000D02*
X144100000Y-86700000D01*
D25*
X158100000Y-110070000D02*
X158100000Y-108095000D01*
X157210000Y-108490000D02*
X158900000Y-106800000D01*
D27*
X159790000Y-79900000D02*
X159925000Y-79900000D01*
D25*
X155510000Y-108085000D02*
X156800000Y-106795000D01*
X164650000Y-61500000D02*
X166600000Y-61500000D01*
X158100000Y-109000000D02*
X158100000Y-108095000D01*
X156300000Y-108700000D02*
X156600000Y-109000000D01*
X158100000Y-110070000D02*
X156430000Y-110070000D01*
X158675000Y-65775000D02*
X159525000Y-64925000D01*
D30*
X160460000Y-62290000D02*
X160460000Y-63175000D01*
D25*
X163125000Y-80565000D02*
X162030000Y-79470000D01*
D27*
X143900000Y-85900000D02*
X145100000Y-87100000D01*
D25*
X162860000Y-61660000D02*
X162700000Y-61500000D01*
D30*
X161200000Y-61550000D02*
X167860000Y-61550000D01*
D25*
X160600000Y-106800000D02*
X160600000Y-107570000D01*
D27*
X143410000Y-85240000D02*
X143900000Y-84750000D01*
X145850000Y-87700000D02*
X147050000Y-88900000D01*
X165950000Y-76130000D02*
X164290000Y-76130000D01*
X146355113Y-90400000D02*
X146205113Y-90400000D01*
X163050000Y-74360000D02*
X163050000Y-74890000D01*
X143410000Y-88800000D02*
X144460000Y-88800000D01*
D25*
X157670000Y-110070000D02*
X156300000Y-108700000D01*
X155510000Y-108110000D02*
X155510000Y-108085000D01*
X156622500Y-79662500D02*
X154690000Y-77730000D01*
X160200000Y-106800000D02*
X158100000Y-108900000D01*
X161400000Y-64200000D02*
X162310000Y-63290000D01*
D27*
X143900000Y-84750000D02*
X143900000Y-86500000D01*
D25*
X156300000Y-107295000D02*
X156800000Y-106795000D01*
X168610000Y-62300000D02*
X164775000Y-62300000D01*
D27*
X145215787Y-87480000D02*
X143900000Y-86164213D01*
D25*
X164775000Y-62300000D02*
X163500000Y-62300000D01*
X156300000Y-108700000D02*
X156710000Y-108700000D01*
D27*
X147050000Y-91130000D02*
X146880000Y-91300000D01*
X143900000Y-84750000D02*
X143900000Y-85900000D01*
X162700000Y-61500000D02*
X161250000Y-61500000D01*
D30*
X167860000Y-61550000D02*
X168610000Y-62300000D01*
D25*
X157500000Y-79662500D02*
X156622500Y-79662500D01*
X158100000Y-108095000D02*
X156800000Y-106795000D01*
X144230000Y-97130000D02*
X143300000Y-97130000D01*
X162860000Y-64500000D02*
X162860000Y-64215000D01*
X143300000Y-97130000D02*
X142030000Y-98400000D01*
X161380000Y-80040000D02*
X162040000Y-79380000D01*
D27*
X164270000Y-73140000D02*
X163050000Y-74360000D01*
D25*
X156800000Y-106795000D02*
X160595000Y-106795000D01*
D27*
X146355113Y-89405113D02*
X146355113Y-90600000D01*
D25*
X160425000Y-64240000D02*
X160425000Y-64025000D01*
D30*
X160460000Y-62290000D02*
X161200000Y-61550000D01*
D27*
X164640000Y-73140000D02*
X164640000Y-74820000D01*
X144100000Y-88110000D02*
X143410000Y-88800000D01*
D25*
X142160000Y-95840000D02*
X142030000Y-95970000D01*
X162860000Y-65700000D02*
X162860000Y-64500000D01*
X156920000Y-108490000D02*
X156710000Y-108700000D01*
X156920000Y-108490000D02*
X157210000Y-108490000D01*
D27*
X143900000Y-84750000D02*
X143900000Y-86950000D01*
D25*
X155205000Y-79380000D02*
X154675000Y-78850000D01*
X160380000Y-80040000D02*
X161380000Y-80040000D01*
D27*
X143410000Y-88800000D02*
X144555113Y-88800000D01*
X144555113Y-88800000D02*
X146355113Y-90600000D01*
D25*
X157925000Y-64825000D02*
X160460000Y-62290000D01*
X156300000Y-108700000D02*
X155900000Y-108700000D01*
X160425000Y-64025000D02*
X160425000Y-62325000D01*
X162860000Y-64500000D02*
X162860000Y-63290000D01*
X162310000Y-63290000D02*
X162860000Y-63290000D01*
X156600000Y-109000000D02*
X158100000Y-109000000D01*
X166600000Y-61500000D02*
X166650000Y-61450000D01*
D27*
X159218750Y-80471250D02*
X159790000Y-79900000D01*
D25*
X163125000Y-82282380D02*
X161925000Y-81082380D01*
X161950000Y-64790000D02*
X162860000Y-65700000D01*
D27*
X143410000Y-88800000D02*
X143410000Y-85240000D01*
D25*
X160595000Y-106795000D02*
X160600000Y-106800000D01*
X160380000Y-80040000D02*
X160380000Y-81362380D01*
X161400000Y-64200000D02*
X161400000Y-63230000D01*
X157925000Y-65775000D02*
X158675000Y-65775000D01*
X170510000Y-93900000D02*
X170510000Y-96500000D01*
X162860000Y-65700000D02*
X162860000Y-61660000D01*
X156430000Y-110070000D02*
X156400000Y-110100000D01*
D26*
X161540000Y-95960000D02*
X160540000Y-96960000D01*
D25*
X143900000Y-86570000D02*
X143900000Y-86164213D01*
D27*
X144460000Y-88800000D02*
X146990000Y-91330000D01*
D30*
X143900000Y-86950000D02*
X143825000Y-87025000D01*
D25*
X158100000Y-110070000D02*
X157670000Y-110070000D01*
X163125000Y-82282380D02*
X160102380Y-82282380D01*
X156300000Y-108700000D02*
X156300000Y-107295000D01*
D27*
X145850000Y-87480000D02*
X144880000Y-87480000D01*
D25*
X162860000Y-63290000D02*
X164650000Y-61500000D01*
D26*
X161540000Y-94560000D02*
X161540000Y-95960000D01*
D25*
X144230000Y-97130000D02*
X142545000Y-97130000D01*
X163125000Y-82282380D02*
X162592380Y-82282380D01*
X172260000Y-70570000D02*
X171700000Y-71130000D01*
D24*
X168690000Y-87580000D02*
X172620000Y-83650000D01*
X172620000Y-77750000D02*
X170960000Y-76090000D01*
D26*
X171290000Y-75790000D02*
X172150000Y-75790000D01*
D25*
X172260000Y-73340000D02*
X171630000Y-73970000D01*
D24*
X172620000Y-76670000D02*
X171990000Y-76040000D01*
X172620000Y-75650000D02*
X172620000Y-70450000D01*
X172620000Y-79580000D02*
X172620000Y-78900000D01*
X164420000Y-94095000D02*
X165725000Y-94095000D01*
X172620000Y-77750000D02*
X172620000Y-77170000D01*
X165725000Y-94095000D02*
X167530000Y-92290000D01*
D25*
X172260000Y-70130000D02*
X172260000Y-70570000D01*
X172260000Y-73140000D02*
X172260000Y-73340000D01*
D24*
X172620000Y-75180000D02*
X172260000Y-74820000D01*
D26*
X171310000Y-71080000D02*
X171310000Y-75770000D01*
D24*
X172620000Y-78900000D02*
X172620000Y-76670000D01*
X172620000Y-78900000D02*
X172620000Y-75650000D01*
X172620000Y-70450000D02*
X172280000Y-70110000D01*
X172620000Y-77170000D02*
X171450000Y-76000000D01*
X172620000Y-83650000D02*
X172620000Y-79580000D01*
X167530000Y-90270000D02*
X168690000Y-89110000D01*
X167530000Y-92290000D02*
X167530000Y-90270000D01*
D26*
X171290000Y-75790000D02*
X170950000Y-76130000D01*
D24*
X168690000Y-89110000D02*
X168690000Y-87580000D01*
D26*
X172260000Y-73140000D02*
X172260000Y-74820000D01*
X172260000Y-70130000D02*
X172260000Y-73140000D01*
D24*
X172620000Y-79580000D02*
X172620000Y-77750000D01*
D26*
X172260000Y-70130000D02*
X171310000Y-71080000D01*
X172260000Y-74820000D02*
X170950000Y-76130000D01*
D24*
X172620000Y-75650000D02*
X172620000Y-75180000D01*
D29*
X164640000Y-70130000D02*
X164140000Y-70130000D01*
X152570000Y-74920000D02*
X150970000Y-73320000D01*
X146870000Y-70320000D02*
X146870000Y-71360000D01*
X159350000Y-74920000D02*
X152570000Y-74920000D01*
X164140000Y-70130000D02*
X159350000Y-74920000D01*
X148830000Y-73320000D02*
X146870000Y-71360000D01*
X150970000Y-73320000D02*
X148830000Y-73320000D01*
X149750000Y-70110000D02*
X149750000Y-71190000D01*
X149750000Y-70110000D02*
X149750000Y-71760000D01*
X147640000Y-74950000D02*
X149355000Y-74950000D01*
X145890000Y-68500000D02*
X148840000Y-68500000D01*
X145140000Y-70320000D02*
X145140000Y-69250000D01*
X145890000Y-68500000D02*
X145140000Y-69250000D01*
X149750000Y-69410000D02*
X149750000Y-70110000D01*
X145140000Y-70320000D02*
X145140000Y-72450000D01*
X149750000Y-71190000D02*
X149960000Y-71400000D01*
X149355000Y-74950000D02*
X150475000Y-76070000D01*
X145140000Y-72450000D02*
X147640000Y-74950000D01*
X148840000Y-68500000D02*
X149750000Y-69410000D01*
X145140000Y-72450000D02*
X145140000Y-69250000D01*
D31*
X141880000Y-106130000D02*
X143740000Y-107990000D01*
X141880000Y-100580000D02*
X141880000Y-106130000D01*
X154940000Y-100160000D02*
X155925000Y-99175000D01*
X142790000Y-99670000D02*
X141880000Y-100580000D01*
X155925000Y-99175000D02*
X156800000Y-99175000D01*
X143740000Y-107990000D02*
X150185000Y-107990000D01*
X154940000Y-103235000D02*
X154940000Y-100160000D01*
X150185000Y-107990000D02*
X154940000Y-103235000D01*
X144230000Y-99670000D02*
X142790000Y-99670000D01*
X156800000Y-96635000D02*
X155765000Y-96635000D01*
X153570000Y-98830000D02*
X153570000Y-102550000D01*
X143050000Y-100930000D02*
X145510000Y-100930000D01*
X149080000Y-107040000D02*
X144240000Y-107040000D01*
X142830000Y-101150000D02*
X143050000Y-100930000D01*
X144240000Y-107040000D02*
X142830000Y-105630000D01*
X145510000Y-100930000D02*
X146770000Y-99670000D01*
X155765000Y-96635000D02*
X153570000Y-98830000D01*
X142830000Y-105630000D02*
X142830000Y-101150000D01*
X153570000Y-102550000D02*
X149080000Y-107040000D01*
D24*
X148460000Y-103480000D02*
X148170000Y-103480000D01*
D31*
X145500000Y-103480000D02*
X144230000Y-102210000D01*
D24*
X150560000Y-97170000D02*
X153635000Y-94095000D01*
X148730000Y-103480000D02*
X150560000Y-101650000D01*
D31*
X147730000Y-103480000D02*
X148170000Y-103480000D01*
D24*
X153635000Y-94095000D02*
X156800000Y-94095000D01*
X148460000Y-103480000D02*
X147730000Y-103480000D01*
D31*
X145500000Y-103480000D02*
X147730000Y-103480000D01*
D24*
X148460000Y-103480000D02*
X148730000Y-103480000D01*
X150560000Y-101650000D02*
X150560000Y-97170000D01*
X153945000Y-91555000D02*
X156800000Y-91555000D01*
X148020000Y-102210000D02*
X149070000Y-101160000D01*
X149070000Y-96430000D02*
X153945000Y-91555000D01*
X146770000Y-102210000D02*
X148020000Y-102210000D01*
X149070000Y-101160000D02*
X149070000Y-96430000D01*
D31*
X148150000Y-106080000D02*
X152090000Y-102140000D01*
X144800000Y-106080000D02*
X148150000Y-106080000D01*
X157815000Y-95360000D02*
X158480000Y-94695000D01*
X158480000Y-92430000D02*
X159355000Y-91555000D01*
X144230000Y-105510000D02*
X144800000Y-106080000D01*
X152090000Y-102140000D02*
X152090000Y-98020000D01*
X144230000Y-104750000D02*
X144230000Y-105510000D01*
X158480000Y-94695000D02*
X158480000Y-92430000D01*
X154750000Y-95360000D02*
X157815000Y-95360000D01*
X152090000Y-98020000D02*
X154750000Y-95360000D01*
X159355000Y-91555000D02*
X164420000Y-91555000D01*
D29*
X152530000Y-63780000D02*
X149960000Y-63780000D01*
X154525000Y-65775000D02*
X152530000Y-63780000D01*
X160460000Y-67290000D02*
X161220000Y-68050000D01*
D25*
X161895000Y-68725000D02*
X160460000Y-67290000D01*
X164530000Y-67150000D02*
X162955000Y-68725000D01*
X162955000Y-68725000D02*
X161895000Y-68725000D01*
X163630000Y-68050000D02*
X161220000Y-68050000D01*
X162700000Y-68525000D02*
X162700000Y-68500000D01*
D30*
X162450000Y-68500000D02*
X162700000Y-68500000D01*
D29*
X161220000Y-68050000D02*
X162200000Y-68050000D01*
D27*
X162700000Y-68500000D02*
X162400000Y-68500000D01*
D25*
X164530000Y-67150000D02*
X163630000Y-68050000D01*
X164530000Y-65700000D02*
X164530000Y-67150000D01*
X156460000Y-82350000D02*
X158892380Y-84782380D01*
D27*
X159020000Y-84782380D02*
X157332380Y-84782380D01*
D25*
X157332380Y-84782380D02*
X157300000Y-84750000D01*
X157300000Y-83190000D02*
X157300000Y-84750000D01*
X163125000Y-84782380D02*
X157332380Y-84782380D01*
X156460000Y-82350000D02*
X157300000Y-83190000D01*
D27*
X163125000Y-84782380D02*
X159020000Y-84782380D01*
D25*
X158892380Y-84782380D02*
X159020000Y-84782380D01*
X147740000Y-61470000D02*
X145030000Y-64180000D01*
X157300000Y-61750000D02*
X157020000Y-61470000D01*
X145030000Y-64180000D02*
X139240000Y-64180000D01*
X157020000Y-61470000D02*
X147740000Y-61470000D01*
D29*
X143250000Y-110860000D02*
X143250000Y-111850000D01*
X144090000Y-112770000D02*
X146430000Y-112770000D01*
X143250000Y-111930000D02*
X144090000Y-112770000D01*
X148320000Y-110880000D02*
X148320000Y-109890000D01*
X146430000Y-112770000D02*
X148320000Y-110880000D01*
X143250000Y-110860000D02*
X143250000Y-111930000D01*
X148310000Y-109900000D02*
X148320000Y-109890000D01*
M02*
