M48
; DRILL file {KiCad 7.0.1} date Wed Jul  5 18:41:01 2023
; FORMAT={-:-/ absolute / metric / decimal}
; #@! TF.CreationDate,2023-07-05T18:41:01+02:00
; #@! TF.GenerationSoftware,Kicad,Pcbnew,7.0.1
; #@! TF.FileFunction,Plated,1,2,PTH
FMAT,2
METRIC
; #@! TA.AperFunction,Plated,PTH,ViaDrill
T1C0.600
; #@! TA.AperFunction,Plated,PTH,ComponentDrill
T2C0.750
; #@! TA.AperFunction,Plated,PTH,ViaDrill
T3C0.800
; #@! TA.AperFunction,Plated,PTH,ComponentDrill
T4C0.800
; #@! TA.AperFunction,Plated,PTH,ComponentDrill
T5C1.000
; #@! TA.AperFunction,Plated,PTH,ViaDrill
T6C1.200
; #@! TA.AperFunction,Plated,PTH,ComponentDrill
T7C2.500
%
G90
G05
T1
X139.36Y-75.64
X140.52Y-71.04
X155.51Y-108.11
X156.4Y-110.1
X156.92Y-108.49
X158.9Y-106.8
X159.5Y-108.8
X160.6Y-106.8
X167.025Y-81.85
X167.215Y-88.335
T2
X141.57Y-110.86
X143.25Y-110.86
X143.47Y-70.32
X144.91Y-110.86
X145.14Y-70.32
X146.87Y-70.32
X154.525Y-65.775
X156.195Y-65.775
X157.925Y-65.775
X162.86Y-65.7
X164.53Y-65.7
X166.26Y-65.7
T3
X139.27Y-80.25
X142.03Y-98.4
X142.16Y-95.84
X144.1Y-86.7
X145.85Y-87.48
X147.05Y-88.9
X159.23Y-81.41
X159.79Y-79.48
X160.425Y-64.025
X161.54Y-94.56
X162.03Y-79.47
X162.53Y-61.4
X163.05Y-74.36
X163.99Y-75.83
X164.6Y-61.39
X165.43Y-110.78
X166.65Y-61.4
X167.73Y-110.43
X169.9Y-83.42
X170.34Y-79.08
X170.51Y-93.9
T4
X139.35Y-78.15
X139.35Y-85.77
X143.41Y-88.8
X143.41Y-93.8
X146.99Y-91.33
X148.32Y-109.89
X149.7Y-91.33
X149.96Y-63.78
X149.96Y-71.4
X150.475Y-76.07
X150.475Y-86.23
X150.86Y-109.89
X153.4Y-109.89
X154.675Y-69.45
X154.675Y-77.07
X156.8Y-91.555
X156.8Y-94.095
X156.8Y-96.635
X156.8Y-99.175
X156.8Y-101.715
X156.8Y-104.255
X156.8Y-106.795
X157.75Y-69.45
X157.75Y-77.07
X158.1Y-110.07
X160.46Y-62.29
X160.46Y-67.29
X160.54Y-96.96
X160.54Y-104.58
X163.1Y-110.07
X163.125Y-82.282
X163.125Y-84.782
X164.42Y-91.555
X164.42Y-94.095
X164.42Y-96.635
X164.42Y-99.175
X164.42Y-101.715
X164.42Y-104.255
X164.42Y-106.795
X164.64Y-70.13
X164.64Y-73.14
X165.95Y-76.13
X168.61Y-62.3
X168.61Y-67.3
X170.42Y-81.35
X170.42Y-88.97
X170.95Y-76.13
X172.26Y-70.13
X172.26Y-73.14
T5
X132.9Y-101.802
X132.9Y-101.802
X132.9Y-104.343
X132.9Y-106.882
X132.903Y-104.343
X132.903Y-106.882
X133.59Y-91.825
X133.595Y-79.725
X133.595Y-82.75
X133.595Y-85.775
X133.595Y-88.8
X133.595Y-94.85
X133.6Y-67.625
X133.6Y-70.65
X133.6Y-73.675
X133.6Y-76.7
X135.44Y-101.802
X135.442Y-104.343
X135.442Y-106.882
X137.98Y-101.802
X137.982Y-104.343
X137.982Y-106.882
X139.35Y-90.275
X139.35Y-92.815
X139.35Y-95.355
X143.9Y-61.75
X143.9Y-84.75
X144.23Y-97.13
X144.23Y-99.67
X144.23Y-102.21
X144.23Y-104.75
X146.44Y-84.75
X146.77Y-97.13
X146.77Y-99.67
X146.77Y-102.21
X146.77Y-104.75
X154.76Y-84.75
X157.3Y-61.75
X157.3Y-84.75
X170.58Y-96.57
X170.58Y-99.11
X170.58Y-101.65
X170.58Y-104.25
X170.58Y-106.79
T6
X139.45Y-110.95
T7
X132.15Y-62.2
X132.15Y-111.9
X171.85Y-62.2
X171.85Y-111.9
T0
M30
