%TF.GenerationSoftware,KiCad,Pcbnew,7.0.1*%
%TF.CreationDate,2023-05-21T03:30:21+02:00*%
%TF.ProjectId,Auto_plant_Backup,4175746f-5f70-46c6-916e-745f4261636b,rev?*%
%TF.SameCoordinates,Original*%
%TF.FileFunction,Legend,Top*%
%TF.FilePolarity,Positive*%
%FSLAX46Y46*%
G04 Gerber Fmt 4.6, Leading zero omitted, Abs format (unit mm)*
G04 Created by KiCad (PCBNEW 7.0.1) date 2023-05-21 03:30:21*
%MOMM*%
%LPD*%
G01*
G04 APERTURE LIST*
%ADD10C,0.300000*%
%ADD11C,0.100000*%
%ADD12C,0.150000*%
%ADD13C,0.400000*%
%ADD14C,0.120000*%
%ADD15R,1.600000X1.600000*%
%ADD16C,1.600000*%
%ADD17O,1.980000X3.960000*%
%ADD18R,1.980000X3.960000*%
%ADD19O,1.600000X1.600000*%
%ADD20C,1.524000*%
%ADD21R,1.700000X1.700000*%
%ADD22C,1.700000*%
%ADD23R,1.050000X1.500000*%
%ADD24O,1.050000X1.500000*%
%ADD25C,2.000000*%
G04 APERTURE END LIST*
D10*
X145238095Y-65663333D02*
X146761905Y-65663333D01*
X155238095Y-65663333D02*
X156761905Y-65663333D01*
X150238095Y-65663333D02*
X151761905Y-65663333D01*
X151000000Y-66425238D02*
X151000000Y-64901428D01*
X140238095Y-65663333D02*
X141761905Y-65663333D01*
X141000000Y-66425238D02*
X141000000Y-64901428D01*
X135238095Y-65663333D02*
X136761905Y-65663333D01*
X130238095Y-65663333D02*
X131761905Y-65663333D01*
X131000000Y-66425238D02*
X131000000Y-64901428D01*
X120238095Y-65663333D02*
X121761905Y-65663333D01*
X121000000Y-66425238D02*
X121000000Y-64901428D01*
X125238095Y-65663333D02*
X126761905Y-65663333D01*
D11*
X118250000Y-67250000D02*
X159250000Y-67250000D01*
X159250000Y-80000000D01*
X118250000Y-80000000D01*
X118250000Y-67250000D01*
X149000000Y-57900000D02*
X159250000Y-57900000D01*
X159250000Y-80000000D01*
X149000000Y-80000000D01*
X149000000Y-57900000D01*
X138750000Y-57900000D02*
X149000000Y-57900000D01*
X149000000Y-80000000D01*
X138750000Y-80000000D01*
X138750000Y-57900000D01*
X128500000Y-57800000D02*
X138750000Y-57800000D01*
X138750000Y-80000000D01*
X128500000Y-80000000D01*
X128500000Y-57800000D01*
X118250000Y-57800000D02*
X128500000Y-57800000D01*
X128500000Y-80000000D01*
X118250000Y-80000000D01*
X118250000Y-57800000D01*
X167961295Y-95153066D02*
X168723200Y-95153066D01*
D12*
X141233333Y-69465019D02*
X141423809Y-69465019D01*
X141423809Y-69465019D02*
X141519047Y-69512638D01*
X141519047Y-69512638D02*
X141614285Y-69607876D01*
X141614285Y-69607876D02*
X141661904Y-69798352D01*
X141661904Y-69798352D02*
X141661904Y-70131685D01*
X141661904Y-70131685D02*
X141614285Y-70322161D01*
X141614285Y-70322161D02*
X141519047Y-70417400D01*
X141519047Y-70417400D02*
X141423809Y-70465019D01*
X141423809Y-70465019D02*
X141233333Y-70465019D01*
X141233333Y-70465019D02*
X141138095Y-70417400D01*
X141138095Y-70417400D02*
X141042857Y-70322161D01*
X141042857Y-70322161D02*
X140995238Y-70131685D01*
X140995238Y-70131685D02*
X140995238Y-69798352D01*
X140995238Y-69798352D02*
X141042857Y-69607876D01*
X141042857Y-69607876D02*
X141138095Y-69512638D01*
X141138095Y-69512638D02*
X141233333Y-69465019D01*
X142090476Y-69798352D02*
X142090476Y-70465019D01*
X142090476Y-69893590D02*
X142138095Y-69845971D01*
X142138095Y-69845971D02*
X142233333Y-69798352D01*
X142233333Y-69798352D02*
X142376190Y-69798352D01*
X142376190Y-69798352D02*
X142471428Y-69845971D01*
X142471428Y-69845971D02*
X142519047Y-69941209D01*
X142519047Y-69941209D02*
X142519047Y-70465019D01*
X143709523Y-69417400D02*
X142852381Y-70703114D01*
X144233333Y-69465019D02*
X144423809Y-69465019D01*
X144423809Y-69465019D02*
X144519047Y-69512638D01*
X144519047Y-69512638D02*
X144614285Y-69607876D01*
X144614285Y-69607876D02*
X144661904Y-69798352D01*
X144661904Y-69798352D02*
X144661904Y-70131685D01*
X144661904Y-70131685D02*
X144614285Y-70322161D01*
X144614285Y-70322161D02*
X144519047Y-70417400D01*
X144519047Y-70417400D02*
X144423809Y-70465019D01*
X144423809Y-70465019D02*
X144233333Y-70465019D01*
X144233333Y-70465019D02*
X144138095Y-70417400D01*
X144138095Y-70417400D02*
X144042857Y-70322161D01*
X144042857Y-70322161D02*
X143995238Y-70131685D01*
X143995238Y-70131685D02*
X143995238Y-69798352D01*
X143995238Y-69798352D02*
X144042857Y-69607876D01*
X144042857Y-69607876D02*
X144138095Y-69512638D01*
X144138095Y-69512638D02*
X144233333Y-69465019D01*
X144947619Y-69798352D02*
X145328571Y-69798352D01*
X145090476Y-70465019D02*
X145090476Y-69607876D01*
X145090476Y-69607876D02*
X145138095Y-69512638D01*
X145138095Y-69512638D02*
X145233333Y-69465019D01*
X145233333Y-69465019D02*
X145328571Y-69465019D01*
X145519048Y-69798352D02*
X145900000Y-69798352D01*
X145661905Y-70465019D02*
X145661905Y-69607876D01*
X145661905Y-69607876D02*
X145709524Y-69512638D01*
X145709524Y-69512638D02*
X145804762Y-69465019D01*
X145804762Y-69465019D02*
X145900000Y-69465019D01*
D11*
X167961295Y-89514266D02*
X168723200Y-89514266D01*
X168342247Y-89895219D02*
X168342247Y-89133314D01*
D12*
X151073809Y-70462619D02*
X151073809Y-69462619D01*
X151073809Y-69462619D02*
X151407142Y-70176904D01*
X151407142Y-70176904D02*
X151740475Y-69462619D01*
X151740475Y-69462619D02*
X151740475Y-70462619D01*
X152645237Y-70462619D02*
X152645237Y-69938809D01*
X152645237Y-69938809D02*
X152597618Y-69843571D01*
X152597618Y-69843571D02*
X152502380Y-69795952D01*
X152502380Y-69795952D02*
X152311904Y-69795952D01*
X152311904Y-69795952D02*
X152216666Y-69843571D01*
X152645237Y-70415000D02*
X152549999Y-70462619D01*
X152549999Y-70462619D02*
X152311904Y-70462619D01*
X152311904Y-70462619D02*
X152216666Y-70415000D01*
X152216666Y-70415000D02*
X152169047Y-70319761D01*
X152169047Y-70319761D02*
X152169047Y-70224523D01*
X152169047Y-70224523D02*
X152216666Y-70129285D01*
X152216666Y-70129285D02*
X152311904Y-70081666D01*
X152311904Y-70081666D02*
X152549999Y-70081666D01*
X152549999Y-70081666D02*
X152645237Y-70034047D01*
X153026190Y-70462619D02*
X153549999Y-69795952D01*
X153026190Y-69795952D02*
X153549999Y-70462619D01*
X155169047Y-69462619D02*
X154692857Y-69462619D01*
X154692857Y-69462619D02*
X154645238Y-69938809D01*
X154645238Y-69938809D02*
X154692857Y-69891190D01*
X154692857Y-69891190D02*
X154788095Y-69843571D01*
X154788095Y-69843571D02*
X155026190Y-69843571D01*
X155026190Y-69843571D02*
X155121428Y-69891190D01*
X155121428Y-69891190D02*
X155169047Y-69938809D01*
X155169047Y-69938809D02*
X155216666Y-70034047D01*
X155216666Y-70034047D02*
X155216666Y-70272142D01*
X155216666Y-70272142D02*
X155169047Y-70367380D01*
X155169047Y-70367380D02*
X155121428Y-70415000D01*
X155121428Y-70415000D02*
X155026190Y-70462619D01*
X155026190Y-70462619D02*
X154788095Y-70462619D01*
X154788095Y-70462619D02*
X154692857Y-70415000D01*
X154692857Y-70415000D02*
X154645238Y-70367380D01*
X155502381Y-69462619D02*
X155835714Y-70462619D01*
X155835714Y-70462619D02*
X156169047Y-69462619D01*
X120898809Y-70465019D02*
X120898809Y-69465019D01*
X120898809Y-69465019D02*
X121232142Y-70179304D01*
X121232142Y-70179304D02*
X121565475Y-69465019D01*
X121565475Y-69465019D02*
X121565475Y-70465019D01*
X122470237Y-70465019D02*
X122470237Y-69941209D01*
X122470237Y-69941209D02*
X122422618Y-69845971D01*
X122422618Y-69845971D02*
X122327380Y-69798352D01*
X122327380Y-69798352D02*
X122136904Y-69798352D01*
X122136904Y-69798352D02*
X122041666Y-69845971D01*
X122470237Y-70417400D02*
X122374999Y-70465019D01*
X122374999Y-70465019D02*
X122136904Y-70465019D01*
X122136904Y-70465019D02*
X122041666Y-70417400D01*
X122041666Y-70417400D02*
X121994047Y-70322161D01*
X121994047Y-70322161D02*
X121994047Y-70226923D01*
X121994047Y-70226923D02*
X122041666Y-70131685D01*
X122041666Y-70131685D02*
X122136904Y-70084066D01*
X122136904Y-70084066D02*
X122374999Y-70084066D01*
X122374999Y-70084066D02*
X122470237Y-70036447D01*
X122851190Y-70465019D02*
X123374999Y-69798352D01*
X122851190Y-69798352D02*
X123374999Y-70465019D01*
X124946428Y-69465019D02*
X124755952Y-69465019D01*
X124755952Y-69465019D02*
X124660714Y-69512638D01*
X124660714Y-69512638D02*
X124613095Y-69560257D01*
X124613095Y-69560257D02*
X124517857Y-69703114D01*
X124517857Y-69703114D02*
X124470238Y-69893590D01*
X124470238Y-69893590D02*
X124470238Y-70274542D01*
X124470238Y-70274542D02*
X124517857Y-70369780D01*
X124517857Y-70369780D02*
X124565476Y-70417400D01*
X124565476Y-70417400D02*
X124660714Y-70465019D01*
X124660714Y-70465019D02*
X124851190Y-70465019D01*
X124851190Y-70465019D02*
X124946428Y-70417400D01*
X124946428Y-70417400D02*
X124994047Y-70369780D01*
X124994047Y-70369780D02*
X125041666Y-70274542D01*
X125041666Y-70274542D02*
X125041666Y-70036447D01*
X125041666Y-70036447D02*
X124994047Y-69941209D01*
X124994047Y-69941209D02*
X124946428Y-69893590D01*
X124946428Y-69893590D02*
X124851190Y-69845971D01*
X124851190Y-69845971D02*
X124660714Y-69845971D01*
X124660714Y-69845971D02*
X124565476Y-69893590D01*
X124565476Y-69893590D02*
X124517857Y-69941209D01*
X124517857Y-69941209D02*
X124470238Y-70036447D01*
X125327381Y-69465019D02*
X125660714Y-70465019D01*
X125660714Y-70465019D02*
X125994047Y-69465019D01*
X130136905Y-69560257D02*
X130184524Y-69512638D01*
X130184524Y-69512638D02*
X130279762Y-69465019D01*
X130279762Y-69465019D02*
X130517857Y-69465019D01*
X130517857Y-69465019D02*
X130613095Y-69512638D01*
X130613095Y-69512638D02*
X130660714Y-69560257D01*
X130660714Y-69560257D02*
X130708333Y-69655495D01*
X130708333Y-69655495D02*
X130708333Y-69750733D01*
X130708333Y-69750733D02*
X130660714Y-69893590D01*
X130660714Y-69893590D02*
X130089286Y-70465019D01*
X130089286Y-70465019D02*
X130708333Y-70465019D01*
X131136905Y-70369780D02*
X131184524Y-70417400D01*
X131184524Y-70417400D02*
X131136905Y-70465019D01*
X131136905Y-70465019D02*
X131089286Y-70417400D01*
X131089286Y-70417400D02*
X131136905Y-70369780D01*
X131136905Y-70369780D02*
X131136905Y-70465019D01*
X132041666Y-69798352D02*
X132041666Y-70465019D01*
X131803571Y-69417400D02*
X131565476Y-70131685D01*
X131565476Y-70131685D02*
X132184523Y-70131685D01*
X132565476Y-70084066D02*
X133327381Y-70084066D01*
X134232142Y-69798352D02*
X134232142Y-70465019D01*
X133994047Y-69417400D02*
X133755952Y-70131685D01*
X133755952Y-70131685D02*
X134374999Y-70131685D01*
X134755952Y-70369780D02*
X134803571Y-70417400D01*
X134803571Y-70417400D02*
X134755952Y-70465019D01*
X134755952Y-70465019D02*
X134708333Y-70417400D01*
X134708333Y-70417400D02*
X134755952Y-70369780D01*
X134755952Y-70369780D02*
X134755952Y-70465019D01*
X135184523Y-69560257D02*
X135232142Y-69512638D01*
X135232142Y-69512638D02*
X135327380Y-69465019D01*
X135327380Y-69465019D02*
X135565475Y-69465019D01*
X135565475Y-69465019D02*
X135660713Y-69512638D01*
X135660713Y-69512638D02*
X135708332Y-69560257D01*
X135708332Y-69560257D02*
X135755951Y-69655495D01*
X135755951Y-69655495D02*
X135755951Y-69750733D01*
X135755951Y-69750733D02*
X135708332Y-69893590D01*
X135708332Y-69893590D02*
X135136904Y-70465019D01*
X135136904Y-70465019D02*
X135755951Y-70465019D01*
X136041666Y-69465019D02*
X136374999Y-70465019D01*
X136374999Y-70465019D02*
X136708332Y-69465019D01*
X165894304Y-92841619D02*
X165322876Y-92841619D01*
X165608590Y-92841619D02*
X165608590Y-91841619D01*
X165608590Y-91841619D02*
X165513352Y-91984476D01*
X165513352Y-91984476D02*
X165418114Y-92079714D01*
X165418114Y-92079714D02*
X165322876Y-92127333D01*
X166751447Y-92174952D02*
X166751447Y-92841619D01*
X166322876Y-92174952D02*
X166322876Y-92698761D01*
X166322876Y-92698761D02*
X166370495Y-92794000D01*
X166370495Y-92794000D02*
X166465733Y-92841619D01*
X166465733Y-92841619D02*
X166608590Y-92841619D01*
X166608590Y-92841619D02*
X166703828Y-92794000D01*
X166703828Y-92794000D02*
X166751447Y-92746380D01*
X167084781Y-92174952D02*
X167465733Y-92174952D01*
X167227638Y-92841619D02*
X167227638Y-91984476D01*
X167227638Y-91984476D02*
X167275257Y-91889238D01*
X167275257Y-91889238D02*
X167370495Y-91841619D01*
X167370495Y-91841619D02*
X167465733Y-91841619D01*
X122857142Y-96212619D02*
X122523809Y-95736428D01*
X122285714Y-96212619D02*
X122285714Y-95212619D01*
X122285714Y-95212619D02*
X122666666Y-95212619D01*
X122666666Y-95212619D02*
X122761904Y-95260238D01*
X122761904Y-95260238D02*
X122809523Y-95307857D01*
X122809523Y-95307857D02*
X122857142Y-95403095D01*
X122857142Y-95403095D02*
X122857142Y-95545952D01*
X122857142Y-95545952D02*
X122809523Y-95641190D01*
X122809523Y-95641190D02*
X122761904Y-95688809D01*
X122761904Y-95688809D02*
X122666666Y-95736428D01*
X122666666Y-95736428D02*
X122285714Y-95736428D01*
X123285714Y-95688809D02*
X123619047Y-95688809D01*
X123761904Y-96212619D02*
X123285714Y-96212619D01*
X123285714Y-96212619D02*
X123285714Y-95212619D01*
X123285714Y-95212619D02*
X123761904Y-95212619D01*
X124047619Y-95212619D02*
X124380952Y-96212619D01*
X124380952Y-96212619D02*
X124714285Y-95212619D01*
X126333333Y-96212619D02*
X125761905Y-96212619D01*
X126047619Y-96212619D02*
X126047619Y-95212619D01*
X126047619Y-95212619D02*
X125952381Y-95355476D01*
X125952381Y-95355476D02*
X125857143Y-95450714D01*
X125857143Y-95450714D02*
X125761905Y-95498333D01*
X126761905Y-96117380D02*
X126809524Y-96165000D01*
X126809524Y-96165000D02*
X126761905Y-96212619D01*
X126761905Y-96212619D02*
X126714286Y-96165000D01*
X126714286Y-96165000D02*
X126761905Y-96117380D01*
X126761905Y-96117380D02*
X126761905Y-96212619D01*
X127428571Y-95212619D02*
X127523809Y-95212619D01*
X127523809Y-95212619D02*
X127619047Y-95260238D01*
X127619047Y-95260238D02*
X127666666Y-95307857D01*
X127666666Y-95307857D02*
X127714285Y-95403095D01*
X127714285Y-95403095D02*
X127761904Y-95593571D01*
X127761904Y-95593571D02*
X127761904Y-95831666D01*
X127761904Y-95831666D02*
X127714285Y-96022142D01*
X127714285Y-96022142D02*
X127666666Y-96117380D01*
X127666666Y-96117380D02*
X127619047Y-96165000D01*
X127619047Y-96165000D02*
X127523809Y-96212619D01*
X127523809Y-96212619D02*
X127428571Y-96212619D01*
X127428571Y-96212619D02*
X127333333Y-96165000D01*
X127333333Y-96165000D02*
X127285714Y-96117380D01*
X127285714Y-96117380D02*
X127238095Y-96022142D01*
X127238095Y-96022142D02*
X127190476Y-95831666D01*
X127190476Y-95831666D02*
X127190476Y-95593571D01*
X127190476Y-95593571D02*
X127238095Y-95403095D01*
X127238095Y-95403095D02*
X127285714Y-95307857D01*
X127285714Y-95307857D02*
X127333333Y-95260238D01*
X127333333Y-95260238D02*
X127428571Y-95212619D01*
D11*
X138153333Y-122688095D02*
X138153333Y-123450000D01*
X137772380Y-123069047D02*
X138534285Y-123069047D01*
D12*
X164250000Y-119839047D02*
X165011904Y-119553333D01*
X165011904Y-119553333D02*
X164250000Y-119267619D01*
D11*
X167961295Y-84485066D02*
X168723200Y-84485066D01*
D12*
X154698628Y-104433609D02*
X154841485Y-104481228D01*
X154841485Y-104481228D02*
X154889104Y-104528847D01*
X154889104Y-104528847D02*
X154936723Y-104624085D01*
X154936723Y-104624085D02*
X154936723Y-104766942D01*
X154936723Y-104766942D02*
X154889104Y-104862180D01*
X154889104Y-104862180D02*
X154841485Y-104909800D01*
X154841485Y-104909800D02*
X154746247Y-104957419D01*
X154746247Y-104957419D02*
X154365295Y-104957419D01*
X154365295Y-104957419D02*
X154365295Y-103957419D01*
X154365295Y-103957419D02*
X154698628Y-103957419D01*
X154698628Y-103957419D02*
X154793866Y-104005038D01*
X154793866Y-104005038D02*
X154841485Y-104052657D01*
X154841485Y-104052657D02*
X154889104Y-104147895D01*
X154889104Y-104147895D02*
X154889104Y-104243133D01*
X154889104Y-104243133D02*
X154841485Y-104338371D01*
X154841485Y-104338371D02*
X154793866Y-104385990D01*
X154793866Y-104385990D02*
X154698628Y-104433609D01*
X154698628Y-104433609D02*
X154365295Y-104433609D01*
X155317676Y-104671704D02*
X155793866Y-104671704D01*
X155222438Y-104957419D02*
X155555771Y-103957419D01*
X155555771Y-103957419D02*
X155889104Y-104957419D01*
X156079581Y-103957419D02*
X156651009Y-103957419D01*
X156365295Y-104957419D02*
X156365295Y-103957419D01*
X149612619Y-110335713D02*
X148612619Y-110335713D01*
X148612619Y-110335713D02*
X148612619Y-109954761D01*
X148612619Y-109954761D02*
X148660238Y-109859523D01*
X148660238Y-109859523D02*
X148707857Y-109811904D01*
X148707857Y-109811904D02*
X148803095Y-109764285D01*
X148803095Y-109764285D02*
X148945952Y-109764285D01*
X148945952Y-109764285D02*
X149041190Y-109811904D01*
X149041190Y-109811904D02*
X149088809Y-109859523D01*
X149088809Y-109859523D02*
X149136428Y-109954761D01*
X149136428Y-109954761D02*
X149136428Y-110335713D01*
X148612619Y-109335713D02*
X149422142Y-109335713D01*
X149422142Y-109335713D02*
X149517380Y-109288094D01*
X149517380Y-109288094D02*
X149565000Y-109240475D01*
X149565000Y-109240475D02*
X149612619Y-109145237D01*
X149612619Y-109145237D02*
X149612619Y-108954761D01*
X149612619Y-108954761D02*
X149565000Y-108859523D01*
X149565000Y-108859523D02*
X149517380Y-108811904D01*
X149517380Y-108811904D02*
X149422142Y-108764285D01*
X149422142Y-108764285D02*
X148612619Y-108764285D01*
X149612619Y-108288094D02*
X148612619Y-108288094D01*
X148612619Y-108288094D02*
X149326904Y-107954761D01*
X149326904Y-107954761D02*
X148612619Y-107621428D01*
X148612619Y-107621428D02*
X149612619Y-107621428D01*
X149612619Y-107145237D02*
X148612619Y-107145237D01*
X148612619Y-107145237D02*
X148612619Y-106764285D01*
X148612619Y-106764285D02*
X148660238Y-106669047D01*
X148660238Y-106669047D02*
X148707857Y-106621428D01*
X148707857Y-106621428D02*
X148803095Y-106573809D01*
X148803095Y-106573809D02*
X148945952Y-106573809D01*
X148945952Y-106573809D02*
X149041190Y-106621428D01*
X149041190Y-106621428D02*
X149088809Y-106669047D01*
X149088809Y-106669047D02*
X149136428Y-106764285D01*
X149136428Y-106764285D02*
X149136428Y-107145237D01*
X149565000Y-105430951D02*
X149612619Y-105288094D01*
X149612619Y-105288094D02*
X149612619Y-105049999D01*
X149612619Y-105049999D02*
X149565000Y-104954761D01*
X149565000Y-104954761D02*
X149517380Y-104907142D01*
X149517380Y-104907142D02*
X149422142Y-104859523D01*
X149422142Y-104859523D02*
X149326904Y-104859523D01*
X149326904Y-104859523D02*
X149231666Y-104907142D01*
X149231666Y-104907142D02*
X149184047Y-104954761D01*
X149184047Y-104954761D02*
X149136428Y-105049999D01*
X149136428Y-105049999D02*
X149088809Y-105240475D01*
X149088809Y-105240475D02*
X149041190Y-105335713D01*
X149041190Y-105335713D02*
X148993571Y-105383332D01*
X148993571Y-105383332D02*
X148898333Y-105430951D01*
X148898333Y-105430951D02*
X148803095Y-105430951D01*
X148803095Y-105430951D02*
X148707857Y-105383332D01*
X148707857Y-105383332D02*
X148660238Y-105335713D01*
X148660238Y-105335713D02*
X148612619Y-105240475D01*
X148612619Y-105240475D02*
X148612619Y-105002380D01*
X148612619Y-105002380D02*
X148660238Y-104859523D01*
X148612619Y-104526189D02*
X149612619Y-104288094D01*
X149612619Y-104288094D02*
X148898333Y-104097618D01*
X148898333Y-104097618D02*
X149612619Y-103907142D01*
X149612619Y-103907142D02*
X148612619Y-103669047D01*
X154371657Y-109088219D02*
X154990704Y-109088219D01*
X154990704Y-109088219D02*
X154657371Y-109469171D01*
X154657371Y-109469171D02*
X154800228Y-109469171D01*
X154800228Y-109469171D02*
X154895466Y-109516790D01*
X154895466Y-109516790D02*
X154943085Y-109564409D01*
X154943085Y-109564409D02*
X154990704Y-109659647D01*
X154990704Y-109659647D02*
X154990704Y-109897742D01*
X154990704Y-109897742D02*
X154943085Y-109992980D01*
X154943085Y-109992980D02*
X154895466Y-110040600D01*
X154895466Y-110040600D02*
X154800228Y-110088219D01*
X154800228Y-110088219D02*
X154514514Y-110088219D01*
X154514514Y-110088219D02*
X154419276Y-110040600D01*
X154419276Y-110040600D02*
X154371657Y-109992980D01*
X155419276Y-109992980D02*
X155466895Y-110040600D01*
X155466895Y-110040600D02*
X155419276Y-110088219D01*
X155419276Y-110088219D02*
X155371657Y-110040600D01*
X155371657Y-110040600D02*
X155419276Y-109992980D01*
X155419276Y-109992980D02*
X155419276Y-110088219D01*
X155800228Y-109088219D02*
X156419275Y-109088219D01*
X156419275Y-109088219D02*
X156085942Y-109469171D01*
X156085942Y-109469171D02*
X156228799Y-109469171D01*
X156228799Y-109469171D02*
X156324037Y-109516790D01*
X156324037Y-109516790D02*
X156371656Y-109564409D01*
X156371656Y-109564409D02*
X156419275Y-109659647D01*
X156419275Y-109659647D02*
X156419275Y-109897742D01*
X156419275Y-109897742D02*
X156371656Y-109992980D01*
X156371656Y-109992980D02*
X156324037Y-110040600D01*
X156324037Y-110040600D02*
X156228799Y-110088219D01*
X156228799Y-110088219D02*
X155943085Y-110088219D01*
X155943085Y-110088219D02*
X155847847Y-110040600D01*
X155847847Y-110040600D02*
X155800228Y-109992980D01*
D13*
X122128571Y-91755238D02*
X122795237Y-93755238D01*
X122795237Y-93755238D02*
X123461904Y-91755238D01*
X124985714Y-93755238D02*
X124985714Y-92707619D01*
X124985714Y-92707619D02*
X124890476Y-92517142D01*
X124890476Y-92517142D02*
X124700000Y-92421904D01*
X124700000Y-92421904D02*
X124319047Y-92421904D01*
X124319047Y-92421904D02*
X124128571Y-92517142D01*
X124985714Y-93660000D02*
X124795238Y-93755238D01*
X124795238Y-93755238D02*
X124319047Y-93755238D01*
X124319047Y-93755238D02*
X124128571Y-93660000D01*
X124128571Y-93660000D02*
X124033333Y-93469523D01*
X124033333Y-93469523D02*
X124033333Y-93279047D01*
X124033333Y-93279047D02*
X124128571Y-93088571D01*
X124128571Y-93088571D02*
X124319047Y-92993333D01*
X124319047Y-92993333D02*
X124795238Y-92993333D01*
X124795238Y-92993333D02*
X124985714Y-92898095D01*
X125652381Y-92421904D02*
X126414285Y-92421904D01*
X125938095Y-91755238D02*
X125938095Y-93469523D01*
X125938095Y-93469523D02*
X126033333Y-93660000D01*
X126033333Y-93660000D02*
X126223809Y-93755238D01*
X126223809Y-93755238D02*
X126414285Y-93755238D01*
X126795238Y-92421904D02*
X127557142Y-92421904D01*
X127080952Y-91755238D02*
X127080952Y-93469523D01*
X127080952Y-93469523D02*
X127176190Y-93660000D01*
X127176190Y-93660000D02*
X127366666Y-93755238D01*
X127366666Y-93755238D02*
X127557142Y-93755238D01*
X128223809Y-92421904D02*
X128223809Y-93755238D01*
X128223809Y-92612380D02*
X128319047Y-92517142D01*
X128319047Y-92517142D02*
X128509523Y-92421904D01*
X128509523Y-92421904D02*
X128795238Y-92421904D01*
X128795238Y-92421904D02*
X128985714Y-92517142D01*
X128985714Y-92517142D02*
X129080952Y-92707619D01*
X129080952Y-92707619D02*
X129080952Y-93755238D01*
X130890476Y-93755238D02*
X130890476Y-92707619D01*
X130890476Y-92707619D02*
X130795238Y-92517142D01*
X130795238Y-92517142D02*
X130604762Y-92421904D01*
X130604762Y-92421904D02*
X130223809Y-92421904D01*
X130223809Y-92421904D02*
X130033333Y-92517142D01*
X130890476Y-93660000D02*
X130700000Y-93755238D01*
X130700000Y-93755238D02*
X130223809Y-93755238D01*
X130223809Y-93755238D02*
X130033333Y-93660000D01*
X130033333Y-93660000D02*
X129938095Y-93469523D01*
X129938095Y-93469523D02*
X129938095Y-93279047D01*
X129938095Y-93279047D02*
X130033333Y-93088571D01*
X130033333Y-93088571D02*
X130223809Y-92993333D01*
X130223809Y-92993333D02*
X130700000Y-92993333D01*
X130700000Y-92993333D02*
X130890476Y-92898095D01*
X134033334Y-92707619D02*
X134319048Y-92802857D01*
X134319048Y-92802857D02*
X134414286Y-92898095D01*
X134414286Y-92898095D02*
X134509524Y-93088571D01*
X134509524Y-93088571D02*
X134509524Y-93374285D01*
X134509524Y-93374285D02*
X134414286Y-93564761D01*
X134414286Y-93564761D02*
X134319048Y-93660000D01*
X134319048Y-93660000D02*
X134128572Y-93755238D01*
X134128572Y-93755238D02*
X133366667Y-93755238D01*
X133366667Y-93755238D02*
X133366667Y-91755238D01*
X133366667Y-91755238D02*
X134033334Y-91755238D01*
X134033334Y-91755238D02*
X134223810Y-91850476D01*
X134223810Y-91850476D02*
X134319048Y-91945714D01*
X134319048Y-91945714D02*
X134414286Y-92136190D01*
X134414286Y-92136190D02*
X134414286Y-92326666D01*
X134414286Y-92326666D02*
X134319048Y-92517142D01*
X134319048Y-92517142D02*
X134223810Y-92612380D01*
X134223810Y-92612380D02*
X134033334Y-92707619D01*
X134033334Y-92707619D02*
X133366667Y-92707619D01*
X136223810Y-93755238D02*
X136223810Y-92707619D01*
X136223810Y-92707619D02*
X136128572Y-92517142D01*
X136128572Y-92517142D02*
X135938096Y-92421904D01*
X135938096Y-92421904D02*
X135557143Y-92421904D01*
X135557143Y-92421904D02*
X135366667Y-92517142D01*
X136223810Y-93660000D02*
X136033334Y-93755238D01*
X136033334Y-93755238D02*
X135557143Y-93755238D01*
X135557143Y-93755238D02*
X135366667Y-93660000D01*
X135366667Y-93660000D02*
X135271429Y-93469523D01*
X135271429Y-93469523D02*
X135271429Y-93279047D01*
X135271429Y-93279047D02*
X135366667Y-93088571D01*
X135366667Y-93088571D02*
X135557143Y-92993333D01*
X135557143Y-92993333D02*
X136033334Y-92993333D01*
X136033334Y-92993333D02*
X136223810Y-92898095D01*
X137176191Y-93755238D02*
X137176191Y-92421904D01*
X137176191Y-92802857D02*
X137271429Y-92612380D01*
X137271429Y-92612380D02*
X137366667Y-92517142D01*
X137366667Y-92517142D02*
X137557143Y-92421904D01*
X137557143Y-92421904D02*
X137747620Y-92421904D01*
X139271429Y-93755238D02*
X139271429Y-92707619D01*
X139271429Y-92707619D02*
X139176191Y-92517142D01*
X139176191Y-92517142D02*
X138985715Y-92421904D01*
X138985715Y-92421904D02*
X138604762Y-92421904D01*
X138604762Y-92421904D02*
X138414286Y-92517142D01*
X139271429Y-93660000D02*
X139080953Y-93755238D01*
X139080953Y-93755238D02*
X138604762Y-93755238D01*
X138604762Y-93755238D02*
X138414286Y-93660000D01*
X138414286Y-93660000D02*
X138319048Y-93469523D01*
X138319048Y-93469523D02*
X138319048Y-93279047D01*
X138319048Y-93279047D02*
X138414286Y-93088571D01*
X138414286Y-93088571D02*
X138604762Y-92993333D01*
X138604762Y-92993333D02*
X139080953Y-92993333D01*
X139080953Y-92993333D02*
X139271429Y-92898095D01*
X140509524Y-93564761D02*
X140604762Y-93660000D01*
X140604762Y-93660000D02*
X140509524Y-93755238D01*
X140509524Y-93755238D02*
X140414286Y-93660000D01*
X140414286Y-93660000D02*
X140509524Y-93564761D01*
X140509524Y-93564761D02*
X140509524Y-93755238D01*
X140128572Y-91850476D02*
X140319048Y-91755238D01*
X140319048Y-91755238D02*
X140795239Y-91755238D01*
X140795239Y-91755238D02*
X140985715Y-91850476D01*
X140985715Y-91850476D02*
X141080953Y-92040952D01*
X141080953Y-92040952D02*
X141080953Y-92231428D01*
X141080953Y-92231428D02*
X140985715Y-92421904D01*
X140985715Y-92421904D02*
X140890477Y-92517142D01*
X140890477Y-92517142D02*
X140700000Y-92612380D01*
X140700000Y-92612380D02*
X140604762Y-92707619D01*
X140604762Y-92707619D02*
X140509524Y-92898095D01*
X140509524Y-92898095D02*
X140509524Y-92993333D01*
D11*
X167961295Y-100182266D02*
X168723200Y-100182266D01*
X168342247Y-100563219D02*
X168342247Y-99801314D01*
D12*
X143089333Y-123404980D02*
X143041714Y-123452600D01*
X143041714Y-123452600D02*
X142898857Y-123500219D01*
X142898857Y-123500219D02*
X142803619Y-123500219D01*
X142803619Y-123500219D02*
X142660762Y-123452600D01*
X142660762Y-123452600D02*
X142565524Y-123357361D01*
X142565524Y-123357361D02*
X142517905Y-123262123D01*
X142517905Y-123262123D02*
X142470286Y-123071647D01*
X142470286Y-123071647D02*
X142470286Y-122928790D01*
X142470286Y-122928790D02*
X142517905Y-122738314D01*
X142517905Y-122738314D02*
X142565524Y-122643076D01*
X142565524Y-122643076D02*
X142660762Y-122547838D01*
X142660762Y-122547838D02*
X142803619Y-122500219D01*
X142803619Y-122500219D02*
X142898857Y-122500219D01*
X142898857Y-122500219D02*
X143041714Y-122547838D01*
X143041714Y-122547838D02*
X143089333Y-122595457D01*
X143422667Y-122500219D02*
X144041714Y-122500219D01*
X144041714Y-122500219D02*
X143708381Y-122881171D01*
X143708381Y-122881171D02*
X143851238Y-122881171D01*
X143851238Y-122881171D02*
X143946476Y-122928790D01*
X143946476Y-122928790D02*
X143994095Y-122976409D01*
X143994095Y-122976409D02*
X144041714Y-123071647D01*
X144041714Y-123071647D02*
X144041714Y-123309742D01*
X144041714Y-123309742D02*
X143994095Y-123404980D01*
X143994095Y-123404980D02*
X143946476Y-123452600D01*
X143946476Y-123452600D02*
X143851238Y-123500219D01*
X143851238Y-123500219D02*
X143565524Y-123500219D01*
X143565524Y-123500219D02*
X143470286Y-123452600D01*
X143470286Y-123452600D02*
X143422667Y-123404980D01*
D11*
X168046666Y-123436904D02*
X168046666Y-122675000D01*
X168427619Y-123055952D02*
X167665714Y-123055952D01*
D12*
%TO.C,22uf*%
X163400000Y-76357857D02*
X163447619Y-76310238D01*
X163447619Y-76310238D02*
X163542857Y-76262619D01*
X163542857Y-76262619D02*
X163780952Y-76262619D01*
X163780952Y-76262619D02*
X163876190Y-76310238D01*
X163876190Y-76310238D02*
X163923809Y-76357857D01*
X163923809Y-76357857D02*
X163971428Y-76453095D01*
X163971428Y-76453095D02*
X163971428Y-76548333D01*
X163971428Y-76548333D02*
X163923809Y-76691190D01*
X163923809Y-76691190D02*
X163352381Y-77262619D01*
X163352381Y-77262619D02*
X163971428Y-77262619D01*
X164352381Y-76357857D02*
X164400000Y-76310238D01*
X164400000Y-76310238D02*
X164495238Y-76262619D01*
X164495238Y-76262619D02*
X164733333Y-76262619D01*
X164733333Y-76262619D02*
X164828571Y-76310238D01*
X164828571Y-76310238D02*
X164876190Y-76357857D01*
X164876190Y-76357857D02*
X164923809Y-76453095D01*
X164923809Y-76453095D02*
X164923809Y-76548333D01*
X164923809Y-76548333D02*
X164876190Y-76691190D01*
X164876190Y-76691190D02*
X164304762Y-77262619D01*
X164304762Y-77262619D02*
X164923809Y-77262619D01*
X165780952Y-76595952D02*
X165780952Y-77262619D01*
X165352381Y-76595952D02*
X165352381Y-77119761D01*
X165352381Y-77119761D02*
X165400000Y-77215000D01*
X165400000Y-77215000D02*
X165495238Y-77262619D01*
X165495238Y-77262619D02*
X165638095Y-77262619D01*
X165638095Y-77262619D02*
X165733333Y-77215000D01*
X165733333Y-77215000D02*
X165780952Y-77167380D01*
X166114286Y-76595952D02*
X166495238Y-76595952D01*
X166257143Y-77262619D02*
X166257143Y-76405476D01*
X166257143Y-76405476D02*
X166304762Y-76310238D01*
X166304762Y-76310238D02*
X166400000Y-76262619D01*
X166400000Y-76262619D02*
X166495238Y-76262619D01*
%TO.C,+*%
X150899048Y-81657019D02*
X151137143Y-82657019D01*
X151137143Y-82657019D02*
X151327619Y-81942733D01*
X151327619Y-81942733D02*
X151518095Y-82657019D01*
X151518095Y-82657019D02*
X151756191Y-81657019D01*
X152899048Y-82657019D02*
X152899048Y-81657019D01*
X152899048Y-81657019D02*
X153280000Y-81657019D01*
X153280000Y-81657019D02*
X153375238Y-81704638D01*
X153375238Y-81704638D02*
X153422857Y-81752257D01*
X153422857Y-81752257D02*
X153470476Y-81847495D01*
X153470476Y-81847495D02*
X153470476Y-81990352D01*
X153470476Y-81990352D02*
X153422857Y-82085590D01*
X153422857Y-82085590D02*
X153375238Y-82133209D01*
X153375238Y-82133209D02*
X153280000Y-82180828D01*
X153280000Y-82180828D02*
X152899048Y-82180828D01*
X154327619Y-81990352D02*
X154327619Y-82657019D01*
X153899048Y-81990352D02*
X153899048Y-82514161D01*
X153899048Y-82514161D02*
X153946667Y-82609400D01*
X153946667Y-82609400D02*
X154041905Y-82657019D01*
X154041905Y-82657019D02*
X154184762Y-82657019D01*
X154184762Y-82657019D02*
X154280000Y-82609400D01*
X154280000Y-82609400D02*
X154327619Y-82561780D01*
X154803810Y-82657019D02*
X154803810Y-81990352D01*
X154803810Y-82085590D02*
X154851429Y-82037971D01*
X154851429Y-82037971D02*
X154946667Y-81990352D01*
X154946667Y-81990352D02*
X155089524Y-81990352D01*
X155089524Y-81990352D02*
X155184762Y-82037971D01*
X155184762Y-82037971D02*
X155232381Y-82133209D01*
X155232381Y-82133209D02*
X155232381Y-82657019D01*
X155232381Y-82133209D02*
X155280000Y-82037971D01*
X155280000Y-82037971D02*
X155375238Y-81990352D01*
X155375238Y-81990352D02*
X155518095Y-81990352D01*
X155518095Y-81990352D02*
X155613334Y-82037971D01*
X155613334Y-82037971D02*
X155660953Y-82133209D01*
X155660953Y-82133209D02*
X155660953Y-82657019D01*
X156137143Y-81990352D02*
X156137143Y-82990352D01*
X156137143Y-82037971D02*
X156232381Y-81990352D01*
X156232381Y-81990352D02*
X156422857Y-81990352D01*
X156422857Y-81990352D02*
X156518095Y-82037971D01*
X156518095Y-82037971D02*
X156565714Y-82085590D01*
X156565714Y-82085590D02*
X156613333Y-82180828D01*
X156613333Y-82180828D02*
X156613333Y-82466542D01*
X156613333Y-82466542D02*
X156565714Y-82561780D01*
X156565714Y-82561780D02*
X156518095Y-82609400D01*
X156518095Y-82609400D02*
X156422857Y-82657019D01*
X156422857Y-82657019D02*
X156232381Y-82657019D01*
X156232381Y-82657019D02*
X156137143Y-82609400D01*
X141565714Y-82609400D02*
X141708571Y-82657019D01*
X141708571Y-82657019D02*
X141946666Y-82657019D01*
X141946666Y-82657019D02*
X142041904Y-82609400D01*
X142041904Y-82609400D02*
X142089523Y-82561780D01*
X142089523Y-82561780D02*
X142137142Y-82466542D01*
X142137142Y-82466542D02*
X142137142Y-82371304D01*
X142137142Y-82371304D02*
X142089523Y-82276066D01*
X142089523Y-82276066D02*
X142041904Y-82228447D01*
X142041904Y-82228447D02*
X141946666Y-82180828D01*
X141946666Y-82180828D02*
X141756190Y-82133209D01*
X141756190Y-82133209D02*
X141660952Y-82085590D01*
X141660952Y-82085590D02*
X141613333Y-82037971D01*
X141613333Y-82037971D02*
X141565714Y-81942733D01*
X141565714Y-81942733D02*
X141565714Y-81847495D01*
X141565714Y-81847495D02*
X141613333Y-81752257D01*
X141613333Y-81752257D02*
X141660952Y-81704638D01*
X141660952Y-81704638D02*
X141756190Y-81657019D01*
X141756190Y-81657019D02*
X141994285Y-81657019D01*
X141994285Y-81657019D02*
X142137142Y-81704638D01*
X142470476Y-81990352D02*
X142660952Y-82657019D01*
X142660952Y-82657019D02*
X142851428Y-82180828D01*
X142851428Y-82180828D02*
X143041904Y-82657019D01*
X143041904Y-82657019D02*
X143232380Y-81990352D01*
X143613333Y-82657019D02*
X143613333Y-81990352D01*
X143613333Y-81657019D02*
X143565714Y-81704638D01*
X143565714Y-81704638D02*
X143613333Y-81752257D01*
X143613333Y-81752257D02*
X143660952Y-81704638D01*
X143660952Y-81704638D02*
X143613333Y-81657019D01*
X143613333Y-81657019D02*
X143613333Y-81752257D01*
X143946666Y-81990352D02*
X144327618Y-81990352D01*
X144089523Y-81657019D02*
X144089523Y-82514161D01*
X144089523Y-82514161D02*
X144137142Y-82609400D01*
X144137142Y-82609400D02*
X144232380Y-82657019D01*
X144232380Y-82657019D02*
X144327618Y-82657019D01*
X145089523Y-82609400D02*
X144994285Y-82657019D01*
X144994285Y-82657019D02*
X144803809Y-82657019D01*
X144803809Y-82657019D02*
X144708571Y-82609400D01*
X144708571Y-82609400D02*
X144660952Y-82561780D01*
X144660952Y-82561780D02*
X144613333Y-82466542D01*
X144613333Y-82466542D02*
X144613333Y-82180828D01*
X144613333Y-82180828D02*
X144660952Y-82085590D01*
X144660952Y-82085590D02*
X144708571Y-82037971D01*
X144708571Y-82037971D02*
X144803809Y-81990352D01*
X144803809Y-81990352D02*
X144994285Y-81990352D01*
X144994285Y-81990352D02*
X145089523Y-82037971D01*
X145518095Y-82657019D02*
X145518095Y-81657019D01*
X145946666Y-82657019D02*
X145946666Y-82133209D01*
X145946666Y-82133209D02*
X145899047Y-82037971D01*
X145899047Y-82037971D02*
X145803809Y-81990352D01*
X145803809Y-81990352D02*
X145660952Y-81990352D01*
X145660952Y-81990352D02*
X145565714Y-82037971D01*
X145565714Y-82037971D02*
X145518095Y-82085590D01*
X131403570Y-82133209D02*
X131546427Y-82180828D01*
X131546427Y-82180828D02*
X131594046Y-82228447D01*
X131594046Y-82228447D02*
X131641665Y-82323685D01*
X131641665Y-82323685D02*
X131641665Y-82466542D01*
X131641665Y-82466542D02*
X131594046Y-82561780D01*
X131594046Y-82561780D02*
X131546427Y-82609400D01*
X131546427Y-82609400D02*
X131451189Y-82657019D01*
X131451189Y-82657019D02*
X131070237Y-82657019D01*
X131070237Y-82657019D02*
X131070237Y-81657019D01*
X131070237Y-81657019D02*
X131403570Y-81657019D01*
X131403570Y-81657019D02*
X131498808Y-81704638D01*
X131498808Y-81704638D02*
X131546427Y-81752257D01*
X131546427Y-81752257D02*
X131594046Y-81847495D01*
X131594046Y-81847495D02*
X131594046Y-81942733D01*
X131594046Y-81942733D02*
X131546427Y-82037971D01*
X131546427Y-82037971D02*
X131498808Y-82085590D01*
X131498808Y-82085590D02*
X131403570Y-82133209D01*
X131403570Y-82133209D02*
X131070237Y-82133209D01*
X132498808Y-82657019D02*
X132498808Y-82133209D01*
X132498808Y-82133209D02*
X132451189Y-82037971D01*
X132451189Y-82037971D02*
X132355951Y-81990352D01*
X132355951Y-81990352D02*
X132165475Y-81990352D01*
X132165475Y-81990352D02*
X132070237Y-82037971D01*
X132498808Y-82609400D02*
X132403570Y-82657019D01*
X132403570Y-82657019D02*
X132165475Y-82657019D01*
X132165475Y-82657019D02*
X132070237Y-82609400D01*
X132070237Y-82609400D02*
X132022618Y-82514161D01*
X132022618Y-82514161D02*
X132022618Y-82418923D01*
X132022618Y-82418923D02*
X132070237Y-82323685D01*
X132070237Y-82323685D02*
X132165475Y-82276066D01*
X132165475Y-82276066D02*
X132403570Y-82276066D01*
X132403570Y-82276066D02*
X132498808Y-82228447D01*
X132832142Y-81990352D02*
X133213094Y-81990352D01*
X132974999Y-81657019D02*
X132974999Y-82514161D01*
X132974999Y-82514161D02*
X133022618Y-82609400D01*
X133022618Y-82609400D02*
X133117856Y-82657019D01*
X133117856Y-82657019D02*
X133213094Y-82657019D01*
X133403571Y-81990352D02*
X133784523Y-81990352D01*
X133546428Y-81657019D02*
X133546428Y-82514161D01*
X133546428Y-82514161D02*
X133594047Y-82609400D01*
X133594047Y-82609400D02*
X133689285Y-82657019D01*
X133689285Y-82657019D02*
X133784523Y-82657019D01*
X134498809Y-82609400D02*
X134403571Y-82657019D01*
X134403571Y-82657019D02*
X134213095Y-82657019D01*
X134213095Y-82657019D02*
X134117857Y-82609400D01*
X134117857Y-82609400D02*
X134070238Y-82514161D01*
X134070238Y-82514161D02*
X134070238Y-82133209D01*
X134070238Y-82133209D02*
X134117857Y-82037971D01*
X134117857Y-82037971D02*
X134213095Y-81990352D01*
X134213095Y-81990352D02*
X134403571Y-81990352D01*
X134403571Y-81990352D02*
X134498809Y-82037971D01*
X134498809Y-82037971D02*
X134546428Y-82133209D01*
X134546428Y-82133209D02*
X134546428Y-82228447D01*
X134546428Y-82228447D02*
X134070238Y-82323685D01*
X134975000Y-82657019D02*
X134975000Y-81990352D01*
X134975000Y-82180828D02*
X135022619Y-82085590D01*
X135022619Y-82085590D02*
X135070238Y-82037971D01*
X135070238Y-82037971D02*
X135165476Y-81990352D01*
X135165476Y-81990352D02*
X135260714Y-81990352D01*
X135498810Y-81990352D02*
X135736905Y-82657019D01*
X135975000Y-81990352D02*
X135736905Y-82657019D01*
X135736905Y-82657019D02*
X135641667Y-82895114D01*
X135641667Y-82895114D02*
X135594048Y-82942733D01*
X135594048Y-82942733D02*
X135498810Y-82990352D01*
%TO.C,-*%
X119261904Y-82609400D02*
X119404761Y-82657019D01*
X119404761Y-82657019D02*
X119642856Y-82657019D01*
X119642856Y-82657019D02*
X119738094Y-82609400D01*
X119738094Y-82609400D02*
X119785713Y-82561780D01*
X119785713Y-82561780D02*
X119833332Y-82466542D01*
X119833332Y-82466542D02*
X119833332Y-82371304D01*
X119833332Y-82371304D02*
X119785713Y-82276066D01*
X119785713Y-82276066D02*
X119738094Y-82228447D01*
X119738094Y-82228447D02*
X119642856Y-82180828D01*
X119642856Y-82180828D02*
X119452380Y-82133209D01*
X119452380Y-82133209D02*
X119357142Y-82085590D01*
X119357142Y-82085590D02*
X119309523Y-82037971D01*
X119309523Y-82037971D02*
X119261904Y-81942733D01*
X119261904Y-81942733D02*
X119261904Y-81847495D01*
X119261904Y-81847495D02*
X119309523Y-81752257D01*
X119309523Y-81752257D02*
X119357142Y-81704638D01*
X119357142Y-81704638D02*
X119452380Y-81657019D01*
X119452380Y-81657019D02*
X119690475Y-81657019D01*
X119690475Y-81657019D02*
X119833332Y-81704638D01*
X120404761Y-82657019D02*
X120309523Y-82609400D01*
X120309523Y-82609400D02*
X120261904Y-82561780D01*
X120261904Y-82561780D02*
X120214285Y-82466542D01*
X120214285Y-82466542D02*
X120214285Y-82180828D01*
X120214285Y-82180828D02*
X120261904Y-82085590D01*
X120261904Y-82085590D02*
X120309523Y-82037971D01*
X120309523Y-82037971D02*
X120404761Y-81990352D01*
X120404761Y-81990352D02*
X120547618Y-81990352D01*
X120547618Y-81990352D02*
X120642856Y-82037971D01*
X120642856Y-82037971D02*
X120690475Y-82085590D01*
X120690475Y-82085590D02*
X120738094Y-82180828D01*
X120738094Y-82180828D02*
X120738094Y-82466542D01*
X120738094Y-82466542D02*
X120690475Y-82561780D01*
X120690475Y-82561780D02*
X120642856Y-82609400D01*
X120642856Y-82609400D02*
X120547618Y-82657019D01*
X120547618Y-82657019D02*
X120404761Y-82657019D01*
X121309523Y-82657019D02*
X121214285Y-82609400D01*
X121214285Y-82609400D02*
X121166666Y-82514161D01*
X121166666Y-82514161D02*
X121166666Y-81657019D01*
X122119047Y-82657019D02*
X122119047Y-82133209D01*
X122119047Y-82133209D02*
X122071428Y-82037971D01*
X122071428Y-82037971D02*
X121976190Y-81990352D01*
X121976190Y-81990352D02*
X121785714Y-81990352D01*
X121785714Y-81990352D02*
X121690476Y-82037971D01*
X122119047Y-82609400D02*
X122023809Y-82657019D01*
X122023809Y-82657019D02*
X121785714Y-82657019D01*
X121785714Y-82657019D02*
X121690476Y-82609400D01*
X121690476Y-82609400D02*
X121642857Y-82514161D01*
X121642857Y-82514161D02*
X121642857Y-82418923D01*
X121642857Y-82418923D02*
X121690476Y-82323685D01*
X121690476Y-82323685D02*
X121785714Y-82276066D01*
X121785714Y-82276066D02*
X122023809Y-82276066D01*
X122023809Y-82276066D02*
X122119047Y-82228447D01*
X122595238Y-82657019D02*
X122595238Y-81990352D01*
X122595238Y-82180828D02*
X122642857Y-82085590D01*
X122642857Y-82085590D02*
X122690476Y-82037971D01*
X122690476Y-82037971D02*
X122785714Y-81990352D01*
X122785714Y-81990352D02*
X122880952Y-81990352D01*
X123976191Y-82657019D02*
X123976191Y-81657019D01*
X123976191Y-81657019D02*
X124357143Y-81657019D01*
X124357143Y-81657019D02*
X124452381Y-81704638D01*
X124452381Y-81704638D02*
X124500000Y-81752257D01*
X124500000Y-81752257D02*
X124547619Y-81847495D01*
X124547619Y-81847495D02*
X124547619Y-81990352D01*
X124547619Y-81990352D02*
X124500000Y-82085590D01*
X124500000Y-82085590D02*
X124452381Y-82133209D01*
X124452381Y-82133209D02*
X124357143Y-82180828D01*
X124357143Y-82180828D02*
X123976191Y-82180828D01*
X125404762Y-82657019D02*
X125404762Y-82133209D01*
X125404762Y-82133209D02*
X125357143Y-82037971D01*
X125357143Y-82037971D02*
X125261905Y-81990352D01*
X125261905Y-81990352D02*
X125071429Y-81990352D01*
X125071429Y-81990352D02*
X124976191Y-82037971D01*
X125404762Y-82609400D02*
X125309524Y-82657019D01*
X125309524Y-82657019D02*
X125071429Y-82657019D01*
X125071429Y-82657019D02*
X124976191Y-82609400D01*
X124976191Y-82609400D02*
X124928572Y-82514161D01*
X124928572Y-82514161D02*
X124928572Y-82418923D01*
X124928572Y-82418923D02*
X124976191Y-82323685D01*
X124976191Y-82323685D02*
X125071429Y-82276066D01*
X125071429Y-82276066D02*
X125309524Y-82276066D01*
X125309524Y-82276066D02*
X125404762Y-82228447D01*
X125880953Y-81990352D02*
X125880953Y-82657019D01*
X125880953Y-82085590D02*
X125928572Y-82037971D01*
X125928572Y-82037971D02*
X126023810Y-81990352D01*
X126023810Y-81990352D02*
X126166667Y-81990352D01*
X126166667Y-81990352D02*
X126261905Y-82037971D01*
X126261905Y-82037971D02*
X126309524Y-82133209D01*
X126309524Y-82133209D02*
X126309524Y-82657019D01*
X127166667Y-82609400D02*
X127071429Y-82657019D01*
X127071429Y-82657019D02*
X126880953Y-82657019D01*
X126880953Y-82657019D02*
X126785715Y-82609400D01*
X126785715Y-82609400D02*
X126738096Y-82514161D01*
X126738096Y-82514161D02*
X126738096Y-82133209D01*
X126738096Y-82133209D02*
X126785715Y-82037971D01*
X126785715Y-82037971D02*
X126880953Y-81990352D01*
X126880953Y-81990352D02*
X127071429Y-81990352D01*
X127071429Y-81990352D02*
X127166667Y-82037971D01*
X127166667Y-82037971D02*
X127214286Y-82133209D01*
X127214286Y-82133209D02*
X127214286Y-82228447D01*
X127214286Y-82228447D02*
X126738096Y-82323685D01*
X127785715Y-82657019D02*
X127690477Y-82609400D01*
X127690477Y-82609400D02*
X127642858Y-82514161D01*
X127642858Y-82514161D02*
X127642858Y-81657019D01*
%TO.C,2.7*%
X148225000Y-88813457D02*
X148272619Y-88765838D01*
X148272619Y-88765838D02*
X148367857Y-88718219D01*
X148367857Y-88718219D02*
X148605952Y-88718219D01*
X148605952Y-88718219D02*
X148701190Y-88765838D01*
X148701190Y-88765838D02*
X148748809Y-88813457D01*
X148748809Y-88813457D02*
X148796428Y-88908695D01*
X148796428Y-88908695D02*
X148796428Y-89003933D01*
X148796428Y-89003933D02*
X148748809Y-89146790D01*
X148748809Y-89146790D02*
X148177381Y-89718219D01*
X148177381Y-89718219D02*
X148796428Y-89718219D01*
X149225000Y-89622980D02*
X149272619Y-89670600D01*
X149272619Y-89670600D02*
X149225000Y-89718219D01*
X149225000Y-89718219D02*
X149177381Y-89670600D01*
X149177381Y-89670600D02*
X149225000Y-89622980D01*
X149225000Y-89622980D02*
X149225000Y-89718219D01*
X149605952Y-88718219D02*
X150272618Y-88718219D01*
X150272618Y-88718219D02*
X149844047Y-89718219D01*
%TO.C,C4*%
X162850533Y-123404980D02*
X162802914Y-123452600D01*
X162802914Y-123452600D02*
X162660057Y-123500219D01*
X162660057Y-123500219D02*
X162564819Y-123500219D01*
X162564819Y-123500219D02*
X162421962Y-123452600D01*
X162421962Y-123452600D02*
X162326724Y-123357361D01*
X162326724Y-123357361D02*
X162279105Y-123262123D01*
X162279105Y-123262123D02*
X162231486Y-123071647D01*
X162231486Y-123071647D02*
X162231486Y-122928790D01*
X162231486Y-122928790D02*
X162279105Y-122738314D01*
X162279105Y-122738314D02*
X162326724Y-122643076D01*
X162326724Y-122643076D02*
X162421962Y-122547838D01*
X162421962Y-122547838D02*
X162564819Y-122500219D01*
X162564819Y-122500219D02*
X162660057Y-122500219D01*
X162660057Y-122500219D02*
X162802914Y-122547838D01*
X162802914Y-122547838D02*
X162850533Y-122595457D01*
X163707676Y-122833552D02*
X163707676Y-123500219D01*
X163469581Y-122452600D02*
X163231486Y-123166885D01*
X163231486Y-123166885D02*
X163850533Y-123166885D01*
%TO.C,NRF24L01*%
X138462190Y-107142619D02*
X138462190Y-106142619D01*
X138462190Y-106142619D02*
X139033618Y-107142619D01*
X139033618Y-107142619D02*
X139033618Y-106142619D01*
X140081237Y-107142619D02*
X139747904Y-106666428D01*
X139509809Y-107142619D02*
X139509809Y-106142619D01*
X139509809Y-106142619D02*
X139890761Y-106142619D01*
X139890761Y-106142619D02*
X139985999Y-106190238D01*
X139985999Y-106190238D02*
X140033618Y-106237857D01*
X140033618Y-106237857D02*
X140081237Y-106333095D01*
X140081237Y-106333095D02*
X140081237Y-106475952D01*
X140081237Y-106475952D02*
X140033618Y-106571190D01*
X140033618Y-106571190D02*
X139985999Y-106618809D01*
X139985999Y-106618809D02*
X139890761Y-106666428D01*
X139890761Y-106666428D02*
X139509809Y-106666428D01*
X140843142Y-106618809D02*
X140509809Y-106618809D01*
X140509809Y-107142619D02*
X140509809Y-106142619D01*
X140509809Y-106142619D02*
X140985999Y-106142619D01*
X141319333Y-106237857D02*
X141366952Y-106190238D01*
X141366952Y-106190238D02*
X141462190Y-106142619D01*
X141462190Y-106142619D02*
X141700285Y-106142619D01*
X141700285Y-106142619D02*
X141795523Y-106190238D01*
X141795523Y-106190238D02*
X141843142Y-106237857D01*
X141843142Y-106237857D02*
X141890761Y-106333095D01*
X141890761Y-106333095D02*
X141890761Y-106428333D01*
X141890761Y-106428333D02*
X141843142Y-106571190D01*
X141843142Y-106571190D02*
X141271714Y-107142619D01*
X141271714Y-107142619D02*
X141890761Y-107142619D01*
X142747904Y-106475952D02*
X142747904Y-107142619D01*
X142509809Y-106095000D02*
X142271714Y-106809285D01*
X142271714Y-106809285D02*
X142890761Y-106809285D01*
X143747904Y-107142619D02*
X143271714Y-107142619D01*
X143271714Y-107142619D02*
X143271714Y-106142619D01*
X144271714Y-106142619D02*
X144366952Y-106142619D01*
X144366952Y-106142619D02*
X144462190Y-106190238D01*
X144462190Y-106190238D02*
X144509809Y-106237857D01*
X144509809Y-106237857D02*
X144557428Y-106333095D01*
X144557428Y-106333095D02*
X144605047Y-106523571D01*
X144605047Y-106523571D02*
X144605047Y-106761666D01*
X144605047Y-106761666D02*
X144557428Y-106952142D01*
X144557428Y-106952142D02*
X144509809Y-107047380D01*
X144509809Y-107047380D02*
X144462190Y-107095000D01*
X144462190Y-107095000D02*
X144366952Y-107142619D01*
X144366952Y-107142619D02*
X144271714Y-107142619D01*
X144271714Y-107142619D02*
X144176476Y-107095000D01*
X144176476Y-107095000D02*
X144128857Y-107047380D01*
X144128857Y-107047380D02*
X144081238Y-106952142D01*
X144081238Y-106952142D02*
X144033619Y-106761666D01*
X144033619Y-106761666D02*
X144033619Y-106523571D01*
X144033619Y-106523571D02*
X144081238Y-106333095D01*
X144081238Y-106333095D02*
X144128857Y-106237857D01*
X144128857Y-106237857D02*
X144176476Y-106190238D01*
X144176476Y-106190238D02*
X144271714Y-106142619D01*
X145557428Y-107142619D02*
X144986000Y-107142619D01*
X145271714Y-107142619D02*
X145271714Y-106142619D01*
X145271714Y-106142619D02*
X145176476Y-106285476D01*
X145176476Y-106285476D02*
X145081238Y-106380714D01*
X145081238Y-106380714D02*
X144986000Y-106428333D01*
%TO.C,10*%
X153047723Y-89718219D02*
X152476295Y-89718219D01*
X152762009Y-89718219D02*
X152762009Y-88718219D01*
X152762009Y-88718219D02*
X152666771Y-88861076D01*
X152666771Y-88861076D02*
X152571533Y-88956314D01*
X152571533Y-88956314D02*
X152476295Y-89003933D01*
X153666771Y-88718219D02*
X153762009Y-88718219D01*
X153762009Y-88718219D02*
X153857247Y-88765838D01*
X153857247Y-88765838D02*
X153904866Y-88813457D01*
X153904866Y-88813457D02*
X153952485Y-88908695D01*
X153952485Y-88908695D02*
X154000104Y-89099171D01*
X154000104Y-89099171D02*
X154000104Y-89337266D01*
X154000104Y-89337266D02*
X153952485Y-89527742D01*
X153952485Y-89527742D02*
X153904866Y-89622980D01*
X153904866Y-89622980D02*
X153857247Y-89670600D01*
X153857247Y-89670600D02*
X153762009Y-89718219D01*
X153762009Y-89718219D02*
X153666771Y-89718219D01*
X153666771Y-89718219D02*
X153571533Y-89670600D01*
X153571533Y-89670600D02*
X153523914Y-89622980D01*
X153523914Y-89622980D02*
X153476295Y-89527742D01*
X153476295Y-89527742D02*
X153428676Y-89337266D01*
X153428676Y-89337266D02*
X153428676Y-89099171D01*
X153428676Y-89099171D02*
X153476295Y-88908695D01*
X153476295Y-88908695D02*
X153523914Y-88813457D01*
X153523914Y-88813457D02*
X153571533Y-88765838D01*
X153571533Y-88765838D02*
X153666771Y-88718219D01*
X161201123Y-89718219D02*
X160629695Y-89718219D01*
X160915409Y-89718219D02*
X160915409Y-88718219D01*
X160915409Y-88718219D02*
X160820171Y-88861076D01*
X160820171Y-88861076D02*
X160724933Y-88956314D01*
X160724933Y-88956314D02*
X160629695Y-89003933D01*
X161820171Y-88718219D02*
X161915409Y-88718219D01*
X161915409Y-88718219D02*
X162010647Y-88765838D01*
X162010647Y-88765838D02*
X162058266Y-88813457D01*
X162058266Y-88813457D02*
X162105885Y-88908695D01*
X162105885Y-88908695D02*
X162153504Y-89099171D01*
X162153504Y-89099171D02*
X162153504Y-89337266D01*
X162153504Y-89337266D02*
X162105885Y-89527742D01*
X162105885Y-89527742D02*
X162058266Y-89622980D01*
X162058266Y-89622980D02*
X162010647Y-89670600D01*
X162010647Y-89670600D02*
X161915409Y-89718219D01*
X161915409Y-89718219D02*
X161820171Y-89718219D01*
X161820171Y-89718219D02*
X161724933Y-89670600D01*
X161724933Y-89670600D02*
X161677314Y-89622980D01*
X161677314Y-89622980D02*
X161629695Y-89527742D01*
X161629695Y-89527742D02*
X161582076Y-89337266D01*
X161582076Y-89337266D02*
X161582076Y-89099171D01*
X161582076Y-89099171D02*
X161629695Y-88908695D01*
X161629695Y-88908695D02*
X161677314Y-88813457D01*
X161677314Y-88813457D02*
X161724933Y-88765838D01*
X161724933Y-88765838D02*
X161820171Y-88718219D01*
%TO.C,100nf*%
X151745237Y-123512619D02*
X151173809Y-123512619D01*
X151459523Y-123512619D02*
X151459523Y-122512619D01*
X151459523Y-122512619D02*
X151364285Y-122655476D01*
X151364285Y-122655476D02*
X151269047Y-122750714D01*
X151269047Y-122750714D02*
X151173809Y-122798333D01*
X152364285Y-122512619D02*
X152459523Y-122512619D01*
X152459523Y-122512619D02*
X152554761Y-122560238D01*
X152554761Y-122560238D02*
X152602380Y-122607857D01*
X152602380Y-122607857D02*
X152649999Y-122703095D01*
X152649999Y-122703095D02*
X152697618Y-122893571D01*
X152697618Y-122893571D02*
X152697618Y-123131666D01*
X152697618Y-123131666D02*
X152649999Y-123322142D01*
X152649999Y-123322142D02*
X152602380Y-123417380D01*
X152602380Y-123417380D02*
X152554761Y-123465000D01*
X152554761Y-123465000D02*
X152459523Y-123512619D01*
X152459523Y-123512619D02*
X152364285Y-123512619D01*
X152364285Y-123512619D02*
X152269047Y-123465000D01*
X152269047Y-123465000D02*
X152221428Y-123417380D01*
X152221428Y-123417380D02*
X152173809Y-123322142D01*
X152173809Y-123322142D02*
X152126190Y-123131666D01*
X152126190Y-123131666D02*
X152126190Y-122893571D01*
X152126190Y-122893571D02*
X152173809Y-122703095D01*
X152173809Y-122703095D02*
X152221428Y-122607857D01*
X152221428Y-122607857D02*
X152269047Y-122560238D01*
X152269047Y-122560238D02*
X152364285Y-122512619D01*
X153316666Y-122512619D02*
X153411904Y-122512619D01*
X153411904Y-122512619D02*
X153507142Y-122560238D01*
X153507142Y-122560238D02*
X153554761Y-122607857D01*
X153554761Y-122607857D02*
X153602380Y-122703095D01*
X153602380Y-122703095D02*
X153649999Y-122893571D01*
X153649999Y-122893571D02*
X153649999Y-123131666D01*
X153649999Y-123131666D02*
X153602380Y-123322142D01*
X153602380Y-123322142D02*
X153554761Y-123417380D01*
X153554761Y-123417380D02*
X153507142Y-123465000D01*
X153507142Y-123465000D02*
X153411904Y-123512619D01*
X153411904Y-123512619D02*
X153316666Y-123512619D01*
X153316666Y-123512619D02*
X153221428Y-123465000D01*
X153221428Y-123465000D02*
X153173809Y-123417380D01*
X153173809Y-123417380D02*
X153126190Y-123322142D01*
X153126190Y-123322142D02*
X153078571Y-123131666D01*
X153078571Y-123131666D02*
X153078571Y-122893571D01*
X153078571Y-122893571D02*
X153126190Y-122703095D01*
X153126190Y-122703095D02*
X153173809Y-122607857D01*
X153173809Y-122607857D02*
X153221428Y-122560238D01*
X153221428Y-122560238D02*
X153316666Y-122512619D01*
X154078571Y-122845952D02*
X154078571Y-123512619D01*
X154078571Y-122941190D02*
X154126190Y-122893571D01*
X154126190Y-122893571D02*
X154221428Y-122845952D01*
X154221428Y-122845952D02*
X154364285Y-122845952D01*
X154364285Y-122845952D02*
X154459523Y-122893571D01*
X154459523Y-122893571D02*
X154507142Y-122988809D01*
X154507142Y-122988809D02*
X154507142Y-123512619D01*
X154840476Y-122845952D02*
X155221428Y-122845952D01*
X154983333Y-123512619D02*
X154983333Y-122655476D01*
X154983333Y-122655476D02*
X155030952Y-122560238D01*
X155030952Y-122560238D02*
X155126190Y-122512619D01*
X155126190Y-122512619D02*
X155221428Y-122512619D01*
%TO.C,3.3V*%
X158874010Y-101164219D02*
X159493057Y-101164219D01*
X159493057Y-101164219D02*
X159159724Y-101545171D01*
X159159724Y-101545171D02*
X159302581Y-101545171D01*
X159302581Y-101545171D02*
X159397819Y-101592790D01*
X159397819Y-101592790D02*
X159445438Y-101640409D01*
X159445438Y-101640409D02*
X159493057Y-101735647D01*
X159493057Y-101735647D02*
X159493057Y-101973742D01*
X159493057Y-101973742D02*
X159445438Y-102068980D01*
X159445438Y-102068980D02*
X159397819Y-102116600D01*
X159397819Y-102116600D02*
X159302581Y-102164219D01*
X159302581Y-102164219D02*
X159016867Y-102164219D01*
X159016867Y-102164219D02*
X158921629Y-102116600D01*
X158921629Y-102116600D02*
X158874010Y-102068980D01*
X159921629Y-102068980D02*
X159969248Y-102116600D01*
X159969248Y-102116600D02*
X159921629Y-102164219D01*
X159921629Y-102164219D02*
X159874010Y-102116600D01*
X159874010Y-102116600D02*
X159921629Y-102068980D01*
X159921629Y-102068980D02*
X159921629Y-102164219D01*
X160302581Y-101164219D02*
X160921628Y-101164219D01*
X160921628Y-101164219D02*
X160588295Y-101545171D01*
X160588295Y-101545171D02*
X160731152Y-101545171D01*
X160731152Y-101545171D02*
X160826390Y-101592790D01*
X160826390Y-101592790D02*
X160874009Y-101640409D01*
X160874009Y-101640409D02*
X160921628Y-101735647D01*
X160921628Y-101735647D02*
X160921628Y-101973742D01*
X160921628Y-101973742D02*
X160874009Y-102068980D01*
X160874009Y-102068980D02*
X160826390Y-102116600D01*
X160826390Y-102116600D02*
X160731152Y-102164219D01*
X160731152Y-102164219D02*
X160445438Y-102164219D01*
X160445438Y-102164219D02*
X160350200Y-102116600D01*
X160350200Y-102116600D02*
X160302581Y-102068980D01*
X161207343Y-101164219D02*
X161540676Y-102164219D01*
X161540676Y-102164219D02*
X161874009Y-101164219D01*
%TO.C,4.7*%
X156778390Y-89051552D02*
X156778390Y-89718219D01*
X156540295Y-88670600D02*
X156302200Y-89384885D01*
X156302200Y-89384885D02*
X156921247Y-89384885D01*
X157302200Y-89622980D02*
X157349819Y-89670600D01*
X157349819Y-89670600D02*
X157302200Y-89718219D01*
X157302200Y-89718219D02*
X157254581Y-89670600D01*
X157254581Y-89670600D02*
X157302200Y-89622980D01*
X157302200Y-89622980D02*
X157302200Y-89718219D01*
X157683152Y-88718219D02*
X158349818Y-88718219D01*
X158349818Y-88718219D02*
X157921247Y-89718219D01*
%TO.C,TP4056*%
X139849681Y-97788809D02*
X139992538Y-97836428D01*
X139992538Y-97836428D02*
X140040157Y-97884047D01*
X140040157Y-97884047D02*
X140087776Y-97979285D01*
X140087776Y-97979285D02*
X140087776Y-98122142D01*
X140087776Y-98122142D02*
X140040157Y-98217380D01*
X140040157Y-98217380D02*
X139992538Y-98265000D01*
X139992538Y-98265000D02*
X139897300Y-98312619D01*
X139897300Y-98312619D02*
X139516348Y-98312619D01*
X139516348Y-98312619D02*
X139516348Y-97312619D01*
X139516348Y-97312619D02*
X139849681Y-97312619D01*
X139849681Y-97312619D02*
X139944919Y-97360238D01*
X139944919Y-97360238D02*
X139992538Y-97407857D01*
X139992538Y-97407857D02*
X140040157Y-97503095D01*
X140040157Y-97503095D02*
X140040157Y-97598333D01*
X140040157Y-97598333D02*
X139992538Y-97693571D01*
X139992538Y-97693571D02*
X139944919Y-97741190D01*
X139944919Y-97741190D02*
X139849681Y-97788809D01*
X139849681Y-97788809D02*
X139516348Y-97788809D01*
X140516348Y-97931666D02*
X141278253Y-97931666D01*
X121754443Y-86812619D02*
X121754443Y-85812619D01*
X122230633Y-86812619D02*
X122230633Y-85812619D01*
X122230633Y-85812619D02*
X122802061Y-86812619D01*
X122802061Y-86812619D02*
X122802061Y-85812619D01*
X123278252Y-86431666D02*
X124040157Y-86431666D01*
X123659204Y-86812619D02*
X123659204Y-86050714D01*
X121754443Y-100812619D02*
X121754443Y-99812619D01*
X122230633Y-100812619D02*
X122230633Y-99812619D01*
X122230633Y-99812619D02*
X122802061Y-100812619D01*
X122802061Y-100812619D02*
X122802061Y-99812619D01*
X123278252Y-100431666D02*
X124040157Y-100431666D01*
X139849681Y-88788809D02*
X139992538Y-88836428D01*
X139992538Y-88836428D02*
X140040157Y-88884047D01*
X140040157Y-88884047D02*
X140087776Y-88979285D01*
X140087776Y-88979285D02*
X140087776Y-89122142D01*
X140087776Y-89122142D02*
X140040157Y-89217380D01*
X140040157Y-89217380D02*
X139992538Y-89265000D01*
X139992538Y-89265000D02*
X139897300Y-89312619D01*
X139897300Y-89312619D02*
X139516348Y-89312619D01*
X139516348Y-89312619D02*
X139516348Y-88312619D01*
X139516348Y-88312619D02*
X139849681Y-88312619D01*
X139849681Y-88312619D02*
X139944919Y-88360238D01*
X139944919Y-88360238D02*
X139992538Y-88407857D01*
X139992538Y-88407857D02*
X140040157Y-88503095D01*
X140040157Y-88503095D02*
X140040157Y-88598333D01*
X140040157Y-88598333D02*
X139992538Y-88693571D01*
X139992538Y-88693571D02*
X139944919Y-88741190D01*
X139944919Y-88741190D02*
X139849681Y-88788809D01*
X139849681Y-88788809D02*
X139516348Y-88788809D01*
X140516348Y-88931666D02*
X141278253Y-88931666D01*
X140897300Y-89312619D02*
X140897300Y-88550714D01*
X137778252Y-85812619D02*
X137968728Y-85812619D01*
X137968728Y-85812619D02*
X138063966Y-85860238D01*
X138063966Y-85860238D02*
X138159204Y-85955476D01*
X138159204Y-85955476D02*
X138206823Y-86145952D01*
X138206823Y-86145952D02*
X138206823Y-86479285D01*
X138206823Y-86479285D02*
X138159204Y-86669761D01*
X138159204Y-86669761D02*
X138063966Y-86765000D01*
X138063966Y-86765000D02*
X137968728Y-86812619D01*
X137968728Y-86812619D02*
X137778252Y-86812619D01*
X137778252Y-86812619D02*
X137683014Y-86765000D01*
X137683014Y-86765000D02*
X137587776Y-86669761D01*
X137587776Y-86669761D02*
X137540157Y-86479285D01*
X137540157Y-86479285D02*
X137540157Y-86145952D01*
X137540157Y-86145952D02*
X137587776Y-85955476D01*
X137587776Y-85955476D02*
X137683014Y-85860238D01*
X137683014Y-85860238D02*
X137778252Y-85812619D01*
X138635395Y-85812619D02*
X138635395Y-86622142D01*
X138635395Y-86622142D02*
X138683014Y-86717380D01*
X138683014Y-86717380D02*
X138730633Y-86765000D01*
X138730633Y-86765000D02*
X138825871Y-86812619D01*
X138825871Y-86812619D02*
X139016347Y-86812619D01*
X139016347Y-86812619D02*
X139111585Y-86765000D01*
X139111585Y-86765000D02*
X139159204Y-86717380D01*
X139159204Y-86717380D02*
X139206823Y-86622142D01*
X139206823Y-86622142D02*
X139206823Y-85812619D01*
X139540157Y-85812619D02*
X140111585Y-85812619D01*
X139825871Y-86812619D02*
X139825871Y-85812619D01*
X140444919Y-86431666D02*
X141206824Y-86431666D01*
X140825871Y-86812619D02*
X140825871Y-86050714D01*
%TO.C,10*%
X169659523Y-116361019D02*
X169088095Y-116361019D01*
X169373809Y-116361019D02*
X169373809Y-115361019D01*
X169373809Y-115361019D02*
X169278571Y-115503876D01*
X169278571Y-115503876D02*
X169183333Y-115599114D01*
X169183333Y-115599114D02*
X169088095Y-115646733D01*
X170278571Y-115361019D02*
X170373809Y-115361019D01*
X170373809Y-115361019D02*
X170469047Y-115408638D01*
X170469047Y-115408638D02*
X170516666Y-115456257D01*
X170516666Y-115456257D02*
X170564285Y-115551495D01*
X170564285Y-115551495D02*
X170611904Y-115741971D01*
X170611904Y-115741971D02*
X170611904Y-115980066D01*
X170611904Y-115980066D02*
X170564285Y-116170542D01*
X170564285Y-116170542D02*
X170516666Y-116265780D01*
X170516666Y-116265780D02*
X170469047Y-116313400D01*
X170469047Y-116313400D02*
X170373809Y-116361019D01*
X170373809Y-116361019D02*
X170278571Y-116361019D01*
X170278571Y-116361019D02*
X170183333Y-116313400D01*
X170183333Y-116313400D02*
X170135714Y-116265780D01*
X170135714Y-116265780D02*
X170088095Y-116170542D01*
X170088095Y-116170542D02*
X170040476Y-115980066D01*
X170040476Y-115980066D02*
X170040476Y-115741971D01*
X170040476Y-115741971D02*
X170088095Y-115551495D01*
X170088095Y-115551495D02*
X170135714Y-115456257D01*
X170135714Y-115456257D02*
X170183333Y-115408638D01*
X170183333Y-115408638D02*
X170278571Y-115361019D01*
%TO.C,ATtiny84*%
X162976904Y-115578571D02*
X162976904Y-115102381D01*
X163262619Y-115673809D02*
X162262619Y-115340476D01*
X162262619Y-115340476D02*
X163262619Y-115007143D01*
X162262619Y-114816666D02*
X162262619Y-114245238D01*
X163262619Y-114530952D02*
X162262619Y-114530952D01*
X162595952Y-114054761D02*
X162595952Y-113673809D01*
X162262619Y-113911904D02*
X163119761Y-113911904D01*
X163119761Y-113911904D02*
X163215000Y-113864285D01*
X163215000Y-113864285D02*
X163262619Y-113769047D01*
X163262619Y-113769047D02*
X163262619Y-113673809D01*
X163262619Y-113340475D02*
X162595952Y-113340475D01*
X162262619Y-113340475D02*
X162310238Y-113388094D01*
X162310238Y-113388094D02*
X162357857Y-113340475D01*
X162357857Y-113340475D02*
X162310238Y-113292856D01*
X162310238Y-113292856D02*
X162262619Y-113340475D01*
X162262619Y-113340475D02*
X162357857Y-113340475D01*
X162595952Y-112864285D02*
X163262619Y-112864285D01*
X162691190Y-112864285D02*
X162643571Y-112816666D01*
X162643571Y-112816666D02*
X162595952Y-112721428D01*
X162595952Y-112721428D02*
X162595952Y-112578571D01*
X162595952Y-112578571D02*
X162643571Y-112483333D01*
X162643571Y-112483333D02*
X162738809Y-112435714D01*
X162738809Y-112435714D02*
X163262619Y-112435714D01*
X162595952Y-112054761D02*
X163262619Y-111816666D01*
X162595952Y-111578571D02*
X163262619Y-111816666D01*
X163262619Y-111816666D02*
X163500714Y-111911904D01*
X163500714Y-111911904D02*
X163548333Y-111959523D01*
X163548333Y-111959523D02*
X163595952Y-112054761D01*
X162691190Y-111054761D02*
X162643571Y-111149999D01*
X162643571Y-111149999D02*
X162595952Y-111197618D01*
X162595952Y-111197618D02*
X162500714Y-111245237D01*
X162500714Y-111245237D02*
X162453095Y-111245237D01*
X162453095Y-111245237D02*
X162357857Y-111197618D01*
X162357857Y-111197618D02*
X162310238Y-111149999D01*
X162310238Y-111149999D02*
X162262619Y-111054761D01*
X162262619Y-111054761D02*
X162262619Y-110864285D01*
X162262619Y-110864285D02*
X162310238Y-110769047D01*
X162310238Y-110769047D02*
X162357857Y-110721428D01*
X162357857Y-110721428D02*
X162453095Y-110673809D01*
X162453095Y-110673809D02*
X162500714Y-110673809D01*
X162500714Y-110673809D02*
X162595952Y-110721428D01*
X162595952Y-110721428D02*
X162643571Y-110769047D01*
X162643571Y-110769047D02*
X162691190Y-110864285D01*
X162691190Y-110864285D02*
X162691190Y-111054761D01*
X162691190Y-111054761D02*
X162738809Y-111149999D01*
X162738809Y-111149999D02*
X162786428Y-111197618D01*
X162786428Y-111197618D02*
X162881666Y-111245237D01*
X162881666Y-111245237D02*
X163072142Y-111245237D01*
X163072142Y-111245237D02*
X163167380Y-111197618D01*
X163167380Y-111197618D02*
X163215000Y-111149999D01*
X163215000Y-111149999D02*
X163262619Y-111054761D01*
X163262619Y-111054761D02*
X163262619Y-110864285D01*
X163262619Y-110864285D02*
X163215000Y-110769047D01*
X163215000Y-110769047D02*
X163167380Y-110721428D01*
X163167380Y-110721428D02*
X163072142Y-110673809D01*
X163072142Y-110673809D02*
X162881666Y-110673809D01*
X162881666Y-110673809D02*
X162786428Y-110721428D01*
X162786428Y-110721428D02*
X162738809Y-110769047D01*
X162738809Y-110769047D02*
X162691190Y-110864285D01*
X162595952Y-109816666D02*
X163262619Y-109816666D01*
X162215000Y-110054761D02*
X162929285Y-110292856D01*
X162929285Y-110292856D02*
X162929285Y-109673809D01*
%TO.C,PN2222A*%
X148391952Y-102161619D02*
X148391952Y-101161619D01*
X148391952Y-101161619D02*
X148772904Y-101161619D01*
X148772904Y-101161619D02*
X148868142Y-101209238D01*
X148868142Y-101209238D02*
X148915761Y-101256857D01*
X148915761Y-101256857D02*
X148963380Y-101352095D01*
X148963380Y-101352095D02*
X148963380Y-101494952D01*
X148963380Y-101494952D02*
X148915761Y-101590190D01*
X148915761Y-101590190D02*
X148868142Y-101637809D01*
X148868142Y-101637809D02*
X148772904Y-101685428D01*
X148772904Y-101685428D02*
X148391952Y-101685428D01*
X149391952Y-102161619D02*
X149391952Y-101161619D01*
X149391952Y-101161619D02*
X149963380Y-102161619D01*
X149963380Y-102161619D02*
X149963380Y-101161619D01*
X150391952Y-101256857D02*
X150439571Y-101209238D01*
X150439571Y-101209238D02*
X150534809Y-101161619D01*
X150534809Y-101161619D02*
X150772904Y-101161619D01*
X150772904Y-101161619D02*
X150868142Y-101209238D01*
X150868142Y-101209238D02*
X150915761Y-101256857D01*
X150915761Y-101256857D02*
X150963380Y-101352095D01*
X150963380Y-101352095D02*
X150963380Y-101447333D01*
X150963380Y-101447333D02*
X150915761Y-101590190D01*
X150915761Y-101590190D02*
X150344333Y-102161619D01*
X150344333Y-102161619D02*
X150963380Y-102161619D01*
X151344333Y-101256857D02*
X151391952Y-101209238D01*
X151391952Y-101209238D02*
X151487190Y-101161619D01*
X151487190Y-101161619D02*
X151725285Y-101161619D01*
X151725285Y-101161619D02*
X151820523Y-101209238D01*
X151820523Y-101209238D02*
X151868142Y-101256857D01*
X151868142Y-101256857D02*
X151915761Y-101352095D01*
X151915761Y-101352095D02*
X151915761Y-101447333D01*
X151915761Y-101447333D02*
X151868142Y-101590190D01*
X151868142Y-101590190D02*
X151296714Y-102161619D01*
X151296714Y-102161619D02*
X151915761Y-102161619D01*
X152296714Y-101256857D02*
X152344333Y-101209238D01*
X152344333Y-101209238D02*
X152439571Y-101161619D01*
X152439571Y-101161619D02*
X152677666Y-101161619D01*
X152677666Y-101161619D02*
X152772904Y-101209238D01*
X152772904Y-101209238D02*
X152820523Y-101256857D01*
X152820523Y-101256857D02*
X152868142Y-101352095D01*
X152868142Y-101352095D02*
X152868142Y-101447333D01*
X152868142Y-101447333D02*
X152820523Y-101590190D01*
X152820523Y-101590190D02*
X152249095Y-102161619D01*
X152249095Y-102161619D02*
X152868142Y-102161619D01*
X153249095Y-101256857D02*
X153296714Y-101209238D01*
X153296714Y-101209238D02*
X153391952Y-101161619D01*
X153391952Y-101161619D02*
X153630047Y-101161619D01*
X153630047Y-101161619D02*
X153725285Y-101209238D01*
X153725285Y-101209238D02*
X153772904Y-101256857D01*
X153772904Y-101256857D02*
X153820523Y-101352095D01*
X153820523Y-101352095D02*
X153820523Y-101447333D01*
X153820523Y-101447333D02*
X153772904Y-101590190D01*
X153772904Y-101590190D02*
X153201476Y-102161619D01*
X153201476Y-102161619D02*
X153820523Y-102161619D01*
X154201476Y-101875904D02*
X154677666Y-101875904D01*
X154106238Y-102161619D02*
X154439571Y-101161619D01*
X154439571Y-101161619D02*
X154772904Y-102161619D01*
D14*
%TO.C,22uf*%
X163760000Y-74368621D02*
X162252000Y-74368621D01*
X163760000Y-73848621D02*
X161924000Y-73848621D01*
X167847000Y-73448621D02*
X165840000Y-73448621D01*
X166690000Y-75008621D02*
X162910000Y-75008621D01*
X167931000Y-73168621D02*
X165840000Y-73168621D01*
X168030000Y-72447621D02*
X161570000Y-72447621D01*
X163760000Y-73248621D02*
X161690000Y-73248621D01*
X163760000Y-73368621D02*
X161726000Y-73368621D01*
X168030000Y-72407621D02*
X161570000Y-72407621D01*
X166634000Y-75048621D02*
X162966000Y-75048621D01*
X166795000Y-74928621D02*
X162805000Y-74928621D01*
X163760000Y-72927621D02*
X161618000Y-72927621D01*
X163760000Y-73968621D02*
X161988000Y-73968621D01*
X167656000Y-73888621D02*
X165840000Y-73888621D01*
X167105000Y-74648621D02*
X165840000Y-74648621D01*
X167982000Y-72927621D02*
X165840000Y-72927621D01*
X165602000Y-75528621D02*
X163998000Y-75528621D01*
X168028000Y-72487621D02*
X161572000Y-72487621D01*
X163760000Y-74008621D02*
X162010000Y-74008621D01*
X166639000Y-68867380D02*
X166639000Y-69497380D01*
X163760000Y-74088621D02*
X162058000Y-74088621D01*
X165202000Y-75608621D02*
X164398000Y-75608621D01*
X163760000Y-73007621D02*
X161633000Y-73007621D01*
X163760000Y-73608621D02*
X161814000Y-73608621D01*
X167612000Y-73968621D02*
X165840000Y-73968621D01*
X163760000Y-74128621D02*
X162084000Y-74128621D01*
X163760000Y-72887621D02*
X161611000Y-72887621D01*
X166309000Y-75248621D02*
X163291000Y-75248621D01*
X167024000Y-74728621D02*
X162576000Y-74728621D01*
X163760000Y-73528621D02*
X161782000Y-73528621D01*
X167284000Y-74448621D02*
X165840000Y-74448621D01*
X166450000Y-75168621D02*
X163150000Y-75168621D01*
X163760000Y-72967621D02*
X161625000Y-72967621D01*
X163760000Y-72647621D02*
X161582000Y-72647621D01*
X167464000Y-74208621D02*
X165840000Y-74208621D01*
X166232000Y-75288621D02*
X163368000Y-75288621D01*
X168001000Y-72807621D02*
X165840000Y-72807621D01*
X167634000Y-73928621D02*
X165840000Y-73928621D01*
X163760000Y-73168621D02*
X161669000Y-73168621D01*
X168022000Y-72607621D02*
X165840000Y-72607621D01*
X167216000Y-74528621D02*
X165840000Y-74528621D01*
X167490000Y-74168621D02*
X165840000Y-74168621D01*
X166576000Y-75088621D02*
X163024000Y-75088621D01*
X163760000Y-74248621D02*
X162164000Y-74248621D01*
X165433000Y-75568621D02*
X164167000Y-75568621D01*
X163760000Y-74648621D02*
X162495000Y-74648621D01*
X163760000Y-74328621D02*
X162222000Y-74328621D01*
X163760000Y-72687621D02*
X161585000Y-72687621D01*
X167770000Y-73648621D02*
X165840000Y-73648621D01*
X168015000Y-72687621D02*
X165840000Y-72687621D01*
X167590000Y-74008621D02*
X165840000Y-74008621D01*
X167752000Y-73688621D02*
X165840000Y-73688621D01*
X163760000Y-74048621D02*
X162034000Y-74048621D01*
X166937000Y-74808621D02*
X162663000Y-74808621D01*
X167407000Y-74288621D02*
X165840000Y-74288621D01*
X163760000Y-73128621D02*
X161659000Y-73128621D01*
X163760000Y-73648621D02*
X161830000Y-73648621D01*
X163760000Y-73768621D02*
X161884000Y-73768621D01*
X166844000Y-74888621D02*
X162756000Y-74888621D01*
X166892000Y-74848621D02*
X162708000Y-74848621D01*
X163760000Y-73688621D02*
X161848000Y-73688621D01*
X167143000Y-74608621D02*
X165840000Y-74608621D01*
X163760000Y-73328621D02*
X161714000Y-73328621D01*
X166150000Y-75328621D02*
X163450000Y-75328621D01*
X167950000Y-73088621D02*
X165840000Y-73088621D01*
X167734000Y-73728621D02*
X165840000Y-73728621D01*
X163760000Y-74608621D02*
X162457000Y-74608621D01*
X167818000Y-73528621D02*
X165840000Y-73528621D01*
X163760000Y-73888621D02*
X161944000Y-73888621D01*
X163760000Y-72847621D02*
X161605000Y-72847621D01*
X167910000Y-73248621D02*
X165840000Y-73248621D01*
X163760000Y-74288621D02*
X162193000Y-74288621D01*
X163760000Y-74528621D02*
X162384000Y-74528621D01*
X167833000Y-73488621D02*
X165840000Y-73488621D01*
X163760000Y-73088621D02*
X161650000Y-73088621D01*
X166954000Y-69182380D02*
X166324000Y-69182380D01*
X163760000Y-73928621D02*
X161966000Y-73928621D01*
X166514000Y-75128621D02*
X163086000Y-75128621D01*
X167180000Y-74568621D02*
X165840000Y-74568621D01*
X166381000Y-75208621D02*
X163219000Y-75208621D01*
X167975000Y-72967621D02*
X165840000Y-72967621D01*
X165859000Y-75448621D02*
X163741000Y-75448621D01*
X165740000Y-75488621D02*
X163860000Y-75488621D01*
X163760000Y-72807621D02*
X161599000Y-72807621D01*
X167696000Y-73808621D02*
X165840000Y-73808621D01*
X163760000Y-73408621D02*
X161739000Y-73408621D01*
X167989000Y-72887621D02*
X165840000Y-72887621D01*
X167959000Y-73047621D02*
X165840000Y-73047621D01*
X167898000Y-73288621D02*
X165840000Y-73288621D01*
X168030000Y-72367621D02*
X161570000Y-72367621D01*
X163760000Y-73208621D02*
X161679000Y-73208621D01*
X167566000Y-74048621D02*
X165840000Y-74048621D01*
X167921000Y-73208621D02*
X165840000Y-73208621D01*
X163760000Y-73488621D02*
X161767000Y-73488621D01*
X167941000Y-73128621D02*
X165840000Y-73128621D01*
X168018000Y-72647621D02*
X165840000Y-72647621D01*
X167250000Y-74488621D02*
X165840000Y-74488621D01*
X167065000Y-74688621D02*
X162535000Y-74688621D01*
X163760000Y-73808621D02*
X161904000Y-73808621D01*
X167378000Y-74328621D02*
X165840000Y-74328621D01*
X163760000Y-72607621D02*
X161578000Y-72607621D01*
X167886000Y-73328621D02*
X165840000Y-73328621D01*
X163760000Y-73288621D02*
X161702000Y-73288621D01*
X165965000Y-75408621D02*
X163635000Y-75408621D01*
X167436000Y-74248621D02*
X165840000Y-74248621D01*
X163760000Y-74408621D02*
X162284000Y-74408621D01*
X163760000Y-73448621D02*
X161753000Y-73448621D01*
X166982000Y-74768621D02*
X162618000Y-74768621D01*
X166744000Y-74968621D02*
X162856000Y-74968621D01*
X166062000Y-75368621D02*
X163538000Y-75368621D01*
X163760000Y-72767621D02*
X161594000Y-72767621D01*
X163760000Y-74568621D02*
X162420000Y-74568621D01*
X167542000Y-74088621D02*
X165840000Y-74088621D01*
X167967000Y-73007621D02*
X165840000Y-73007621D01*
X163760000Y-73728621D02*
X161866000Y-73728621D01*
X168027000Y-72527621D02*
X161573000Y-72527621D01*
X163760000Y-74448621D02*
X162316000Y-74448621D01*
X163760000Y-74168621D02*
X162110000Y-74168621D01*
X167348000Y-74368621D02*
X165840000Y-74368621D01*
X163760000Y-72727621D02*
X161589000Y-72727621D01*
X167676000Y-73848621D02*
X165840000Y-73848621D01*
X163760000Y-74208621D02*
X162136000Y-74208621D01*
X168006000Y-72767621D02*
X165840000Y-72767621D01*
X167316000Y-74408621D02*
X165840000Y-74408621D01*
X167786000Y-73608621D02*
X165840000Y-73608621D01*
X167874000Y-73368621D02*
X165840000Y-73368621D01*
X167861000Y-73408621D02*
X165840000Y-73408621D01*
X168011000Y-72727621D02*
X165840000Y-72727621D01*
X167802000Y-73568621D02*
X165840000Y-73568621D01*
X163760000Y-73568621D02*
X161798000Y-73568621D01*
X167995000Y-72847621D02*
X165840000Y-72847621D01*
X167716000Y-73768621D02*
X165840000Y-73768621D01*
X163760000Y-73047621D02*
X161641000Y-73047621D01*
X163760000Y-74488621D02*
X162350000Y-74488621D01*
X167516000Y-74128621D02*
X165840000Y-74128621D01*
X168024000Y-72567621D02*
X161576000Y-72567621D01*
X168070000Y-72367621D02*
G75*
G03*
X168070000Y-72367621I-3270000J0D01*
G01*
%TO.C,2.7*%
X149225000Y-85368000D02*
X149225000Y-86138000D01*
X150595000Y-86138000D02*
X147855000Y-86138000D01*
X147855000Y-86138000D02*
X147855000Y-92678000D01*
X150595000Y-92678000D02*
X150595000Y-86138000D01*
X147855000Y-92678000D02*
X150595000Y-92678000D01*
X149225000Y-93448000D02*
X149225000Y-92678000D01*
%TO.C,C4*%
X166637200Y-124157600D02*
X166637200Y-121917600D01*
X166637200Y-124157600D02*
X159397200Y-124157600D01*
X166637200Y-121917600D02*
X159397200Y-121917600D01*
X159397200Y-124157600D02*
X159397200Y-121917600D01*
%TO.C,SW2*%
X150601680Y-110972600D02*
X150601680Y-103251000D01*
X153382800Y-110972600D02*
X150601680Y-110972600D01*
X153382800Y-103251000D02*
X153382800Y-110972600D01*
X153382800Y-103251000D02*
X150601680Y-103251000D01*
%TO.C,NRF24L01*%
X146050000Y-119634000D02*
X146050000Y-119634000D01*
X146050000Y-119634000D02*
X140716000Y-119634000D01*
X146050000Y-108966000D02*
X146050000Y-119634000D01*
X146050000Y-108966000D02*
X146050000Y-108966000D01*
X145796000Y-116840000D02*
X145796000Y-116840000D01*
X143510000Y-119126000D02*
X143510000Y-116840000D01*
X143510000Y-116840000D02*
X145796000Y-116840000D01*
X140716000Y-119634000D02*
X140716000Y-108966000D01*
X140716000Y-108966000D02*
X146050000Y-108966000D01*
%TO.C,10*%
X153238200Y-85317200D02*
X153238200Y-86087200D01*
X154608200Y-86087200D02*
X151868200Y-86087200D01*
X151868200Y-86087200D02*
X151868200Y-92627200D01*
X154608200Y-92627200D02*
X154608200Y-86087200D01*
X151868200Y-92627200D02*
X154608200Y-92627200D01*
X153238200Y-93397200D02*
X153238200Y-92627200D01*
%TO.C,C2*%
X165231600Y-101297600D02*
X167471600Y-101297600D01*
X165231600Y-101297600D02*
X165231600Y-94057600D01*
X167471600Y-101297600D02*
X167471600Y-94057600D01*
X165231600Y-94057600D02*
X167471600Y-94057600D01*
%TO.C,10*%
X161315400Y-93397200D02*
X161315400Y-92627200D01*
X159945400Y-92627200D02*
X162685400Y-92627200D01*
X162685400Y-92627200D02*
X162685400Y-86087200D01*
X159945400Y-86087200D02*
X159945400Y-92627200D01*
X162685400Y-86087200D02*
X159945400Y-86087200D01*
X161315400Y-85317200D02*
X161315400Y-86087200D01*
%TO.C,100nf*%
X139636000Y-121917600D02*
X139636000Y-124157600D01*
X139636000Y-121917600D02*
X146876000Y-121917600D01*
X139636000Y-124157600D02*
X146876000Y-124157600D01*
X146876000Y-121917600D02*
X146876000Y-124157600D01*
%TO.C,3.3V*%
X158474000Y-100551800D02*
X162074000Y-100551800D01*
%TO.C,4.7*%
X157302200Y-85317200D02*
X157302200Y-86087200D01*
X158672200Y-86087200D02*
X155932200Y-86087200D01*
X155932200Y-86087200D02*
X155932200Y-92627200D01*
X158672200Y-92627200D02*
X158672200Y-86087200D01*
X155932200Y-92627200D02*
X158672200Y-92627200D01*
X157302200Y-93397200D02*
X157302200Y-92627200D01*
%TO.C,TP4056*%
X117397300Y-84650000D02*
X117397300Y-101850000D01*
X117397300Y-84650000D02*
X145397300Y-84650000D01*
X117397300Y-101850000D02*
X145397300Y-101850000D01*
X145397300Y-84650000D02*
X145397300Y-101850000D01*
%TO.C,10*%
X169850000Y-111960000D02*
X169850000Y-112730000D01*
X171220000Y-112730000D02*
X168480000Y-112730000D01*
X168480000Y-112730000D02*
X168480000Y-119270000D01*
X171220000Y-119270000D02*
X171220000Y-112730000D01*
X168480000Y-119270000D02*
X171220000Y-119270000D01*
X169850000Y-120040000D02*
X169850000Y-119270000D01*
%TO.C,ATtiny84*%
X163905600Y-120918200D02*
G75*
G03*
X161905600Y-120918200I-1000000J0D01*
G01*
X160255600Y-103018200D02*
X160255600Y-120918200D01*
X160255600Y-120918200D02*
X161905600Y-120918200D01*
X163905600Y-120918200D02*
X165555600Y-120918200D01*
X165555600Y-103018200D02*
X160255600Y-103018200D01*
X165555600Y-120918200D02*
X165555600Y-103018200D01*
%TO.C,C1*%
X165130000Y-90629600D02*
X167370000Y-90629600D01*
X165130000Y-90629600D02*
X165130000Y-83389600D01*
X167370000Y-90629600D02*
X167370000Y-83389600D01*
X165130000Y-83389600D02*
X167370000Y-83389600D01*
%TO.C,G\u002A\u002A\u002A*%
G36*
X150949966Y-115821373D02*
G01*
X151166369Y-115821373D01*
X151167618Y-115827368D01*
X151171178Y-115843095D01*
X151176890Y-115867875D01*
X151184596Y-115901035D01*
X151194137Y-115941896D01*
X151205355Y-115989784D01*
X151218091Y-116044022D01*
X151232187Y-116103934D01*
X151247483Y-116168843D01*
X151263821Y-116238074D01*
X151281043Y-116310951D01*
X151298989Y-116386797D01*
X151301594Y-116397799D01*
X151436523Y-116967568D01*
X151491739Y-116970231D01*
X151504140Y-116970547D01*
X151527449Y-116970850D01*
X151560943Y-116971136D01*
X151603900Y-116971404D01*
X151655597Y-116971651D01*
X151715313Y-116971876D01*
X151782324Y-116972076D01*
X151855909Y-116972250D01*
X151935344Y-116972396D01*
X152019909Y-116972510D01*
X152108879Y-116972593D01*
X152201534Y-116972641D01*
X152297150Y-116972652D01*
X152354172Y-116972641D01*
X152470552Y-116972588D01*
X152575811Y-116972505D01*
X152670455Y-116972386D01*
X152754992Y-116972228D01*
X152829931Y-116972025D01*
X152895778Y-116971773D01*
X152953043Y-116971467D01*
X153002232Y-116971104D01*
X153043854Y-116970678D01*
X153078416Y-116970186D01*
X153106426Y-116969622D01*
X153128392Y-116968982D01*
X153144821Y-116968262D01*
X153156222Y-116967457D01*
X153163103Y-116966563D01*
X153165970Y-116965576D01*
X153166051Y-116965479D01*
X153168846Y-116958035D01*
X153173412Y-116942180D01*
X153179209Y-116919940D01*
X153185696Y-116893341D01*
X153188688Y-116880532D01*
X153192739Y-116863074D01*
X153198833Y-116837003D01*
X153206766Y-116803180D01*
X153216333Y-116762468D01*
X153227331Y-116715729D01*
X153239557Y-116663825D01*
X153252806Y-116607619D01*
X153266874Y-116547974D01*
X153281559Y-116485750D01*
X153296655Y-116421811D01*
X153311960Y-116357019D01*
X153327269Y-116292236D01*
X153342379Y-116228324D01*
X153357086Y-116166147D01*
X153371187Y-116106565D01*
X153384476Y-116050442D01*
X153396752Y-115998640D01*
X153407809Y-115952020D01*
X153417444Y-115911446D01*
X153425454Y-115877779D01*
X153431634Y-115851882D01*
X153435781Y-115834618D01*
X153437690Y-115826848D01*
X153437731Y-115826698D01*
X153441005Y-115814717D01*
X152303538Y-115814717D01*
X152163605Y-115814729D01*
X152034892Y-115814767D01*
X151916989Y-115814833D01*
X151809488Y-115814929D01*
X151711979Y-115815058D01*
X151624052Y-115815223D01*
X151545297Y-115815425D01*
X151475305Y-115815667D01*
X151413667Y-115815952D01*
X151359972Y-115816282D01*
X151313811Y-115816659D01*
X151274775Y-115817086D01*
X151242454Y-115817564D01*
X151216439Y-115818098D01*
X151196319Y-115818688D01*
X151181685Y-115819337D01*
X151172128Y-115820048D01*
X151167238Y-115820823D01*
X151166369Y-115821373D01*
X150949966Y-115821373D01*
X150948582Y-115815485D01*
X150869340Y-115813770D01*
X150837189Y-115812958D01*
X150814243Y-115811895D01*
X150798076Y-115810195D01*
X150786265Y-115807475D01*
X150776384Y-115803351D01*
X150766009Y-115797440D01*
X150765951Y-115797405D01*
X150748528Y-115783839D01*
X150733715Y-115767341D01*
X150730060Y-115761674D01*
X150727608Y-115756968D01*
X150725523Y-115751783D01*
X150723776Y-115745263D01*
X150722336Y-115736556D01*
X150721175Y-115724809D01*
X150720263Y-115709169D01*
X150719570Y-115688781D01*
X150719066Y-115662793D01*
X150718721Y-115630351D01*
X150718507Y-115590603D01*
X150718392Y-115542694D01*
X150718349Y-115485771D01*
X150718345Y-115424877D01*
X150718363Y-115234298D01*
X150927656Y-115234298D01*
X150927656Y-115425996D01*
X150927656Y-115617694D01*
X152300000Y-115617694D01*
X153672345Y-115617694D01*
X153672345Y-115425996D01*
X153672345Y-115234298D01*
X152300000Y-115234298D01*
X150927656Y-115234298D01*
X150718363Y-115234298D01*
X150718375Y-115109161D01*
X150731429Y-115089597D01*
X150754045Y-115064131D01*
X150782821Y-115047196D01*
X150793325Y-115043452D01*
X150799903Y-115042445D01*
X150813139Y-115041540D01*
X150833452Y-115040733D01*
X150861258Y-115040021D01*
X150896977Y-115039401D01*
X150941027Y-115038867D01*
X150993825Y-115038417D01*
X151055790Y-115038048D01*
X151127341Y-115037755D01*
X151208894Y-115037535D01*
X151300869Y-115037384D01*
X151403684Y-115037298D01*
X151504647Y-115037275D01*
X152196202Y-115037275D01*
X152193739Y-114838920D01*
X152193036Y-114786469D01*
X152192305Y-114743401D01*
X152191472Y-114708448D01*
X152190461Y-114680343D01*
X152189196Y-114657819D01*
X152187602Y-114639609D01*
X152185605Y-114624445D01*
X152183128Y-114611060D01*
X152180096Y-114598187D01*
X152179223Y-114594828D01*
X152150098Y-114504883D01*
X152110218Y-114415498D01*
X152059432Y-114326455D01*
X151997593Y-114237532D01*
X151924550Y-114148511D01*
X151840157Y-114059170D01*
X151773931Y-113996035D01*
X151654743Y-113893154D01*
X151524826Y-113793095D01*
X151384069Y-113695785D01*
X151232360Y-113601154D01*
X151069589Y-113509128D01*
X150895644Y-113419635D01*
X150838639Y-113392016D01*
X150799026Y-113372617D01*
X150768817Y-113356363D01*
X150746788Y-113342079D01*
X150731717Y-113328586D01*
X150722377Y-113314709D01*
X150717546Y-113299269D01*
X150715999Y-113281089D01*
X150716004Y-113274083D01*
X150721365Y-113242014D01*
X150736311Y-113215894D01*
X150760692Y-113195947D01*
X150772103Y-113190163D01*
X150791099Y-113182797D01*
X150808892Y-113178858D01*
X150827353Y-113178694D01*
X150848349Y-113182653D01*
X150873750Y-113191081D01*
X150905426Y-113204327D01*
X150943934Y-113222116D01*
X151100940Y-113300137D01*
X151255012Y-113383894D01*
X151404402Y-113472312D01*
X151547362Y-113564313D01*
X151682146Y-113658819D01*
X151803588Y-113752001D01*
X151825667Y-113770324D01*
X151853509Y-113794280D01*
X151884808Y-113821834D01*
X151917254Y-113850951D01*
X151948539Y-113879597D01*
X151952625Y-113883388D01*
X151979080Y-113907806D01*
X152002739Y-113929302D01*
X152022421Y-113946833D01*
X152036945Y-113959353D01*
X152045133Y-113965819D01*
X152046487Y-113966451D01*
X152049948Y-113959053D01*
X152054845Y-113943340D01*
X152060668Y-113921494D01*
X152066904Y-113895699D01*
X152073042Y-113868137D01*
X152078569Y-113840992D01*
X152082973Y-113816448D01*
X152085188Y-113801405D01*
X152088670Y-113760707D01*
X152089902Y-113714001D01*
X152089019Y-113664469D01*
X152086155Y-113615295D01*
X152081443Y-113569660D01*
X152075018Y-113530749D01*
X152073510Y-113523930D01*
X152047403Y-113436229D01*
X152011482Y-113353960D01*
X151966191Y-113277539D01*
X151911975Y-113207381D01*
X151849278Y-113143901D01*
X151778543Y-113087513D01*
X151700216Y-113038632D01*
X151614741Y-112997674D01*
X151522562Y-112965053D01*
X151456823Y-112947967D01*
X151412196Y-112938430D01*
X151371531Y-112930936D01*
X151332417Y-112925263D01*
X151292442Y-112921188D01*
X151249196Y-112918488D01*
X151200265Y-112916940D01*
X151143241Y-112916323D01*
X151113737Y-112916290D01*
X150929338Y-112921565D01*
X150745184Y-112936857D01*
X150562866Y-112961976D01*
X150383970Y-112996737D01*
X150333470Y-113008470D01*
X150293633Y-113018180D01*
X150263687Y-113025793D01*
X150242233Y-113031765D01*
X150227871Y-113036550D01*
X150219201Y-113040602D01*
X150214823Y-113044375D01*
X150213488Y-113047407D01*
X150214123Y-113056764D01*
X150217670Y-113074702D01*
X150223673Y-113099607D01*
X150231674Y-113129869D01*
X150241215Y-113163874D01*
X150251838Y-113200010D01*
X150263085Y-113236665D01*
X150274500Y-113272226D01*
X150285623Y-113305082D01*
X150290711Y-113319383D01*
X150324721Y-113406487D01*
X150363601Y-113494331D01*
X150406246Y-113580828D01*
X150451551Y-113663895D01*
X150498411Y-113741447D01*
X150545720Y-113811400D01*
X150566336Y-113839161D01*
X150629854Y-113916135D01*
X150697418Y-113986959D01*
X150767771Y-114050489D01*
X150839654Y-114105581D01*
X150905093Y-114147276D01*
X150979586Y-114184802D01*
X151061003Y-114216325D01*
X151145918Y-114240697D01*
X151230902Y-114256769D01*
X151232143Y-114256938D01*
X151289696Y-114262457D01*
X151355455Y-114264815D01*
X151426559Y-114264130D01*
X151500150Y-114260521D01*
X151573367Y-114254106D01*
X151643352Y-114245002D01*
X151682260Y-114238363D01*
X151716517Y-114232758D01*
X151742729Y-114230927D01*
X151763839Y-114233167D01*
X151782795Y-114239775D01*
X151801494Y-114250370D01*
X151821758Y-114269479D01*
X151834763Y-114294447D01*
X151840122Y-114322541D01*
X151837448Y-114351026D01*
X151826354Y-114377171D01*
X151820562Y-114385081D01*
X151806816Y-114398641D01*
X151789483Y-114409568D01*
X151766634Y-114418596D01*
X151736338Y-114426461D01*
X151696666Y-114433897D01*
X151689189Y-114435117D01*
X151629679Y-114443951D01*
X151574552Y-114450424D01*
X151520044Y-114454824D01*
X151462389Y-114457439D01*
X151397821Y-114458556D01*
X151381227Y-114458632D01*
X151335841Y-114458541D01*
X151299195Y-114457885D01*
X151268410Y-114456490D01*
X151240605Y-114454180D01*
X151212898Y-114450779D01*
X151186424Y-114446764D01*
X151077151Y-114423820D01*
X150971615Y-114390859D01*
X150869954Y-114347991D01*
X150772305Y-114295325D01*
X150678805Y-114232970D01*
X150589590Y-114161036D01*
X150504798Y-114079632D01*
X150424565Y-113988867D01*
X150349028Y-113888852D01*
X150278325Y-113779696D01*
X150218515Y-113672922D01*
X150166997Y-113567339D01*
X150118604Y-113454318D01*
X150074450Y-113336910D01*
X150035648Y-113218166D01*
X150003311Y-113101138D01*
X149991169Y-113049865D01*
X149983454Y-113013164D01*
X149979025Y-112984802D01*
X149978096Y-112962844D01*
X149980878Y-112945357D01*
X149987586Y-112930409D01*
X149998431Y-112916066D01*
X150006894Y-112907066D01*
X150016403Y-112898682D01*
X150028311Y-112890947D01*
X150043885Y-112883431D01*
X150064393Y-112875702D01*
X150091102Y-112867331D01*
X150125280Y-112857889D01*
X150168194Y-112846943D01*
X150221113Y-112834065D01*
X150224039Y-112833364D01*
X150405450Y-112793854D01*
X150584299Y-112763020D01*
X150763926Y-112740362D01*
X150940142Y-112725840D01*
X150988975Y-112723540D01*
X151043434Y-112722235D01*
X151101183Y-112721879D01*
X151159885Y-112722427D01*
X151217204Y-112723831D01*
X151270805Y-112726047D01*
X151318350Y-112729028D01*
X151357504Y-112732728D01*
X151369597Y-112734299D01*
X151487208Y-112755896D01*
X151598342Y-112785893D01*
X151702676Y-112823995D01*
X151799889Y-112869911D01*
X151889658Y-112923348D01*
X151971662Y-112984013D01*
X152045577Y-113051614D01*
X152111082Y-113125857D01*
X152167854Y-113206450D01*
X152215572Y-113293101D01*
X152253912Y-113385516D01*
X152282554Y-113483404D01*
X152300297Y-113579781D01*
X152303687Y-113616430D01*
X152305293Y-113660270D01*
X152305219Y-113708438D01*
X152303569Y-113758068D01*
X152300447Y-113806295D01*
X152295959Y-113850253D01*
X152290208Y-113887076D01*
X152288855Y-113893612D01*
X152272367Y-113959383D01*
X152252289Y-114023433D01*
X152229856Y-114081965D01*
X152221775Y-114100229D01*
X152212663Y-114120518D01*
X152205609Y-114137184D01*
X152201646Y-114147741D01*
X152201145Y-114149896D01*
X152203919Y-114156107D01*
X152211500Y-114169584D01*
X152222774Y-114188429D01*
X152236628Y-114210740D01*
X152238663Y-114213957D01*
X152268975Y-114263579D01*
X152294121Y-114309248D01*
X152316219Y-114355189D01*
X152337387Y-114405626D01*
X152346427Y-114428950D01*
X152373272Y-114499555D01*
X152401965Y-114463562D01*
X152417998Y-114444788D01*
X152439286Y-114421707D01*
X152462822Y-114397508D01*
X152481630Y-114379121D01*
X152532601Y-114330674D01*
X152532601Y-114288191D01*
X152536756Y-114204741D01*
X152548742Y-114117027D01*
X152567840Y-114027938D01*
X152593334Y-113940360D01*
X152624504Y-113857182D01*
X152656888Y-113788336D01*
X152707306Y-113703971D01*
X152765912Y-113627085D01*
X152832437Y-113557844D01*
X152906616Y-113496413D01*
X152988181Y-113442958D01*
X153076866Y-113397644D01*
X153172403Y-113360637D01*
X153274524Y-113332103D01*
X153382964Y-113312207D01*
X153434485Y-113306042D01*
X153463682Y-113304045D01*
X153502294Y-113302803D01*
X153548140Y-113302277D01*
X153599037Y-113302425D01*
X153652802Y-113303206D01*
X153707254Y-113304579D01*
X153760211Y-113306504D01*
X153809491Y-113308938D01*
X153852910Y-113311842D01*
X153881685Y-113314446D01*
X153931073Y-113320140D01*
X153985923Y-113327284D01*
X154042843Y-113335377D01*
X154098438Y-113343916D01*
X154149314Y-113352399D01*
X154192077Y-113360324D01*
X154192789Y-113360466D01*
X154244001Y-113371322D01*
X154296821Y-113383664D01*
X154349686Y-113397031D01*
X154401036Y-113410965D01*
X154449311Y-113425007D01*
X154492948Y-113438699D01*
X154530387Y-113451580D01*
X154560066Y-113463192D01*
X154580426Y-113473076D01*
X154584482Y-113475635D01*
X154602380Y-113492806D01*
X154616708Y-113515286D01*
X154624890Y-113538578D01*
X154625880Y-113547910D01*
X154624318Y-113561812D01*
X154619825Y-113583948D01*
X154612927Y-113612383D01*
X154604149Y-113645183D01*
X154594017Y-113680412D01*
X154583056Y-113716137D01*
X154571792Y-113750421D01*
X154567584Y-113762550D01*
X154518258Y-113889552D01*
X154462800Y-114008571D01*
X154401391Y-114119430D01*
X154334210Y-114221955D01*
X154261437Y-114315970D01*
X154183252Y-114401299D01*
X154099835Y-114477766D01*
X154011366Y-114545196D01*
X153918024Y-114603413D01*
X153819990Y-114652242D01*
X153717443Y-114691507D01*
X153610564Y-114721032D01*
X153578975Y-114727710D01*
X153483038Y-114742039D01*
X153381377Y-114748686D01*
X153276165Y-114747791D01*
X153169571Y-114739492D01*
X153063768Y-114723928D01*
X152960926Y-114701239D01*
X152901855Y-114684359D01*
X152863102Y-114671689D01*
X152833832Y-114660470D01*
X152812244Y-114649578D01*
X152796536Y-114637889D01*
X152784906Y-114624279D01*
X152775553Y-114607625D01*
X152774202Y-114604721D01*
X152767078Y-114584967D01*
X152765932Y-114566919D01*
X152770609Y-114545559D01*
X152772197Y-114540548D01*
X152785523Y-114516165D01*
X152806643Y-114496083D01*
X152832848Y-114481741D01*
X152861427Y-114474577D01*
X152889669Y-114476029D01*
X152892493Y-114476737D01*
X152906824Y-114480904D01*
X152928714Y-114487587D01*
X152954762Y-114495737D01*
X152973051Y-114501562D01*
X153052494Y-114523143D01*
X153138751Y-114539578D01*
X153228221Y-114550452D01*
X153317300Y-114555351D01*
X153402384Y-114553863D01*
X153418896Y-114552740D01*
X153517062Y-114541165D01*
X153608622Y-114521855D01*
X153694933Y-114494268D01*
X153777350Y-114457861D01*
X153857230Y-114412091D01*
X153935930Y-114356416D01*
X153962751Y-114335059D01*
X154015617Y-114287146D01*
X154068825Y-114230089D01*
X154121412Y-114165330D01*
X154172414Y-114094306D01*
X154220870Y-114018457D01*
X154265815Y-113939223D01*
X154306286Y-113858044D01*
X154341322Y-113776358D01*
X154347895Y-113759287D01*
X154359195Y-113728066D01*
X154369415Y-113697493D01*
X154378058Y-113669305D01*
X154384633Y-113645242D01*
X154388645Y-113627040D01*
X154389602Y-113616438D01*
X154388960Y-113614657D01*
X154381026Y-113610869D01*
X154364066Y-113604848D01*
X154340254Y-113597238D01*
X154311764Y-113588681D01*
X154280768Y-113579821D01*
X154249440Y-113571300D01*
X154219953Y-113563762D01*
X154204419Y-113560062D01*
X154118580Y-113542316D01*
X154027783Y-113527175D01*
X153933889Y-113514755D01*
X153838758Y-113505170D01*
X153744251Y-113498535D01*
X153652229Y-113494966D01*
X153564552Y-113494577D01*
X153483082Y-113497482D01*
X153409680Y-113503798D01*
X153373462Y-113508760D01*
X153281484Y-113527628D01*
X153197479Y-113553866D01*
X153121145Y-113587722D01*
X153052182Y-113629441D01*
X152990290Y-113679270D01*
X152935166Y-113737455D01*
X152886510Y-113804241D01*
X152844021Y-113879876D01*
X152807399Y-113964604D01*
X152803561Y-113974911D01*
X152797736Y-113992590D01*
X152790815Y-114016334D01*
X152783390Y-114043766D01*
X152776052Y-114072508D01*
X152769392Y-114100183D01*
X152764004Y-114124415D01*
X152760479Y-114142827D01*
X152759387Y-114152346D01*
X152763935Y-114151381D01*
X152776565Y-114145238D01*
X152795758Y-114134743D01*
X152819993Y-114120726D01*
X152845232Y-114105556D01*
X152941544Y-114050064D01*
X153047510Y-113995144D01*
X153161153Y-113941635D01*
X153280500Y-113890376D01*
X153403578Y-113842209D01*
X153528412Y-113797972D01*
X153653027Y-113758506D01*
X153678160Y-113751141D01*
X153712405Y-113741822D01*
X153738385Y-113736216D01*
X153758543Y-113733883D01*
X153772511Y-113734110D01*
X153805600Y-113741648D01*
X153832871Y-113757171D01*
X153853270Y-113778943D01*
X153865741Y-113805234D01*
X153869229Y-113834310D01*
X153862680Y-113864440D01*
X153858013Y-113874554D01*
X153849671Y-113887791D01*
X153838965Y-113898820D01*
X153824134Y-113908578D01*
X153803418Y-113918003D01*
X153775055Y-113928035D01*
X153737285Y-113939610D01*
X153734232Y-113940506D01*
X153589320Y-113986529D01*
X153441699Y-114040356D01*
X153294748Y-114100720D01*
X153224767Y-114131952D01*
X153107243Y-114188421D01*
X153000371Y-114245312D01*
X152903176Y-114303236D01*
X152814681Y-114362806D01*
X152733910Y-114424636D01*
X152669254Y-114480658D01*
X152601509Y-114547066D01*
X152544737Y-114612034D01*
X152498535Y-114676332D01*
X152462498Y-114740726D01*
X152436222Y-114805984D01*
X152419302Y-114872874D01*
X152411336Y-114942164D01*
X152410562Y-114972044D01*
X152410486Y-115037275D01*
X153098112Y-115037304D01*
X153219804Y-115037356D01*
X153329918Y-115037501D01*
X153428502Y-115037739D01*
X153515607Y-115038072D01*
X153591283Y-115038498D01*
X153655580Y-115039019D01*
X153708549Y-115039635D01*
X153750240Y-115040346D01*
X153780702Y-115041154D01*
X153799987Y-115042057D01*
X153807703Y-115042920D01*
X153826457Y-115050247D01*
X153845493Y-115061432D01*
X153849484Y-115064438D01*
X153857227Y-115070711D01*
X153863854Y-115076693D01*
X153869447Y-115083219D01*
X153874087Y-115091125D01*
X153877859Y-115101246D01*
X153880843Y-115114417D01*
X153883123Y-115131474D01*
X153884780Y-115153252D01*
X153885897Y-115180586D01*
X153886557Y-115214311D01*
X153886841Y-115255262D01*
X153886833Y-115304276D01*
X153886614Y-115362186D01*
X153886268Y-115429829D01*
X153886230Y-115437040D01*
X153884593Y-115748944D01*
X153870580Y-115767667D01*
X153855910Y-115783522D01*
X153838408Y-115797734D01*
X153836129Y-115799222D01*
X153826972Y-115804421D01*
X153817322Y-115808080D01*
X153804859Y-115810537D01*
X153787262Y-115812130D01*
X153762210Y-115813196D01*
X153735296Y-115813896D01*
X153706235Y-115814652D01*
X153681851Y-115815458D01*
X153664237Y-115816231D01*
X153655486Y-115816890D01*
X153654900Y-115817063D01*
X153653725Y-115822396D01*
X153650397Y-115836877D01*
X153645210Y-115859243D01*
X153638457Y-115888230D01*
X153630434Y-115922575D01*
X153621433Y-115961014D01*
X153616911Y-115980295D01*
X153605876Y-116027333D01*
X153594170Y-116077237D01*
X153582419Y-116127338D01*
X153571250Y-116174967D01*
X153561289Y-116217454D01*
X153553340Y-116251363D01*
X153543500Y-116293328D01*
X153532120Y-116341816D01*
X153519484Y-116395621D01*
X153505876Y-116453538D01*
X153491580Y-116514361D01*
X153476878Y-116576886D01*
X153462055Y-116639906D01*
X153447395Y-116702216D01*
X153433180Y-116762611D01*
X153419695Y-116819885D01*
X153407222Y-116872834D01*
X153396047Y-116920251D01*
X153386452Y-116960931D01*
X153378721Y-116993669D01*
X153373137Y-117017259D01*
X153372924Y-117018155D01*
X153363045Y-117057722D01*
X153354024Y-117088258D01*
X153345049Y-117111271D01*
X153335308Y-117128268D01*
X153323989Y-117140758D01*
X153310280Y-117150249D01*
X153298731Y-117155959D01*
X153273252Y-117167254D01*
X152302526Y-117167137D01*
X152177965Y-117167118D01*
X152064502Y-117167092D01*
X151961605Y-117167051D01*
X151868742Y-117166990D01*
X151785380Y-117166905D01*
X151710988Y-117166790D01*
X151645034Y-117166639D01*
X151586985Y-117166447D01*
X151536309Y-117166209D01*
X151492475Y-117165919D01*
X151454949Y-117165571D01*
X151423201Y-117165162D01*
X151396698Y-117164684D01*
X151374908Y-117164133D01*
X151357298Y-117163504D01*
X151343338Y-117162790D01*
X151332494Y-117161987D01*
X151324234Y-117161089D01*
X151318027Y-117160091D01*
X151313341Y-117158987D01*
X151309642Y-117157772D01*
X151307865Y-117157066D01*
X151287813Y-117146576D01*
X151272100Y-117132718D01*
X151259585Y-117113716D01*
X151249126Y-117087794D01*
X151239584Y-117053174D01*
X151238669Y-117049307D01*
X151234698Y-117032364D01*
X151228568Y-117006246D01*
X151220568Y-116972190D01*
X151210990Y-116931432D01*
X151200123Y-116885209D01*
X151188259Y-116834756D01*
X151175689Y-116781312D01*
X151162702Y-116726110D01*
X151158122Y-116706646D01*
X151143156Y-116643042D01*
X151126328Y-116571508D01*
X151108221Y-116494527D01*
X151089419Y-116414580D01*
X151070505Y-116334149D01*
X151052063Y-116255717D01*
X151034676Y-116181765D01*
X151020147Y-116119954D01*
X150949966Y-115821373D01*
G37*
%TO.C,PN2222A*%
X149838000Y-100556200D02*
X153438000Y-100556200D01*
%TD*%
G36*
X128438000Y-80016613D02*
G01*
X128483387Y-80062000D01*
X128500000Y-80124000D01*
X128500000Y-80776000D01*
X128483387Y-80838000D01*
X128438000Y-80883387D01*
X128376000Y-80900000D01*
X118374000Y-80900000D01*
X118312000Y-80883387D01*
X118266613Y-80838000D01*
X118250000Y-80776000D01*
X118250000Y-80124000D01*
X118266613Y-80062000D01*
X118312000Y-80016613D01*
X118374000Y-80000000D01*
X128376000Y-80000000D01*
X128438000Y-80016613D01*
G37*
G36*
X148938000Y-80016613D02*
G01*
X148983387Y-80062000D01*
X149000000Y-80124000D01*
X149000000Y-80776000D01*
X148983387Y-80838000D01*
X148938000Y-80883387D01*
X148876000Y-80900000D01*
X138874000Y-80900000D01*
X138812000Y-80883387D01*
X138766613Y-80838000D01*
X138750000Y-80776000D01*
X138750000Y-80124000D01*
X138766613Y-80062000D01*
X138812000Y-80016613D01*
X138874000Y-80000000D01*
X148876000Y-80000000D01*
X148938000Y-80016613D01*
G37*
%LPC*%
D15*
%TO.C,22uf*%
X164800000Y-71117621D03*
D16*
X164800000Y-73617621D03*
%TD*%
D17*
%TO.C,+*%
X156000000Y-73660000D03*
D18*
X151000000Y-73660000D03*
%TD*%
%TO.C,+*%
X141000000Y-73660000D03*
D17*
X146000000Y-73660000D03*
%TD*%
%TO.C,+*%
X136000000Y-73660000D03*
D18*
X131000000Y-73660000D03*
%TD*%
D17*
%TO.C,-*%
X126000000Y-73660000D03*
D18*
X121000000Y-73660000D03*
%TD*%
D16*
%TO.C,2.7*%
X149225000Y-84328000D03*
D19*
X149225000Y-94488000D03*
%TD*%
D16*
%TO.C,C4*%
X165517200Y-123037600D03*
X160517200Y-123037600D03*
%TD*%
D20*
%TO.C,SW2*%
X151942800Y-109571800D03*
X151942800Y-107071800D03*
X151942800Y-104571800D03*
%TD*%
D21*
%TO.C,NRF24L01*%
X144780000Y-118110000D03*
D22*
X142240000Y-118110000D03*
X144780000Y-115570000D03*
X142240000Y-115570000D03*
X144780000Y-113030000D03*
X142240000Y-113030000D03*
X144780000Y-110490000D03*
X142240000Y-110490000D03*
%TD*%
D16*
%TO.C,10*%
X153238200Y-84277200D03*
D19*
X153238200Y-94437200D03*
%TD*%
D16*
%TO.C,C2*%
X166351600Y-100177600D03*
X166351600Y-95177600D03*
%TD*%
%TO.C,10*%
X161315400Y-94437200D03*
D19*
X161315400Y-84277200D03*
%TD*%
D16*
%TO.C,100nf*%
X140756000Y-123037600D03*
X145756000Y-123037600D03*
%TD*%
D23*
%TO.C,3.3V*%
X159004000Y-98701800D03*
D24*
X160274000Y-98701800D03*
X161544000Y-98701800D03*
%TD*%
D16*
%TO.C,4.7*%
X157302200Y-84277200D03*
D19*
X157302200Y-94437200D03*
%TD*%
D25*
%TO.C,TP4056*%
X119897300Y-86250000D03*
X119897300Y-100250000D03*
X142897300Y-86250000D03*
X142897300Y-100250000D03*
X142897300Y-88790000D03*
X142897300Y-97710000D03*
%TD*%
D16*
%TO.C,10*%
X169850000Y-110920000D03*
D19*
X169850000Y-121080000D03*
%TD*%
%TO.C,ATtiny84*%
X166715600Y-111968200D03*
X159095600Y-119588200D03*
X159095600Y-117048200D03*
X159095600Y-114508200D03*
X159095600Y-111968200D03*
X159095600Y-109428200D03*
X159095600Y-106888200D03*
X159095600Y-104348200D03*
X166715600Y-104348200D03*
X166715600Y-106888200D03*
X166715600Y-109428200D03*
X166715600Y-114508200D03*
X166715600Y-117048200D03*
D15*
X166715600Y-119588200D03*
%TD*%
D16*
%TO.C,C1*%
X166250000Y-89509600D03*
X166250000Y-84509600D03*
%TD*%
D23*
%TO.C,PN2222A*%
X150368000Y-98706200D03*
D24*
X151638000Y-98706200D03*
X152908000Y-98706200D03*
%TD*%
M02*
