M48
; DRILL file {KiCad 7.0.1} date Sun May 21 03:31:23 2023
; FORMAT={-:-/ absolute / metric / decimal}
; #@! TF.CreationDate,2023-05-21T03:31:23+02:00
; #@! TF.GenerationSoftware,Kicad,Pcbnew,7.0.1
; #@! TF.FileFunction,MixedPlating,1,2
FMAT,2
METRIC
; #@! TA.AperFunction,Plated,PTH,ComponentDrill
T1C0.750
; #@! TA.AperFunction,Plated,PTH,ViaDrill
T2C0.800
; #@! TA.AperFunction,Plated,PTH,ComponentDrill
T3C0.800
; #@! TA.AperFunction,Plated,PTH,ComponentDrill
T4C0.813
; #@! TA.AperFunction,Plated,PTH,ComponentDrill
T5C1.000
; #@! TA.AperFunction,Plated,PTH,ComponentDrill
T6C1.320
; #@! TA.AperFunction,Plated,PTH,ViaDrill
T7C1.500
%
G90
G05
T1
X150.368Y-98.706
X151.638Y-98.706
X152.908Y-98.706
X159.004Y-98.702
X160.274Y-98.702
X161.544Y-98.702
T2
X145.0Y-77.1
X148.3Y-123.05
X148.6Y-82.2
X150.368Y-96.368
X153.238Y-91.389
X156.2Y-106.4
X157.327Y-99.691
X158.1Y-123.05
X161.315Y-87.478
X161.315Y-91.034
X161.5Y-81.5
X163.779Y-101.702
X164.4Y-104.4
X166.25Y-87.046
X166.352Y-97.663
X166.4Y-81.5
T3
X140.756Y-123.038
X145.756Y-123.038
X149.225Y-84.328
X149.225Y-94.488
X153.238Y-84.277
X153.238Y-94.437
X157.302Y-84.277
X157.302Y-94.437
X159.096Y-104.348
X159.096Y-106.888
X159.096Y-109.428
X159.096Y-111.968
X159.096Y-114.508
X159.096Y-117.048
X159.096Y-119.588
X160.517Y-123.038
X161.315Y-84.277
X161.315Y-94.437
X164.8Y-71.118
X164.8Y-73.618
X165.517Y-123.038
X166.25Y-84.51
X166.25Y-89.51
X166.352Y-95.178
X166.352Y-100.178
X166.716Y-104.348
X166.716Y-106.888
X166.716Y-109.428
X166.716Y-111.968
X166.716Y-114.508
X166.716Y-117.048
X166.716Y-119.588
X169.85Y-110.92
X169.85Y-121.08
T4
X151.943Y-104.572
X151.943Y-107.072
X151.943Y-109.572
T5
X119.897Y-86.25
X119.897Y-100.25
X142.24Y-110.49
X142.24Y-113.03
X142.24Y-115.57
X142.24Y-118.11
X142.897Y-86.25
X142.897Y-88.79
X142.897Y-97.71
X142.897Y-100.25
X144.78Y-110.49
X144.78Y-113.03
X144.78Y-115.57
X144.78Y-118.11
T6
X121.0Y-73.66
X126.0Y-73.66
X131.0Y-73.66
X136.0Y-73.66
X141.0Y-73.66
X146.0Y-73.66
X151.0Y-73.66
X156.0Y-73.66
T7
X138.405Y-99.974
X139.116Y-103.988
X142.57Y-103.886
X148.25Y-120.1
X152.2Y-120.1
X156.25Y-120.1
X161.4Y-77.6
T0
M30
