%TF.GenerationSoftware,KiCad,Pcbnew,7.0.1*%
%TF.CreationDate,2023-05-21T03:30:21+02:00*%
%TF.ProjectId,Auto_plant_Backup,4175746f-5f70-46c6-916e-745f4261636b,rev?*%
%TF.SameCoordinates,Original*%
%TF.FileFunction,Copper,L2,Bot*%
%TF.FilePolarity,Positive*%
%FSLAX46Y46*%
G04 Gerber Fmt 4.6, Leading zero omitted, Abs format (unit mm)*
G04 Created by KiCad (PCBNEW 7.0.1) date 2023-05-21 03:30:21*
%MOMM*%
%LPD*%
G01*
G04 APERTURE LIST*
%TA.AperFunction,ComponentPad*%
%ADD10R,1.600000X1.600000*%
%TD*%
%TA.AperFunction,ComponentPad*%
%ADD11C,1.600000*%
%TD*%
%TA.AperFunction,ComponentPad*%
%ADD12O,1.980000X3.960000*%
%TD*%
%TA.AperFunction,ComponentPad*%
%ADD13R,1.980000X3.960000*%
%TD*%
%TA.AperFunction,ComponentPad*%
%ADD14O,1.600000X1.600000*%
%TD*%
%TA.AperFunction,ComponentPad*%
%ADD15C,1.524000*%
%TD*%
%TA.AperFunction,ComponentPad*%
%ADD16R,1.700000X1.700000*%
%TD*%
%TA.AperFunction,ComponentPad*%
%ADD17C,1.700000*%
%TD*%
%TA.AperFunction,ComponentPad*%
%ADD18R,1.050000X1.500000*%
%TD*%
%TA.AperFunction,ComponentPad*%
%ADD19O,1.050000X1.500000*%
%TD*%
%TA.AperFunction,ComponentPad*%
%ADD20C,2.000000*%
%TD*%
%TA.AperFunction,ViaPad*%
%ADD21C,3.000000*%
%TD*%
%TA.AperFunction,ViaPad*%
%ADD22C,1.800000*%
%TD*%
%TA.AperFunction,Conductor*%
%ADD23C,1.200000*%
%TD*%
%TA.AperFunction,Conductor*%
%ADD24C,0.800000*%
%TD*%
%TA.AperFunction,Conductor*%
%ADD25C,0.700000*%
%TD*%
%TA.AperFunction,Conductor*%
%ADD26C,0.400000*%
%TD*%
G04 APERTURE END LIST*
D10*
%TO.P,22uf,1*%
%TO.N,P_OUT*%
X164800000Y-71117621D03*
D11*
%TO.P,22uf,2*%
%TO.N,GND*%
X164800000Y-73617621D03*
%TD*%
D12*
%TO.P,+,2,Pin_2*%
%TO.N,Net-(J4-Pin_2)*%
X156000000Y-73660000D03*
D13*
%TO.P,+,1,Pin_1*%
%TO.N,P_OUT*%
X151000000Y-73660000D03*
%TD*%
%TO.P,+,1,Pin_1*%
%TO.N,Net-(J3-Pin_2)*%
X141000000Y-73660000D03*
D12*
%TO.P,+,2,Pin_2*%
%TO.N,BAT_V*%
X146000000Y-73660000D03*
%TD*%
%TO.P,+,2,Pin_2*%
%TO.N,Net-(J2-Pin_1)*%
X136000000Y-73660000D03*
D13*
%TO.P,+,1,Pin_1*%
%TO.N,Net-(J3-Pin_1)*%
X131000000Y-73660000D03*
%TD*%
D12*
%TO.P,-,2,Pin_2*%
%TO.N,Net-(J1-Pin_1)*%
X126000000Y-73660000D03*
D13*
%TO.P,-,1,Pin_1*%
%TO.N,Net-(J1-Pin_2)*%
X121000000Y-73660000D03*
%TD*%
D11*
%TO.P,2.7,1*%
%TO.N,BAT_V*%
X149225000Y-84328000D03*
D14*
%TO.P,2.7,2*%
%TO.N,PA1*%
X149225000Y-94488000D03*
%TD*%
D11*
%TO.P,C4,1*%
%TO.N,+3.3V*%
X165517200Y-123037600D03*
%TO.P,C4,2*%
%TO.N,GND*%
X160517200Y-123037600D03*
%TD*%
D15*
%TO.P,SW2,1,A*%
%TO.N,+3.3V*%
X151942800Y-109571800D03*
%TO.P,SW2,2,B*%
%TO.N,P_OUT*%
X151942800Y-107071800D03*
%TO.P,SW2,3,C*%
%TO.N,BAT_V*%
X151942800Y-104571800D03*
%TD*%
D16*
%TO.P,NRF24L01,1,GND*%
%TO.N,GND*%
X144780000Y-118110000D03*
D17*
%TO.P,NRF24L01,2,VCC*%
%TO.N,+3.3V*%
X142240000Y-118110000D03*
%TO.P,NRF24L01,3,CE*%
%TO.N,/CE*%
X144780000Y-115570000D03*
%TO.P,NRF24L01,4,~{CSN}*%
%TO.N,CSN*%
X142240000Y-115570000D03*
%TO.P,NRF24L01,5,SCK*%
%TO.N,/SCK*%
X144780000Y-113030000D03*
%TO.P,NRF24L01,6,MOSI*%
%TO.N,/MOSI*%
X142240000Y-113030000D03*
%TO.P,NRF24L01,7,MISO*%
%TO.N,/MISO*%
X144780000Y-110490000D03*
%TO.P,NRF24L01,IRQ,IRQ*%
%TO.N,unconnected-(U3-IRQ-Pad8)*%
X142240000Y-110490000D03*
%TD*%
D11*
%TO.P,10,1*%
%TO.N,PA1*%
X153238200Y-84277200D03*
D14*
%TO.P,10,2*%
%TO.N,GND*%
X153238200Y-94437200D03*
%TD*%
D11*
%TO.P,C2,1*%
%TO.N,+3.3V*%
X166351600Y-100177600D03*
%TO.P,C2,2*%
%TO.N,GND*%
X166351600Y-95177600D03*
%TD*%
%TO.P,10,1*%
%TO.N,Net-(Q1-B)*%
X161315400Y-94437200D03*
D14*
%TO.P,10,2*%
%TO.N,GND*%
X161315400Y-84277200D03*
%TD*%
D11*
%TO.P,100nf,1*%
%TO.N,+3.3V*%
X140756000Y-123037600D03*
%TO.P,100nf,2*%
%TO.N,GND*%
X145756000Y-123037600D03*
%TD*%
D18*
%TO.P,3.3V,1,GND*%
%TO.N,GND*%
X159004000Y-98701800D03*
D19*
%TO.P,3.3V,2,VI*%
%TO.N,BAT_V*%
X160274000Y-98701800D03*
%TO.P,3.3V,3,VO*%
%TO.N,+3.3V*%
X161544000Y-98701800D03*
%TD*%
D11*
%TO.P,4.7,1*%
%TO.N,Net-(U2-PA2)*%
X157302200Y-84277200D03*
D14*
%TO.P,4.7,2*%
%TO.N,Net-(Q1-B)*%
X157302200Y-94437200D03*
%TD*%
D20*
%TO.P,TP4056,1,VCC_IN*%
%TO.N,Net-(J1-Pin_2)*%
X119897300Y-86250000D03*
%TO.P,TP4056,2,GND*%
%TO.N,Net-(J1-Pin_1)*%
X119897300Y-100250000D03*
%TO.P,TP4056,3,GND*%
%TO.N,Net-(J3-Pin_2)*%
X142897300Y-86250000D03*
%TO.P,TP4056,4,BAT(-)*%
%TO.N,GND*%
X142897300Y-100250000D03*
%TO.P,TP4056,5,BAT(+)*%
%TO.N,Net-(J3-Pin_1)*%
X142897300Y-88790000D03*
%TO.P,TP4056,6,VCC_OUT*%
%TO.N,Net-(J2-Pin_1)*%
X142897300Y-97710000D03*
%TD*%
D11*
%TO.P,10,1*%
%TO.N,RESET*%
X169850000Y-110920000D03*
D14*
%TO.P,10,2*%
%TO.N,+3.3V*%
X169850000Y-121080000D03*
%TD*%
%TO.P,ATtiny84,RESET*%
%TO.N,RESET*%
X166715600Y-111968200D03*
%TO.P,ATtiny84,14*%
%TO.N,GND*%
X159095600Y-119588200D03*
%TO.P,ATtiny84,13*%
%TO.N,N/C*%
X159095600Y-117048200D03*
%TO.P,ATtiny84,12*%
X159095600Y-114508200D03*
%TO.P,ATtiny84,11*%
%TO.N,/CE*%
X159095600Y-111968200D03*
%TO.P,ATtiny84,10*%
%TO.N,CSN*%
X159095600Y-109428200D03*
%TO.P,ATtiny84,9*%
%TO.N,/SCK*%
X159095600Y-106888200D03*
%TO.P,ATtiny84,8*%
%TO.N,/MISO*%
X159095600Y-104348200D03*
%TO.P,ATtiny84,7*%
%TO.N,/MOSI*%
X166715600Y-104348200D03*
%TO.P,ATtiny84,6*%
%TO.N,PA1*%
X166715600Y-106888200D03*
%TO.P,ATtiny84,5*%
%TO.N,Net-(U2-PA2)*%
X166715600Y-109428200D03*
%TO.P,ATtiny84,3*%
%TO.N,N/C*%
X166715600Y-114508200D03*
%TO.P,ATtiny84,2*%
X166715600Y-117048200D03*
D10*
%TO.P,ATtiny84,1*%
%TO.N,+3.3V*%
X166715600Y-119588200D03*
%TD*%
D11*
%TO.P,C1,1*%
%TO.N,BAT_V*%
X166250000Y-89509600D03*
%TO.P,C1,2*%
%TO.N,GND*%
X166250000Y-84509600D03*
%TD*%
D18*
%TO.P,PN2222A,1,E*%
%TO.N,GND*%
X150368000Y-98706200D03*
D19*
%TO.P,PN2222A,2,B*%
%TO.N,Net-(Q1-B)*%
X151638000Y-98706200D03*
%TO.P,PN2222A,3,C*%
%TO.N,Net-(J4-Pin_2)*%
X152908000Y-98706200D03*
%TD*%
D21*
%TO.N,GND*%
X161400000Y-77600000D03*
D22*
%TO.N,BAT_V*%
X148600000Y-82200000D03*
X145000000Y-77100000D03*
%TO.N,PA1*%
X161315400Y-91033600D03*
X163779200Y-101701600D03*
D21*
%TO.N,GND*%
X142570200Y-103886000D03*
D22*
X158100000Y-123050000D03*
D21*
X148250000Y-120100000D03*
D22*
X161315400Y-87477600D03*
X157326900Y-99690662D03*
X166250000Y-87045800D03*
X148300000Y-123050000D03*
X150368000Y-96367600D03*
X166351600Y-97663000D03*
D21*
X138404600Y-99974400D03*
D22*
X153238200Y-91389200D03*
D21*
X139115800Y-103987600D03*
X152200000Y-120100000D03*
X156250000Y-120100000D03*
D22*
%TO.N,Net-(U2-PA2)*%
X166400000Y-81500000D03*
X161500000Y-81500000D03*
%TO.N,/MOSI*%
X164400000Y-104400000D03*
X156200000Y-106400000D03*
%TD*%
D23*
%TO.N,BAT_V*%
X145000000Y-77600000D02*
X145000000Y-77100000D01*
X148600000Y-82200000D02*
X148600000Y-81200000D01*
X148600000Y-81200000D02*
X145000000Y-77600000D01*
D24*
%TO.N,Net-(U2-PA2)*%
X161500000Y-81500000D02*
X166400000Y-81500000D01*
D25*
%TO.N,PA1*%
X161315400Y-91033600D02*
X162107500Y-91825700D01*
X161315400Y-91033600D02*
X163677600Y-93395800D01*
X163677600Y-93395800D02*
X163677600Y-101600000D01*
X163677600Y-101600000D02*
X163779200Y-101701600D01*
D26*
%TO.N,/MOSI*%
X163111800Y-105688200D02*
X156911800Y-105688200D01*
X156911800Y-105688200D02*
X156200000Y-106400000D01*
X164400000Y-104400000D02*
X163111800Y-105688200D01*
%TD*%
%TA.AperFunction,Conductor*%
%TO.N,GND*%
G36*
X169003736Y-64500726D02*
G01*
X169293796Y-64518271D01*
X169308659Y-64520076D01*
X169590798Y-64571780D01*
X169605335Y-64575363D01*
X169879172Y-64660695D01*
X169893163Y-64666000D01*
X170154743Y-64783727D01*
X170167989Y-64790680D01*
X170413465Y-64939075D01*
X170425776Y-64947573D01*
X170651573Y-65124473D01*
X170662781Y-65134403D01*
X170865596Y-65337218D01*
X170875526Y-65348426D01*
X170995481Y-65501538D01*
X171052422Y-65574217D01*
X171060928Y-65586540D01*
X171209316Y-65832004D01*
X171216275Y-65845263D01*
X171333997Y-66106831D01*
X171339306Y-66120832D01*
X171424635Y-66394663D01*
X171428219Y-66409201D01*
X171479923Y-66691340D01*
X171481728Y-66706205D01*
X171499274Y-66996264D01*
X171499500Y-67003751D01*
X171499500Y-109746258D01*
X171484694Y-109805018D01*
X171443811Y-109849745D01*
X171386615Y-109869759D01*
X171326765Y-109860279D01*
X171278554Y-109823572D01*
X171173561Y-109691915D01*
X171004625Y-109535165D01*
X170975743Y-109508366D01*
X170918205Y-109469137D01*
X170752775Y-109356349D01*
X170509641Y-109239262D01*
X170430098Y-109214726D01*
X170251771Y-109159719D01*
X169984929Y-109119500D01*
X169715071Y-109119500D01*
X169448228Y-109159719D01*
X169190359Y-109239262D01*
X168947228Y-109356347D01*
X168852993Y-109420595D01*
X168724259Y-109508365D01*
X168724255Y-109508368D01*
X168716582Y-109513600D01*
X168714936Y-109511186D01*
X168667422Y-109535165D01*
X168599071Y-109528749D01*
X168544609Y-109486954D01*
X168520729Y-109422590D01*
X168501030Y-109159720D01*
X168500983Y-109159097D01*
X168440934Y-108896005D01*
X168342343Y-108644802D01*
X168207415Y-108411098D01*
X168067387Y-108235509D01*
X168043445Y-108185793D01*
X168043445Y-108130607D01*
X168067387Y-108080890D01*
X168207415Y-107905302D01*
X168342343Y-107671598D01*
X168440934Y-107420395D01*
X168500983Y-107157303D01*
X168521149Y-106888200D01*
X168500983Y-106619097D01*
X168440934Y-106356005D01*
X168342343Y-106104802D01*
X168207415Y-105871098D01*
X168071090Y-105700152D01*
X168067390Y-105695512D01*
X168043446Y-105645791D01*
X168043446Y-105590606D01*
X168067388Y-105540888D01*
X168207415Y-105365302D01*
X168342343Y-105131598D01*
X168440934Y-104880395D01*
X168500983Y-104617303D01*
X168521149Y-104348200D01*
X168500983Y-104079097D01*
X168440934Y-103816005D01*
X168342343Y-103564802D01*
X168207415Y-103331098D01*
X168039161Y-103120115D01*
X167954054Y-103041147D01*
X167841343Y-102936566D01*
X167754232Y-102877175D01*
X167618375Y-102784549D01*
X167375241Y-102667462D01*
X167295698Y-102642926D01*
X167117371Y-102587919D01*
X166850529Y-102547700D01*
X166580671Y-102547700D01*
X166313828Y-102587919D01*
X166055959Y-102667462D01*
X165812824Y-102784549D01*
X165676967Y-102877175D01*
X165629892Y-102896611D01*
X165578975Y-102895486D01*
X165532806Y-102873988D01*
X165456687Y-102817006D01*
X165419461Y-102771920D01*
X165407033Y-102714788D01*
X165422165Y-102658315D01*
X165512372Y-102493113D01*
X165607375Y-102238401D01*
X165661472Y-101989714D01*
X165693284Y-101930097D01*
X165751632Y-101896012D01*
X165819184Y-101897581D01*
X165949828Y-101937880D01*
X166216671Y-101978100D01*
X166486529Y-101978100D01*
X166753372Y-101937880D01*
X167011241Y-101858338D01*
X167254375Y-101741251D01*
X167477341Y-101589235D01*
X167675161Y-101405685D01*
X167843415Y-101194702D01*
X167978343Y-100960998D01*
X168076934Y-100709795D01*
X168136983Y-100446703D01*
X168157149Y-100177600D01*
X168136983Y-99908497D01*
X168076934Y-99645405D01*
X167978343Y-99394202D01*
X167843415Y-99160498D01*
X167675161Y-98949515D01*
X167615546Y-98894200D01*
X167477343Y-98765966D01*
X167419805Y-98726737D01*
X167254375Y-98613949D01*
X167011241Y-98496862D01*
X166919012Y-98468413D01*
X166753371Y-98417319D01*
X166486529Y-98377100D01*
X166216671Y-98377100D01*
X165949828Y-98417319D01*
X165691959Y-98496862D01*
X165448828Y-98613947D01*
X165372618Y-98665906D01*
X165225859Y-98765965D01*
X165225854Y-98765969D01*
X165221952Y-98768630D01*
X165159053Y-98789981D01*
X165094159Y-98775806D01*
X165045891Y-98730173D01*
X165028100Y-98666176D01*
X165028100Y-96256626D01*
X165626126Y-96256626D01*
X165699115Y-96307733D01*
X165905273Y-96403866D01*
X166124997Y-96462741D01*
X166351600Y-96482566D01*
X166578202Y-96462741D01*
X166797926Y-96403866D01*
X167004080Y-96307734D01*
X167077072Y-96256625D01*
X166351601Y-95531153D01*
X166351600Y-95531153D01*
X165626126Y-96256625D01*
X165626126Y-96256626D01*
X165028100Y-96256626D01*
X165028100Y-95947206D01*
X165043647Y-95887090D01*
X165086390Y-95842048D01*
X165145610Y-95823376D01*
X165206458Y-95835756D01*
X165253675Y-95876083D01*
X165272572Y-95903071D01*
X165272574Y-95903072D01*
X165998046Y-95177601D01*
X165998046Y-95177600D01*
X165998045Y-95177599D01*
X166705153Y-95177599D01*
X167430625Y-95903072D01*
X167481734Y-95830080D01*
X167577866Y-95623926D01*
X167636741Y-95404202D01*
X167656566Y-95177599D01*
X167636741Y-94950997D01*
X167577866Y-94731273D01*
X167481733Y-94525115D01*
X167430625Y-94452126D01*
X166705153Y-95177599D01*
X165998045Y-95177599D01*
X165272573Y-94452126D01*
X165272573Y-94452127D01*
X165253675Y-94479117D01*
X165206459Y-94519444D01*
X165145611Y-94531824D01*
X165086390Y-94513152D01*
X165043647Y-94468111D01*
X165028100Y-94407994D01*
X165028100Y-94098573D01*
X165626126Y-94098573D01*
X166351600Y-94824046D01*
X166351601Y-94824046D01*
X167077072Y-94098574D01*
X167077071Y-94098572D01*
X167004084Y-94047466D01*
X166797926Y-93951333D01*
X166578202Y-93892458D01*
X166351600Y-93872633D01*
X166124997Y-93892458D01*
X165905272Y-93951333D01*
X165699116Y-94047465D01*
X165626127Y-94098573D01*
X165626126Y-94098573D01*
X165028100Y-94098573D01*
X165028100Y-93277649D01*
X165024973Y-93259915D01*
X165018758Y-93224673D01*
X165017348Y-93213955D01*
X165012663Y-93160395D01*
X165012663Y-93160392D01*
X164998740Y-93108432D01*
X164996401Y-93097877D01*
X164987065Y-93044930D01*
X164968672Y-92994396D01*
X164965419Y-92984076D01*
X164951503Y-92932137D01*
X164928774Y-92883396D01*
X164924639Y-92873414D01*
X164906244Y-92822872D01*
X164887259Y-92789990D01*
X164879347Y-92776288D01*
X164874359Y-92766705D01*
X164851635Y-92717971D01*
X164851634Y-92717970D01*
X164820781Y-92673905D01*
X164814980Y-92664800D01*
X164788090Y-92618226D01*
X164753527Y-92577035D01*
X164746945Y-92568458D01*
X164716093Y-92524396D01*
X164549001Y-92357305D01*
X163253108Y-91061412D01*
X163227995Y-91025242D01*
X163217105Y-90982580D01*
X163201361Y-90762440D01*
X163150080Y-90526702D01*
X163143576Y-90496803D01*
X163143575Y-90496799D01*
X163048572Y-90242087D01*
X162939205Y-90041795D01*
X162918290Y-90003491D01*
X162821588Y-89874313D01*
X162755371Y-89785858D01*
X162563142Y-89593629D01*
X162450892Y-89509599D01*
X164444450Y-89509599D01*
X164464616Y-89778700D01*
X164464617Y-89778703D01*
X164524666Y-90041795D01*
X164623257Y-90292998D01*
X164758185Y-90526702D01*
X164926439Y-90737685D01*
X165124259Y-90921235D01*
X165347226Y-91073251D01*
X165590359Y-91190338D01*
X165848228Y-91269880D01*
X166115071Y-91310100D01*
X166384929Y-91310100D01*
X166651772Y-91269880D01*
X166909641Y-91190338D01*
X167152775Y-91073251D01*
X167375741Y-90921235D01*
X167573561Y-90737685D01*
X167741815Y-90526702D01*
X167876743Y-90292998D01*
X167975334Y-90041795D01*
X168035383Y-89778703D01*
X168055549Y-89509600D01*
X168035383Y-89240497D01*
X167975334Y-88977405D01*
X167876743Y-88726202D01*
X167741815Y-88492498D01*
X167573561Y-88281515D01*
X167512603Y-88224954D01*
X167375743Y-88097966D01*
X167318205Y-88058737D01*
X167152775Y-87945949D01*
X166909641Y-87828862D01*
X166830097Y-87804326D01*
X166651771Y-87749319D01*
X166384929Y-87709100D01*
X166115071Y-87709100D01*
X165848228Y-87749319D01*
X165590359Y-87828862D01*
X165347228Y-87945947D01*
X165124257Y-88097966D01*
X164926439Y-88281515D01*
X164758184Y-88492499D01*
X164623257Y-88726201D01*
X164524666Y-88977404D01*
X164464616Y-89240499D01*
X164444450Y-89509599D01*
X162450892Y-89509599D01*
X162345513Y-89430713D01*
X162345514Y-89430713D01*
X162345508Y-89430709D01*
X162106919Y-89300431D01*
X162106917Y-89300430D01*
X162106913Y-89300428D01*
X161852201Y-89205425D01*
X161852196Y-89205423D01*
X161586561Y-89147639D01*
X161315400Y-89128244D01*
X161044238Y-89147639D01*
X160778603Y-89205423D01*
X160684562Y-89240499D01*
X160523887Y-89300428D01*
X160523884Y-89300429D01*
X160523880Y-89300431D01*
X160285291Y-89430709D01*
X160067655Y-89593631D01*
X159875431Y-89785855D01*
X159712509Y-90003491D01*
X159582231Y-90242080D01*
X159487223Y-90496803D01*
X159429439Y-90762438D01*
X159410044Y-91033600D01*
X159429439Y-91304761D01*
X159487223Y-91570396D01*
X159487225Y-91570401D01*
X159582228Y-91825113D01*
X159582230Y-91825117D01*
X159582231Y-91825119D01*
X159712509Y-92063708D01*
X159712513Y-92063713D01*
X159875429Y-92281342D01*
X160067658Y-92473571D01*
X160260889Y-92618223D01*
X160285291Y-92636490D01*
X160371199Y-92683399D01*
X160416823Y-92726348D01*
X160435622Y-92786120D01*
X160422798Y-92847452D01*
X160381625Y-92894684D01*
X160189661Y-93025562D01*
X159991839Y-93209115D01*
X159823584Y-93420099D01*
X159688657Y-93653801D01*
X159590066Y-93905004D01*
X159530016Y-94168099D01*
X159509850Y-94437200D01*
X159530016Y-94706300D01*
X159530017Y-94706303D01*
X159590066Y-94969395D01*
X159688657Y-95220598D01*
X159823585Y-95454302D01*
X159991839Y-95665285D01*
X160189659Y-95848835D01*
X160412626Y-96000851D01*
X160655759Y-96117938D01*
X160913628Y-96197480D01*
X161180471Y-96237700D01*
X161450329Y-96237700D01*
X161717172Y-96197480D01*
X161975041Y-96117938D01*
X162149299Y-96034019D01*
X162210053Y-96021935D01*
X162269072Y-96040746D01*
X162311628Y-96085759D01*
X162327100Y-96145740D01*
X162327100Y-96962624D01*
X162312896Y-97020250D01*
X162273540Y-97064674D01*
X162218046Y-97085720D01*
X162159131Y-97078566D01*
X162071374Y-97045284D01*
X161969801Y-97006762D01*
X161728474Y-96957495D01*
X161482377Y-96947577D01*
X161237865Y-96977267D01*
X161001288Y-97045792D01*
X160960807Y-97065000D01*
X160912644Y-97076870D01*
X160863682Y-97068913D01*
X160699803Y-97006763D01*
X160458474Y-96957495D01*
X160212377Y-96947577D01*
X159967865Y-96977267D01*
X159731292Y-97045791D01*
X159731289Y-97045792D01*
X159731290Y-97045792D01*
X159522312Y-97144954D01*
X159508767Y-97151381D01*
X159306066Y-97291295D01*
X159128432Y-97461914D01*
X159090159Y-97512847D01*
X158988482Y-97648156D01*
X158977131Y-97663261D01*
X158929346Y-97701639D01*
X158869018Y-97712443D01*
X158810884Y-97693035D01*
X158769146Y-97648156D01*
X158754000Y-97588769D01*
X158754000Y-97451800D01*
X158431176Y-97451800D01*
X158371624Y-97458202D01*
X158236910Y-97508447D01*
X158121811Y-97594611D01*
X158035647Y-97709710D01*
X157985402Y-97844424D01*
X157979000Y-97903976D01*
X157979000Y-98451800D01*
X158624500Y-98451800D01*
X158686500Y-98468413D01*
X158731887Y-98513800D01*
X158748500Y-98575800D01*
X158748500Y-98827800D01*
X158731887Y-98889800D01*
X158686500Y-98935187D01*
X158624500Y-98951800D01*
X157979000Y-98951800D01*
X157979000Y-99499624D01*
X157985402Y-99559175D01*
X158035647Y-99693889D01*
X158121811Y-99808988D01*
X158236910Y-99895152D01*
X158371624Y-99945397D01*
X158431176Y-99951800D01*
X158754000Y-99951800D01*
X158754000Y-99805463D01*
X158770117Y-99744330D01*
X158814278Y-99699089D01*
X158875003Y-99681499D01*
X158936508Y-99696134D01*
X158982803Y-99739189D01*
X159012314Y-99785857D01*
X159050482Y-99846214D01*
X159105660Y-99908497D01*
X159213809Y-100030573D01*
X159361710Y-100151330D01*
X159404598Y-100186346D01*
X159617902Y-100309497D01*
X159848198Y-100396837D01*
X160089523Y-100446104D01*
X160171557Y-100449410D01*
X160335622Y-100456022D01*
X160335622Y-100456021D01*
X160335626Y-100456022D01*
X160580132Y-100426333D01*
X160816710Y-100357808D01*
X160857191Y-100338598D01*
X160905353Y-100326728D01*
X160954316Y-100334684D01*
X161118198Y-100396837D01*
X161359523Y-100446104D01*
X161441557Y-100449410D01*
X161605622Y-100456022D01*
X161605622Y-100456021D01*
X161605626Y-100456022D01*
X161850132Y-100426333D01*
X162086710Y-100357808D01*
X162137120Y-100333887D01*
X162201205Y-100322397D01*
X162262278Y-100344960D01*
X162303502Y-100395355D01*
X162313511Y-100459689D01*
X162289545Y-100520225D01*
X162176311Y-100671487D01*
X162046031Y-100910080D01*
X162046029Y-100910084D01*
X162046028Y-100910087D01*
X162004824Y-101020556D01*
X161951023Y-101164803D01*
X161893239Y-101430438D01*
X161873844Y-101701600D01*
X161893239Y-101972761D01*
X161951023Y-102238396D01*
X161951025Y-102238401D01*
X162046028Y-102493113D01*
X162046030Y-102493117D01*
X162046031Y-102493119D01*
X162176309Y-102731708D01*
X162176313Y-102731713D01*
X162339229Y-102949342D01*
X162531458Y-103141571D01*
X162722512Y-103284593D01*
X162759738Y-103329679D01*
X162772166Y-103386811D01*
X162757033Y-103443286D01*
X162666828Y-103608487D01*
X162614348Y-103749190D01*
X162571823Y-103863203D01*
X162514039Y-104128838D01*
X162496608Y-104372547D01*
X162477239Y-104430740D01*
X162432351Y-104472532D01*
X162372924Y-104487700D01*
X161024335Y-104487700D01*
X160959676Y-104469507D01*
X160913990Y-104420268D01*
X160900682Y-104354430D01*
X160901149Y-104348196D01*
X160880983Y-104079099D01*
X160880983Y-104079097D01*
X160820934Y-103816005D01*
X160722343Y-103564802D01*
X160587415Y-103331098D01*
X160419161Y-103120115D01*
X160334054Y-103041147D01*
X160221343Y-102936566D01*
X160134232Y-102877175D01*
X159998375Y-102784549D01*
X159755241Y-102667462D01*
X159675698Y-102642926D01*
X159497371Y-102587919D01*
X159230529Y-102547700D01*
X158960671Y-102547700D01*
X158693828Y-102587919D01*
X158435959Y-102667462D01*
X158192828Y-102784547D01*
X157969857Y-102936566D01*
X157772039Y-103120115D01*
X157603784Y-103331099D01*
X157468857Y-103564801D01*
X157370266Y-103816004D01*
X157310216Y-104079099D01*
X157290050Y-104348196D01*
X157290518Y-104354430D01*
X157277210Y-104420268D01*
X157231524Y-104469507D01*
X157166865Y-104487700D01*
X156942395Y-104487700D01*
X156936669Y-104487568D01*
X156932823Y-104487390D01*
X156856118Y-104483844D01*
X156856116Y-104483844D01*
X156776266Y-104494982D01*
X156770578Y-104495642D01*
X156690262Y-104503084D01*
X156671681Y-104508371D01*
X156654891Y-104511913D01*
X156635769Y-104514581D01*
X156604343Y-104525113D01*
X156538586Y-104528705D01*
X156471160Y-104514039D01*
X156437224Y-104511611D01*
X156200000Y-104494644D01*
X155928838Y-104514039D01*
X155663203Y-104571823D01*
X155541276Y-104617300D01*
X155408487Y-104666828D01*
X155408484Y-104666829D01*
X155408480Y-104666831D01*
X155169891Y-104797109D01*
X154952255Y-104960031D01*
X154760031Y-105152255D01*
X154597109Y-105369891D01*
X154466831Y-105608480D01*
X154466829Y-105608484D01*
X154466828Y-105608487D01*
X154447572Y-105660115D01*
X154371823Y-105863203D01*
X154314039Y-106128838D01*
X154294644Y-106400000D01*
X154314039Y-106671161D01*
X154371823Y-106936796D01*
X154371825Y-106936801D01*
X154466828Y-107191513D01*
X154466830Y-107191517D01*
X154466831Y-107191519D01*
X154597109Y-107430108D01*
X154597113Y-107430113D01*
X154760029Y-107647742D01*
X154952258Y-107839971D01*
X155168281Y-108001685D01*
X155169891Y-108002890D01*
X155365802Y-108109864D01*
X155408487Y-108133172D01*
X155663199Y-108228175D01*
X155663202Y-108228175D01*
X155663203Y-108228176D01*
X155712852Y-108238976D01*
X155928840Y-108285961D01*
X156200000Y-108305355D01*
X156471160Y-108285961D01*
X156736801Y-108228175D01*
X156991513Y-108133172D01*
X157230113Y-108002887D01*
X157418518Y-107861847D01*
X157482998Y-107837506D01*
X157550518Y-107851355D01*
X157600213Y-107899116D01*
X157603783Y-107905301D01*
X157743810Y-108080887D01*
X157767754Y-108130607D01*
X157767754Y-108185793D01*
X157743810Y-108235513D01*
X157603784Y-108411099D01*
X157468857Y-108644801D01*
X157370266Y-108896004D01*
X157310216Y-109159099D01*
X157290050Y-109428199D01*
X157310216Y-109697300D01*
X157345011Y-109849745D01*
X157370266Y-109960395D01*
X157468857Y-110211598D01*
X157603785Y-110445302D01*
X157743810Y-110620887D01*
X157767754Y-110670606D01*
X157767754Y-110725791D01*
X157743810Y-110775512D01*
X157603784Y-110951099D01*
X157468857Y-111184801D01*
X157370266Y-111436004D01*
X157310216Y-111699099D01*
X157290050Y-111968200D01*
X157310216Y-112237300D01*
X157336755Y-112353575D01*
X157370266Y-112500395D01*
X157468857Y-112751598D01*
X157603785Y-112985302D01*
X157639431Y-113030000D01*
X157743810Y-113160887D01*
X157767754Y-113210607D01*
X157767754Y-113265793D01*
X157743810Y-113315513D01*
X157603784Y-113491099D01*
X157468857Y-113724801D01*
X157370266Y-113976004D01*
X157310216Y-114239099D01*
X157290050Y-114508199D01*
X157310216Y-114777300D01*
X157310217Y-114777303D01*
X157370266Y-115040395D01*
X157468857Y-115291598D01*
X157603785Y-115525302D01*
X157639430Y-115569999D01*
X157743810Y-115700887D01*
X157767754Y-115750607D01*
X157767754Y-115805793D01*
X157743810Y-115855513D01*
X157603784Y-116031099D01*
X157468857Y-116264801D01*
X157370266Y-116516004D01*
X157310216Y-116779099D01*
X157290050Y-117048200D01*
X157310216Y-117317300D01*
X157310217Y-117317303D01*
X157370266Y-117580395D01*
X157468857Y-117831598D01*
X157603785Y-118065302D01*
X157772039Y-118276285D01*
X157969859Y-118459835D01*
X158093338Y-118544021D01*
X158130287Y-118583472D01*
X158146943Y-118634896D01*
X158140139Y-118688519D01*
X158111168Y-118734153D01*
X158095941Y-118749379D01*
X157965465Y-118935719D01*
X157869333Y-119141873D01*
X157816728Y-119338199D01*
X157816728Y-119338200D01*
X160374472Y-119338200D01*
X160374471Y-119338199D01*
X160321866Y-119141873D01*
X160225734Y-118935719D01*
X160095258Y-118749380D01*
X160080033Y-118734155D01*
X160051060Y-118688521D01*
X160044256Y-118634896D01*
X160060912Y-118583472D01*
X160097860Y-118544022D01*
X160221341Y-118459835D01*
X160419161Y-118276285D01*
X160587415Y-118065302D01*
X160722343Y-117831598D01*
X160820934Y-117580395D01*
X160880983Y-117317303D01*
X160901149Y-117048200D01*
X160880983Y-116779097D01*
X160820934Y-116516005D01*
X160722343Y-116264802D01*
X160587415Y-116031098D01*
X160447387Y-115855509D01*
X160423445Y-115805793D01*
X160423445Y-115750607D01*
X160447387Y-115700890D01*
X160587415Y-115525302D01*
X160722343Y-115291598D01*
X160820934Y-115040395D01*
X160880983Y-114777303D01*
X160901149Y-114508200D01*
X160880983Y-114239097D01*
X160820934Y-113976005D01*
X160722343Y-113724802D01*
X160587415Y-113491098D01*
X160447387Y-113315509D01*
X160423445Y-113265793D01*
X160423445Y-113210607D01*
X160447387Y-113160890D01*
X160587415Y-112985302D01*
X160722343Y-112751598D01*
X160820934Y-112500395D01*
X160880983Y-112237303D01*
X160901149Y-111968200D01*
X160880983Y-111699097D01*
X160820934Y-111436005D01*
X160722343Y-111184802D01*
X160587415Y-110951098D01*
X160447387Y-110775509D01*
X160423445Y-110725793D01*
X160423445Y-110670607D01*
X160447387Y-110620890D01*
X160587415Y-110445302D01*
X160722343Y-110211598D01*
X160820934Y-109960395D01*
X160880983Y-109697303D01*
X160901149Y-109428200D01*
X160895764Y-109356347D01*
X160881030Y-109159720D01*
X160880983Y-109159097D01*
X160820934Y-108896005D01*
X160722343Y-108644802D01*
X160587415Y-108411098D01*
X160447387Y-108235509D01*
X160423445Y-108185793D01*
X160423445Y-108130607D01*
X160447387Y-108080890D01*
X160587415Y-107905302D01*
X160722343Y-107671598D01*
X160820934Y-107420395D01*
X160880983Y-107157303D01*
X160892513Y-107003434D01*
X160912004Y-106945424D01*
X160956863Y-106903801D01*
X161016167Y-106888700D01*
X163081205Y-106888700D01*
X163086931Y-106888832D01*
X163167481Y-106892556D01*
X163247386Y-106881409D01*
X163252989Y-106880759D01*
X163333336Y-106873315D01*
X163351917Y-106868027D01*
X163368709Y-106864485D01*
X163387833Y-106861818D01*
X163464302Y-106836187D01*
X163469738Y-106834504D01*
X163547328Y-106812429D01*
X163564607Y-106803824D01*
X163580482Y-106797249D01*
X163581520Y-106796901D01*
X163598785Y-106791115D01*
X163669248Y-106751866D01*
X163674292Y-106749208D01*
X163746485Y-106713260D01*
X163746485Y-106713259D01*
X163746489Y-106713258D01*
X163761905Y-106701615D01*
X163776269Y-106692255D01*
X163793153Y-106682852D01*
X163855225Y-106631306D01*
X163859663Y-106627791D01*
X163924036Y-106579181D01*
X163978376Y-106519571D01*
X163982310Y-106515451D01*
X164166222Y-106331539D01*
X164210568Y-106303040D01*
X164262748Y-106295538D01*
X164400000Y-106305355D01*
X164671160Y-106285961D01*
X164833092Y-106250735D01*
X164894687Y-106253013D01*
X164947576Y-106284668D01*
X164978690Y-106337877D01*
X164980339Y-106399493D01*
X164979500Y-106403173D01*
X164930216Y-106619099D01*
X164910050Y-106888200D01*
X164930216Y-107157300D01*
X164970826Y-107335222D01*
X164990266Y-107420395D01*
X165088857Y-107671598D01*
X165223785Y-107905302D01*
X165353083Y-108067436D01*
X165363810Y-108080887D01*
X165387754Y-108130607D01*
X165387754Y-108185793D01*
X165363810Y-108235513D01*
X165223784Y-108411099D01*
X165088857Y-108644801D01*
X164990266Y-108896004D01*
X164930216Y-109159099D01*
X164910050Y-109428199D01*
X164930216Y-109697300D01*
X164965011Y-109849745D01*
X164990266Y-109960395D01*
X165088857Y-110211598D01*
X165223785Y-110445302D01*
X165363810Y-110620887D01*
X165387754Y-110670606D01*
X165387754Y-110725791D01*
X165363810Y-110775512D01*
X165223784Y-110951099D01*
X165088857Y-111184801D01*
X164990266Y-111436004D01*
X164930216Y-111699099D01*
X164910050Y-111968200D01*
X164930216Y-112237300D01*
X164956755Y-112353575D01*
X164990266Y-112500395D01*
X165088857Y-112751598D01*
X165223785Y-112985302D01*
X165259431Y-113030000D01*
X165363810Y-113160887D01*
X165387754Y-113210607D01*
X165387754Y-113265793D01*
X165363810Y-113315513D01*
X165223784Y-113491099D01*
X165088857Y-113724801D01*
X164990266Y-113976004D01*
X164930216Y-114239099D01*
X164910050Y-114508199D01*
X164930216Y-114777300D01*
X164930217Y-114777303D01*
X164990266Y-115040395D01*
X165088857Y-115291598D01*
X165223785Y-115525302D01*
X165259430Y-115569999D01*
X165363810Y-115700887D01*
X165387754Y-115750607D01*
X165387754Y-115805793D01*
X165363810Y-115855513D01*
X165223784Y-116031099D01*
X165088857Y-116264801D01*
X164990266Y-116516004D01*
X164930216Y-116779099D01*
X164910050Y-117048200D01*
X164930216Y-117317300D01*
X164990266Y-117580395D01*
X165088857Y-117831598D01*
X165177006Y-117984277D01*
X165192712Y-118031304D01*
X165188738Y-118080724D01*
X165165721Y-118124638D01*
X165075901Y-118234793D01*
X164981691Y-118415149D01*
X164968905Y-118459835D01*
X164925714Y-118610782D01*
X164918803Y-118688521D01*
X164915100Y-118730166D01*
X164915100Y-120446233D01*
X164925714Y-120565617D01*
X164981691Y-120761250D01*
X165036968Y-120867072D01*
X165075902Y-120941607D01*
X165186564Y-121077323D01*
X165212920Y-121136196D01*
X165206138Y-121200344D01*
X165168052Y-121252406D01*
X165123490Y-121271930D01*
X165124308Y-121274581D01*
X165115428Y-121277319D01*
X165115428Y-121277320D01*
X164985793Y-121317307D01*
X164857559Y-121356862D01*
X164614428Y-121473947D01*
X164391457Y-121625966D01*
X164193639Y-121809515D01*
X164025384Y-122020499D01*
X163890457Y-122254201D01*
X163791866Y-122505404D01*
X163731816Y-122768499D01*
X163711650Y-123037599D01*
X163731816Y-123306700D01*
X163731817Y-123306703D01*
X163791866Y-123569795D01*
X163890457Y-123820998D01*
X164025385Y-124054702D01*
X164193639Y-124265685D01*
X164193641Y-124265687D01*
X164193642Y-124265688D01*
X164214026Y-124284602D01*
X164246417Y-124333671D01*
X164252563Y-124392145D01*
X164231082Y-124446877D01*
X164186805Y-124485561D01*
X164129685Y-124499500D01*
X161017537Y-124499500D01*
X160953672Y-124481789D01*
X160908052Y-124433715D01*
X160893707Y-124369011D01*
X160914736Y-124306160D01*
X160965132Y-124263118D01*
X161169680Y-124167734D01*
X161242672Y-124116625D01*
X160517201Y-123391153D01*
X160517200Y-123391153D01*
X159791726Y-124116625D01*
X159791726Y-124116626D01*
X159864715Y-124167733D01*
X160069268Y-124263118D01*
X160119664Y-124306160D01*
X160140693Y-124369011D01*
X160126348Y-124433715D01*
X160080728Y-124481789D01*
X160016863Y-124499500D01*
X146256337Y-124499500D01*
X146192472Y-124481789D01*
X146146852Y-124433715D01*
X146132507Y-124369011D01*
X146153536Y-124306160D01*
X146203932Y-124263118D01*
X146408480Y-124167734D01*
X146481472Y-124116625D01*
X145756001Y-123391153D01*
X145756000Y-123391153D01*
X145030526Y-124116625D01*
X145030526Y-124116626D01*
X145103515Y-124167733D01*
X145308068Y-124263118D01*
X145358464Y-124306160D01*
X145379493Y-124369011D01*
X145365148Y-124433715D01*
X145319528Y-124481789D01*
X145255663Y-124499500D01*
X142143515Y-124499500D01*
X142086395Y-124485561D01*
X142042118Y-124446877D01*
X142020637Y-124392145D01*
X142026783Y-124333671D01*
X142059174Y-124284602D01*
X142068846Y-124275626D01*
X142079561Y-124265685D01*
X142247815Y-124054702D01*
X142382743Y-123820998D01*
X142481334Y-123569795D01*
X142541383Y-123306703D01*
X142561549Y-123037600D01*
X144451033Y-123037600D01*
X144470858Y-123264202D01*
X144529733Y-123483926D01*
X144625866Y-123690084D01*
X144676972Y-123763071D01*
X144676974Y-123763072D01*
X145402446Y-123037601D01*
X146109553Y-123037601D01*
X146835025Y-123763072D01*
X146886134Y-123690080D01*
X146982266Y-123483926D01*
X147041141Y-123264202D01*
X147060966Y-123037600D01*
X159212233Y-123037600D01*
X159232058Y-123264202D01*
X159290933Y-123483926D01*
X159387066Y-123690084D01*
X159438172Y-123763071D01*
X159438174Y-123763072D01*
X160163646Y-123037601D01*
X160870753Y-123037601D01*
X161596225Y-123763072D01*
X161647334Y-123690080D01*
X161743466Y-123483926D01*
X161802341Y-123264202D01*
X161822166Y-123037600D01*
X161802341Y-122810997D01*
X161743466Y-122591273D01*
X161647333Y-122385115D01*
X161596225Y-122312126D01*
X160870753Y-123037600D01*
X160870753Y-123037601D01*
X160163646Y-123037601D01*
X160163646Y-123037600D01*
X159438173Y-122312126D01*
X159438173Y-122312127D01*
X159387065Y-122385116D01*
X159290933Y-122591272D01*
X159232058Y-122810997D01*
X159212233Y-123037600D01*
X147060966Y-123037600D01*
X147041141Y-122810997D01*
X146982266Y-122591273D01*
X146886133Y-122385115D01*
X146835025Y-122312126D01*
X146109553Y-123037600D01*
X146109553Y-123037601D01*
X145402446Y-123037601D01*
X145402446Y-123037600D01*
X144676973Y-122312126D01*
X144676973Y-122312127D01*
X144625865Y-122385116D01*
X144529733Y-122591272D01*
X144470858Y-122810997D01*
X144451033Y-123037600D01*
X142561549Y-123037600D01*
X142541383Y-122768497D01*
X142481334Y-122505405D01*
X142382743Y-122254202D01*
X142247815Y-122020498D01*
X142198431Y-121958573D01*
X145030526Y-121958573D01*
X145756000Y-122684046D01*
X145756001Y-122684046D01*
X146481472Y-121958574D01*
X146481471Y-121958573D01*
X159791726Y-121958573D01*
X160517200Y-122684046D01*
X160517201Y-122684046D01*
X161242672Y-121958574D01*
X161242671Y-121958572D01*
X161169684Y-121907466D01*
X160963526Y-121811333D01*
X160743802Y-121752458D01*
X160517200Y-121732633D01*
X160290597Y-121752458D01*
X160070872Y-121811333D01*
X159864716Y-121907465D01*
X159791727Y-121958573D01*
X159791726Y-121958573D01*
X146481471Y-121958573D01*
X146481471Y-121958572D01*
X146408484Y-121907466D01*
X146202326Y-121811333D01*
X145982602Y-121752458D01*
X145756000Y-121732633D01*
X145529397Y-121752458D01*
X145309672Y-121811333D01*
X145103516Y-121907465D01*
X145030527Y-121958573D01*
X145030526Y-121958573D01*
X142198431Y-121958573D01*
X142079561Y-121809515D01*
X141996702Y-121732633D01*
X141881743Y-121625966D01*
X141824205Y-121586737D01*
X141658775Y-121473949D01*
X141415641Y-121356862D01*
X141336097Y-121332326D01*
X141157771Y-121277319D01*
X140890929Y-121237100D01*
X140621071Y-121237100D01*
X140354228Y-121277319D01*
X140096359Y-121356862D01*
X139853228Y-121473947D01*
X139630257Y-121625966D01*
X139432439Y-121809515D01*
X139264184Y-122020499D01*
X139129257Y-122254201D01*
X139030666Y-122505404D01*
X138970616Y-122768499D01*
X138950450Y-123037599D01*
X138970616Y-123306700D01*
X138970617Y-123306703D01*
X139030666Y-123569795D01*
X139129257Y-123820998D01*
X139264185Y-124054702D01*
X139432439Y-124265685D01*
X139432441Y-124265687D01*
X139432442Y-124265688D01*
X139452826Y-124284602D01*
X139485217Y-124333671D01*
X139491363Y-124392145D01*
X139469882Y-124446877D01*
X139425605Y-124485561D01*
X139368485Y-124499500D01*
X139003751Y-124499500D01*
X138996264Y-124499274D01*
X138706205Y-124481728D01*
X138691340Y-124479923D01*
X138409201Y-124428219D01*
X138394663Y-124424635D01*
X138120832Y-124339306D01*
X138106831Y-124333997D01*
X137845263Y-124216275D01*
X137832004Y-124209316D01*
X137586540Y-124060928D01*
X137574217Y-124052422D01*
X137348426Y-123875526D01*
X137337218Y-123865596D01*
X137134403Y-123662781D01*
X137124473Y-123651573D01*
X137060404Y-123569795D01*
X136947573Y-123425776D01*
X136939075Y-123413465D01*
X136790680Y-123167989D01*
X136783727Y-123154743D01*
X136666000Y-122893163D01*
X136660693Y-122879167D01*
X136648575Y-122840280D01*
X136575363Y-122605335D01*
X136571780Y-122590798D01*
X136520076Y-122308659D01*
X136518271Y-122293794D01*
X136500726Y-122003736D01*
X136500500Y-121996249D01*
X136500500Y-118109999D01*
X140384772Y-118109999D01*
X140403657Y-118374027D01*
X140459921Y-118632673D01*
X140459923Y-118632678D01*
X140552426Y-118880689D01*
X140552428Y-118880692D01*
X140679282Y-119113009D01*
X140745967Y-119202089D01*
X140837913Y-119324915D01*
X141025085Y-119512087D01*
X141184012Y-119631058D01*
X141236990Y-119670717D01*
X141289349Y-119699307D01*
X141469311Y-119797574D01*
X141717322Y-119890077D01*
X141717325Y-119890077D01*
X141717326Y-119890078D01*
X141765667Y-119900593D01*
X141975974Y-119946343D01*
X142240000Y-119965227D01*
X142504026Y-119946343D01*
X142762678Y-119890077D01*
X142901766Y-119838200D01*
X157816728Y-119838200D01*
X157869333Y-120034526D01*
X157965465Y-120240680D01*
X158095941Y-120427019D01*
X158256780Y-120587858D01*
X158443119Y-120718334D01*
X158649273Y-120814466D01*
X158845599Y-120867071D01*
X158845600Y-120867072D01*
X158845600Y-119838200D01*
X159345600Y-119838200D01*
X159345600Y-120867071D01*
X159541926Y-120814466D01*
X159748080Y-120718334D01*
X159934419Y-120587858D01*
X160095258Y-120427019D01*
X160225734Y-120240680D01*
X160321866Y-120034526D01*
X160374472Y-119838200D01*
X159345600Y-119838200D01*
X158845600Y-119838200D01*
X157816728Y-119838200D01*
X142901766Y-119838200D01*
X143010689Y-119797574D01*
X143243011Y-119670716D01*
X143454915Y-119512087D01*
X143541061Y-119425940D01*
X143579924Y-119399638D01*
X143625786Y-119389661D01*
X143672071Y-119397444D01*
X143822624Y-119453597D01*
X143882176Y-119460000D01*
X144530000Y-119460000D01*
X144530000Y-118360000D01*
X145030000Y-118360000D01*
X145030000Y-119460000D01*
X145677824Y-119460000D01*
X145737375Y-119453597D01*
X145872089Y-119403352D01*
X145987188Y-119317188D01*
X146073352Y-119202089D01*
X146123597Y-119067375D01*
X146130000Y-119007824D01*
X146130000Y-118360000D01*
X145030000Y-118360000D01*
X144530000Y-118360000D01*
X144530000Y-117984000D01*
X144546613Y-117922000D01*
X144592000Y-117876613D01*
X144654000Y-117860000D01*
X146130000Y-117860000D01*
X146130000Y-117212176D01*
X146123597Y-117152624D01*
X146067444Y-117002071D01*
X146059661Y-116955786D01*
X146069638Y-116909924D01*
X146095940Y-116871061D01*
X146182087Y-116784915D01*
X146340716Y-116573011D01*
X146467574Y-116340689D01*
X146560077Y-116092678D01*
X146616343Y-115834026D01*
X146635227Y-115570000D01*
X146616343Y-115305974D01*
X146560077Y-115047322D01*
X146467574Y-114799311D01*
X146340716Y-114566989D01*
X146196477Y-114374307D01*
X146174579Y-114326357D01*
X146174579Y-114273640D01*
X146196474Y-114225695D01*
X146340716Y-114033011D01*
X146467574Y-113800689D01*
X146560077Y-113552678D01*
X146616343Y-113294026D01*
X146635227Y-113030000D01*
X146616343Y-112765974D01*
X146560077Y-112507322D01*
X146467574Y-112259311D01*
X146340716Y-112026989D01*
X146196475Y-111834306D01*
X146174579Y-111786358D01*
X146174579Y-111733642D01*
X146196475Y-111685693D01*
X146340716Y-111493011D01*
X146467574Y-111260689D01*
X146560077Y-111012678D01*
X146616343Y-110754026D01*
X146635227Y-110490000D01*
X146616343Y-110225974D01*
X146560077Y-109967322D01*
X146467574Y-109719311D01*
X146387027Y-109571800D01*
X150175357Y-109571800D01*
X150195098Y-109835222D01*
X150202981Y-109869759D01*
X150253880Y-110092763D01*
X150350390Y-110338664D01*
X150482471Y-110567436D01*
X150564747Y-110670607D01*
X150647173Y-110773966D01*
X150840815Y-110953640D01*
X150840818Y-110953642D01*
X151059079Y-111102450D01*
X151059082Y-111102451D01*
X151059083Y-111102452D01*
X151297078Y-111217064D01*
X151297080Y-111217064D01*
X151297081Y-111217065D01*
X151549507Y-111294929D01*
X151810719Y-111334300D01*
X152074881Y-111334300D01*
X152336093Y-111294929D01*
X152588519Y-111217065D01*
X152826521Y-111102450D01*
X153044782Y-110953642D01*
X153238427Y-110773966D01*
X153403129Y-110567436D01*
X153535210Y-110338664D01*
X153631720Y-110092763D01*
X153690501Y-109835224D01*
X153710242Y-109571800D01*
X153690501Y-109308376D01*
X153631720Y-109050837D01*
X153535210Y-108804936D01*
X153403129Y-108576164D01*
X153261933Y-108399110D01*
X153237991Y-108349393D01*
X153237991Y-108294207D01*
X153261935Y-108244488D01*
X153403129Y-108067436D01*
X153535210Y-107838664D01*
X153631720Y-107592763D01*
X153690501Y-107335224D01*
X153710242Y-107071800D01*
X153690501Y-106808376D01*
X153631720Y-106550837D01*
X153535210Y-106304936D01*
X153403129Y-106076164D01*
X153261933Y-105899110D01*
X153237991Y-105849393D01*
X153237991Y-105794207D01*
X153261933Y-105744489D01*
X153403129Y-105567436D01*
X153535210Y-105338664D01*
X153631720Y-105092763D01*
X153690501Y-104835224D01*
X153710242Y-104571800D01*
X153690501Y-104308376D01*
X153631720Y-104050837D01*
X153535210Y-103804936D01*
X153403129Y-103576164D01*
X153238427Y-103369634D01*
X153195366Y-103329679D01*
X153044784Y-103189959D01*
X152942059Y-103119922D01*
X152826521Y-103041150D01*
X152826518Y-103041149D01*
X152826516Y-103041147D01*
X152588521Y-102926535D01*
X152336092Y-102848670D01*
X152074881Y-102809300D01*
X151810719Y-102809300D01*
X151549507Y-102848670D01*
X151297078Y-102926535D01*
X151059083Y-103041147D01*
X150840815Y-103189959D01*
X150647173Y-103369633D01*
X150482470Y-103576165D01*
X150350390Y-103804935D01*
X150253880Y-104050836D01*
X150195098Y-104308377D01*
X150175357Y-104571800D01*
X150195098Y-104835222D01*
X150245728Y-105057048D01*
X150253880Y-105092763D01*
X150350390Y-105338664D01*
X150482471Y-105567436D01*
X150623664Y-105744486D01*
X150647608Y-105794206D01*
X150647608Y-105849391D01*
X150623665Y-105899111D01*
X150482469Y-106076166D01*
X150350390Y-106304935D01*
X150253880Y-106550836D01*
X150195098Y-106808377D01*
X150175357Y-107071800D01*
X150195098Y-107335222D01*
X150253880Y-107592763D01*
X150350390Y-107838664D01*
X150482469Y-108067433D01*
X150623664Y-108244488D01*
X150647607Y-108294208D01*
X150647607Y-108349392D01*
X150623664Y-108399112D01*
X150482469Y-108576166D01*
X150350390Y-108804935D01*
X150253880Y-109050836D01*
X150195098Y-109308377D01*
X150175357Y-109571800D01*
X146387027Y-109571800D01*
X146352389Y-109508366D01*
X146340717Y-109486990D01*
X146242920Y-109356349D01*
X146182087Y-109275085D01*
X145994915Y-109087913D01*
X145829655Y-108964201D01*
X145783009Y-108929282D01*
X145597581Y-108828031D01*
X145550689Y-108802426D01*
X145302678Y-108709923D01*
X145302673Y-108709921D01*
X145044027Y-108653657D01*
X144780000Y-108634772D01*
X144515972Y-108653657D01*
X144257326Y-108709921D01*
X144133316Y-108756174D01*
X144009311Y-108802426D01*
X144009308Y-108802427D01*
X144009307Y-108802428D01*
X143776987Y-108929284D01*
X143584310Y-109073521D01*
X143536358Y-109095420D01*
X143483642Y-109095420D01*
X143435690Y-109073521D01*
X143243012Y-108929284D01*
X143057581Y-108828031D01*
X143010689Y-108802426D01*
X142762678Y-108709923D01*
X142762673Y-108709921D01*
X142504027Y-108653657D01*
X142240000Y-108634772D01*
X141975972Y-108653657D01*
X141717326Y-108709921D01*
X141593316Y-108756174D01*
X141469311Y-108802426D01*
X141469308Y-108802427D01*
X141469307Y-108802428D01*
X141236990Y-108929282D01*
X141025082Y-109087915D01*
X140837915Y-109275082D01*
X140679282Y-109486990D01*
X140567386Y-109691914D01*
X140552426Y-109719311D01*
X140520459Y-109805018D01*
X140459921Y-109967326D01*
X140403657Y-110225972D01*
X140384772Y-110489999D01*
X140403657Y-110754027D01*
X140459921Y-111012673D01*
X140459923Y-111012678D01*
X140552426Y-111260689D01*
X140552428Y-111260692D01*
X140679284Y-111493012D01*
X140823521Y-111685690D01*
X140845420Y-111733642D01*
X140845420Y-111786358D01*
X140823521Y-111834310D01*
X140679284Y-112026987D01*
X140613160Y-112148085D01*
X140552426Y-112259311D01*
X140506174Y-112383316D01*
X140459921Y-112507326D01*
X140403657Y-112765972D01*
X140384772Y-113030000D01*
X140403657Y-113294027D01*
X140459921Y-113552673D01*
X140459923Y-113552678D01*
X140552426Y-113800689D01*
X140552428Y-113800692D01*
X140679284Y-114033012D01*
X140823521Y-114225690D01*
X140845420Y-114273642D01*
X140845420Y-114326358D01*
X140823521Y-114374310D01*
X140679284Y-114566987D01*
X140564445Y-114777300D01*
X140552426Y-114799311D01*
X140506174Y-114923316D01*
X140459921Y-115047326D01*
X140403657Y-115305972D01*
X140384772Y-115569999D01*
X140403657Y-115834027D01*
X140459921Y-116092673D01*
X140459923Y-116092678D01*
X140552426Y-116340689D01*
X140552428Y-116340692D01*
X140679284Y-116573012D01*
X140823521Y-116765690D01*
X140845420Y-116813642D01*
X140845420Y-116866358D01*
X140823521Y-116914310D01*
X140679284Y-117106987D01*
X140564445Y-117317300D01*
X140552426Y-117339311D01*
X140520381Y-117425227D01*
X140459921Y-117587326D01*
X140403657Y-117845972D01*
X140384772Y-118109999D01*
X136500500Y-118109999D01*
X136500500Y-108828031D01*
X136497978Y-108802426D01*
X136466789Y-108485750D01*
X136415554Y-108228175D01*
X136399692Y-108148431D01*
X136399691Y-108148428D01*
X136399690Y-108148422D01*
X136299850Y-107819295D01*
X136168231Y-107501538D01*
X136168229Y-107501534D01*
X136006101Y-107198214D01*
X135815018Y-106912239D01*
X135795808Y-106888832D01*
X135729780Y-106808376D01*
X135596826Y-106646370D01*
X135353629Y-106403173D01*
X135087760Y-106184981D01*
X134801785Y-105993898D01*
X134498465Y-105831770D01*
X134180710Y-105700152D01*
X134180709Y-105700151D01*
X134180705Y-105700150D01*
X133851578Y-105600310D01*
X133851577Y-105600309D01*
X133851568Y-105600307D01*
X133514254Y-105533211D01*
X133171969Y-105499500D01*
X133035799Y-105499500D01*
X119003751Y-105499500D01*
X118996264Y-105499274D01*
X118706205Y-105481728D01*
X118691340Y-105479923D01*
X118409201Y-105428219D01*
X118394663Y-105424635D01*
X118120832Y-105339306D01*
X118106831Y-105333997D01*
X117845263Y-105216275D01*
X117832004Y-105209316D01*
X117586537Y-105060926D01*
X117574217Y-105052422D01*
X117348426Y-104875526D01*
X117337218Y-104865596D01*
X117134403Y-104662781D01*
X117124473Y-104651573D01*
X117097622Y-104617300D01*
X116947573Y-104425776D01*
X116939075Y-104413465D01*
X116790680Y-104167989D01*
X116783727Y-104154743D01*
X116666000Y-103893163D01*
X116660693Y-103879167D01*
X116655718Y-103863203D01*
X116575363Y-103605335D01*
X116571780Y-103590798D01*
X116534398Y-103386811D01*
X116520075Y-103308657D01*
X116518271Y-103293794D01*
X116517714Y-103284593D01*
X116500726Y-103003736D01*
X116500500Y-102996249D01*
X116500500Y-100250000D01*
X117891689Y-100250000D01*
X117912104Y-100535429D01*
X117972929Y-100815041D01*
X117972931Y-100815046D01*
X118027368Y-100960998D01*
X118072934Y-101083163D01*
X118210072Y-101334313D01*
X118263501Y-101405685D01*
X118381561Y-101563395D01*
X118583905Y-101765739D01*
X118707602Y-101858337D01*
X118812986Y-101937227D01*
X118909113Y-101989716D01*
X119064139Y-102074367D01*
X119332254Y-102174369D01*
X119332257Y-102174369D01*
X119332258Y-102174370D01*
X119384517Y-102185738D01*
X119611872Y-102235196D01*
X119897300Y-102255610D01*
X120182728Y-102235196D01*
X120462346Y-102174369D01*
X120730461Y-102074367D01*
X120981615Y-101937226D01*
X121210695Y-101765739D01*
X121413039Y-101563395D01*
X121480251Y-101473610D01*
X142027242Y-101473610D01*
X142074066Y-101510055D01*
X142292693Y-101628368D01*
X142527806Y-101709083D01*
X142773007Y-101750000D01*
X143021593Y-101750000D01*
X143266793Y-101709083D01*
X143501906Y-101628368D01*
X143720533Y-101510053D01*
X143767356Y-101473609D01*
X142897300Y-100603553D01*
X142027242Y-101473609D01*
X142027242Y-101473610D01*
X121480251Y-101473610D01*
X121584526Y-101334315D01*
X121721667Y-101083161D01*
X121821669Y-100815046D01*
X121882496Y-100535428D01*
X121902910Y-100250000D01*
X121882496Y-99964572D01*
X121821669Y-99684954D01*
X121721667Y-99416839D01*
X121590543Y-99176704D01*
X121584527Y-99165686D01*
X121501182Y-99054351D01*
X121413039Y-98936605D01*
X121210695Y-98734261D01*
X121049974Y-98613947D01*
X120981613Y-98562772D01*
X120730463Y-98425634D01*
X120730462Y-98425633D01*
X120730461Y-98425633D01*
X120462346Y-98325631D01*
X120462341Y-98325629D01*
X120182729Y-98264804D01*
X119897300Y-98244389D01*
X119611870Y-98264804D01*
X119332258Y-98325629D01*
X119064136Y-98425634D01*
X118812986Y-98562772D01*
X118583902Y-98734263D01*
X118381563Y-98936602D01*
X118210072Y-99165686D01*
X118072934Y-99416836D01*
X117972929Y-99684958D01*
X117912104Y-99964570D01*
X117891689Y-100250000D01*
X116500500Y-100250000D01*
X116500500Y-97710000D01*
X140891689Y-97710000D01*
X140912104Y-97995429D01*
X140972929Y-98275041D01*
X140991798Y-98325631D01*
X141055664Y-98496862D01*
X141072934Y-98543163D01*
X141210072Y-98794313D01*
X141238434Y-98832200D01*
X141381561Y-99023395D01*
X141381563Y-99023397D01*
X141583906Y-99225740D01*
X141618931Y-99251960D01*
X141657543Y-99299998D01*
X141668258Y-99360692D01*
X141648429Y-99419047D01*
X141573567Y-99533631D01*
X141473713Y-99761278D01*
X141412686Y-100002267D01*
X141392158Y-100249999D01*
X141412686Y-100497732D01*
X141473713Y-100738721D01*
X141573568Y-100966370D01*
X141673863Y-101119882D01*
X141673864Y-101119882D01*
X142809618Y-99984128D01*
X142865205Y-99952034D01*
X142929393Y-99952034D01*
X142984980Y-99984128D01*
X144120734Y-101119882D01*
X144221030Y-100966369D01*
X144320886Y-100738721D01*
X144381913Y-100497732D01*
X144402441Y-100249999D01*
X144381913Y-100002267D01*
X144320886Y-99761278D01*
X144221033Y-99533634D01*
X144201688Y-99504024D01*
X149343000Y-99504024D01*
X149349402Y-99563575D01*
X149399647Y-99698289D01*
X149485811Y-99813388D01*
X149600910Y-99899552D01*
X149735624Y-99949797D01*
X149795176Y-99956200D01*
X150118000Y-99956200D01*
X150118000Y-99809863D01*
X150134117Y-99748730D01*
X150178278Y-99703489D01*
X150239003Y-99685899D01*
X150300508Y-99700534D01*
X150346803Y-99743589D01*
X150414482Y-99850614D01*
X150465762Y-99908497D01*
X150577809Y-100034973D01*
X150725710Y-100155729D01*
X150768598Y-100190746D01*
X150981902Y-100313897D01*
X151212198Y-100401237D01*
X151453523Y-100450504D01*
X151535557Y-100453809D01*
X151699622Y-100460422D01*
X151699622Y-100460421D01*
X151699626Y-100460422D01*
X151944132Y-100430733D01*
X152180710Y-100362208D01*
X152221191Y-100342998D01*
X152269353Y-100331128D01*
X152318316Y-100339084D01*
X152482198Y-100401237D01*
X152723523Y-100450504D01*
X152805557Y-100453809D01*
X152969622Y-100460422D01*
X152969622Y-100460421D01*
X152969626Y-100460422D01*
X153214132Y-100430733D01*
X153450710Y-100362208D01*
X153673231Y-100256620D01*
X153875934Y-100116704D01*
X154053568Y-99946085D01*
X154201532Y-99749180D01*
X154315994Y-99531090D01*
X154393991Y-99297464D01*
X154433500Y-99054351D01*
X154433500Y-98419722D01*
X154418644Y-98235696D01*
X154359700Y-97996551D01*
X154263158Y-97769958D01*
X154131518Y-97561786D01*
X154046937Y-97466314D01*
X153968190Y-97377426D01*
X153777402Y-97221654D01*
X153564098Y-97098503D01*
X153333801Y-97011162D01*
X153092474Y-96961895D01*
X152846377Y-96951977D01*
X152601865Y-96981667D01*
X152365288Y-97050192D01*
X152324807Y-97069400D01*
X152276644Y-97081270D01*
X152227682Y-97073313D01*
X152063803Y-97011163D01*
X151822474Y-96961895D01*
X151576377Y-96951977D01*
X151331865Y-96981667D01*
X151095292Y-97050191D01*
X150872767Y-97155781D01*
X150670066Y-97295695D01*
X150492432Y-97466314D01*
X150420690Y-97561786D01*
X150347775Y-97658820D01*
X150341131Y-97667661D01*
X150293346Y-97706039D01*
X150233018Y-97716843D01*
X150174884Y-97697435D01*
X150133146Y-97652556D01*
X150118000Y-97593169D01*
X150118000Y-97456200D01*
X149795176Y-97456200D01*
X149735624Y-97462602D01*
X149600910Y-97512847D01*
X149485811Y-97599011D01*
X149399647Y-97714110D01*
X149349402Y-97848824D01*
X149343000Y-97908376D01*
X149343000Y-98456200D01*
X149988500Y-98456200D01*
X150050500Y-98472813D01*
X150095887Y-98518200D01*
X150112500Y-98580200D01*
X150112500Y-98832200D01*
X150095887Y-98894200D01*
X150050500Y-98939587D01*
X149988500Y-98956200D01*
X149343000Y-98956200D01*
X149343000Y-99504024D01*
X144201688Y-99504024D01*
X144146170Y-99419047D01*
X144126341Y-99360690D01*
X144137057Y-99299995D01*
X144175667Y-99251960D01*
X144210695Y-99225739D01*
X144413039Y-99023395D01*
X144584526Y-98794315D01*
X144721667Y-98543161D01*
X144821669Y-98275046D01*
X144882496Y-97995428D01*
X144902910Y-97710000D01*
X144882496Y-97424572D01*
X144821669Y-97144954D01*
X144721667Y-96876839D01*
X144584526Y-96625685D01*
X144413039Y-96396605D01*
X144210695Y-96194261D01*
X144020192Y-96051652D01*
X143981613Y-96022772D01*
X143730463Y-95885634D01*
X143730462Y-95885633D01*
X143730461Y-95885633D01*
X143462346Y-95785631D01*
X143462341Y-95785629D01*
X143182729Y-95724804D01*
X142897300Y-95704389D01*
X142611870Y-95724804D01*
X142332258Y-95785629D01*
X142064136Y-95885634D01*
X141812986Y-96022772D01*
X141583902Y-96194263D01*
X141381563Y-96396602D01*
X141210072Y-96625686D01*
X141072934Y-96876836D01*
X140972929Y-97144958D01*
X140912104Y-97424570D01*
X140891689Y-97710000D01*
X116500500Y-97710000D01*
X116500500Y-94488000D01*
X147419450Y-94488000D01*
X147439616Y-94757100D01*
X147439617Y-94757103D01*
X147499666Y-95020195D01*
X147598257Y-95271398D01*
X147733185Y-95505102D01*
X147901439Y-95716085D01*
X148099259Y-95899635D01*
X148322226Y-96051651D01*
X148565359Y-96168738D01*
X148823228Y-96248280D01*
X149090071Y-96288500D01*
X149359929Y-96288500D01*
X149626772Y-96248280D01*
X149884641Y-96168738D01*
X150127775Y-96051651D01*
X150350741Y-95899635D01*
X150548561Y-95716085D01*
X150716815Y-95505102D01*
X150851743Y-95271398D01*
X150950334Y-95020195D01*
X151010383Y-94757103D01*
X151015621Y-94687200D01*
X151959328Y-94687200D01*
X152011933Y-94883526D01*
X152108065Y-95089680D01*
X152238541Y-95276019D01*
X152399380Y-95436858D01*
X152585719Y-95567334D01*
X152791873Y-95663466D01*
X152988199Y-95716071D01*
X152988200Y-95716072D01*
X152988200Y-94687200D01*
X153488200Y-94687200D01*
X153488200Y-95716071D01*
X153684526Y-95663466D01*
X153890680Y-95567334D01*
X154077019Y-95436858D01*
X154237858Y-95276019D01*
X154368334Y-95089680D01*
X154464466Y-94883526D01*
X154517072Y-94687200D01*
X153488200Y-94687200D01*
X152988200Y-94687200D01*
X151959328Y-94687200D01*
X151015621Y-94687200D01*
X151030549Y-94488000D01*
X151026742Y-94437200D01*
X155496650Y-94437200D01*
X155516816Y-94706300D01*
X155516817Y-94706303D01*
X155576866Y-94969395D01*
X155675457Y-95220598D01*
X155810385Y-95454302D01*
X155978639Y-95665285D01*
X156176459Y-95848835D01*
X156399426Y-96000851D01*
X156642559Y-96117938D01*
X156900428Y-96197480D01*
X157167271Y-96237700D01*
X157437129Y-96237700D01*
X157703972Y-96197480D01*
X157961841Y-96117938D01*
X158204975Y-96000851D01*
X158427941Y-95848835D01*
X158625761Y-95665285D01*
X158794015Y-95454302D01*
X158928943Y-95220598D01*
X159027534Y-94969395D01*
X159087583Y-94706303D01*
X159107749Y-94437200D01*
X159087583Y-94168097D01*
X159027534Y-93905005D01*
X158928943Y-93653802D01*
X158794015Y-93420098D01*
X158625761Y-93209115D01*
X158625760Y-93209114D01*
X158427943Y-93025566D01*
X158367088Y-92984076D01*
X158204975Y-92873549D01*
X157961841Y-92756462D01*
X157868662Y-92727720D01*
X157703971Y-92676919D01*
X157437129Y-92636700D01*
X157167271Y-92636700D01*
X156900428Y-92676919D01*
X156642559Y-92756462D01*
X156399428Y-92873547D01*
X156176457Y-93025566D01*
X155978639Y-93209115D01*
X155810384Y-93420099D01*
X155675457Y-93653801D01*
X155576866Y-93905004D01*
X155516816Y-94168099D01*
X155496650Y-94437200D01*
X151026742Y-94437200D01*
X151010383Y-94218897D01*
X151003148Y-94187200D01*
X151959328Y-94187200D01*
X152988200Y-94187200D01*
X152988200Y-93158328D01*
X153488200Y-93158328D01*
X153488200Y-94187200D01*
X154517072Y-94187200D01*
X154517071Y-94187199D01*
X154464466Y-93990873D01*
X154368334Y-93784719D01*
X154237858Y-93598380D01*
X154077019Y-93437541D01*
X153890680Y-93307065D01*
X153684526Y-93210933D01*
X153488200Y-93158328D01*
X152988200Y-93158328D01*
X152988199Y-93158328D01*
X152791873Y-93210933D01*
X152585719Y-93307065D01*
X152399380Y-93437541D01*
X152238541Y-93598380D01*
X152108065Y-93784719D01*
X152011933Y-93990873D01*
X151959328Y-94187199D01*
X151959328Y-94187200D01*
X151003148Y-94187200D01*
X150950334Y-93955805D01*
X150851743Y-93704602D01*
X150716815Y-93470898D01*
X150548561Y-93259915D01*
X150441301Y-93160392D01*
X150350743Y-93076366D01*
X150276227Y-93025562D01*
X150127775Y-92924349D01*
X149884641Y-92807262D01*
X149753376Y-92766772D01*
X149626771Y-92727719D01*
X149359929Y-92687500D01*
X149090071Y-92687500D01*
X148823228Y-92727719D01*
X148565359Y-92807262D01*
X148322228Y-92924347D01*
X148099257Y-93076366D01*
X147901439Y-93259915D01*
X147733184Y-93470899D01*
X147598257Y-93704601D01*
X147499666Y-93955804D01*
X147439616Y-94218899D01*
X147419450Y-94488000D01*
X116500500Y-94488000D01*
X116500500Y-88790000D01*
X140891689Y-88790000D01*
X140912104Y-89075429D01*
X140972929Y-89355041D01*
X140972931Y-89355046D01*
X141030576Y-89509599D01*
X141072934Y-89623163D01*
X141210072Y-89874313D01*
X141295817Y-89988854D01*
X141381561Y-90103395D01*
X141583905Y-90305739D01*
X141755714Y-90434354D01*
X141812986Y-90477227D01*
X141903593Y-90526702D01*
X142064139Y-90614367D01*
X142332254Y-90714369D01*
X142332257Y-90714369D01*
X142332258Y-90714370D01*
X142384517Y-90725738D01*
X142611872Y-90775196D01*
X142897300Y-90795610D01*
X143182728Y-90775196D01*
X143462346Y-90714369D01*
X143730461Y-90614367D01*
X143981615Y-90477226D01*
X144210695Y-90305739D01*
X144413039Y-90103395D01*
X144584526Y-89874315D01*
X144721667Y-89623161D01*
X144821669Y-89355046D01*
X144882496Y-89075428D01*
X144902910Y-88790000D01*
X144882496Y-88504572D01*
X144821669Y-88224954D01*
X144721667Y-87956839D01*
X144584526Y-87705685D01*
X144584524Y-87705682D01*
X144501152Y-87594309D01*
X144479253Y-87546357D01*
X144479253Y-87493640D01*
X144501150Y-87445690D01*
X144584526Y-87334315D01*
X144721667Y-87083161D01*
X144821669Y-86815046D01*
X144882496Y-86535428D01*
X144902910Y-86250000D01*
X144882496Y-85964572D01*
X144821669Y-85684954D01*
X144721667Y-85416839D01*
X144660835Y-85305435D01*
X144584527Y-85165686D01*
X144505859Y-85060598D01*
X144413039Y-84936605D01*
X144210695Y-84734261D01*
X144096154Y-84648517D01*
X143981613Y-84562772D01*
X143730463Y-84425634D01*
X143730462Y-84425633D01*
X143730461Y-84425633D01*
X143462346Y-84325631D01*
X143462341Y-84325629D01*
X143182729Y-84264804D01*
X142897300Y-84244389D01*
X142611870Y-84264804D01*
X142332258Y-84325629D01*
X142064136Y-84425634D01*
X141812986Y-84562772D01*
X141583902Y-84734263D01*
X141381563Y-84936602D01*
X141210072Y-85165686D01*
X141072934Y-85416836D01*
X140972929Y-85684958D01*
X140912104Y-85964570D01*
X140891689Y-86250000D01*
X140912104Y-86535429D01*
X140972929Y-86815041D01*
X141072934Y-87083163D01*
X141210074Y-87334317D01*
X141293447Y-87445690D01*
X141315346Y-87493642D01*
X141315346Y-87546358D01*
X141293447Y-87594310D01*
X141210074Y-87705682D01*
X141072934Y-87956836D01*
X140972929Y-88224958D01*
X140912104Y-88504570D01*
X140891689Y-88790000D01*
X116500500Y-88790000D01*
X116500500Y-86249999D01*
X117891689Y-86249999D01*
X117912104Y-86535429D01*
X117972929Y-86815041D01*
X118072934Y-87083163D01*
X118210072Y-87334313D01*
X118210075Y-87334317D01*
X118381561Y-87563395D01*
X118583905Y-87765739D01*
X118668228Y-87828862D01*
X118812986Y-87937227D01*
X118848903Y-87956839D01*
X119064139Y-88074367D01*
X119332254Y-88174369D01*
X119332257Y-88174369D01*
X119332258Y-88174370D01*
X119384517Y-88185738D01*
X119611872Y-88235196D01*
X119897300Y-88255610D01*
X120182728Y-88235196D01*
X120462346Y-88174369D01*
X120730461Y-88074367D01*
X120981615Y-87937226D01*
X121210695Y-87765739D01*
X121413039Y-87563395D01*
X121584526Y-87334315D01*
X121721667Y-87083161D01*
X121821669Y-86815046D01*
X121882496Y-86535428D01*
X121902910Y-86250000D01*
X121882496Y-85964572D01*
X121821669Y-85684954D01*
X121721667Y-85416839D01*
X121660835Y-85305435D01*
X121584527Y-85165686D01*
X121505859Y-85060598D01*
X121413039Y-84936605D01*
X121210695Y-84734261D01*
X121096154Y-84648517D01*
X120981613Y-84562772D01*
X120730463Y-84425634D01*
X120730462Y-84425633D01*
X120730461Y-84425633D01*
X120462346Y-84325631D01*
X120462341Y-84325629D01*
X120182729Y-84264804D01*
X119897300Y-84244389D01*
X119611870Y-84264804D01*
X119332258Y-84325629D01*
X119064136Y-84425634D01*
X118812986Y-84562772D01*
X118583902Y-84734263D01*
X118381563Y-84936602D01*
X118210072Y-85165686D01*
X118072934Y-85416836D01*
X117972929Y-85684958D01*
X117912104Y-85964570D01*
X117891689Y-86249999D01*
X116500500Y-86249999D01*
X116500500Y-77099999D01*
X143094644Y-77099999D01*
X143114039Y-77371161D01*
X143171823Y-77636796D01*
X143171825Y-77636801D01*
X143266828Y-77891513D01*
X143266830Y-77891517D01*
X143266831Y-77891519D01*
X143397109Y-78130108D01*
X143397113Y-78130113D01*
X143560029Y-78347742D01*
X143560031Y-78347744D01*
X143604084Y-78391797D01*
X143622130Y-78414688D01*
X143701164Y-78543659D01*
X143864776Y-78735224D01*
X143909047Y-78773035D01*
X143916182Y-78779631D01*
X146728936Y-81592385D01*
X146760232Y-81645131D01*
X146762421Y-81706423D01*
X146714039Y-81928837D01*
X146694644Y-82200000D01*
X146714039Y-82471161D01*
X146771823Y-82736796D01*
X146786128Y-82775149D01*
X146866828Y-82991513D01*
X146866830Y-82991517D01*
X146866831Y-82991519D01*
X146997109Y-83230108D01*
X147037799Y-83284463D01*
X147160029Y-83447742D01*
X147352258Y-83639971D01*
X147444021Y-83708664D01*
X147475809Y-83743753D01*
X147492129Y-83788199D01*
X147490600Y-83835522D01*
X147439616Y-84058897D01*
X147419450Y-84328000D01*
X147439616Y-84597100D01*
X147439617Y-84597103D01*
X147499666Y-84860195D01*
X147598257Y-85111398D01*
X147733185Y-85345102D01*
X147901439Y-85556085D01*
X148099259Y-85739635D01*
X148322226Y-85891651D01*
X148565359Y-86008738D01*
X148823228Y-86088280D01*
X149090071Y-86128500D01*
X149359929Y-86128500D01*
X149626772Y-86088280D01*
X149884641Y-86008738D01*
X150127775Y-85891651D01*
X150350741Y-85739635D01*
X150548561Y-85556085D01*
X150716815Y-85345102D01*
X150851743Y-85111398D01*
X150950334Y-84860195D01*
X151010383Y-84597103D01*
X151030549Y-84328000D01*
X151026742Y-84277199D01*
X151432650Y-84277199D01*
X151452816Y-84546300D01*
X151452817Y-84546303D01*
X151512866Y-84809395D01*
X151611457Y-85060598D01*
X151746385Y-85294302D01*
X151914639Y-85505285D01*
X152112459Y-85688835D01*
X152335426Y-85840851D01*
X152578559Y-85957938D01*
X152836428Y-86037480D01*
X153103271Y-86077700D01*
X153373129Y-86077700D01*
X153639972Y-86037480D01*
X153897841Y-85957938D01*
X154140975Y-85840851D01*
X154363941Y-85688835D01*
X154561761Y-85505285D01*
X154730015Y-85294302D01*
X154864943Y-85060598D01*
X154963534Y-84809395D01*
X155023583Y-84546303D01*
X155043749Y-84277200D01*
X155043749Y-84277199D01*
X155496650Y-84277199D01*
X155516816Y-84546300D01*
X155516817Y-84546303D01*
X155576866Y-84809395D01*
X155675457Y-85060598D01*
X155810385Y-85294302D01*
X155978639Y-85505285D01*
X156176459Y-85688835D01*
X156399426Y-85840851D01*
X156642559Y-85957938D01*
X156900428Y-86037480D01*
X157167271Y-86077700D01*
X157437129Y-86077700D01*
X157703972Y-86037480D01*
X157961841Y-85957938D01*
X158204975Y-85840851D01*
X158427941Y-85688835D01*
X158535941Y-85588626D01*
X165524526Y-85588626D01*
X165597515Y-85639733D01*
X165803673Y-85735866D01*
X166023397Y-85794741D01*
X166249999Y-85814566D01*
X166476602Y-85794741D01*
X166696326Y-85735866D01*
X166902480Y-85639734D01*
X166975472Y-85588625D01*
X166250001Y-84863153D01*
X166250000Y-84863153D01*
X165524526Y-85588625D01*
X165524526Y-85588626D01*
X158535941Y-85588626D01*
X158625761Y-85505285D01*
X158794015Y-85294302D01*
X158928943Y-85060598D01*
X159027534Y-84809395D01*
X159087583Y-84546303D01*
X159089015Y-84527200D01*
X160036528Y-84527200D01*
X160089133Y-84723526D01*
X160185265Y-84929680D01*
X160315741Y-85116019D01*
X160476580Y-85276858D01*
X160662919Y-85407334D01*
X160869073Y-85503466D01*
X161065399Y-85556071D01*
X161065400Y-85556072D01*
X161065400Y-84527200D01*
X161565400Y-84527200D01*
X161565400Y-85556071D01*
X161761726Y-85503466D01*
X161967880Y-85407334D01*
X162154219Y-85276858D01*
X162315058Y-85116019D01*
X162445534Y-84929680D01*
X162541666Y-84723526D01*
X162594272Y-84527200D01*
X161565400Y-84527200D01*
X161065400Y-84527200D01*
X160036528Y-84527200D01*
X159089015Y-84527200D01*
X159090334Y-84509599D01*
X164945033Y-84509599D01*
X164964858Y-84736202D01*
X165023733Y-84955926D01*
X165119866Y-85162084D01*
X165170972Y-85235071D01*
X165170973Y-85235072D01*
X165896446Y-84509600D01*
X165896446Y-84509599D01*
X166603553Y-84509599D01*
X167329025Y-85235072D01*
X167380134Y-85162080D01*
X167476266Y-84955926D01*
X167535141Y-84736202D01*
X167554966Y-84509599D01*
X167535141Y-84282997D01*
X167476266Y-84063273D01*
X167380133Y-83857115D01*
X167329025Y-83784126D01*
X166603553Y-84509599D01*
X165896446Y-84509599D01*
X165896446Y-84509598D01*
X165170973Y-83784127D01*
X165119865Y-83857116D01*
X165023733Y-84063272D01*
X164964858Y-84282997D01*
X164945033Y-84509599D01*
X159090334Y-84509599D01*
X159107749Y-84277200D01*
X159087583Y-84008097D01*
X159027534Y-83745005D01*
X158928943Y-83493802D01*
X158794015Y-83260098D01*
X158625761Y-83049115D01*
X158625760Y-83049114D01*
X158427943Y-82865566D01*
X158370405Y-82826337D01*
X158204975Y-82713549D01*
X157961841Y-82596462D01*
X157882297Y-82571926D01*
X157703971Y-82516919D01*
X157437129Y-82476700D01*
X157167271Y-82476700D01*
X156900428Y-82516919D01*
X156642559Y-82596462D01*
X156399428Y-82713547D01*
X156176457Y-82865566D01*
X155978639Y-83049115D01*
X155810384Y-83260099D01*
X155675457Y-83493801D01*
X155576866Y-83745004D01*
X155516816Y-84008099D01*
X155496650Y-84277199D01*
X155043749Y-84277199D01*
X155023583Y-84008097D01*
X154963534Y-83745005D01*
X154864943Y-83493802D01*
X154730015Y-83260098D01*
X154561761Y-83049115D01*
X154561760Y-83049114D01*
X154363943Y-82865566D01*
X154306405Y-82826337D01*
X154140975Y-82713549D01*
X153897841Y-82596462D01*
X153818297Y-82571926D01*
X153639971Y-82516919D01*
X153373129Y-82476700D01*
X153103271Y-82476700D01*
X152836428Y-82516919D01*
X152578559Y-82596462D01*
X152335428Y-82713547D01*
X152112457Y-82865566D01*
X151914639Y-83049115D01*
X151746384Y-83260099D01*
X151611457Y-83493801D01*
X151512866Y-83745004D01*
X151452816Y-84008099D01*
X151432650Y-84277199D01*
X151026742Y-84277199D01*
X151010383Y-84058897D01*
X150950334Y-83795805D01*
X150851743Y-83544602D01*
X150716815Y-83310898D01*
X150548561Y-83099915D01*
X150543011Y-83094765D01*
X150419359Y-82980033D01*
X150390965Y-82940774D01*
X150379783Y-82893631D01*
X150387518Y-82845803D01*
X150428175Y-82736801D01*
X150485961Y-82471160D01*
X150505355Y-82200000D01*
X150485961Y-81928840D01*
X150428175Y-81663199D01*
X150367304Y-81499999D01*
X159594644Y-81499999D01*
X159614039Y-81771161D01*
X159671823Y-82036796D01*
X159671825Y-82036801D01*
X159766828Y-82291513D01*
X159766830Y-82291517D01*
X159766831Y-82291519D01*
X159897109Y-82530108D01*
X159897113Y-82530113D01*
X160060029Y-82747742D01*
X160252258Y-82939971D01*
X160459038Y-83094766D01*
X160500909Y-83150699D01*
X160505893Y-83220390D01*
X160472409Y-83281713D01*
X160315738Y-83438384D01*
X160185265Y-83624719D01*
X160089133Y-83830873D01*
X160036528Y-84027199D01*
X160036528Y-84027200D01*
X162594272Y-84027200D01*
X162594271Y-84027199D01*
X162541666Y-83830873D01*
X162445534Y-83624719D01*
X162315058Y-83438380D01*
X162291139Y-83414461D01*
X162261166Y-83365939D01*
X162256082Y-83309133D01*
X162276964Y-83256060D01*
X162319394Y-83217948D01*
X162530108Y-83102890D01*
X162530109Y-83102889D01*
X162530113Y-83102887D01*
X162747742Y-82939971D01*
X162750894Y-82936818D01*
X162791122Y-82909939D01*
X162838575Y-82900500D01*
X165061425Y-82900500D01*
X165108878Y-82909939D01*
X165149106Y-82936819D01*
X165152258Y-82939971D01*
X165369887Y-83102887D01*
X165544307Y-83198127D01*
X165589723Y-83240748D01*
X165608688Y-83300075D01*
X165596416Y-83361139D01*
X165556003Y-83408532D01*
X165524527Y-83430571D01*
X165524526Y-83430573D01*
X166250000Y-84156046D01*
X166250001Y-84156046D01*
X166975472Y-83430574D01*
X166973799Y-83411453D01*
X166980693Y-83358543D01*
X167009183Y-83313429D01*
X167053989Y-83284465D01*
X167191513Y-83233172D01*
X167430113Y-83102887D01*
X167647742Y-82939971D01*
X167839971Y-82747742D01*
X168002887Y-82530113D01*
X168010092Y-82516919D01*
X168038266Y-82465319D01*
X168133172Y-82291513D01*
X168228175Y-82036801D01*
X168285961Y-81771160D01*
X168305355Y-81500000D01*
X168285961Y-81228840D01*
X168228175Y-80963199D01*
X168133172Y-80708487D01*
X168109864Y-80665802D01*
X168002890Y-80469891D01*
X167843028Y-80256342D01*
X167839971Y-80252258D01*
X167647742Y-80060029D01*
X167430113Y-79897113D01*
X167430114Y-79897113D01*
X167430108Y-79897109D01*
X167191519Y-79766831D01*
X167191517Y-79766830D01*
X167191513Y-79766828D01*
X166936801Y-79671825D01*
X166936796Y-79671823D01*
X166671161Y-79614039D01*
X166400000Y-79594644D01*
X166128838Y-79614039D01*
X165863203Y-79671823D01*
X165718956Y-79725624D01*
X165608487Y-79766828D01*
X165608484Y-79766829D01*
X165608480Y-79766831D01*
X165369891Y-79897109D01*
X165152255Y-80060031D01*
X165149106Y-80063181D01*
X165108878Y-80090061D01*
X165061425Y-80099500D01*
X162838575Y-80099500D01*
X162791122Y-80090061D01*
X162750894Y-80063181D01*
X162747744Y-80060031D01*
X162747744Y-80060030D01*
X162747742Y-80060029D01*
X162530113Y-79897113D01*
X162530114Y-79897113D01*
X162530108Y-79897109D01*
X162291519Y-79766831D01*
X162291517Y-79766830D01*
X162291513Y-79766828D01*
X162036801Y-79671825D01*
X162036796Y-79671823D01*
X161771161Y-79614039D01*
X161500000Y-79594644D01*
X161228838Y-79614039D01*
X160963203Y-79671823D01*
X160818956Y-79725624D01*
X160708487Y-79766828D01*
X160708484Y-79766829D01*
X160708480Y-79766831D01*
X160469891Y-79897109D01*
X160252255Y-80060031D01*
X160060031Y-80252255D01*
X159897109Y-80469891D01*
X159766831Y-80708480D01*
X159671823Y-80963203D01*
X159614039Y-81228838D01*
X159594644Y-81499999D01*
X150367304Y-81499999D01*
X150333172Y-81408487D01*
X150215817Y-81193567D01*
X150201031Y-81143868D01*
X150186813Y-80963203D01*
X150185684Y-80948852D01*
X150126873Y-80703889D01*
X150030466Y-80471141D01*
X149898836Y-80256341D01*
X149776189Y-80112740D01*
X149735224Y-80064776D01*
X149690959Y-80026970D01*
X149683811Y-80020362D01*
X146935925Y-77272476D01*
X146907424Y-77228128D01*
X146899922Y-77175952D01*
X146905355Y-77100000D01*
X146885961Y-76828840D01*
X146828948Y-76566752D01*
X146828948Y-76514036D01*
X146850847Y-76466083D01*
X146890687Y-76431562D01*
X147078893Y-76328794D01*
X147078892Y-76328794D01*
X147078895Y-76328793D01*
X147306830Y-76158163D01*
X147508163Y-75956830D01*
X147678793Y-75728895D01*
X147695645Y-75698033D01*
X149009500Y-75698033D01*
X149020114Y-75817417D01*
X149076091Y-76013050D01*
X149151892Y-76158163D01*
X149170302Y-76193407D01*
X149298891Y-76351109D01*
X149456593Y-76479698D01*
X149636951Y-76573909D01*
X149832582Y-76629886D01*
X149951963Y-76640500D01*
X152048036Y-76640499D01*
X152167418Y-76629886D01*
X152363049Y-76573909D01*
X152543407Y-76479698D01*
X152701109Y-76351109D01*
X152829698Y-76193407D01*
X152923909Y-76013049D01*
X152979886Y-75817418D01*
X152990500Y-75698037D01*
X152990500Y-74721099D01*
X154009500Y-74721099D01*
X154024727Y-74934002D01*
X154085248Y-75212216D01*
X154085250Y-75212221D01*
X154184752Y-75478996D01*
X154184754Y-75478999D01*
X154321205Y-75728893D01*
X154387474Y-75817417D01*
X154491837Y-75956830D01*
X154693170Y-76158163D01*
X154864121Y-76286135D01*
X154921106Y-76328794D01*
X155010444Y-76377575D01*
X155171004Y-76465248D01*
X155437779Y-76564750D01*
X155437782Y-76564750D01*
X155437783Y-76564751D01*
X155446982Y-76566752D01*
X155715999Y-76625273D01*
X156000000Y-76645585D01*
X156284001Y-76625273D01*
X156562221Y-76564750D01*
X156828996Y-76465248D01*
X157078895Y-76328793D01*
X157306830Y-76158163D01*
X157508163Y-75956830D01*
X157678793Y-75728895D01*
X157815248Y-75478996D01*
X157914750Y-75212221D01*
X157975273Y-74934001D01*
X157990500Y-74721098D01*
X157990500Y-74696647D01*
X164074526Y-74696647D01*
X164147515Y-74747754D01*
X164353673Y-74843887D01*
X164573397Y-74902762D01*
X164800000Y-74922587D01*
X165026602Y-74902762D01*
X165246326Y-74843887D01*
X165452480Y-74747755D01*
X165525472Y-74696646D01*
X164800001Y-73971174D01*
X164800000Y-73971174D01*
X164074526Y-74696646D01*
X164074526Y-74696647D01*
X157990500Y-74696647D01*
X157990500Y-72598902D01*
X157975273Y-72385999D01*
X157914750Y-72107779D01*
X157865470Y-71975654D01*
X162999500Y-71975654D01*
X163008966Y-72082129D01*
X163010114Y-72095039D01*
X163013761Y-72107783D01*
X163066091Y-72290671D01*
X163160301Y-72471027D01*
X163160302Y-72471028D01*
X163288891Y-72628730D01*
X163446593Y-72757319D01*
X163594019Y-72834328D01*
X163598993Y-72836926D01*
X163645245Y-72878793D01*
X163665257Y-72937883D01*
X163653963Y-72999239D01*
X163573734Y-73171291D01*
X163514858Y-73391018D01*
X163495033Y-73617621D01*
X163514858Y-73844223D01*
X163573733Y-74063947D01*
X163669866Y-74270105D01*
X163720972Y-74343092D01*
X163720973Y-74343093D01*
X164712318Y-73351748D01*
X164767905Y-73319654D01*
X164832093Y-73319654D01*
X164887680Y-73351748D01*
X165879025Y-74343093D01*
X165930134Y-74270101D01*
X166026266Y-74063947D01*
X166085141Y-73844223D01*
X166104966Y-73617621D01*
X166085141Y-73391018D01*
X166026266Y-73171294D01*
X165946035Y-72999240D01*
X165934741Y-72937884D01*
X165954753Y-72878793D01*
X166001004Y-72836927D01*
X166153407Y-72757319D01*
X166311109Y-72628730D01*
X166439698Y-72471028D01*
X166533909Y-72290670D01*
X166589886Y-72095039D01*
X166600500Y-71975658D01*
X166600499Y-70259585D01*
X166589886Y-70140203D01*
X166533909Y-69944572D01*
X166439698Y-69764214D01*
X166311109Y-69606512D01*
X166153407Y-69477923D01*
X166153406Y-69477922D01*
X165973050Y-69383712D01*
X165875233Y-69355723D01*
X165777418Y-69327735D01*
X165658037Y-69317121D01*
X165658033Y-69317121D01*
X163941966Y-69317121D01*
X163822582Y-69327735D01*
X163626949Y-69383712D01*
X163446593Y-69477922D01*
X163288891Y-69606512D01*
X163160301Y-69764214D01*
X163066091Y-69944570D01*
X163010114Y-70140203D01*
X162999500Y-70259587D01*
X162999500Y-71975654D01*
X157865470Y-71975654D01*
X157815248Y-71841004D01*
X157727575Y-71680444D01*
X157678794Y-71591106D01*
X157636135Y-71534121D01*
X157508163Y-71363170D01*
X157306830Y-71161837D01*
X157192862Y-71076521D01*
X157078893Y-70991205D01*
X156900216Y-70893641D01*
X156828996Y-70854752D01*
X156562221Y-70755250D01*
X156562216Y-70755248D01*
X156284002Y-70694727D01*
X156000000Y-70674414D01*
X155715997Y-70694727D01*
X155437783Y-70755248D01*
X155304391Y-70805000D01*
X155171004Y-70854752D01*
X155171001Y-70854753D01*
X155171000Y-70854754D01*
X154921106Y-70991205D01*
X154693167Y-71161839D01*
X154491839Y-71363167D01*
X154321205Y-71591106D01*
X154184754Y-71841000D01*
X154184752Y-71841004D01*
X154135001Y-71974391D01*
X154085248Y-72107783D01*
X154024727Y-72385997D01*
X154009500Y-72598901D01*
X154009500Y-74721099D01*
X152990500Y-74721099D01*
X152990499Y-71621964D01*
X152979886Y-71502582D01*
X152923909Y-71306951D01*
X152829698Y-71126593D01*
X152701109Y-70968891D01*
X152543407Y-70840302D01*
X152543406Y-70840301D01*
X152363050Y-70746091D01*
X152265233Y-70718102D01*
X152167418Y-70690114D01*
X152048037Y-70679500D01*
X152048033Y-70679500D01*
X149951966Y-70679500D01*
X149832582Y-70690114D01*
X149636949Y-70746091D01*
X149456593Y-70840301D01*
X149298891Y-70968891D01*
X149170301Y-71126593D01*
X149076091Y-71306949D01*
X149020114Y-71502581D01*
X149020114Y-71502582D01*
X149012244Y-71591106D01*
X149009500Y-71621966D01*
X149009500Y-75698033D01*
X147695645Y-75698033D01*
X147815248Y-75478996D01*
X147914750Y-75212221D01*
X147975273Y-74934001D01*
X147990500Y-74721098D01*
X147990500Y-72598902D01*
X147975273Y-72385999D01*
X147914750Y-72107779D01*
X147815248Y-71841004D01*
X147727575Y-71680444D01*
X147678794Y-71591106D01*
X147636135Y-71534121D01*
X147508163Y-71363170D01*
X147306830Y-71161837D01*
X147192862Y-71076521D01*
X147078893Y-70991205D01*
X146900216Y-70893641D01*
X146828996Y-70854752D01*
X146562221Y-70755250D01*
X146562216Y-70755248D01*
X146284002Y-70694727D01*
X146000000Y-70674414D01*
X145715997Y-70694727D01*
X145437783Y-70755248D01*
X145304391Y-70805000D01*
X145171004Y-70854752D01*
X145171001Y-70854753D01*
X145171000Y-70854754D01*
X144921106Y-70991205D01*
X144693167Y-71161839D01*
X144491839Y-71363167D01*
X144321205Y-71591106D01*
X144184754Y-71841000D01*
X144184752Y-71841004D01*
X144135001Y-71974391D01*
X144085248Y-72107783D01*
X144024727Y-72385997D01*
X144009500Y-72598901D01*
X144009500Y-74721099D01*
X144024727Y-74934002D01*
X144085249Y-75212219D01*
X144116461Y-75295902D01*
X144123402Y-75353956D01*
X144102970Y-75408738D01*
X144059707Y-75448067D01*
X143969886Y-75497113D01*
X143752255Y-75660031D01*
X143560031Y-75852255D01*
X143397109Y-76069891D01*
X143266831Y-76308480D01*
X143266829Y-76308484D01*
X143266828Y-76308487D01*
X143259254Y-76328794D01*
X143171823Y-76563203D01*
X143114039Y-76828838D01*
X143094644Y-77099999D01*
X116500500Y-77099999D01*
X116500500Y-75698033D01*
X119009500Y-75698033D01*
X119020114Y-75817417D01*
X119076091Y-76013050D01*
X119151892Y-76158163D01*
X119170302Y-76193407D01*
X119298891Y-76351109D01*
X119456593Y-76479698D01*
X119636951Y-76573909D01*
X119832582Y-76629886D01*
X119951963Y-76640500D01*
X122048036Y-76640499D01*
X122167418Y-76629886D01*
X122363049Y-76573909D01*
X122543407Y-76479698D01*
X122701109Y-76351109D01*
X122829698Y-76193407D01*
X122923909Y-76013049D01*
X122979886Y-75817418D01*
X122990500Y-75698037D01*
X122990500Y-74721099D01*
X124009500Y-74721099D01*
X124024727Y-74934002D01*
X124085248Y-75212216D01*
X124085250Y-75212221D01*
X124184752Y-75478996D01*
X124184754Y-75478999D01*
X124321205Y-75728893D01*
X124387474Y-75817417D01*
X124491837Y-75956830D01*
X124693170Y-76158163D01*
X124864121Y-76286135D01*
X124921106Y-76328794D01*
X125010444Y-76377575D01*
X125171004Y-76465248D01*
X125437779Y-76564750D01*
X125437782Y-76564750D01*
X125437783Y-76564751D01*
X125446982Y-76566752D01*
X125715999Y-76625273D01*
X126000000Y-76645585D01*
X126284001Y-76625273D01*
X126562221Y-76564750D01*
X126828996Y-76465248D01*
X127078895Y-76328793D01*
X127306830Y-76158163D01*
X127508163Y-75956830D01*
X127678793Y-75728895D01*
X127695645Y-75698033D01*
X129009500Y-75698033D01*
X129020114Y-75817417D01*
X129076091Y-76013050D01*
X129151892Y-76158163D01*
X129170302Y-76193407D01*
X129298891Y-76351109D01*
X129456593Y-76479698D01*
X129636951Y-76573909D01*
X129832582Y-76629886D01*
X129951963Y-76640500D01*
X132048036Y-76640499D01*
X132167418Y-76629886D01*
X132363049Y-76573909D01*
X132543407Y-76479698D01*
X132701109Y-76351109D01*
X132829698Y-76193407D01*
X132923909Y-76013049D01*
X132979886Y-75817418D01*
X132990500Y-75698037D01*
X132990500Y-74721099D01*
X134009500Y-74721099D01*
X134024727Y-74934002D01*
X134085248Y-75212216D01*
X134085250Y-75212221D01*
X134184752Y-75478996D01*
X134184754Y-75478999D01*
X134321205Y-75728893D01*
X134387474Y-75817417D01*
X134491837Y-75956830D01*
X134693170Y-76158163D01*
X134864121Y-76286135D01*
X134921106Y-76328794D01*
X135010444Y-76377575D01*
X135171004Y-76465248D01*
X135437779Y-76564750D01*
X135437782Y-76564750D01*
X135437783Y-76564751D01*
X135446982Y-76566752D01*
X135715999Y-76625273D01*
X136000000Y-76645585D01*
X136284001Y-76625273D01*
X136562221Y-76564750D01*
X136828996Y-76465248D01*
X137078895Y-76328793D01*
X137306830Y-76158163D01*
X137508163Y-75956830D01*
X137678793Y-75728895D01*
X137695645Y-75698033D01*
X139009500Y-75698033D01*
X139020114Y-75817417D01*
X139076091Y-76013050D01*
X139151892Y-76158163D01*
X139170302Y-76193407D01*
X139298891Y-76351109D01*
X139456593Y-76479698D01*
X139636951Y-76573909D01*
X139832582Y-76629886D01*
X139951963Y-76640500D01*
X142048036Y-76640499D01*
X142167418Y-76629886D01*
X142363049Y-76573909D01*
X142543407Y-76479698D01*
X142701109Y-76351109D01*
X142829698Y-76193407D01*
X142923909Y-76013049D01*
X142979886Y-75817418D01*
X142990500Y-75698037D01*
X142990499Y-71621964D01*
X142979886Y-71502582D01*
X142923909Y-71306951D01*
X142829698Y-71126593D01*
X142701109Y-70968891D01*
X142543407Y-70840302D01*
X142543406Y-70840301D01*
X142363050Y-70746091D01*
X142265233Y-70718102D01*
X142167418Y-70690114D01*
X142048037Y-70679500D01*
X142048033Y-70679500D01*
X139951966Y-70679500D01*
X139832582Y-70690114D01*
X139636949Y-70746091D01*
X139456593Y-70840301D01*
X139298891Y-70968891D01*
X139170301Y-71126593D01*
X139076091Y-71306949D01*
X139020114Y-71502581D01*
X139020114Y-71502582D01*
X139012244Y-71591106D01*
X139009500Y-71621966D01*
X139009500Y-75698033D01*
X137695645Y-75698033D01*
X137815248Y-75478996D01*
X137914750Y-75212221D01*
X137975273Y-74934001D01*
X137990500Y-74721098D01*
X137990500Y-72598902D01*
X137975273Y-72385999D01*
X137914750Y-72107779D01*
X137815248Y-71841004D01*
X137727575Y-71680444D01*
X137678794Y-71591106D01*
X137636135Y-71534121D01*
X137508163Y-71363170D01*
X137306830Y-71161837D01*
X137192862Y-71076521D01*
X137078893Y-70991205D01*
X136900216Y-70893641D01*
X136828996Y-70854752D01*
X136562221Y-70755250D01*
X136562216Y-70755248D01*
X136284002Y-70694727D01*
X136000000Y-70674414D01*
X135715997Y-70694727D01*
X135437783Y-70755248D01*
X135304391Y-70805000D01*
X135171004Y-70854752D01*
X135171001Y-70854753D01*
X135171000Y-70854754D01*
X134921106Y-70991205D01*
X134693167Y-71161839D01*
X134491839Y-71363167D01*
X134321205Y-71591106D01*
X134184754Y-71841000D01*
X134184752Y-71841004D01*
X134135001Y-71974391D01*
X134085248Y-72107783D01*
X134024727Y-72385997D01*
X134009500Y-72598901D01*
X134009500Y-74721099D01*
X132990500Y-74721099D01*
X132990499Y-71621964D01*
X132979886Y-71502582D01*
X132923909Y-71306951D01*
X132829698Y-71126593D01*
X132701109Y-70968891D01*
X132543407Y-70840302D01*
X132543406Y-70840301D01*
X132363050Y-70746091D01*
X132265233Y-70718102D01*
X132167418Y-70690114D01*
X132048037Y-70679500D01*
X132048033Y-70679500D01*
X129951966Y-70679500D01*
X129832582Y-70690114D01*
X129636949Y-70746091D01*
X129456593Y-70840301D01*
X129298891Y-70968891D01*
X129170301Y-71126593D01*
X129076091Y-71306949D01*
X129020114Y-71502581D01*
X129020114Y-71502582D01*
X129012244Y-71591106D01*
X129009500Y-71621966D01*
X129009500Y-75698033D01*
X127695645Y-75698033D01*
X127815248Y-75478996D01*
X127914750Y-75212221D01*
X127975273Y-74934001D01*
X127990500Y-74721098D01*
X127990500Y-72598902D01*
X127975273Y-72385999D01*
X127914750Y-72107779D01*
X127815248Y-71841004D01*
X127727575Y-71680444D01*
X127678794Y-71591106D01*
X127636135Y-71534121D01*
X127508163Y-71363170D01*
X127306830Y-71161837D01*
X127192862Y-71076521D01*
X127078893Y-70991205D01*
X126900216Y-70893641D01*
X126828996Y-70854752D01*
X126562221Y-70755250D01*
X126562216Y-70755248D01*
X126284002Y-70694727D01*
X126000000Y-70674414D01*
X125715997Y-70694727D01*
X125437783Y-70755248D01*
X125304391Y-70805000D01*
X125171004Y-70854752D01*
X125171001Y-70854753D01*
X125171000Y-70854754D01*
X124921106Y-70991205D01*
X124693167Y-71161839D01*
X124491839Y-71363167D01*
X124321205Y-71591106D01*
X124184754Y-71841000D01*
X124184752Y-71841004D01*
X124135001Y-71974391D01*
X124085248Y-72107783D01*
X124024727Y-72385997D01*
X124009500Y-72598901D01*
X124009500Y-74721099D01*
X122990500Y-74721099D01*
X122990499Y-71621964D01*
X122979886Y-71502582D01*
X122923909Y-71306951D01*
X122829698Y-71126593D01*
X122701109Y-70968891D01*
X122543407Y-70840302D01*
X122543406Y-70840301D01*
X122363050Y-70746091D01*
X122265233Y-70718102D01*
X122167418Y-70690114D01*
X122048037Y-70679500D01*
X122048033Y-70679500D01*
X119951966Y-70679500D01*
X119832582Y-70690114D01*
X119636949Y-70746091D01*
X119456593Y-70840301D01*
X119298891Y-70968891D01*
X119170301Y-71126593D01*
X119076091Y-71306949D01*
X119020114Y-71502581D01*
X119020114Y-71502582D01*
X119012244Y-71591106D01*
X119009500Y-71621966D01*
X119009500Y-75698033D01*
X116500500Y-75698033D01*
X116500500Y-67003751D01*
X116500726Y-66996264D01*
X116518271Y-66706205D01*
X116520076Y-66691340D01*
X116571780Y-66409201D01*
X116575364Y-66394663D01*
X116652096Y-66148422D01*
X116660696Y-66120822D01*
X116665998Y-66106841D01*
X116783731Y-65845249D01*
X116790676Y-65832016D01*
X116939080Y-65586526D01*
X116947567Y-65574230D01*
X117124480Y-65348417D01*
X117134395Y-65337226D01*
X117337226Y-65134395D01*
X117348417Y-65124480D01*
X117574230Y-64947567D01*
X117586526Y-64939080D01*
X117832016Y-64790676D01*
X117845249Y-64783731D01*
X118106841Y-64665998D01*
X118120822Y-64660696D01*
X118394668Y-64575362D01*
X118409197Y-64571780D01*
X118691344Y-64520075D01*
X118706201Y-64518271D01*
X118996263Y-64500726D01*
X119003751Y-64500500D01*
X119065892Y-64500500D01*
X168934108Y-64500500D01*
X168996249Y-64500500D01*
X169003736Y-64500726D01*
G37*
%TD.AperFunction*%
%TD*%
M02*
